<svg width="94" height="94" viewBox="0 0 94 94" fill="none" xmlns="http://www.w3.org/2000/svg">
<g clip-path="url(#clip0)">
<path fill-rule="evenodd" clip-rule="evenodd" d="M42.0295 58.5291C43.9244 58.5291 44.8815 58.1339 45.7689 57.696C46.1525 57.5061 46.3269 57.4209 46.7221 57.3937C47.1174 57.4209 47.2918 57.5061 47.6754 57.696C48.5666 58.1339 49.5199 58.5291 51.4148 58.5291C62.1834 58.5291 69.976 43.7537 69.9683 33.7989C69.9683 24.2082 65.4926 17.4851 58.6145 16.1792C60.7923 13.6217 62.226 10.2892 62.226 6.21661C62.226 5.14711 61.358 4.27911 60.2885 4.27911C55.3905 4.27911 50.4111 6.70099 47.4623 10.9906C46.695 8.70436 45.6333 7.00324 44.4863 5.18586C43.9166 4.27911 42.7193 4.01174 41.8164 4.58136C40.9096 5.15099 40.6423 6.34836 41.2119 7.25124C43.0719 10.1962 44.4591 12.4399 44.7304 17.799C44.3623 17.6672 43.998 17.5394 43.5911 17.3805C41.9249 16.7217 39.8479 15.9041 37.2981 15.9041C29.0289 15.9041 23.4683 23.0961 23.4683 33.7989C23.4683 43.7537 31.2648 58.5291 42.0295 58.5291ZM52.0813 16.5822C55.0921 15.0942 57.5373 12.312 58.1844 8.34011C53.8134 9.11899 49.702 12.3159 48.8301 17.6517C49.1208 17.6014 49.3998 17.5122 49.6865 17.4386C49.7408 17.4154 49.7873 17.4037 49.8415 17.3805C50.5158 17.117 51.2714 16.8341 52.0813 16.5822ZM42.1806 20.9881C40.6771 20.3952 39.1233 19.783 37.3098 19.783C31.3539 19.783 27.3549 25.4172 27.3549 33.8027C27.3549 42.9981 34.2679 54.658 42.0411 54.658C43.1843 54.658 43.5563 54.4759 44.0639 54.224L44.0743 54.2189C44.6002 53.9597 45.3076 53.6112 46.4625 53.5304C46.5594 53.5149 46.6601 53.5071 46.7725 53.5187C48.0668 53.5652 48.834 53.945 49.3959 54.224C49.9035 54.4759 50.2755 54.658 51.4186 54.658C59.188 54.658 66.1049 42.9942 66.1049 33.8027C66.1049 25.4172 62.102 19.783 56.15 19.783C54.9798 19.783 53.9219 20.0465 52.9144 20.3875C52.4455 20.589 51.9728 20.7517 51.4923 20.9067C51.4225 20.9339 51.3489 20.961 51.2791 20.9881C49.8493 21.5539 48.3729 22.1312 46.7686 22.1312H46.6911C45.0897 22.1312 43.6156 21.552 42.1881 20.991L42.1806 20.9881Z" fill="#153536"/>
<g clip-path="url(#clip1)">
<path fill-rule="evenodd" clip-rule="evenodd" d="M92.703 90.1644C92.8076 90.2767 92.8851 90.4085 92.9587 90.5441C92.9716 90.5652 92.9852 90.5857 92.9988 90.606C93.0301 90.6528 93.0611 90.6993 93.0827 90.7534C93.1718 90.9742 93.2261 91.2145 93.2261 91.4664C93.2261 92.5359 92.3581 93.4039 91.2886 93.4039H9.91357C4.57382 93.4039 0.226074 89.0561 0.226074 83.7164V75.9664C0.226074 70.6266 4.57382 66.2789 9.91357 66.2789H91.2886C92.3581 66.2789 93.2261 67.1469 93.2261 68.2164C93.2261 68.4682 93.1718 68.7085 93.0827 68.9294C93.0637 68.9744 93.039 69.0122 93.0138 69.0507C92.9977 69.0751 92.9815 69.0999 92.9664 69.127C92.8889 69.2665 92.8114 69.4021 92.703 69.5184C92.6603 69.5664 92.6121 69.6033 92.5635 69.6407C92.5415 69.6576 92.5193 69.6746 92.4976 69.6927C92.3852 69.7857 92.2728 69.8671 92.1411 69.933C92.058 69.9763 91.9749 70.0029 91.8855 70.0314L91.866 70.0376C91.8355 70.0472 91.8063 70.0602 91.7771 70.0732C91.7358 70.0915 91.6944 70.1099 91.6489 70.119C90.7422 71.0877 89.3511 75.8966 89.3511 79.8414C89.3511 83.7861 90.7422 88.595 91.6489 89.5637C91.6944 89.5728 91.7358 89.5912 91.7771 89.6096C91.8063 89.6225 91.8355 89.6355 91.866 89.6451C91.959 89.6761 92.0519 89.7071 92.1411 89.7497C92.269 89.8156 92.3813 89.897 92.4898 89.9861C92.5086 90.001 92.5277 90.0153 92.5467 90.0296C92.6021 90.0713 92.6568 90.1125 92.703 90.1644ZM85.5884 77.9039H9.91357C8.84407 77.9039 7.97607 77.0359 7.97607 75.9664C7.97607 74.8969 8.84407 74.0289 9.91357 74.0289H86.1581C86.4254 72.7075 86.7897 71.359 87.2741 70.1539H9.91357C6.70895 70.1539 4.10107 72.7617 4.10107 75.9664V83.7164C4.10107 86.921 6.70895 89.5289 9.91357 89.5289H87.278C86.7936 88.3237 86.4293 86.9752 86.1619 85.6539H9.91357C8.84407 85.6539 7.97607 84.7859 7.97607 83.7164C7.97607 82.6469 8.84407 81.7789 9.91357 81.7789H85.5884C85.5109 80.9264 85.4761 80.2366 85.4761 79.8414C85.4761 79.4461 85.5109 78.7564 85.5884 77.9039Z" fill="#292929"/>
</g>
</g>
<defs>
<clipPath id="clip0">
<rect width="134.783" height="134.783" fill="white" transform="translate(0.226074 0.404297) scale(0.69)"/>
</clipPath>
<clipPath id="clip1">
<rect width="134.783" height="134.783" fill="white" transform="translate(0.226074 4.27905) scale(0.69)"/>
</clipPath>
</defs>
</svg>
