<svg width="97" height="97" viewBox="0 0 97 97" fill="none" xmlns="http://www.w3.org/2000/svg">
<g clip-path="url(#clip0)">
<path d="M25.1526 76.556C21.2613 73.1415 17.8216 69.2445 14.9166 64.9595C6.9486 52.187 8.5266 34.7525 18.8526 21.5675C19.1406 21.194 20.3916 19.7675 21.8406 18.1175C26.6241 12.674 29.3406 9.52848 30.7956 7.61748C32.2701 9.55548 35.0301 12.7535 39.9201 18.314C41.2866 19.8695 42.4701 21.2135 42.7521 21.575L45.1101 19.721C44.7906 19.3145 43.8351 18.221 42.1716 16.334C39.4806 13.271 33.2901 6.23148 32.3751 4.67748C32.3159 4.3283 32.1352 4.01132 31.8647 3.78263C31.5943 3.55395 31.2517 3.42832 30.8976 3.42798H30.7026C30.3484 3.4279 30.0056 3.55316 29.7349 3.78158C29.4642 4.00999 29.2831 4.32683 29.2236 4.67598C28.3236 6.19548 22.4586 12.875 19.5876 16.142C17.8251 18.1475 16.8111 19.304 16.4871 19.7225C5.3871 33.893 3.7371 52.709 12.3756 66.5465C15.4139 71.0444 19.0117 75.1377 23.0826 78.728C25.1526 80.696 27.2526 82.7435 29.2026 84.917V93.428H32.2026V85.1255C34.1856 82.8845 36.3651 80.7875 38.4816 78.761C39.2856 77.99 40.0896 77.2205 40.8816 76.4405L38.7816 74.2985C37.9941 75.0695 37.1976 75.8315 36.4011 76.595C35.0046 77.9315 33.5901 79.319 32.2011 80.7485V68.5115L39.8781 60.137L37.6671 58.1105L32.2026 64.0715V52.004L45.3171 37.4315L43.0881 35.4245L32.2026 47.519V36.9275L40.9026 25.328L38.5026 23.528L32.2026 31.928V15.428H29.2026V31.928L22.9026 23.528L20.5026 25.328L29.2026 36.9275V47.519L18.3171 35.4245L16.0881 37.4315L29.2026 52.004V64.0715L15.3081 48.914L13.0971 50.942L29.2026 68.5115V80.5445C27.8601 79.178 26.5026 77.8415 25.1526 76.556Z" fill="#153536"/>
<path d="M82.5591 75.6619C85.0072 71.9097 86.2756 67.5104 86.2011 63.0308C86.1265 58.5512 84.7122 54.1966 82.1406 50.5279L79.6836 52.2514C82.0198 55.5889 83.25 59.5753 83.2011 63.6489C83.1521 67.7225 81.8263 71.6781 79.4106 74.9584C77.6001 77.425 75.2352 79.4314 72.5066 80.8157C69.7781 82.2001 66.7623 82.9236 63.7026 82.9279C59.7859 82.9263 55.9604 81.7452 52.7245 79.5385C49.4886 77.3318 46.9922 74.2018 45.5604 70.5561C44.1287 66.9104 43.8279 62.9181 44.6974 59.0991C45.5669 55.2801 47.5663 51.8115 50.4351 49.1449L48.4026 46.9429C45.0913 50.0189 42.783 54.0208 41.7786 58.4273C40.7741 62.8338 41.1199 67.4407 42.7711 71.6479C44.4222 75.855 47.3021 79.4674 51.0356 82.0145C54.769 84.5616 59.183 85.9253 63.7026 85.9279C68.0494 85.9342 72.3028 84.6676 75.9381 82.2844L85.7121 92.0584C86.1459 92.4942 86.6619 92.8397 87.2301 93.0748C87.7984 93.3099 88.4076 93.4299 89.0226 93.4279C89.6373 93.4285 90.2462 93.3079 90.8142 93.0729C91.3823 92.8379 91.8985 92.4932 92.3331 92.0585C92.7678 91.6238 93.1126 91.1076 93.3475 90.5396C93.5825 89.9715 93.7032 89.3627 93.7026 88.7479C93.7045 88.133 93.5845 87.5237 93.3494 86.9555C93.1144 86.3872 92.7689 85.8713 92.3331 85.4374L82.5591 75.6619ZM90.2091 89.9374C89.8866 90.2394 89.4614 90.4075 89.0196 90.4075C88.5778 90.4075 88.1525 90.2394 87.8301 89.9374L78.3726 80.4769C79.2244 79.7451 80.0197 78.9498 80.7516 78.0979L90.2121 87.5584C90.3684 87.7144 90.4922 87.8999 90.5764 88.1041C90.6606 88.3082 90.7035 88.5271 90.7026 88.7479C90.7021 89.1935 90.5258 89.621 90.2121 89.9374H90.2091Z" fill="#292929"/>
<path d="M51.5931 52.238C48.7674 55.2786 47.1986 59.277 47.2026 63.4279C47.2026 63.7969 47.2176 64.1494 47.2356 64.5334C47.5064 68.8164 49.4352 72.8253 52.6128 75.7097C55.7904 78.5941 59.9667 80.127 64.2558 79.9831C68.5448 79.8393 72.6091 78.0301 75.5863 74.9393C78.5635 71.8485 80.2194 67.7194 80.2027 63.4279C80.2149 59.799 79.0173 56.2696 76.7992 53.3975L74.4217 55.226C76.2351 57.5746 77.2137 60.4607 77.2027 63.4279C77.2186 66.9379 75.8669 70.316 73.4342 72.8462C71.0014 75.3763 67.6789 76.8595 64.171 76.9812C60.6631 77.103 57.2458 75.8537 54.6435 73.4983C52.0412 71.1429 50.4585 67.8665 50.2311 64.3639C50.2161 64.0564 50.2026 63.7489 50.2026 63.4279C50.2104 60.9469 50.8983 58.5155 52.1915 56.3982C53.4848 54.2808 55.3339 52.5587 57.5376 51.419L56.1651 48.752C54.4469 49.6344 52.899 50.8147 51.5931 52.238Z" fill="#1A1A1A"/>
<path d="M56.2027 63.428C56.1982 62.0338 56.5842 60.6662 57.3169 59.4802C58.0497 58.2941 59.0999 57.3369 60.3487 56.717L58.9987 54.035C57.2523 54.9037 55.7838 56.2439 54.7595 57.9039C53.7352 59.5639 53.1959 61.4774 53.2027 63.428H56.2027Z" fill="#1A1A1A"/>
<path d="M69.7027 3.42798C63.9741 3.42406 58.4333 5.47048 54.0825 9.19705C49.7317 12.9236 46.8583 18.0843 45.982 23.7454C45.1058 29.4066 46.2845 35.1944 49.3051 40.062C52.3256 44.9295 56.9885 48.5553 62.4502 50.2835L62.2027 60.392C62.195 60.7055 62.2859 61.0135 62.4624 61.2727C62.6389 61.532 62.8922 61.7293 63.1868 61.8371C63.4813 61.9449 63.8022 61.9576 64.1043 61.8736C64.4065 61.7895 64.6746 61.6129 64.8712 61.3685L73.0657 51.1805C79.0637 50.3125 84.5114 47.2075 88.3146 42.4888C92.1179 37.7702 93.9951 31.7874 93.5693 25.7418C93.1435 19.6963 90.4463 14.0356 86.0193 9.89658C81.5922 5.75757 75.7632 3.44668 69.7027 3.42798ZM72.1027 48.278C71.7102 48.3228 71.3512 48.5206 71.1037 48.8285L65.3062 56.0285L65.4727 49.1945C65.4811 48.8569 65.3754 48.5263 65.1726 48.2562C64.9698 47.9862 64.6818 47.7925 64.3552 47.7065C59.3072 46.3638 54.942 43.1854 52.1144 38.7935C49.2867 34.4015 48.2001 29.1123 49.0673 23.9613C49.9345 18.8103 52.6931 14.1684 56.8029 10.9444C60.9128 7.72044 66.078 6.14652 71.2874 6.53079C76.4967 6.91506 81.3751 9.22985 84.9674 13.022C88.5597 16.8141 90.6073 21.8105 90.7093 27.033C90.8113 32.2555 88.9603 37.3281 85.5188 41.2576C82.0773 45.1871 77.293 47.6906 72.1027 48.278Z" fill="#292929"/>
<path d="M80.2027 18.428C80.198 18.3665 80.1895 18.3054 80.1772 18.245L82.5337 16.6775L80.8717 14.1785L77.7337 16.2665L71.2027 13.001V9.42798H68.2027V13.001L61.6717 16.2665L58.5337 14.1785L56.8717 16.6775L59.2282 18.245C59.216 18.3054 59.2075 18.3665 59.2027 18.428V34.751L55.5322 36.5855L56.8732 39.2705L61.4527 36.98L68.2027 40.355V43.928H71.2027V40.355L77.9527 36.98L82.5322 39.278L83.8732 36.593L80.2027 34.751V18.428ZM77.2027 34.001L69.7027 37.751L62.2027 34.001V19.3565L69.7027 15.6065L77.2027 19.3565V34.001Z" fill="#292929"/>
<path d="M74.2027 30.428H71.2026V33.428H74.2027V30.428Z" fill="#1A1A1A"/>
<path d="M56.2027 28.928H53.2026V31.928H56.2027V28.928Z" fill="#1A1A1A"/>
<path d="M56.2027 21.428H53.2026V24.428H56.2027V21.428Z" fill="#1A1A1A"/>
<path d="M68.2026 19.928H65.2026V22.928H68.2026V19.928Z" fill="#1A1A1A"/>
<path d="M68.2026 27.428H71.2026V24.428H74.2027V21.428H71.2026V24.428H68.2026V27.428Z" fill="#1A1A1A"/>
<path d="M68.2026 30.428H65.2026V33.428H68.2026V30.428Z" fill="#1A1A1A"/>
<path d="M86.0151 22.553H83.0151V25.553H86.0151V22.553Z" fill="#1A1A1A"/>
<path d="M77.2026 40.928H74.2026V43.928H77.2026V40.928Z" fill="#1A1A1A"/>
<path d="M63.7026 40.928H60.7026V43.928H63.7026V40.928Z" fill="#1A1A1A"/>
</g>
<defs>
<clipPath id="clip0">
<rect width="139.13" height="139.13" fill="white" transform="translate(0.702637 0.427979) scale(0.69)"/>
</clipPath>
</defs>
</svg>
