<svg width="353" height="111" viewBox="0 0 353 111" fill="none" xmlns="http://www.w3.org/2000/svg">
<g clip-path="url(#clip0)">
<path d="M25.1526 82.556C21.2613 79.1415 17.8216 75.2445 14.9166 70.9595C6.9486 58.187 8.5266 40.7525 18.8526 27.5675C19.1406 27.194 20.3916 25.7675 21.8406 24.1175C26.6241 18.674 29.3406 15.5285 30.7956 13.6175C32.2701 15.5555 35.0301 18.7535 39.9201 24.314C41.2866 25.8695 42.4701 27.2135 42.7521 27.575L45.1101 25.721C44.7906 25.3145 43.8351 24.221 42.1716 22.334C39.4806 19.271 33.2901 12.2315 32.3751 10.6775C32.3159 10.3283 32.1352 10.0113 31.8647 9.78263C31.5943 9.55395 31.2517 9.42832 30.8976 9.42798H30.7026C30.3484 9.4279 30.0056 9.55316 29.7349 9.78158C29.4642 10.01 29.2831 10.3268 29.2236 10.676C28.3236 12.1955 22.4586 18.875 19.5876 22.142C17.8251 24.1475 16.8111 25.304 16.4871 25.7225C5.3871 39.893 3.7371 58.709 12.3756 72.5465C15.4139 77.0444 19.0117 81.1377 23.0826 84.728C25.1526 86.696 27.2526 88.7435 29.2026 90.917V99.428H32.2026V91.1255C34.1856 88.8845 36.3651 86.7875 38.4816 84.761C39.2856 83.99 40.0896 83.2205 40.8816 82.4405L38.7816 80.2985C37.9941 81.0695 37.1976 81.8315 36.4011 82.595C35.0046 83.9315 33.5901 85.319 32.2011 86.7485V74.5115L39.8781 66.137L37.6671 64.1105L32.2026 70.0715V58.004L45.3171 43.4315L43.0881 41.4245L32.2026 53.519V42.9275L40.9026 31.328L38.5026 29.528L32.2026 37.928V21.428H29.2026V37.928L22.9026 29.528L20.5026 31.328L29.2026 42.9275V53.519L18.3171 41.4245L16.0881 43.4315L29.2026 58.004V70.0715L15.3081 54.914L13.0971 56.942L29.2026 74.5115V86.5445C27.8601 85.178 26.5026 83.8415 25.1526 82.556Z" fill="#153536"/>
<path d="M82.5591 81.6619C85.0072 77.9097 86.2756 73.5104 86.2011 69.0308C86.1265 64.5512 84.7122 60.1966 82.1406 56.5279L79.6836 58.2514C82.0198 61.5889 83.25 65.5753 83.2011 69.6489C83.1521 73.7225 81.8263 77.6781 79.4106 80.9584C77.6001 83.425 75.2352 85.4314 72.5066 86.8157C69.7781 88.2001 66.7623 88.9236 63.7026 88.9279C59.7859 88.9263 55.9604 87.7452 52.7245 85.5385C49.4886 83.3318 46.9922 80.2018 45.5604 76.5561C44.1287 72.9104 43.8279 68.9181 44.6974 65.0991C45.5669 61.2801 47.5663 57.8115 50.4351 55.1449L48.4026 52.9429C45.0913 56.0189 42.783 60.0208 41.7786 64.4273C40.7741 68.8338 41.1199 73.4407 42.7711 77.6479C44.4222 81.855 47.3021 85.4674 51.0356 88.0145C54.769 90.5616 59.183 91.9253 63.7026 91.9279C68.0494 91.9342 72.3028 90.6676 75.9381 88.2844L85.7121 98.0584C86.1459 98.4942 86.6619 98.8397 87.2301 99.0748C87.7984 99.3099 88.4076 99.4299 89.0226 99.4279C89.6373 99.4285 90.2462 99.3079 90.8142 99.0729C91.3823 98.8379 91.8985 98.4932 92.3331 98.0585C92.7678 97.6238 93.1126 97.1076 93.3475 96.5396C93.5825 95.9715 93.7032 95.3627 93.7026 94.7479C93.7045 94.133 93.5845 93.5237 93.3494 92.9555C93.1144 92.3872 92.7689 91.8713 92.3331 91.4374L82.5591 81.6619ZM90.2091 95.9374C89.8866 96.2394 89.4614 96.4075 89.0196 96.4075C88.5778 96.4075 88.1525 96.2394 87.8301 95.9374L78.3726 86.4769C79.2244 85.7451 80.0197 84.9498 80.7516 84.0979L90.2121 93.5584C90.3684 93.7144 90.4922 93.8999 90.5764 94.1041C90.6606 94.3082 90.7035 94.5271 90.7026 94.7479C90.7021 95.1935 90.5258 95.621 90.2121 95.9374H90.2091Z" fill="#292929"/>
<path d="M51.5931 58.238C48.7674 61.2786 47.1986 65.277 47.2026 69.4279C47.2026 69.7969 47.2176 70.1494 47.2356 70.5334C47.5064 74.8164 49.4352 78.8253 52.6128 81.7097C55.7904 84.5941 59.9667 86.127 64.2558 85.9831C68.5448 85.8393 72.6091 84.0301 75.5863 80.9393C78.5635 77.8485 80.2194 73.7194 80.2027 69.4279C80.2149 65.799 79.0173 62.2696 76.7992 59.3975L74.4217 61.226C76.2351 63.5746 77.2137 66.4607 77.2027 69.4279C77.2186 72.9379 75.8669 76.316 73.4342 78.8462C71.0014 81.3763 67.6789 82.8595 64.171 82.9812C60.6631 83.103 57.2458 81.8537 54.6435 79.4983C52.0412 77.1429 50.4585 73.8665 50.2311 70.3639C50.2161 70.0564 50.2026 69.7489 50.2026 69.4279C50.2104 66.9469 50.8983 64.5155 52.1915 62.3982C53.4848 60.2808 55.3339 58.5587 57.5376 57.419L56.1651 54.752C54.4469 55.6344 52.899 56.8147 51.5931 58.238Z" fill="#1A1A1A"/>
<path d="M56.2027 69.428C56.1982 68.0338 56.5842 66.6662 57.3169 65.4802C58.0497 64.2941 59.0999 63.3369 60.3487 62.717L58.9987 60.035C57.2523 60.9037 55.7838 62.2439 54.7595 63.9039C53.7352 65.5639 53.1959 67.4774 53.2027 69.428H56.2027Z" fill="#1A1A1A"/>
<path d="M69.7027 9.42798C63.9741 9.42406 58.4333 11.4705 54.0825 15.1971C49.7317 18.9236 46.8583 24.0843 45.982 29.7454C45.1058 35.4066 46.2845 41.1944 49.3051 46.062C52.3256 50.9295 56.9885 54.5553 62.4502 56.2835L62.2027 66.392C62.195 66.7055 62.2859 67.0135 62.4624 67.2727C62.6389 67.532 62.8922 67.7293 63.1868 67.8371C63.4813 67.9449 63.8022 67.9576 64.1043 67.8736C64.4065 67.7895 64.6746 67.6129 64.8712 67.3685L73.0657 57.1805C79.0637 56.3125 84.5114 53.2075 88.3146 48.4888C92.1179 43.7702 93.9951 37.7874 93.5693 31.7418C93.1435 25.6963 90.4463 20.0356 86.0193 15.8966C81.5922 11.7576 75.7632 9.44668 69.7027 9.42798ZM72.1027 54.278C71.7102 54.3228 71.3512 54.5206 71.1037 54.8285L65.3062 62.0285L65.4727 55.1945C65.4811 54.8569 65.3754 54.5263 65.1726 54.2562C64.9698 53.9862 64.6818 53.7925 64.3552 53.7065C59.3072 52.3638 54.942 49.1854 52.1144 44.7935C49.2867 40.4015 48.2001 35.1123 49.0673 29.9613C49.9345 24.8103 52.6931 20.1684 56.8029 16.9444C60.9128 13.7204 66.078 12.1465 71.2874 12.5308C76.4967 12.9151 81.3751 15.2299 84.9674 19.022C88.5597 22.8141 90.6073 27.8105 90.7093 33.033C90.8113 38.2555 88.9603 43.3281 85.5188 47.2576C82.0773 51.1871 77.293 53.6906 72.1027 54.278Z" fill="#292929"/>
<path d="M80.2027 24.428C80.198 24.3665 80.1895 24.3054 80.1772 24.245L82.5337 22.6775L80.8717 20.1785L77.7337 22.2665L71.2027 19.001V15.428H68.2027V19.001L61.6717 22.2665L58.5337 20.1785L56.8717 22.6775L59.2282 24.245C59.216 24.3054 59.2075 24.3665 59.2027 24.428V40.751L55.5322 42.5855L56.8732 45.2705L61.4527 42.98L68.2027 46.355V49.928H71.2027V46.355L77.9527 42.98L82.5322 45.278L83.8732 42.593L80.2027 40.751V24.428ZM77.2027 40.001L69.7027 43.751L62.2027 40.001V25.3565L69.7027 21.6065L77.2027 25.3565V40.001Z" fill="#292929"/>
<path d="M74.2027 36.428H71.2026V39.428H74.2027V36.428Z" fill="#1A1A1A"/>
<path d="M56.2027 34.928H53.2026V37.928H56.2027V34.928Z" fill="#1A1A1A"/>
<path d="M56.2027 27.428H53.2026V30.428H56.2027V27.428Z" fill="#1A1A1A"/>
<path d="M68.2026 25.928H65.2026V28.928H68.2026V25.928Z" fill="#1A1A1A"/>
<path d="M68.2026 33.428H71.2026V30.428H74.2027V27.428H71.2026V30.428H68.2026V33.428Z" fill="#1A1A1A"/>
<path d="M68.2026 36.428H65.2026V39.428H68.2026V36.428Z" fill="#1A1A1A"/>
<path d="M86.0151 28.553H83.0151V31.553H86.0151V28.553Z" fill="#1A1A1A"/>
<path d="M77.2026 46.928H74.2026V49.928H77.2026V46.928Z" fill="#1A1A1A"/>
<path d="M63.7026 46.928H60.7026V49.928H63.7026V46.928Z" fill="#1A1A1A"/>
</g>
<g clip-path="url(#clip1)">
<path d="M175.841 69.1458C175.762 68.3043 175.532 67.5321 175.31 66.7863C175.192 66.3892 175.073 65.991 174.982 65.5895C174.74 64.5115 174.944 63.3829 175.158 62.1883C175.346 61.14 175.541 60.0565 175.461 58.907C175.396 57.9819 175.235 57.1085 175.079 56.2637C174.812 54.8084 174.559 53.4345 174.843 52.0012C175.33 49.5295 175.326 47.0127 175.322 44.5784C175.319 42.957 175.317 41.2806 175.464 39.668C175.518 39.0839 175.646 38.4855 175.782 37.853C176.088 36.4318 176.435 34.8214 175.874 33.1505C175.334 31.5324 174.704 30.5743 173.892 30.1354C173.005 29.6525 172.101 29.9605 171.506 30.164C171.306 30.2333 171.081 30.3103 170.957 30.3213C170.525 30.3565 170.178 30.3433 169.868 30.3323C168.994 30.2949 168.089 30.2674 166.776 31.22C166.295 31.5676 165.804 31.9042 165.313 32.2397C164.438 32.8392 163.532 33.4585 162.676 34.1537C161.142 35.3967 159.917 36.9499 158.732 38.4514L158.601 38.6175C157.542 39.9595 156.974 41.2267 156.375 42.5698C156.22 42.9141 156.061 43.2705 155.889 43.639C155.572 44.3133 155.185 44.9051 154.811 45.4793C153.99 46.7355 153.14 48.0346 153.053 50.0894C152.986 51.6767 152.914 52.8119 152.532 54.0637L152.463 54.2881C152.014 55.7544 151.505 57.4176 151.936 59.1523C152.066 59.6748 152.25 60.1467 152.427 60.6032C152.694 61.2918 152.925 61.8869 152.92 62.4952C152.905 63.8812 153.018 65.3574 153.915 66.7577C154.339 67.4199 154.856 67.9534 155.357 68.4715C155.541 68.6618 155.726 68.8521 155.903 69.0468C156.226 69.4043 156.458 69.8971 156.705 70.4207C157.132 71.3282 157.616 72.3578 158.725 73.0079C160.226 73.8879 161.634 74.8185 162.909 75.7722L163.447 76.1803C164.267 76.8051 165.115 77.4508 166.067 77.9744C167.857 78.9589 169.472 78.9688 171.184 78.9798C171.195 78.9798 171.207 78.9798 171.217 78.9798C171.991 78.9798 172.624 78.8423 173.15 78.5607C175.972 77.0526 176.173 72.6086 175.841 69.1458ZM172.917 56.6608C173.068 57.4825 173.211 58.258 173.265 59.0599C173.327 59.9377 173.164 60.8419 172.992 61.8C172.748 63.1552 172.497 64.5588 172.835 66.0713C172.936 66.5223 173.068 66.9678 173.2 67.4144C173.402 68.0887 173.591 68.7267 173.651 69.3548C174.017 73.1949 173.443 75.9108 172.115 76.6192C172.114 76.6192 172.114 76.6192 172.112 76.6203C171.91 76.7292 171.634 76.7523 171.197 76.7787C169.65 76.7688 168.427 76.7611 167.127 76.0461C166.319 75.6006 165.571 75.0319 164.78 74.4291L164.228 74.01C162.887 73.0068 161.409 72.03 159.838 71.1082C159.341 70.8178 159.081 70.3019 158.696 69.4824C158.406 68.8664 158.078 68.1701 157.534 67.5695C157.341 67.3561 157.14 67.1471 156.938 66.9392C156.494 66.4805 156.073 66.046 155.769 65.5697C155.213 64.7029 155.109 63.7591 155.121 62.515C155.131 61.4832 154.784 60.5933 154.478 59.8068C154.319 59.3954 154.168 59.0071 154.072 58.6199C153.788 57.4781 154.185 56.1834 154.567 54.9316L154.637 54.7028C155.127 53.088 155.19 51.6096 155.249 50.1807C155.311 48.7309 155.903 47.8256 156.651 46.6805C157.047 46.0733 157.497 45.3858 157.878 44.5718C158.057 44.1901 158.222 43.8238 158.381 43.4663C158.949 42.2002 159.438 41.1057 160.328 39.9782L160.459 39.8121C161.57 38.4052 162.718 36.9488 164.059 35.8609C164.848 35.2229 165.679 34.6542 166.556 34.0525C167.062 33.706 167.569 33.3584 168.067 32.9987C168.627 32.5939 168.916 32.518 169.391 32.518C169.51 32.518 169.641 32.5224 169.788 32.5279C170.147 32.5411 170.59 32.5576 171.14 32.5103C171.534 32.4784 171.897 32.353 172.217 32.2441C172.419 32.1748 172.778 32.0593 172.842 32.067C172.859 32.0769 173.274 32.3167 173.786 33.8468C174.154 34.9468 173.9 36.1326 173.628 37.3888C173.484 38.0576 173.335 38.7495 173.27 39.4678C173.113 41.1827 173.116 42.9097 173.119 44.5806C173.123 47.016 173.127 49.3161 172.681 51.5744C172.32 53.4202 172.623 55.068 172.917 56.6608Z" fill="#292929"/>
<path d="M164.867 58.8157C165.453 59.1193 166.345 59.5307 167.314 59.5901C167.337 59.5912 167.36 59.5923 167.383 59.5923C167.96 59.5923 168.445 59.1435 168.48 58.5605C168.517 57.9533 168.055 57.433 167.449 57.3945C166.896 57.3604 166.288 57.0744 165.879 56.8632C164.509 56.1537 163.373 55.1835 162.678 54.1297C161.704 52.6546 161.243 50.7912 161.411 49.0147C161.615 46.8675 162.345 44.8897 163.417 43.5884C164.449 42.3366 165.971 41.6337 167.494 41.7184C168.096 41.7525 168.619 41.2828 168.652 40.6778C168.682 40.0706 168.217 39.5536 167.611 39.5206C165.402 39.4172 163.193 40.4017 161.721 42.1903C160.375 43.8205 159.464 46.2339 159.222 48.8079C159.005 51.108 159.579 53.429 160.842 55.3419C161.739 56.7026 163.169 57.9368 164.867 58.8157Z" fill="#292929"/>
<path d="M169.933 53.6743C169.406 53.1848 168.809 52.8702 168.282 52.5919C167.857 52.3697 167.458 52.1574 167.153 51.889C166.668 51.4622 166.294 50.9012 166.102 50.3083C165.465 48.3503 166.958 46.1591 167.432 45.5332C167.798 45.0492 167.702 44.3595 167.218 43.9921C166.732 43.6269 166.044 43.7215 165.677 44.2055C164.863 45.2824 163.07 48.0984 164.01 50.9892C164.328 51.9649 164.912 52.846 165.7 53.5401C166.202 53.9812 166.763 54.2771 167.257 54.5367C167.702 54.7721 168.123 54.9932 168.435 55.2836C169.105 55.9073 169.555 56.8258 169.773 58.0127C169.946 58.9686 170.186 60.2776 169.733 61.0322C169.151 61.999 167.86 62.0793 167.447 62.0793C167.441 62.0793 167.434 62.0793 167.428 62.0793C166.297 62.0727 165.114 61.2896 164.106 60.5251C163.187 59.8266 162.28 59.1116 161.375 58.3966C160.865 57.994 160.355 57.5925 159.843 57.1921C158.885 56.4452 158.23 55.4992 158.003 54.5279C157.863 53.935 157.26 53.5731 156.68 53.7084C156.089 53.8481 155.722 54.4399 155.861 55.0306C156.204 56.4892 157.138 57.873 158.491 58.9279C159 59.3228 159.506 59.7232 160.012 60.1225C160.929 60.8463 161.846 61.57 162.778 62.2762C164.073 63.2618 165.638 64.2683 167.416 64.2782C167.43 64.2782 167.441 64.2782 167.454 64.2782C169.265 64.2782 170.821 63.4895 171.618 62.1651C172.501 60.6977 172.161 58.8421 171.936 57.6156C171.632 55.9557 170.957 54.6291 169.933 53.6743Z" fill="#292929"/>
<path d="M166.04 65.6467L165.774 65.5939C163.14 65.0703 160.683 63.8933 158.474 62.0926C158.003 61.7076 157.311 61.7824 156.927 62.251C156.543 62.7229 156.614 63.4159 157.085 63.7987C159.577 65.8282 162.355 67.158 165.347 67.7509L165.617 67.8049C167.015 68.0799 168.461 68.3648 169.476 69.1755C169.939 69.5473 170.009 70.1556 169.986 70.6C169.935 71.5966 169.353 72.7273 168.66 73.1728C168.15 73.5028 168.003 74.1838 168.332 74.6941C168.542 75.0208 168.897 75.1979 169.258 75.1979C169.462 75.1979 169.668 75.1407 169.853 75.023C171.138 74.1936 172.096 72.4215 172.184 70.7132C172.253 69.358 171.78 68.203 170.851 67.4595C169.414 66.3089 167.621 65.9569 166.04 65.6467Z" fill="#292929"/>
<path d="M167.327 70.3117C166.573 70.1324 164.371 69.5219 163.246 68.8553C162.725 68.5429 162.049 68.7167 161.739 69.2392C161.429 69.7617 161.601 70.436 162.123 70.7462C163.767 71.7241 166.697 72.4226 166.821 72.4534C166.907 72.4732 166.992 72.482 167.076 72.482C167.574 72.482 168.025 72.141 168.145 71.635C168.284 71.0443 167.918 70.4514 167.327 70.3117Z" fill="#292929"/>
<path d="M171.457 35.0227C169.956 33.948 167.086 34.7334 165.62 36.1282C165.18 36.5462 165.161 37.2436 165.581 37.6825C165.999 38.1225 166.696 38.1412 167.135 37.7221C168.158 36.7508 169.913 36.5506 170.181 36.8124C170.182 36.8157 170.29 37.0896 169.926 37.8838C169.131 39.6086 169.25 41.3224 169.363 42.979C169.39 43.3739 169.418 43.771 169.433 44.167C169.494 45.9501 169.354 47.1106 168.469 47.3801C167.888 47.5561 167.562 48.1721 167.739 48.7529C167.883 49.227 168.318 49.5317 168.79 49.5317C168.897 49.5317 169.004 49.5163 169.112 49.4833C171.788 48.6682 171.682 45.5772 171.631 44.0922C171.616 43.6709 171.588 43.2485 171.559 42.8283C171.46 41.384 171.365 40.0189 171.925 38.8034C173 36.4615 171.956 35.3791 171.457 35.0227Z" fill="#292929"/>
<path d="M196.677 70.4196C196.924 69.896 197.156 69.4032 197.479 69.0457C197.656 68.8499 197.841 68.6596 198.025 68.4704C198.525 67.9523 199.043 67.4188 199.467 66.7577C200.365 65.3563 200.477 63.8801 200.462 62.4952C200.457 61.8847 200.688 61.2896 200.955 60.601C201.133 60.1445 201.316 59.6726 201.447 59.1523C201.878 57.4209 201.371 55.761 200.922 54.2969L200.852 54.0626C200.47 52.8086 200.395 51.6239 200.33 50.0883C200.244 48.0346 199.394 46.7344 198.574 45.4793C198.199 44.9062 197.813 44.3122 197.496 43.6379C197.321 43.2661 197.16 42.9086 197.005 42.561C196.406 41.2212 195.839 39.9562 194.782 38.6164L194.645 38.4426C193.461 36.9433 192.238 35.3934 190.708 34.1526C189.853 33.4596 188.948 32.8414 188.073 32.243C187.583 31.9053 187.09 31.5698 186.607 31.2189C185.293 30.2685 184.385 30.2949 183.514 30.3323C183.202 30.3422 182.855 30.3565 182.424 30.3213C182.301 30.3103 182.076 30.2333 181.876 30.164C181.277 29.9594 180.376 29.6514 179.49 30.1354C178.681 30.5732 178.051 31.5313 177.508 33.1505C176.948 34.8225 177.294 36.4318 177.6 37.853C177.736 38.4855 177.864 39.0839 177.918 39.668C178.065 41.2806 178.063 42.9548 178.06 44.5762C178.057 47.0116 178.052 49.5295 178.541 52.0012C178.823 53.4334 178.57 54.8062 178.303 56.2604C178.148 57.1074 177.987 57.9819 177.922 58.907C177.843 60.0576 178.037 61.1411 178.225 62.1894C178.438 63.3829 178.642 64.5104 178.4 65.5895C178.31 65.991 178.191 66.3881 178.073 66.7852C177.851 67.5321 177.621 68.3043 177.542 69.1458C177.211 72.6086 177.41 77.0537 180.231 78.5596C180.757 78.8412 181.39 78.9787 182.165 78.9787C182.176 78.9787 182.188 78.9787 182.199 78.9787C183.91 78.9677 185.524 78.9567 187.313 77.9733C188.266 77.4497 189.114 76.804 189.934 76.1792L190.472 75.7722C191.747 74.8174 193.154 73.8868 194.654 73.0079C195.767 72.3556 196.251 71.3271 196.677 70.4196ZM193.545 71.1093C191.973 72.03 190.496 73.0068 189.156 74.0111L188.603 74.4291C187.812 75.0319 187.066 75.5995 186.255 76.0461C184.955 76.7611 183.734 76.7688 182.188 76.7787C181.762 76.793 181.474 76.7292 181.271 76.6203C181.27 76.6192 181.269 76.6192 181.269 76.6192C179.941 75.9097 179.367 73.1949 179.733 69.3548C179.793 68.7267 179.984 68.0887 180.184 67.4122C180.316 66.9678 180.447 66.5212 180.548 66.0713C180.887 64.5599 180.635 63.1574 180.392 61.8011C180.22 60.843 180.056 59.9388 180.119 59.0599C180.174 58.258 180.317 57.4803 180.468 56.6575C180.76 55.0647 181.063 53.4191 180.7 51.5755C180.253 49.315 180.258 47.0149 180.261 44.5795C180.264 42.9086 180.266 41.1816 180.11 39.4689C180.044 38.7517 179.896 38.0598 179.752 37.3899C179.482 36.1337 179.226 34.9479 179.594 33.849C180.109 32.3145 180.522 32.078 180.514 32.078C180.522 32.0769 180.529 32.0758 180.538 32.0758C180.667 32.0758 180.974 32.1814 181.163 32.2452C181.483 32.3552 181.846 32.4795 182.24 32.5114C182.791 32.5587 183.235 32.5411 183.593 32.529C184.339 32.5026 184.617 32.4949 185.315 32.9998C185.814 33.3606 186.321 33.7093 186.829 34.0569C187.706 34.6575 188.535 35.2251 189.321 35.8609C190.661 36.9477 191.808 38.4008 192.918 39.8055L193.055 39.9793C193.944 41.1035 194.431 42.1958 194.998 43.4597C195.158 43.8194 195.324 44.189 195.505 44.5729C195.888 45.3869 196.336 46.0755 196.732 46.6827C197.481 47.8278 198.072 48.732 198.133 50.1818C198.19 51.5425 198.254 53.0858 198.746 54.7039L198.819 54.9415C199.201 56.19 199.596 57.4825 199.312 58.621C199.215 59.0071 199.063 59.3954 198.905 59.8057C198.599 60.5922 198.251 61.4832 198.261 62.5172C198.273 63.7602 198.169 64.704 197.613 65.5719C197.309 66.0482 196.889 66.4816 196.444 66.9403C196.242 67.1482 196.042 67.3572 195.848 67.5706C195.305 68.1712 194.976 68.8686 194.686 69.4835C194.302 70.3008 194.042 70.8178 193.545 71.1093Z" fill="#292929"/>
<path d="M184.731 40.6767C184.763 41.2828 185.276 41.7514 185.889 41.7173C187.417 41.6381 188.936 42.3355 189.967 43.5873C191.039 44.8864 191.769 46.8642 191.973 49.0136C192.139 50.7901 191.678 52.6557 190.706 54.1297C190.011 55.1824 188.875 56.1526 187.505 56.8621C187.095 57.0733 186.487 57.3593 185.934 57.3934C185.328 57.4308 184.866 57.9522 184.903 58.5594C184.938 59.1424 185.423 59.5912 186 59.5912C186.023 59.5912 186.045 59.5901 186.069 59.589C187.038 59.5296 187.929 59.1182 188.517 58.8146C190.216 57.9346 191.646 56.7004 192.543 55.3397C193.804 53.4268 194.38 51.1058 194.163 48.8057C193.919 46.2295 193.009 43.8172 191.665 42.1881C190.191 40.3995 187.976 39.415 185.773 39.5184C185.165 39.5514 184.701 40.0695 184.731 40.6767Z" fill="#292929"/>
<path d="M185.931 64.2816C185.944 64.2816 185.955 64.2816 185.968 64.2816C187.749 64.2706 189.312 63.263 190.607 62.2807C191.548 61.5657 192.477 60.8331 193.405 60.1005L194.892 58.9312C196.244 57.8763 197.179 56.4936 197.525 55.035C197.664 54.4443 197.298 53.8514 196.706 53.7117C196.116 53.5764 195.524 53.9372 195.383 54.5301C195.154 55.5025 194.5 56.4485 193.541 57.1965L192.043 58.3735C191.127 59.0962 190.21 59.82 189.277 60.5284C188.272 61.2918 187.091 62.075 185.956 62.0816C185.559 62.0618 184.242 62.0145 183.653 61.0355C183.198 60.2787 183.438 58.9708 183.612 58.0149C183.83 56.828 184.279 55.9095 184.948 55.2869C185.261 54.9954 185.682 54.7743 186.127 54.54C186.622 54.2793 187.184 53.9834 187.685 53.5423C188.473 52.8482 189.057 51.966 189.375 50.9914C190.315 48.1028 188.523 45.2846 187.708 44.2077C187.341 43.7237 186.651 43.6258 186.167 43.9943C185.683 44.3606 185.588 45.0503 185.954 45.5354C186.428 46.1602 187.921 48.3536 187.283 50.3105C187.09 50.9023 186.716 51.4644 186.231 51.8923C185.926 52.1607 185.526 52.3719 185.102 52.5952C184.576 52.8724 183.978 53.187 183.45 53.6776C182.426 54.6313 181.753 55.9579 181.449 57.6211C181.225 58.8476 180.886 60.7011 181.768 62.1707C182.564 63.4929 184.118 64.2816 185.931 64.2816Z" fill="#292929"/>
<path d="M196.456 62.251C196.072 61.7824 195.382 61.7087 194.909 62.0926C192.701 63.8933 190.246 65.0703 187.609 65.5939L187.343 65.6456C185.762 65.9569 183.971 66.31 182.534 67.4584C181.604 68.202 181.132 69.3581 181.2 70.7122C181.288 72.4216 182.248 74.1926 183.532 75.022C183.717 75.1397 183.923 75.1969 184.127 75.1969C184.488 75.1969 184.842 75.0198 185.054 74.6931C185.383 74.1816 185.235 73.5018 184.725 73.1718C184.032 72.7252 183.449 71.5955 183.398 70.6C183.375 70.1545 183.445 69.5462 183.909 69.1755C184.924 68.3626 186.369 68.0788 187.768 67.8038L188.037 67.7499C191.03 67.157 193.81 65.8271 196.299 63.7976C196.769 63.4148 196.84 62.7218 196.456 62.251Z" fill="#292929"/>
<path d="M190.137 68.8553C189.014 69.5219 186.81 70.1324 186.056 70.3117C185.465 70.4514 185.099 71.0443 185.24 71.635C185.358 72.141 185.81 72.482 186.309 72.482C186.392 72.482 186.477 72.4721 186.563 72.4534C186.686 72.4237 189.616 71.7241 191.261 70.7462C191.783 70.436 191.955 69.7606 191.645 69.2392C191.335 68.7178 190.659 68.5429 190.137 68.8553Z" fill="#292929"/>
<path d="M181.824 42.8272C181.796 43.2485 181.766 43.6708 181.753 44.0921C181.702 45.5771 181.598 48.667 184.273 49.4821C184.381 49.5151 184.487 49.5305 184.594 49.5305C185.066 49.5305 185.502 49.2258 185.646 48.7517C185.823 48.1709 185.496 47.5549 184.915 47.379C184.031 47.1094 183.891 45.9489 183.951 44.1658C183.965 43.7698 183.992 43.3727 184.02 42.9778C184.134 41.3212 184.252 39.6086 183.459 37.8838C183.096 37.0929 183.2 36.8168 183.198 36.8168C183.47 36.5462 185.226 36.7497 186.249 37.7209C186.689 38.1411 187.385 38.1203 187.803 37.6814C188.222 37.2414 188.203 36.5451 187.763 36.1271C186.297 34.7323 183.426 33.948 181.926 35.0216C181.427 35.378 180.383 36.4604 181.459 38.8023C182.018 40.0178 181.923 41.3818 181.824 42.8272Z" fill="#292929"/>
<path d="M176.692 21.6598C177.3 21.6598 177.792 21.1681 177.792 20.5598V8.02645C177.792 7.41815 177.3 6.92645 176.692 6.92645C176.083 6.92645 175.592 7.41815 175.592 8.02645V20.5598C175.592 21.167 176.085 21.6598 176.692 21.6598Z" fill="#EB9A28"/>
<path d="M159.446 26.0907C159.652 26.0907 159.859 26.0335 160.043 25.9136C160.553 25.5836 160.699 24.9027 160.368 24.3923L149.973 8.34987C149.643 7.84057 148.962 7.69317 148.452 8.02537C147.942 8.35537 147.796 9.03627 148.127 9.54667L158.522 25.5891C158.732 25.9136 159.084 26.0907 159.446 26.0907Z" fill="#EB9A28"/>
<path d="M147.272 36.4989L136.419 30.2333C135.893 29.9297 135.22 30.1101 134.916 30.6359C134.612 31.1617 134.793 31.8349 135.319 32.1385L146.172 38.4041C146.345 38.5042 146.534 38.5515 146.721 38.5515C147.102 38.5515 147.471 38.3535 147.675 38.0015C147.98 37.4746 147.799 36.8025 147.272 36.4989Z" fill="#EB9A28"/>
<path d="M134.096 55.7401C134.097 55.7401 134.099 55.7401 134.102 55.7401L141.941 55.7049C142.549 55.7016 143.039 55.2077 143.036 54.5994C143.033 53.9933 142.542 53.5049 141.936 53.5049C141.935 53.5049 141.933 53.5049 141.93 53.5049L134.091 53.5401C133.483 53.5434 132.993 54.0373 132.996 54.6456C132.999 55.2517 133.49 55.7401 134.096 55.7401Z" fill="#EB9A28"/>
<path d="M145.819 70.8981L130.067 79.9434C129.54 80.2459 129.357 80.918 129.661 81.4449C129.864 81.7991 130.234 81.9971 130.616 81.9971C130.802 81.9971 130.99 81.9498 131.162 81.8508L146.914 72.8055C147.441 72.503 147.624 71.8309 147.32 71.304C147.019 70.7771 146.347 70.5978 145.819 70.8981Z" fill="#EB9A28"/>
<path d="M159.377 83.6196C158.85 83.3193 158.178 83.4997 157.874 84.0244L152.559 93.26C152.256 93.7869 152.438 94.459 152.964 94.7626C153.136 94.8616 153.326 94.9089 153.512 94.9089C153.892 94.9089 154.263 94.7109 154.466 94.3578L159.782 85.1222C160.085 84.5953 159.904 83.9232 159.377 83.6196Z" fill="#EB9A28"/>
<path d="M175.981 88.2593C175.373 88.2593 174.881 88.751 174.881 89.3593V101.893C174.881 102.501 175.373 102.993 175.981 102.993C176.589 102.993 177.081 102.501 177.081 101.893V89.3593C177.081 88.7521 176.588 88.2593 175.981 88.2593Z" fill="#EB9A28"/>
<path d="M194.182 84.3786C193.877 83.8517 193.202 83.6724 192.679 83.976C192.152 84.2796 191.972 84.9539 192.277 85.4786L200.012 98.8623C200.216 99.2154 200.585 99.4123 200.965 99.4123C201.152 99.4123 201.342 99.365 201.514 99.2649C202.041 98.9613 202.222 98.287 201.917 97.7623L194.182 84.3786Z" fill="#EB9A28"/>
<path d="M217.353 77.7819L206.5 71.5152C205.973 71.2116 205.301 71.3909 204.997 71.9178C204.693 72.4447 204.874 73.1168 205.4 73.4204L216.253 79.6871C216.426 79.7872 216.615 79.8345 216.802 79.8345C217.183 79.8345 217.552 79.6376 217.756 79.2845C218.061 78.7587 217.88 78.0855 217.353 77.7819Z" fill="#EB9A28"/>
<path d="M218.575 54.1803C218.574 54.1803 218.572 54.1803 218.569 54.1803L210.73 54.2155C210.123 54.2188 209.632 54.7126 209.635 55.3209C209.639 55.927 210.129 56.4155 210.735 56.4155C210.736 56.4155 210.739 56.4155 210.741 56.4155L218.58 56.3802C219.188 56.3769 219.678 55.883 219.675 55.2747C219.672 54.6687 219.181 54.1803 218.575 54.1803Z" fill="#EB9A28"/>
<path d="M221.51 28.0685L205.757 37.1149C205.23 37.4174 205.047 38.0895 205.351 38.6164C205.554 38.9706 205.924 39.1686 206.306 39.1686C206.492 39.1686 206.68 39.1213 206.852 39.0223L222.606 29.9759C223.132 29.6734 223.315 29.0013 223.011 28.4744C222.71 27.9464 222.039 27.766 221.51 28.0685Z" fill="#EB9A28"/>
<path d="M193.295 26.2985C193.468 26.3986 193.657 26.4459 193.843 26.4459C194.223 26.4459 194.594 26.2479 194.797 25.8948L200.113 16.6592C200.415 16.1323 200.234 15.4602 199.708 15.1566C199.181 14.8563 198.508 15.0356 198.207 15.5614L192.89 24.797C192.587 25.3239 192.768 25.996 193.295 26.2985Z" fill="#EB9A28"/>
</g>
<g clip-path="url(#clip2)">
<path d="M307.513 55.1172C307.249 54.6417 306.747 54.3462 306.202 54.3462H303.202C302.658 54.3462 302.155 54.6417 301.891 55.1172L294.391 68.6172C294.187 68.9847 294.147 69.4212 294.279 69.8202L298.12 81.3462H297.202C296.374 81.3462 295.702 82.0182 295.702 82.8462V88.8462C295.702 89.6742 296.374 90.3462 297.202 90.3462V108.346C297.202 109.174 297.874 109.846 298.702 109.846H310.702C311.53 109.846 312.202 109.174 312.202 108.346V90.3462C313.03 90.3462 313.702 89.6742 313.702 88.8462V82.8462C313.702 82.0182 313.03 81.3462 312.202 81.3462H311.284L315.126 69.8202C315.258 69.4212 315.219 68.9847 315.013 68.6172L307.513 55.1172ZM309.202 84.3462H310.702V87.3462H298.702V84.3462H300.202H309.202ZM309.202 106.846H300.202V90.3462H309.202V106.846ZM308.121 81.3462H306.202V70.8462H307.702V67.8462H301.702V70.8462H303.202V81.3462H301.284L297.334 69.4977L304.084 57.3462H305.319L312.069 69.4977L308.121 81.3462Z" fill="#D26526"/>
<path d="M300.603 42.6822C301.308 44.2482 302.877 45.3462 304.703 45.3462C306.528 45.3462 308.096 44.2497 308.801 42.6852C320.862 44.5377 330.33 54.5187 331.542 66.6732C329.882 67.3347 328.703 68.9517 328.703 70.8462C328.703 73.3272 330.722 75.3462 333.203 75.3462C335.684 75.3462 337.703 73.3272 337.703 70.8462C337.703 68.8347 336.368 67.1472 334.544 66.5727C333.56 55.9872 326.951 46.8507 317.703 42.3462H325.703V43.8462C325.703 44.6742 326.375 45.3462 327.203 45.3462H333.203C334.031 45.3462 334.703 44.6742 334.703 43.8462V37.8462C334.703 37.0182 334.031 36.3462 333.203 36.3462H327.203C326.375 36.3462 325.703 37.0182 325.703 37.8462V39.3462H308.927C308.306 37.6047 306.656 36.3462 304.703 36.3462C302.75 36.3462 301.1 37.6047 300.479 39.3462H283.703V37.8462C283.703 37.0182 283.031 36.3462 282.203 36.3462H276.203C275.375 36.3462 274.703 37.0182 274.703 37.8462V43.8462C274.703 44.6742 275.375 45.3462 276.203 45.3462H282.203C283.031 45.3462 283.703 44.6742 283.703 43.8462V42.3462H291.662C282.425 46.8447 275.844 55.9647 274.862 66.5727C273.038 67.1472 271.703 68.8347 271.703 70.8462C271.703 73.3272 273.722 75.3462 276.203 75.3462C278.684 75.3462 280.703 73.3272 280.703 70.8462C280.703 68.9517 279.524 67.3347 277.863 66.6717C279.074 54.4797 288.525 44.5347 300.603 42.6822ZM333.203 72.3462C332.376 72.3462 331.703 71.6727 331.703 70.8462C331.703 70.0197 332.376 69.3462 333.203 69.3462C334.029 69.3462 334.703 70.0197 334.703 70.8462C334.703 71.6727 334.029 72.3462 333.203 72.3462ZM328.703 39.3462H331.703V42.3462H328.703V39.3462ZM280.703 42.3462H277.703V39.3462H280.703V42.3462ZM304.703 39.3462C305.529 39.3462 306.203 40.0197 306.203 40.8462C306.203 41.6727 305.529 42.3462 304.703 42.3462C303.876 42.3462 303.203 41.6727 303.203 40.8462C303.203 40.0197 303.876 39.3462 304.703 39.3462ZM276.203 72.3462C275.376 72.3462 274.703 71.6727 274.703 70.8462C274.703 70.0197 275.376 69.3462 276.203 69.3462C277.029 69.3462 277.703 70.0197 277.703 70.8462C277.703 71.6727 277.029 72.3462 276.203 72.3462Z" fill="#292929"/>
<path d="M351.203 13.8462H258.203C257.375 13.8462 256.703 14.5182 256.703 15.3462V27.3462V96.3462C256.703 97.1742 257.375 97.8462 258.203 97.8462H294.203V94.8462H259.703V28.8462H349.703V94.8462H315.203V97.8462H351.203C352.031 97.8462 352.703 97.1742 352.703 96.3462V27.3462V15.3462C352.703 14.5182 352.031 13.8462 351.203 13.8462ZM259.703 25.8462V16.8462H349.703V25.8462H259.703Z" fill="#292929"/>
<path d="M268.703 19.8462H265.703V22.8462H268.703V19.8462Z" fill="#1A1A1A"/>
<path d="M274.703 19.8462H271.703V22.8462H274.703V19.8462Z" fill="#1A1A1A"/>
<path d="M280.703 19.8462H277.703V22.8462H280.703V19.8462Z" fill="#1A1A1A"/>
<path d="M343.703 19.8462H334.703V22.8462H343.703V19.8462Z" fill="#1A1A1A"/>
<path d="M306.203 94.8462H303.203V100.846H306.203V94.8462Z" fill="#292929"/>
</g>
<defs>
<clipPath id="clip0">
<rect width="139.13" height="139.13" fill="white" transform="translate(0.702637 6.42798) scale(0.69)"/>
</clipPath>
<clipPath id="clip1">
<rect width="159.42" height="159.42" fill="white" transform="translate(121.703 0.188965) scale(0.69)"/>
</clipPath>
<clipPath id="clip2">
<rect width="139.13" height="139.13" fill="white" transform="translate(256.703 13.8462) scale(0.69)"/>
</clipPath>
</defs>
</svg>
