<svg width="74" height="74" viewBox="0 0 74 74" fill="none" xmlns="http://www.w3.org/2000/svg">
<g clip-path="url(#clip0)">
<path d="M68.1121 73.0867H6.41908C3.4179 73.0867 0.975586 70.6444 0.975586 67.6432V5.95021C0.975586 2.94903 3.4179 0.506714 6.41908 0.506714H68.1121C71.1133 0.506714 73.5556 2.94903 73.5556 5.95021V67.6432C73.5556 70.6444 71.1133 73.0867 68.1121 73.0867ZM6.41908 2.92605C4.75216 2.92605 3.39492 4.28208 3.39492 5.95021V67.6432C3.39492 69.3113 4.75216 70.6674 6.41908 70.6674H68.1121C69.7802 70.6674 71.1362 69.3113 71.1362 67.6432V5.95021C71.1362 4.28208 69.779 2.92605 68.1121 2.92605H6.41908Z" fill="#292929"/>
<path d="M11.8628 12.6035H7.02412C6.35638 12.6035 5.81445 12.0627 5.81445 11.3938V6.55512C5.81445 5.88618 6.35638 5.34546 7.02412 5.34546H11.8628C12.5305 5.34546 13.0724 5.88618 13.0724 6.55512V11.3938C13.0724 12.0627 12.5305 12.6035 11.8628 12.6035ZM8.23379 10.1841H10.6531V7.76479H8.23379V10.1841Z" fill="#292929"/>
<path d="M21.5398 12.6035H16.7011C16.0334 12.6035 15.4915 12.0627 15.4915 11.3938V6.55512C15.4915 5.88618 16.0334 5.34546 16.7011 5.34546H21.5398C22.2075 5.34546 22.7495 5.88618 22.7495 6.55512V11.3938C22.7495 12.0627 22.2075 12.6035 21.5398 12.6035ZM17.9108 10.1841H20.3301V7.76479H17.9108V10.1841Z" fill="#292929"/>
<path d="M31.2173 12.6035H26.3786C25.7109 12.6035 25.1689 12.0627 25.1689 11.3938V6.55512C25.1689 5.88618 25.7109 5.34546 26.3786 5.34546H31.2173C31.885 5.34546 32.4269 5.88618 32.4269 6.55512V11.3938C32.4269 12.0627 31.885 12.6035 31.2173 12.6035ZM27.5883 10.1841H30.0076V7.76479H27.5883V10.1841Z" fill="#292929"/>
<path d="M72.3459 17.442H2.18525C1.51752 17.442 0.975586 16.9013 0.975586 16.2324V5.95021C0.975586 2.94903 3.4179 0.506714 6.41908 0.506714H68.1121C71.1133 0.506714 73.5556 2.94903 73.5556 5.95021V16.2324C73.5556 16.9013 73.0136 17.442 72.3459 17.442ZM3.39492 15.0227H71.1362V5.95021C71.1362 4.28208 69.779 2.92605 68.1121 2.92605H6.41908C4.75216 2.92605 3.39492 4.28208 3.39492 5.95021V15.0227Z" fill="#292929"/>
<path d="M37.2656 73.0866H6.41062C3.41427 73.0866 0.975586 70.6479 0.975586 67.6515V16.2322C0.975586 15.5633 1.51752 15.0226 2.18525 15.0226H37.2656C37.9333 15.0226 38.4752 15.5633 38.4752 16.2322V71.8769C38.4752 72.5459 37.9333 73.0866 37.2656 73.0866ZM3.39492 17.4419V67.6515C3.39492 69.3148 4.74733 70.6672 6.41062 70.6672H36.0559V17.4419H3.39492Z" fill="#1A1A1A"/>
<path d="M23.9595 23.4903H7.02412C6.35638 23.4903 5.81445 22.9495 5.81445 22.2806C5.81445 21.6116 6.35638 21.0709 7.02412 21.0709H23.9595C24.6272 21.0709 25.1691 21.6116 25.1691 22.2806C25.1691 22.9495 24.6272 23.4903 23.9595 23.4903Z" fill="#D26526"/>
<path d="M32.4268 23.4903H28.7978C28.1301 23.4903 27.5881 22.9495 27.5881 22.2806C27.5881 21.6116 28.1301 21.0709 28.7978 21.0709H32.4268C33.0945 21.0709 33.6365 21.6116 33.6365 22.2806C33.6365 22.9495 33.0945 23.4903 32.4268 23.4903Z" fill="#D26526"/>
<path d="M32.427 28.329H15.4916C14.8239 28.329 14.282 27.7883 14.282 27.1193C14.282 26.4504 14.8239 25.9097 15.4916 25.9097H32.427C33.0947 25.9097 33.6367 26.4504 33.6367 27.1193C33.6367 27.7883 33.0947 28.329 32.427 28.329Z" fill="#D26526"/>
<path d="M10.6531 28.329H7.02412C6.35638 28.329 5.81445 27.7883 5.81445 27.1193C5.81445 26.4504 6.35638 25.9097 7.02412 25.9097H10.6531C11.3209 25.9097 11.8628 26.4504 11.8628 27.1193C11.8628 27.7883 11.3209 28.329 10.6531 28.329Z" fill="#D26526"/>
<path d="M23.9595 33.1677H7.02412C6.35638 33.1677 5.81445 32.627 5.81445 31.9581C5.81445 31.2891 6.35638 30.7484 7.02412 30.7484H23.9595C24.6272 30.7484 25.1691 31.2891 25.1691 31.9581C25.1691 32.627 24.6272 33.1677 23.9595 33.1677Z" fill="#D26526"/>
<path d="M32.4268 33.1677H28.7978C28.1301 33.1677 27.5881 32.627 27.5881 31.9581C27.5881 31.2891 28.1301 30.7484 28.7978 30.7484H32.4268C33.0945 30.7484 33.6365 31.2891 33.6365 31.9581C33.6365 32.627 33.0945 33.1677 32.4268 33.1677Z" fill="#D26526"/>
<path d="M32.427 38.0065H15.4916C14.8239 38.0065 14.282 37.4658 14.282 36.7968C14.282 36.1279 14.8239 35.5872 15.4916 35.5872H32.427C33.0947 35.5872 33.6367 36.1279 33.6367 36.7968C33.6367 37.4658 33.0947 38.0065 32.427 38.0065Z" fill="#D26526"/>
<path d="M10.6531 38.0065H7.02412C6.35638 38.0065 5.81445 37.4658 5.81445 36.7968C5.81445 36.1279 6.35638 35.5872 7.02412 35.5872H10.6531C11.3209 35.5872 11.8628 36.1279 11.8628 36.7968C11.8628 37.4658 11.3209 38.0065 10.6531 38.0065Z" fill="#D26526"/>
<path d="M23.9595 42.845H7.02412C6.35638 42.845 5.81445 42.3043 5.81445 41.6353C5.81445 40.9664 6.35638 40.4257 7.02412 40.4257H23.9595C24.6272 40.4257 25.1691 40.9664 25.1691 41.6353C25.1691 42.3043 24.6272 42.845 23.9595 42.845Z" fill="#D26526"/>
<path d="M32.4268 42.845H28.7978C28.1301 42.845 27.5881 42.3043 27.5881 41.6353C27.5881 40.9664 28.1301 40.4257 28.7978 40.4257H32.4268C33.0945 40.4257 33.6365 40.9664 33.6365 41.6353C33.6365 42.3043 33.0945 42.845 32.4268 42.845Z" fill="#D26526"/>
<path d="M32.427 47.6837H15.4916C14.8239 47.6837 14.282 47.143 14.282 46.4741C14.282 45.8051 14.8239 45.2644 15.4916 45.2644H32.427C33.0947 45.2644 33.6367 45.8051 33.6367 46.4741C33.6367 47.143 33.0947 47.6837 32.427 47.6837Z" fill="#D26526"/>
<path d="M10.6531 47.6837H7.02412C6.35638 47.6837 5.81445 47.143 5.81445 46.4741C5.81445 45.8051 6.35638 45.2644 7.02412 45.2644H10.6531C11.3209 45.2644 11.8628 45.8051 11.8628 46.4741C11.8628 47.143 11.3209 47.6837 10.6531 47.6837Z" fill="#D26526"/>
<path d="M23.9595 52.5225H7.02412C6.35638 52.5225 5.81445 51.9817 5.81445 51.3128C5.81445 50.6439 6.35638 50.1031 7.02412 50.1031H23.9595C24.6272 50.1031 25.1691 50.6439 25.1691 51.3128C25.1691 51.9817 24.6272 52.5225 23.9595 52.5225Z" fill="#D26526"/>
<path d="M32.4268 52.5225H28.7978C28.1301 52.5225 27.5881 51.9817 27.5881 51.3128C27.5881 50.6439 28.1301 50.1031 28.7978 50.1031H32.4268C33.0945 50.1031 33.6365 50.6439 33.6365 51.3128C33.6365 51.9817 33.0945 52.5225 32.4268 52.5225Z" fill="#D26526"/>
<path d="M32.427 57.3609H15.4916C14.8239 57.3609 14.282 56.8202 14.282 56.1512C14.282 55.4823 14.8239 54.9415 15.4916 54.9415H32.427C33.0947 54.9415 33.6367 55.4823 33.6367 56.1512C33.6367 56.8202 33.0947 57.3609 32.427 57.3609Z" fill="#D26526"/>
<path d="M10.6531 57.3609H7.02412C6.35638 57.3609 5.81445 56.8202 5.81445 56.1512C5.81445 55.4823 6.35638 54.9415 7.02412 54.9415H10.6531C11.3209 54.9415 11.8628 55.4823 11.8628 56.1512C11.8628 56.8202 11.3209 57.3609 10.6531 57.3609Z" fill="#D26526"/>
<path d="M23.9595 62.1996H7.02412C6.35638 62.1996 5.81445 61.6589 5.81445 60.99C5.81445 60.321 6.35638 59.7803 7.02412 59.7803H23.9595C24.6272 59.7803 25.1691 60.321 25.1691 60.99C25.1691 61.6589 24.6272 62.1996 23.9595 62.1996Z" fill="#D26526"/>
<path d="M32.4268 62.1996H28.7978C28.1301 62.1996 27.5881 61.6589 27.5881 60.99C27.5881 60.321 28.1301 59.7803 28.7978 59.7803H32.4268C33.0945 59.7803 33.6365 60.321 33.6365 60.99C33.6365 61.6589 33.0945 62.1996 32.4268 62.1996Z" fill="#D26526"/>
<path d="M32.427 67.0383H15.4916C14.8239 67.0383 14.282 66.4976 14.282 65.8287C14.282 65.1597 14.8239 64.619 15.4916 64.619H32.427C33.0947 64.619 33.6367 65.1597 33.6367 65.8287C33.6367 66.4976 33.0947 67.0383 32.427 67.0383Z" fill="#D26526"/>
<path d="M10.6531 67.0383H7.02412C6.35638 67.0383 5.81445 66.4976 5.81445 65.8287C5.81445 65.1597 6.35638 64.619 7.02412 64.619H10.6531C11.3209 64.619 11.8628 65.1597 11.8628 65.8287C11.8628 66.4976 11.3209 67.0383 10.6531 67.0383Z" fill="#D26526"/>
<path d="M66.2978 47.6836H37.2658C36.5981 47.6836 36.0562 47.1429 36.0562 46.4739V22.2806C36.0562 21.6116 36.5981 21.0709 37.2658 21.0709H66.2978C66.9656 21.0709 67.5075 21.6116 67.5075 22.2806V46.4739C67.5075 47.1429 66.9656 47.6836 66.2978 47.6836ZM38.4755 45.2642H65.0882V23.4903H38.4755V45.2642Z" fill="#292929"/>
<path d="M43.3137 39.2159C43.0041 39.2159 42.6944 39.0974 42.4585 38.8615C41.9855 38.3885 41.9855 37.624 42.4585 37.151L47.2972 32.3124C47.7689 31.8394 48.5359 31.8394 49.0077 32.3124C49.4806 32.7854 49.4806 33.5499 49.0077 34.0228L44.169 38.8615C43.9331 39.0974 43.6234 39.2159 43.3137 39.2159Z" fill="#EACAAB"/>
<path d="M52.9912 39.2159C52.6816 39.2159 52.3719 39.0974 52.136 38.8615L47.2974 34.0228C46.8244 33.5499 46.8244 32.7854 47.2974 32.3124C47.7691 31.8394 48.5361 31.8394 49.0078 32.3124L53.8465 37.151C54.3195 37.624 54.3195 38.3885 53.8465 38.8615C53.6106 39.0974 53.3009 39.2159 52.9912 39.2159Z" fill="#EACAAB"/>
<path d="M50.572 36.7967C50.2624 36.7967 49.9527 36.6782 49.7168 36.4423C49.2438 35.9693 49.2438 35.2048 49.7168 34.7318L54.5555 29.8932C55.0272 29.4202 55.7942 29.4202 56.2659 29.8932C56.7389 30.3662 56.7389 31.1307 56.2659 31.6037L51.4273 36.4423C51.1914 36.6782 50.8817 36.7967 50.572 36.7967Z" fill="#EACAAB"/>
<path d="M60.2493 36.7967C59.9396 36.7967 59.63 36.6782 59.3941 36.4423L54.5554 31.6037C54.0824 31.1307 54.0824 30.3662 54.5554 29.8932C55.0272 29.4202 55.7941 29.4202 56.2659 29.8932L61.1045 34.7318C61.5775 35.2048 61.5775 35.9693 61.1045 36.4423C60.8687 36.6782 60.559 36.7967 60.2493 36.7967Z" fill="#EACAAB"/>
<path d="M49.3625 67.0383H37.2658C36.5981 67.0383 36.0562 66.4976 36.0562 65.8286V52.5223C36.0562 51.8533 36.5981 51.3126 37.2658 51.3126H49.3625C50.0302 51.3126 50.5721 51.8533 50.5721 52.5223V65.8286C50.5721 66.4976 50.0302 67.0383 49.3625 67.0383ZM38.4755 64.6189H48.1528V53.732H38.4755V64.6189Z" fill="#292929"/>
<path d="M66.2973 67.0383H54.2006C53.5329 67.0383 52.991 66.4976 52.991 65.8286V52.5223C52.991 51.8533 53.5329 51.3126 54.2006 51.3126H66.2973C66.965 51.3126 67.507 51.8533 67.507 52.5223V65.8286C67.507 66.4976 66.965 67.0383 66.2973 67.0383ZM55.4103 64.6189H65.0876V53.732H55.4103V64.6189Z" fill="#292929"/>
</g>
<defs>
<clipPath id="clip0">
<rect width="105.188" height="105.188" fill="white" transform="translate(0.975586 0.506714) scale(0.69)"/>
</clipPath>
</defs>
</svg>
