<svg width="94" height="94" viewBox="0 0 94 94" fill="none" xmlns="http://www.w3.org/2000/svg">
<g clip-path="url(#clip0)">
<path d="M63.5477 66.2801C63.9131 66.633 64.4025 66.8283 64.9105 66.8239C65.4185 66.8195 65.9045 66.6157 66.2637 66.2565C66.6229 65.8973 66.8267 65.4113 66.8311 64.9033C66.8355 64.3953 66.6402 63.9059 66.2873 63.5405L56.0321 53.2853L66.2873 43.0301C66.6402 42.6647 66.8355 42.1753 66.8311 41.6672C66.8267 41.1592 66.6229 40.6733 66.2637 40.3141C65.9045 39.9548 65.4185 39.7511 64.9105 39.7467C64.4025 39.7422 63.9131 39.9375 63.5477 40.2905L53.2925 50.5456L44.9748 42.228C44.6115 41.8647 44.1187 41.6607 43.605 41.6607C43.0912 41.6607 42.5985 41.8647 42.2352 42.228L9.86535 74.5978H8.72998C7.70227 74.5978 6.71664 74.1895 5.98994 73.4628C5.26324 72.7361 4.85498 71.7505 4.85498 70.7228V12.5978C4.85498 11.5701 5.26324 10.5844 5.98994 9.85774C6.71664 9.13104 7.70227 8.72278 8.72998 8.72278H78.48C79.5077 8.72278 80.4933 9.13104 81.22 9.85774C81.9467 10.5844 82.355 11.5701 82.355 12.5978V20.3478C82.355 20.8616 82.5591 21.3544 82.9224 21.7178C83.2858 22.0811 83.7786 22.2853 84.2925 22.2853C84.8063 22.2853 85.2991 22.0811 85.6625 21.7178C86.0258 21.3544 86.23 20.8616 86.23 20.3478V12.5978C86.23 10.5423 85.4135 8.57111 83.9601 7.1177C82.5066 5.66429 80.5354 4.84778 78.48 4.84778H8.72998C6.67455 4.84778 4.70331 5.66429 3.2499 7.1177C1.7965 8.57111 0.97998 10.5423 0.97998 12.5978L0.97998 70.7228C0.97998 72.7782 1.7965 74.7494 3.2499 76.2028C4.70331 77.6562 6.67455 78.4728 8.72998 78.4728H10.6675C11.1813 78.4727 11.674 78.2685 12.0373 77.9051L43.605 46.3374L63.5477 66.2801Z" fill="#292929"/>
<path d="M28.105 26.1603C28.105 28.0763 28.6731 29.9493 29.7376 31.5424C30.8021 33.1355 32.3151 34.3771 34.0852 35.1104C35.8554 35.8436 37.8032 36.0354 39.6824 35.6616C41.5616 35.2878 43.2878 34.3652 44.6426 33.0104C45.9974 31.6556 46.92 29.9294 47.2938 28.0502C47.6676 26.171 47.4758 24.2232 46.7426 22.453C46.0093 20.6829 44.7677 19.1699 43.1746 18.1054C41.5815 17.0409 39.7085 16.4728 37.7925 16.4728C35.2241 16.4759 32.7619 17.4975 30.9458 19.3136C29.1297 21.1297 28.1081 23.5919 28.105 26.1603ZM43.605 26.1603C43.605 27.3099 43.2641 28.4337 42.6254 29.3895C41.9867 30.3454 41.0789 31.0904 40.0168 31.5303C38.9547 31.9703 37.786 32.0854 36.6585 31.8611C35.531 31.6368 34.4953 31.0832 33.6824 30.2703C32.8695 29.4574 32.3159 28.4218 32.0917 27.2942C31.8674 26.1667 31.9825 24.998 32.4224 23.9359C32.8624 22.8738 33.6074 21.966 34.5632 21.3274C35.5191 20.6887 36.6429 20.3478 37.7925 20.3478C39.334 20.3478 40.8125 20.9602 41.9025 22.0502C42.9926 23.1403 43.605 24.6187 43.605 26.1603Z" fill="#EB9A28"/>
<path d="M93.7862 46.6067L84.0987 27.2317C84.0169 27.0702 83.9096 26.923 83.781 26.7957C83.603 26.596 83.3848 26.4361 83.1407 26.3267C82.8967 26.2172 82.6322 26.1606 82.3647 26.1606C82.0971 26.1606 81.8327 26.2172 81.5886 26.3267C81.3445 26.4361 81.1263 26.596 80.9483 26.7957C80.8197 26.923 80.7124 27.0702 80.6306 27.2317L70.9431 46.6067C70.8214 46.8546 70.7537 47.1255 70.7447 47.4015C70.7356 47.6776 70.7853 47.9524 70.8904 48.2077C70.9956 48.4631 71.1538 48.6932 71.3546 48.8828C71.5554 49.0724 71.7942 49.2172 72.0552 49.3075C73.3056 49.7371 74.4 50.5289 75.1991 51.5822C75.9982 52.6356 76.4658 53.9028 76.5425 55.2227V57.1602H74.605C74.0911 57.1602 73.5983 57.3644 73.2349 57.7277C72.8716 58.0911 72.6675 58.5839 72.6675 59.0977C72.6675 59.6116 72.8716 60.1044 73.2349 60.4677C73.5983 60.8311 74.0911 61.0352 74.605 61.0352H76.5425V74.5977H22.2925C21.7786 74.5977 21.2858 74.8018 20.9225 75.1652C20.5591 75.5285 20.355 76.0214 20.355 76.5352C20.355 77.0491 20.5591 77.5419 20.9225 77.9052C21.2858 78.2686 21.7786 78.4727 22.2925 78.4727H76.5425V86.2227C76.5316 86.7346 76.6245 87.2433 76.8154 87.7183C77.0063 88.1934 77.2913 88.6249 77.6533 88.9869C78.0153 89.3489 78.4468 89.6339 78.9219 89.8248C79.3969 90.0157 79.9056 90.1085 80.4175 90.0977H84.2925C84.8043 90.1085 85.3131 90.0157 85.7881 89.8248C86.2631 89.6339 86.6946 89.3489 87.0566 88.9869C87.4186 88.6249 87.7037 88.1934 87.8946 87.7183C88.0855 87.2433 88.1783 86.7346 88.1675 86.2227V61.0352H90.105C90.6188 61.0352 91.1116 60.8311 91.475 60.4677C91.8383 60.1044 92.0425 59.6116 92.0425 59.0977C92.0425 58.5839 91.8383 58.0911 91.475 57.7277C91.1116 57.3644 90.6188 57.1602 90.105 57.1602H88.1675V55.2227C88.2441 53.9033 88.7118 52.6365 89.511 51.5838C90.3101 50.531 91.4045 49.74 92.6547 49.3114C92.9193 49.224 93.1618 49.0805 93.3659 48.8909C93.57 48.7012 93.7307 48.4697 93.8372 48.2122C93.9437 47.9548 93.9934 47.6774 93.9829 47.399C93.9724 47.1205 93.902 46.8476 93.7765 46.5989L93.7862 46.6067ZM84.2925 86.2227H80.4175V61.0352H84.2925V86.2227ZM84.2925 55.2227V57.1602H80.4175V55.2227C80.4108 53.4553 79.9302 51.722 79.0258 50.2035C78.1214 48.685 76.8262 47.4369 75.2753 46.5892L80.4175 36.305V45.5352C80.4175 46.0491 80.6216 46.5419 80.985 46.9052C81.3483 47.2686 81.8411 47.4727 82.355 47.4727C82.8688 47.4727 83.3616 47.2686 83.725 46.9052C84.0883 46.5419 84.2925 46.0491 84.2925 45.5352V36.305L89.4346 46.5892C87.8828 47.4358 86.5868 48.6836 85.6822 50.2024C84.7777 51.7211 84.2977 53.455 84.2925 55.2227Z" fill="#292929"/>
</g>
<defs>
<clipPath id="clip0">
<rect width="134.783" height="134.783" fill="white" transform="translate(0.97998 0.972778) scale(0.69)"/>
</clipPath>
</defs>
</svg>
