<svg width="50" height="41" viewBox="0 0 50 41" fill="none" xmlns="http://www.w3.org/2000/svg">
<g clip-path="url(#clip0)">
<path d="M8.77156 15.6099L8.77174 15.6101L23.3488 27.6642C23.5103 27.798 23.6955 27.8989 23.8913 27.966C24.0871 28.0332 24.2936 28.0668 24.5 28.0668C24.7064 28.0668 24.913 28.0332 25.1088 27.966C25.3044 27.8989 25.4895 27.7982 25.6509 27.6645C25.651 27.6644 25.6511 27.6643 25.6512 27.6642L40.2235 15.6058C40.5509 15.3348 40.7681 14.9362 40.7681 14.4858C40.7681 14.0354 40.5509 13.6368 40.2235 13.3658C39.8998 13.098 39.4844 12.9637 39.0725 12.9637C38.6607 12.9637 38.2453 13.098 37.9216 13.3658L24.4974 24.4743L11.0734 13.37C11.0734 13.37 11.0734 13.3699 11.0733 13.3699C10.9118 13.2363 10.7267 13.1355 10.531 13.0685C10.3353 13.0014 10.1288 12.9679 9.92249 12.9679C9.71616 12.9679 9.50969 13.0014 9.31395 13.0685C9.11827 13.1355 8.93311 13.2363 8.77156 13.37C8.60982 13.5038 8.473 13.6698 8.37646 13.8627C8.27957 14.0562 8.22693 14.2698 8.22693 14.49C8.22693 14.7101 8.27957 14.9237 8.37646 15.1172C8.47301 15.3101 8.60982 15.4761 8.77156 15.6099Z" fill="#D26526" stroke="#D26526" stroke-width="2"/>
</g>
<defs>
<clipPath id="clip0">
<rect width="69.913" height="57.8527" fill="white" transform="translate(0.880005 0.76593) scale(0.69)"/>
</clipPath>
</defs>
</svg>
