<svg width="60" height="59" viewBox="0 0 60 59" fill="none" xmlns="http://www.w3.org/2000/svg">
<path d="M30.069 0.352051C13.6514 0.352051 0.335876 13.6651 0.335876 30.0852C0.335876 43.2223 8.85442 54.3672 20.6709 58.2994C22.155 58.5745 22.6357 57.6527 22.6357 56.8698V51.3345C14.365 53.1333 12.6429 47.8259 12.6429 47.8259C11.2901 44.3893 9.34006 43.475 9.34006 43.475C6.64178 41.6291 9.54571 41.6687 9.54571 41.6687C12.5314 41.8768 14.1023 44.7337 14.1023 44.7337C16.7535 49.2779 21.0574 47.9647 22.7547 47.204C23.0198 45.2838 23.7904 43.9706 24.6427 43.2297C18.0395 42.474 11.0968 39.9244 11.0968 28.5341C11.0968 25.2858 12.2589 22.6346 14.1593 20.5532C13.8521 19.8025 12.8337 16.7771 14.4492 12.6839C14.4492 12.6839 16.9468 11.886 22.6283 15.7315C24.9995 15.0724 27.5417 14.7429 30.069 14.7305C32.5963 14.7429 35.141 15.0724 37.5172 15.7315C43.1937 11.886 45.6863 12.6839 45.6863 12.6839C47.3043 16.7796 46.2859 19.805 45.9787 20.5532C47.8866 22.6346 49.0387 25.2882 49.0387 28.5341C49.0387 39.9541 42.0837 42.469 35.4631 43.2049C36.5285 44.1267 37.5023 45.9354 37.5023 48.7105V56.8698C37.5023 57.6602 37.978 58.5893 39.487 58.297C51.2935 54.3598 59.8021 43.2173 59.8021 30.0852C59.8021 13.6651 46.4891 0.352051 30.069 0.352051Z" fill="#EACAAB"/>
</svg>
