<svg width="60" height="59" viewBox="0 0 60 59" fill="none" xmlns="http://www.w3.org/2000/svg">
<path d="M29.884 0.432129C13.4664 0.432129 0.150879 13.7451 0.150879 30.1653C0.150879 43.3023 8.66942 54.4473 20.4859 58.3795C21.97 58.6545 22.4507 57.7328 22.4507 56.9499V51.4145C14.18 53.2134 12.4579 47.906 12.4579 47.906C11.1051 44.4694 9.15506 43.5551 9.15506 43.5551C6.45678 41.7091 9.36072 41.7488 9.36072 41.7488C12.3464 41.9569 13.9173 44.8138 13.9173 44.8138C16.5685 49.358 20.8724 48.0448 22.5697 47.2841C22.8348 45.3638 23.6054 44.0506 24.4577 43.3098C17.8545 42.5541 10.9118 40.0044 10.9118 28.6142C10.9118 25.3658 12.0739 22.7146 13.9743 20.6333C13.6671 19.8826 12.6487 16.8572 14.2642 12.7639C14.2642 12.7639 16.7618 11.9661 22.4433 15.8116C24.8145 15.1525 27.3567 14.823 29.884 14.8106C32.4113 14.823 34.956 15.1525 37.3322 15.8116C43.0087 11.9661 45.5013 12.7639 45.5013 12.7639C47.1193 16.8597 46.101 19.885 45.7937 20.6333C47.7016 22.7146 48.8537 25.3683 48.8537 28.6142C48.8537 40.0342 41.8987 42.5491 35.2781 43.285C36.3435 44.2067 37.3173 46.0155 37.3173 48.7906V56.9499C37.3173 57.7403 37.793 58.6694 39.302 58.377C51.1085 54.4399 59.6171 43.2974 59.6171 30.1653C59.6171 13.7451 46.3041 0.432129 29.884 0.432129Z" fill="#D3A894"/>
</svg>
