<svg width="343" height="132" viewBox="0 0 343 132" fill="none" xmlns="http://www.w3.org/2000/svg">
<path d="M0.467163 14.1064C0.467163 10.2549 1.43005 7.12272 3.35583 4.70996C5.30375 2.27507 7.94893 1.05762 11.2914 1.05762C12.4203 1.05762 13.4717 1.2347 14.4457 1.58887C15.4196 1.9209 16.2276 2.37467 16.8695 2.9502C17.5336 3.52572 18.0759 4.09017 18.4965 4.64355C18.9392 5.1748 19.3044 5.73926 19.5922 6.33691L17.3344 7.13379C15.7627 4.58822 13.7484 3.31543 11.2914 3.31543C8.74581 3.31543 6.75362 4.31152 5.31482 6.30371C3.89815 8.27376 3.18982 10.8747 3.18982 14.1064C3.18982 17.471 3.92029 20.1051 5.38123 22.0088C6.84216 23.8903 8.76794 24.8311 11.1586 24.8311C13.3278 24.8311 14.9991 24.1227 16.1722 22.7061C17.3454 21.2894 17.932 19.6182 17.932 17.6924V15.3682H10.8929V13.1104H20.5219V26.5244H18.5961L18.3969 22.8721C17.0909 25.7054 14.656 27.1221 11.0922 27.1221C7.9268 27.1221 5.35909 25.96 3.38904 23.6357C1.44112 21.3115 0.467163 18.1351 0.467163 14.1064Z" fill="#5D3C0E"/>
<path d="M26.8969 17.5928C26.8969 19.8506 27.417 21.6436 28.4574 22.9717C29.4978 24.2998 30.7927 24.9639 32.3422 24.9639C33.8695 24.9639 35.1534 24.2998 36.1937 22.9717C37.2562 21.6436 37.7875 19.8506 37.7875 17.5928C37.7875 15.2907 37.2562 13.4867 36.1937 12.1807C35.1312 10.8747 33.8474 10.2217 32.3422 10.2217C30.8148 10.2217 29.5199 10.8747 28.4574 12.1807C27.417 13.4867 26.8969 15.2907 26.8969 17.5928ZM24.307 17.5928C24.307 14.8701 25.0043 12.6012 26.3988 10.7861C27.8155 8.97103 29.7966 8.06348 32.3422 8.06348C34.8656 8.06348 36.8357 8.97103 38.2523 10.7861C39.669 12.6012 40.3773 14.8701 40.3773 17.5928C40.3773 18.7438 40.2224 19.8617 39.9125 20.9463C39.6247 22.0309 39.1709 23.0492 38.5511 24.001C37.9535 24.9307 37.1123 25.6833 36.0277 26.2588C34.9652 26.8343 33.7367 27.1221 32.3422 27.1221C30.9698 27.1221 29.7413 26.8454 28.6566 26.292C27.5941 25.7165 26.753 24.9639 26.1332 24.0342C25.5355 23.0824 25.0817 22.0641 24.7719 20.9795C24.462 19.8949 24.307 18.766 24.307 17.5928Z" fill="#5D3C0E"/>
<path d="M42.5023 10.8193V8.66113H45.6234V2.9502H48.2133V8.66113H52.9281V10.8193H48.2133V21.2783C48.2133 22.3851 48.4235 23.1709 48.8441 23.6357C49.2647 24.1006 49.9398 24.333 50.8695 24.333H52.9281V26.5244H50.5375C47.2614 26.5244 45.6234 24.8532 45.6234 21.5107V10.8193H42.5023Z" fill="#5D3C0E"/>
<path d="M56.8129 26.5244V0.725586H59.3363V11.5498H59.4027C59.8454 10.598 60.5538 9.77897 61.5277 9.09277C62.5238 8.40658 63.6527 8.06348 64.9144 8.06348C68.766 8.06348 70.6918 10.3656 70.6918 14.9697V26.5244H68.1683V15.4014C68.1683 11.9482 66.9288 10.2217 64.4496 10.2217C63.0772 10.2217 61.8819 10.7861 60.8636 11.915C59.8454 13.0439 59.3363 14.3831 59.3363 15.9326V26.5244H56.8129Z" fill="#5D3C0E"/>
<path d="M76.1039 4.64355V1.29004H79.3578V4.64355H76.1039ZM76.5023 26.5244V8.66113H79.0258V26.5244H76.5023Z" fill="#5D3C0E"/>
<path d="M83.7738 17.5928C83.7738 14.7594 84.4932 12.4684 85.932 10.7197C87.3708 8.94889 89.3077 8.06348 91.7426 8.06348C93.3363 8.06348 94.6976 8.52832 95.8265 9.45801C96.9776 10.3656 97.7413 11.4502 98.1176 12.7119L95.9261 13.3428C95.5941 12.4574 95.0518 11.7158 94.2992 11.1182C93.5687 10.5205 92.7165 10.2217 91.7426 10.2217C90.1045 10.2217 88.7985 10.9189 87.8246 12.3135C86.8506 13.708 86.3636 15.4678 86.3636 17.5928C86.3636 19.8506 86.8728 21.6436 87.891 22.9717C88.9092 24.2998 90.1931 24.9639 91.7426 24.9639C92.7829 24.9639 93.7237 24.6318 94.5648 23.9678C95.4281 23.2816 96.0368 22.4958 96.391 21.6104L98.5824 22.3076C98.1176 23.6357 97.2653 24.7757 96.0258 25.7275C94.8083 26.6572 93.3806 27.1221 91.7426 27.1221C89.3741 27.1221 87.4483 26.2588 85.9652 24.5322C84.5043 22.8057 83.7738 20.4925 83.7738 17.5928Z" fill="#5D3C0E"/>
<path d="M113.789 17.2275H123.153L120.231 8.86035C120.054 8.35124 119.766 7.54329 119.368 6.43652C118.991 5.30762 118.726 4.52181 118.571 4.0791H118.371C117.442 6.80176 116.899 8.39551 116.745 8.86035L113.789 17.2275ZM107.547 26.5244L116.844 1.65527H120.098L129.395 26.5244H126.473L123.95 19.3525H112.993L110.469 26.5244H107.547Z" fill="#5D3C0E"/>
<path d="M132.682 7.49902V5.47363H133.678C135.582 5.47363 136.877 5.18587 137.563 4.61035C138.249 4.03483 138.592 3.20475 138.592 2.12012V1.35645H140.85V26.8564H138.127V7.49902H132.682Z" fill="#5D3C0E"/>
<path d="M159.377 4.64355V1.29004H162.631V4.64355H159.377ZM159.776 26.5244V8.66113H162.299V26.5244H159.776Z" fill="#5D3C0E"/>
<path d="M168.243 26.5244V8.66113H170.766V11.7158H170.799C171.065 10.8304 171.718 10.0003 172.758 9.22559C173.799 8.45085 175.038 8.06348 176.477 8.06348C178.137 8.06348 179.498 8.58366 180.561 9.62402C181.646 10.6644 182.188 12.4463 182.188 14.9697V26.5244H179.598V15.4014C179.598 11.9482 178.358 10.2217 175.879 10.2217C174.507 10.2217 173.323 10.7751 172.327 11.8818C171.33 12.9886 170.832 14.3167 170.832 15.8662V26.5244H168.243Z" fill="#5D3C0E"/>
<path d="M199.055 13.5088H205.762C207.422 13.5088 208.695 13.0661 209.58 12.1807C210.488 11.2952 210.942 10.1221 210.942 8.66113C210.942 7.24447 210.466 6.10449 209.514 5.24121C208.584 4.35579 207.245 3.91309 205.496 3.91309H199.055V13.5088ZM196.399 26.5244V1.65527H206.094C208.529 1.65527 210.399 2.31934 211.705 3.64746C213.011 4.95345 213.664 6.56934 213.664 8.49512C213.664 10.2438 213.222 11.6605 212.336 12.7451C211.451 13.8298 210.477 14.516 209.414 14.8037C210.344 15.2907 211.019 15.8883 211.44 16.5967C211.86 17.305 212.203 18.29 212.469 19.5518C212.757 20.7913 212.956 21.6436 213.067 22.1084C213.2 22.5511 213.421 23.193 213.731 24.0342C214.063 24.8753 214.461 25.7054 214.926 26.5244H211.938C211.562 25.8161 211.218 25.0635 210.909 24.2666C210.621 23.4476 210.411 22.7835 210.278 22.2744C210.145 21.7432 209.946 20.902 209.68 19.751C209.392 18.5114 208.95 17.5374 208.352 16.8291C207.776 16.1208 206.847 15.7666 205.563 15.7666H199.055V26.5244H196.399Z" fill="#5D3C0E"/>
<path d="M216.852 17.46C216.852 14.6709 217.605 12.4131 219.11 10.6865C220.615 8.93783 222.563 8.06348 224.953 8.06348C227.388 8.06348 229.303 8.91569 230.698 10.6201C232.092 12.3024 232.789 14.4606 232.789 17.0947C232.789 17.4046 232.767 17.8473 232.723 18.4229H219.442C219.442 20.2158 219.94 21.7542 220.936 23.0381C221.932 24.3219 223.315 24.9639 225.086 24.9639C226.237 24.9639 227.256 24.6982 228.141 24.167C229.026 23.6136 229.713 22.8831 230.2 21.9756L232.391 22.6396C231.838 23.9456 230.941 25.0192 229.702 25.8604C228.462 26.7015 226.924 27.1221 225.086 27.1221C222.607 27.1221 220.615 26.2367 219.11 24.4658C217.605 22.695 216.852 20.3597 216.852 17.46ZM219.508 16.4639H230.2C230.2 14.7152 229.724 13.2432 228.772 12.0479C227.82 10.8304 226.547 10.2217 224.953 10.2217C223.338 10.2217 222.032 10.8415 221.036 12.0811C220.062 13.3206 219.552 14.7816 219.508 16.4639Z" fill="#5D3C0E"/>
<path d="M238.235 17.2607C238.235 19.3636 238.7 21.068 239.629 22.374C240.559 23.6579 241.776 24.2998 243.282 24.2998C244.809 24.2998 246.015 23.68 246.901 22.4404C247.808 21.2008 248.262 19.4632 248.262 17.2275C248.262 15.0583 247.797 13.3538 246.868 12.1143C245.96 10.8525 244.787 10.2217 243.348 10.2217C241.799 10.2217 240.559 10.8857 239.629 12.2139C238.7 13.5199 238.235 15.2021 238.235 17.2607ZM235.645 17.2939C235.645 14.527 236.331 12.3024 237.703 10.6201C239.076 8.91569 240.847 8.06348 243.016 8.06348C244.388 8.06348 245.506 8.41764 246.37 9.12598C247.255 9.83431 247.886 10.6533 248.262 11.583V8.66113H250.786V24.4326C250.786 27.8193 250.177 30.3317 248.959 31.9697C247.764 33.6299 245.849 34.46 243.215 34.46C240.36 34.46 238.146 33.3753 236.575 31.2061L238.368 30.0439C239.74 31.5934 241.378 32.3682 243.282 32.3682C244.853 32.3682 246.071 31.7484 246.934 30.5088C247.819 29.2913 248.262 27.6533 248.262 25.5947V23.0381C247.797 24.0342 247.122 24.8532 246.237 25.4951C245.373 26.137 244.322 26.458 243.082 26.458C240.825 26.458 239.021 25.6058 237.67 23.9014C236.32 22.1748 235.645 19.9723 235.645 17.2939Z" fill="#5D3C0E"/>
<path d="M255.998 20.249V8.66113H258.588V19.7178C258.588 23.2152 259.872 24.9639 262.44 24.9639C264.011 24.9639 265.207 24.3551 266.026 23.1377C266.867 21.9202 267.287 20.4814 267.287 18.8213V8.66113H269.811V26.5244H267.354V23.6357C267.177 24.3662 266.623 25.1299 265.694 25.9268C264.786 26.7236 263.502 27.1221 261.842 27.1221C260.138 27.1221 258.732 26.5465 257.625 25.3955C256.541 24.2223 255.998 22.5068 255.998 20.249Z" fill="#5D3C0E"/>
<path d="M275.555 26.5244V0.725586H278.078V26.5244H275.555Z" fill="#5D3C0E"/>
<path d="M285.118 21.9424C285.118 22.7835 285.472 23.5029 286.18 24.1006C286.888 24.6761 287.862 24.9639 289.102 24.9639C290.674 24.9639 292.013 24.4548 293.12 23.4365C294.248 22.4183 294.813 21.1234 294.813 19.5518V17.0615C293.839 17.305 292.289 17.5928 290.164 17.9248C288.438 18.2347 287.165 18.7106 286.346 19.3525C285.527 19.9945 285.118 20.8577 285.118 21.9424ZM282.528 22.1416C282.528 18.8213 285.095 16.7627 290.231 15.9658C292.533 15.5895 294.06 15.2796 294.813 15.0361V14.0068C294.813 12.9001 294.414 11.9814 293.618 11.251C292.821 10.5205 291.692 10.1553 290.231 10.1553C289.168 10.1553 288.139 10.4098 287.143 10.9189C286.169 11.4059 285.339 12.07 284.653 12.9111L282.993 11.5166C283.878 10.4984 284.94 9.66829 286.18 9.02637C287.442 8.38444 288.77 8.06348 290.164 8.06348C294.946 8.06348 297.336 10.3988 297.336 15.0693V26.5244H294.879V23.6025C294.525 24.5544 293.795 25.3844 292.688 26.0928C291.581 26.779 290.275 27.1221 288.77 27.1221C286.8 27.1221 285.261 26.6572 284.155 25.7275C283.07 24.7979 282.528 23.6025 282.528 22.1416Z" fill="#5D3C0E"/>
<path d="M302.483 26.5244V8.66113H304.94V11.251C305.294 10.4541 305.881 9.72363 306.7 9.05957C307.519 8.39551 308.57 8.06348 309.854 8.06348C310.806 8.06348 311.647 8.21842 312.377 8.52832V10.8525C311.58 10.5426 310.739 10.3877 309.854 10.3877C308.349 10.3877 307.175 10.9521 306.334 12.0811C305.493 13.21 305.073 14.7041 305.073 16.5635V26.5244H302.483Z" fill="#5D3C0E"/>
<path d="M0.467163 66.1064C0.467163 62.2549 1.43005 59.1227 3.35583 56.71C5.30375 54.2751 7.94893 53.0576 11.2914 53.0576C12.4203 53.0576 13.4717 53.2347 14.4457 53.5889C15.4196 53.9209 16.2276 54.3747 16.8695 54.9502C17.5336 55.5257 18.0759 56.0902 18.4965 56.6436C18.9392 57.1748 19.3044 57.7393 19.5922 58.3369L17.3344 59.1338C15.7627 56.5882 13.7484 55.3154 11.2914 55.3154C8.74581 55.3154 6.75362 56.3115 5.31482 58.3037C3.89815 60.2738 3.18982 62.8747 3.18982 66.1064C3.18982 69.471 3.92029 72.1051 5.38123 74.0088C6.84216 75.8903 8.76794 76.8311 11.1586 76.8311C13.3278 76.8311 14.9991 76.1227 16.1722 74.7061C17.3454 73.2894 17.932 71.6182 17.932 69.6924V67.3682H10.8929V65.1104H20.5219V78.5244H18.5961L18.3969 74.8721C17.0909 77.7054 14.656 79.1221 11.0922 79.1221C7.9268 79.1221 5.35909 77.96 3.38904 75.6357C1.44112 73.3115 0.467163 70.1351 0.467163 66.1064Z" fill="#5D3C0E"/>
<path d="M26.8969 69.5928C26.8969 71.8506 27.417 73.6436 28.4574 74.9717C29.4978 76.2998 30.7927 76.9639 32.3422 76.9639C33.8695 76.9639 35.1534 76.2998 36.1937 74.9717C37.2562 73.6436 37.7875 71.8506 37.7875 69.5928C37.7875 67.2907 37.2562 65.4867 36.1937 64.1807C35.1312 62.8747 33.8474 62.2217 32.3422 62.2217C30.8148 62.2217 29.5199 62.8747 28.4574 64.1807C27.417 65.4867 26.8969 67.2907 26.8969 69.5928ZM24.307 69.5928C24.307 66.8701 25.0043 64.6012 26.3988 62.7861C27.8155 60.971 29.7966 60.0635 32.3422 60.0635C34.8656 60.0635 36.8357 60.971 38.2523 62.7861C39.669 64.6012 40.3773 66.8701 40.3773 69.5928C40.3773 70.7438 40.2224 71.8617 39.9125 72.9463C39.6247 74.0309 39.1709 75.0492 38.5511 76.001C37.9535 76.9307 37.1123 77.6833 36.0277 78.2588C34.9652 78.8343 33.7367 79.1221 32.3422 79.1221C30.9698 79.1221 29.7413 78.8454 28.6566 78.292C27.5941 77.7165 26.753 76.9639 26.1332 76.0342C25.5355 75.0824 25.0817 74.0641 24.7719 72.9795C24.462 71.8949 24.307 70.766 24.307 69.5928Z" fill="#5D3C0E"/>
<path d="M42.5023 62.8193V60.6611H45.6234V54.9502H48.2133V60.6611H52.9281V62.8193H48.2133V73.2783C48.2133 74.3851 48.4235 75.1709 48.8441 75.6357C49.2647 76.1006 49.9398 76.333 50.8695 76.333H52.9281V78.5244H50.5375C47.2614 78.5244 45.6234 76.8532 45.6234 73.5107V62.8193H42.5023Z" fill="#5D3C0E"/>
<path d="M56.8129 78.5244V52.7256H59.3363V63.5498H59.4027C59.8454 62.598 60.5538 61.779 61.5277 61.0928C62.5238 60.4066 63.6527 60.0635 64.9144 60.0635C68.766 60.0635 70.6918 62.3656 70.6918 66.9697V78.5244H68.1683V67.4014C68.1683 63.9482 66.9288 62.2217 64.4496 62.2217C63.0772 62.2217 61.8819 62.7861 60.8636 63.915C59.8454 65.0439 59.3363 66.3831 59.3363 67.9326V78.5244H56.8129Z" fill="#5D3C0E"/>
<path d="M76.1039 56.6436V53.29H79.3578V56.6436H76.1039ZM76.5023 78.5244V60.6611H79.0258V78.5244H76.5023Z" fill="#5D3C0E"/>
<path d="M83.7738 69.5928C83.7738 66.7594 84.4932 64.4684 85.932 62.7197C87.3708 60.9489 89.3077 60.0635 91.7426 60.0635C93.3363 60.0635 94.6976 60.5283 95.8265 61.458C96.9776 62.3656 97.7413 63.4502 98.1176 64.7119L95.9261 65.3428C95.5941 64.4574 95.0518 63.7158 94.2992 63.1182C93.5687 62.5205 92.7165 62.2217 91.7426 62.2217C90.1045 62.2217 88.7985 62.9189 87.8246 64.3135C86.8506 65.708 86.3636 67.4678 86.3636 69.5928C86.3636 71.8506 86.8728 73.6436 87.891 74.9717C88.9092 76.2998 90.1931 76.9639 91.7426 76.9639C92.7829 76.9639 93.7237 76.6318 94.5648 75.9678C95.4281 75.2816 96.0368 74.4958 96.391 73.6104L98.5824 74.3076C98.1176 75.6357 97.2653 76.7757 96.0258 77.7275C94.8083 78.6572 93.3806 79.1221 91.7426 79.1221C89.3741 79.1221 87.4483 78.2588 85.9652 76.5322C84.5043 74.8057 83.7738 72.4925 83.7738 69.5928Z" fill="#5D3C0E"/>
<path d="M113.789 69.2275H123.153L120.231 60.8604C120.054 60.3512 119.766 59.5433 119.368 58.4365C118.991 57.3076 118.726 56.5218 118.571 56.0791H118.371C117.442 58.8018 116.899 60.3955 116.745 60.8604L113.789 69.2275ZM107.547 78.5244L116.844 53.6553H120.098L129.395 78.5244H126.473L123.95 71.3525H112.993L110.469 78.5244H107.547Z" fill="#5D3C0E"/>
<path d="M132.682 59.499V57.4736H133.678C135.582 57.4736 136.877 57.1859 137.563 56.6104C138.249 56.0348 138.592 55.2048 138.592 54.1201V53.3564H140.85V78.8564H138.127V59.499H132.682Z" fill="#5D3C0E"/>
<path d="M159.377 56.6436V53.29H162.631V56.6436H159.377ZM159.776 78.5244V60.6611H162.299V78.5244H159.776Z" fill="#5D3C0E"/>
<path d="M168.243 78.5244V60.6611H170.766V63.7158H170.799C171.065 62.8304 171.718 62.0003 172.758 61.2256C173.799 60.4508 175.038 60.0635 176.477 60.0635C178.137 60.0635 179.498 60.5837 180.561 61.624C181.646 62.6644 182.188 64.4463 182.188 66.9697V78.5244H179.598V67.4014C179.598 63.9482 178.358 62.2217 175.879 62.2217C174.507 62.2217 173.323 62.7751 172.327 63.8818C171.33 64.9886 170.832 66.3167 170.832 67.8662V78.5244H168.243Z" fill="#5D3C0E"/>
<path d="M193.842 72.9131L197.694 71.6182C198.314 72.7249 199.21 73.6325 200.383 74.3408C201.556 75.027 202.851 75.3701 204.268 75.3701C205.729 75.3701 206.902 75.016 207.787 74.3076C208.673 73.5993 209.116 72.6807 209.116 71.5518C209.116 70.3564 208.64 69.4268 207.688 68.7627C206.758 68.0986 205.386 67.4567 203.571 66.8369C200.981 65.9736 199.232 65.2874 198.325 64.7783C195.956 63.4281 194.772 61.4691 194.772 58.9014C194.772 56.7321 195.624 54.9834 197.328 53.6553C199.033 52.3271 201.258 51.6631 204.002 51.6631C206.26 51.6631 208.186 52.1943 209.78 53.2568C211.396 54.2972 212.569 55.6364 213.299 57.2744L209.614 58.5029C208.197 56.4443 206.315 55.415 203.969 55.415C202.53 55.415 201.39 55.736 200.549 56.3779C199.708 57.0199 199.287 57.861 199.287 58.9014C199.287 59.2113 199.321 59.5101 199.387 59.7979C199.453 60.0635 199.586 60.318 199.786 60.5615C199.985 60.805 200.162 61.0153 200.317 61.1924C200.472 61.3695 200.726 61.5576 201.08 61.7568C201.435 61.9561 201.711 62.111 201.911 62.2217C202.132 62.3324 202.486 62.4762 202.973 62.6533C203.46 62.8304 203.803 62.9521 204.002 63.0186C204.224 63.085 204.622 63.2178 205.198 63.417C205.773 63.5941 206.161 63.7158 206.36 63.7822C207.378 64.1143 208.274 64.4684 209.049 64.8447C209.824 65.221 210.577 65.708 211.307 66.3057C212.06 66.8812 212.635 67.6006 213.034 68.4639C213.432 69.3271 213.631 70.3011 213.631 71.3857C213.631 73.8428 212.746 75.7464 210.975 77.0967C209.226 78.4469 206.957 79.1221 204.168 79.1221C201.756 79.1221 199.642 78.5687 197.827 77.4619C196.011 76.333 194.683 74.8167 193.842 72.9131Z" fill="#5D3C0E"/>
<path d="M215.856 68.8623C215.856 65.7855 216.697 63.3395 218.379 61.5244C220.084 59.6872 222.22 58.7686 224.787 58.7686C227.311 58.7686 229.392 59.6872 231.03 61.5244C232.668 63.3617 233.487 65.7523 233.487 68.6963C233.487 69.2718 233.453 69.8363 233.387 70.3896H220.106C220.106 71.8506 220.537 73.1123 221.401 74.1748C222.286 75.2152 223.493 75.7354 225.02 75.7354C226.082 75.7354 227.012 75.4808 227.809 74.9717C228.628 74.4404 229.248 73.7653 229.668 72.9463L233.188 74.1416C232.568 75.5583 231.561 76.7425 230.166 77.6943C228.772 78.6462 227.034 79.1221 224.953 79.1221C222.275 79.1221 220.084 78.1924 218.379 76.333C216.697 74.4736 215.856 71.9834 215.856 68.8623ZM220.172 67.4346H229.203C229.203 65.9736 228.816 64.734 228.041 63.7158C227.267 62.6755 226.182 62.1553 224.787 62.1553C223.393 62.1553 222.275 62.6865 221.434 63.749C220.615 64.7894 220.194 66.0179 220.172 67.4346Z" fill="#5D3C0E"/>
<path d="M236.907 78.5244V59.3662H240.991V61.5908C241.323 60.9489 241.92 60.318 242.784 59.6982C243.647 59.0785 244.687 58.7686 245.905 58.7686C248.008 58.7686 249.557 59.9085 250.553 62.1885C250.708 61.8786 250.907 61.5687 251.151 61.2588C251.416 60.9489 251.771 60.5837 252.213 60.1631C252.678 59.7425 253.265 59.4105 253.973 59.167C254.703 58.9014 255.489 58.7686 256.33 58.7686C260.248 58.7686 262.207 61.2477 262.207 66.2061V78.5244H257.957V66.3389C257.957 65.0107 257.769 64.0146 257.393 63.3506C257.017 62.6865 256.353 62.3545 255.401 62.3545C254.272 62.3545 253.353 62.8304 252.645 63.7822C251.959 64.7119 251.616 65.863 251.616 67.2354V78.5244H247.465V66.2393C247.465 63.6494 246.602 62.3545 244.875 62.3545C243.68 62.3545 242.75 62.7972 242.086 63.6826C241.444 64.568 241.123 65.7301 241.123 67.1689V78.5244H236.907Z" fill="#5D3C0E"/>
<path d="M266.756 56.5107V51.8955H271.272V56.5107H266.756ZM266.955 78.5244V59.3662H271.106V78.5244H266.955Z" fill="#5D3C0E"/>
<path d="M276.286 78.5244V51.3975H280.436V61.5244C280.945 60.7718 281.62 60.1299 282.461 59.5986C283.325 59.0452 284.299 58.7686 285.383 58.7686C287.73 58.7686 289.666 59.6761 291.194 61.4912C292.721 63.2842 293.485 65.7633 293.485 68.9287C293.485 70.3675 293.319 71.6735 292.987 72.8467C292.655 74.0199 292.223 74.9938 291.692 75.7686C291.161 76.5212 290.53 77.1631 289.799 77.6943C289.091 78.2035 288.371 78.5687 287.641 78.79C286.911 79.0114 286.169 79.1221 285.416 79.1221C284.287 79.1221 283.258 78.8232 282.328 78.2256C281.421 77.6058 280.768 76.8864 280.37 76.0674V78.5244H276.286ZM280.403 68.9287C280.403 70.9652 280.801 72.5811 281.598 73.7764C282.417 74.9495 283.48 75.5361 284.786 75.5361C286.069 75.5361 287.121 74.9717 287.94 73.8428C288.759 72.7139 289.168 71.0758 289.168 68.9287C289.168 66.9144 288.77 65.3206 287.973 64.1475C287.198 62.9521 286.136 62.3545 284.786 62.3545C283.457 62.3545 282.395 62.9632 281.598 64.1807C280.801 65.376 280.403 66.9587 280.403 68.9287Z" fill="#5D3C0E"/>
<path d="M300.192 68.9619C300.192 71.1755 300.646 72.8245 301.553 73.9092C302.461 74.9938 303.523 75.5361 304.741 75.5361C305.936 75.5361 306.987 74.9938 307.895 73.9092C308.802 72.8245 309.256 71.1755 309.256 68.9619C309.256 66.7041 308.802 65.0439 307.895 63.9814C306.987 62.8968 305.936 62.3545 304.741 62.3545C303.545 62.3545 302.483 62.8968 301.553 63.9814C300.646 65.0439 300.192 66.7041 300.192 68.9619ZM295.875 68.9619C295.875 66.1064 296.628 63.6937 298.133 61.7236C299.638 59.7536 301.841 58.7686 304.741 58.7686C307.618 58.7686 309.81 59.7536 311.315 61.7236C312.82 63.6937 313.573 66.1064 313.573 68.9619C313.573 69.8473 313.484 70.7327 313.307 71.6182C313.152 72.5036 312.864 73.4111 312.444 74.3408C312.023 75.2484 311.492 76.0563 310.85 76.7646C310.208 77.4508 309.356 78.0153 308.293 78.458C307.253 78.9007 306.069 79.1221 304.741 79.1221C303.435 79.1221 302.25 78.9118 301.188 78.4912C300.148 78.0485 299.295 77.4951 298.631 76.8311C297.989 76.1449 297.447 75.348 297.004 74.4404C296.584 73.5107 296.285 72.6032 296.108 71.7178C295.953 70.8102 295.875 69.8916 295.875 68.9619Z" fill="#5D3C0E"/>
<path d="M317.391 78.5244V51.3975H321.575V78.5244H317.391Z" fill="#5D3C0E"/>
<path d="M325.393 68.9287C325.393 65.7855 326.157 63.3063 327.684 61.4912C329.233 59.6761 331.192 58.7686 333.561 58.7686C334.69 58.7686 335.664 59.0452 336.483 59.5986C337.324 60.1299 337.966 60.7607 338.409 61.4912V51.3975H342.592V78.5244H338.541V76.0342C338.143 76.8753 337.479 77.6058 336.549 78.2256C335.642 78.8232 334.634 79.1221 333.528 79.1221C332.532 79.1221 331.569 78.9339 330.639 78.5576C329.709 78.1813 328.835 77.6058 328.016 76.8311C327.219 76.0563 326.577 74.9938 326.09 73.6436C325.625 72.2712 325.393 70.6995 325.393 68.9287ZM329.709 68.9287C329.709 71.0094 330.108 72.6364 330.905 73.8096C331.724 74.9606 332.797 75.5361 334.125 75.5361C335.409 75.5361 336.45 74.9495 337.246 73.7764C338.065 72.5811 338.475 70.9652 338.475 68.9287C338.475 66.9587 338.077 65.376 337.28 64.1807C336.505 62.9632 335.453 62.3545 334.125 62.3545C332.731 62.3545 331.646 62.9521 330.871 64.1475C330.097 65.3428 329.709 66.9365 329.709 68.9287Z" fill="#5D3C0E"/>
<path d="M0.467163 118.106C0.467163 114.255 1.43005 111.123 3.35583 108.71C5.30375 106.275 7.94893 105.058 11.2914 105.058C12.4203 105.058 13.4717 105.235 14.4457 105.589C15.4196 105.921 16.2276 106.375 16.8695 106.95C17.5336 107.526 18.0759 108.09 18.4965 108.644C18.9392 109.175 19.3044 109.739 19.5922 110.337L17.3344 111.134C15.7627 108.588 13.7484 107.315 11.2914 107.315C8.74581 107.315 6.75362 108.312 5.31482 110.304C3.89815 112.274 3.18982 114.875 3.18982 118.106C3.18982 121.471 3.92029 124.105 5.38123 126.009C6.84216 127.89 8.76794 128.831 11.1586 128.831C13.3278 128.831 14.9991 128.123 16.1722 126.706C17.3454 125.289 17.932 123.618 17.932 121.692V119.368H10.8929V117.11H20.5219V130.524H18.5961L18.3969 126.872C17.0909 129.705 14.656 131.122 11.0922 131.122C7.9268 131.122 5.35909 129.96 3.38904 127.636C1.44112 125.312 0.467163 122.135 0.467163 118.106Z" fill="#5D3C0E"/>
<path d="M26.8969 121.593C26.8969 123.851 27.417 125.644 28.4574 126.972C29.4978 128.3 30.7927 128.964 32.3422 128.964C33.8695 128.964 35.1534 128.3 36.1937 126.972C37.2562 125.644 37.7875 123.851 37.7875 121.593C37.7875 119.291 37.2562 117.487 36.1937 116.181C35.1312 114.875 33.8474 114.222 32.3422 114.222C30.8148 114.222 29.5199 114.875 28.4574 116.181C27.417 117.487 26.8969 119.291 26.8969 121.593ZM24.307 121.593C24.307 118.87 25.0043 116.601 26.3988 114.786C27.8155 112.971 29.7966 112.063 32.3422 112.063C34.8656 112.063 36.8357 112.971 38.2523 114.786C39.669 116.601 40.3773 118.87 40.3773 121.593C40.3773 122.744 40.2224 123.862 39.9125 124.946C39.6247 126.031 39.1709 127.049 38.5511 128.001C37.9535 128.931 37.1123 129.683 36.0277 130.259C34.9652 130.834 33.7367 131.122 32.3422 131.122C30.9698 131.122 29.7413 130.845 28.6566 130.292C27.5941 129.716 26.753 128.964 26.1332 128.034C25.5355 127.082 25.0817 126.064 24.7719 124.979C24.462 123.895 24.307 122.766 24.307 121.593Z" fill="#5D3C0E"/>
<path d="M42.5023 114.819V112.661H45.6234V106.95H48.2133V112.661H52.9281V114.819H48.2133V125.278C48.2133 126.385 48.4235 127.171 48.8441 127.636C49.2647 128.101 49.9398 128.333 50.8695 128.333H52.9281V130.524H50.5375C47.2614 130.524 45.6234 128.853 45.6234 125.511V114.819H42.5023Z" fill="#5D3C0E"/>
<path d="M56.8129 130.524V104.726H59.3363V115.55H59.4027C59.8454 114.598 60.5538 113.779 61.5277 113.093C62.5238 112.407 63.6527 112.063 64.9144 112.063C68.766 112.063 70.6918 114.366 70.6918 118.97V130.524H68.1683V119.401C68.1683 115.948 66.9288 114.222 64.4496 114.222C63.0772 114.222 61.8819 114.786 60.8636 115.915C59.8454 117.044 59.3363 118.383 59.3363 119.933V130.524H56.8129Z" fill="#5D3C0E"/>
<path d="M76.1039 108.644V105.29H79.3578V108.644H76.1039ZM76.5023 130.524V112.661H79.0258V130.524H76.5023Z" fill="#5D3C0E"/>
<path d="M83.7738 121.593C83.7738 118.759 84.4932 116.468 85.932 114.72C87.3708 112.949 89.3077 112.063 91.7426 112.063C93.3363 112.063 94.6976 112.528 95.8265 113.458C96.9776 114.366 97.7413 115.45 98.1176 116.712L95.9261 117.343C95.5941 116.457 95.0518 115.716 94.2992 115.118C93.5687 114.521 92.7165 114.222 91.7426 114.222C90.1045 114.222 88.7985 114.919 87.8246 116.313C86.8506 117.708 86.3636 119.468 86.3636 121.593C86.3636 123.851 86.8728 125.644 87.891 126.972C88.9092 128.3 90.1931 128.964 91.7426 128.964C92.7829 128.964 93.7237 128.632 94.5648 127.968C95.4281 127.282 96.0368 126.496 96.391 125.61L98.5824 126.308C98.1176 127.636 97.2653 128.776 96.0258 129.728C94.8083 130.657 93.3806 131.122 91.7426 131.122C89.3741 131.122 87.4483 130.259 85.9652 128.532C84.5043 126.806 83.7738 124.493 83.7738 121.593Z" fill="#5D3C0E"/>
<path d="M113.789 121.228H123.153L120.231 112.86C120.054 112.351 119.766 111.543 119.368 110.437C118.991 109.308 118.726 108.522 118.571 108.079H118.371C117.442 110.802 116.899 112.396 116.745 112.86L113.789 121.228ZM107.547 130.524L116.844 105.655H120.098L129.395 130.524H126.473L123.95 123.353H112.993L110.469 130.524H107.547Z" fill="#5D3C0E"/>
<path d="M132.682 111.499V109.474H133.678C135.582 109.474 136.877 109.186 137.563 108.61C138.249 108.035 138.592 107.205 138.592 106.12V105.356H140.85V130.856H138.127V111.499H132.682Z" fill="#5D3C0E"/>
<path d="M159.377 108.644V105.29H162.631V108.644H159.377ZM159.776 130.524V112.661H162.299V130.524H159.776Z" fill="#5D3C0E"/>
<path d="M168.243 130.524V112.661H170.766V115.716H170.799C171.065 114.83 171.718 114 172.758 113.226C173.799 112.451 175.038 112.063 176.477 112.063C178.137 112.063 179.498 112.584 180.561 113.624C181.646 114.664 182.188 116.446 182.188 118.97V130.524H179.598V119.401C179.598 115.948 178.358 114.222 175.879 114.222C174.507 114.222 173.323 114.775 172.327 115.882C171.33 116.989 170.832 118.317 170.832 119.866V130.524H168.243Z" fill="#5D3C0E"/>
<path d="M195.901 130.524V104.261H205.862C208.651 104.261 210.743 104.881 212.137 106.12C213.532 107.36 214.229 109.053 214.229 111.2C214.229 112.484 213.93 113.591 213.332 114.521C212.735 115.428 211.949 116.136 210.975 116.646C212.082 117.044 213.056 117.797 213.897 118.903C214.738 119.988 215.159 121.316 215.159 122.888C215.159 125.079 214.45 126.905 213.034 128.366C211.639 129.805 209.68 130.524 207.157 130.524H195.901ZM200.284 126.806H206.393C207.566 126.806 208.562 126.463 209.381 125.776C210.222 125.09 210.643 124.127 210.643 122.888C210.643 121.715 210.256 120.752 209.481 119.999C208.728 119.246 207.666 118.87 206.293 118.87H200.284V126.806ZM200.284 115.185H205.43C206.692 115.185 207.721 114.886 208.518 114.288C209.315 113.668 209.713 112.75 209.713 111.532C209.713 110.448 209.37 109.595 208.684 108.976C208.02 108.334 206.98 108.013 205.563 108.013H200.284V115.185Z" fill="#5D3C0E"/>
<path d="M222.131 120.962C222.131 123.175 222.585 124.825 223.493 125.909C224.4 126.994 225.463 127.536 226.68 127.536C227.875 127.536 228.927 126.994 229.834 125.909C230.742 124.825 231.196 123.175 231.196 120.962C231.196 118.704 230.742 117.044 229.834 115.981C228.927 114.897 227.875 114.354 226.68 114.354C225.485 114.354 224.422 114.897 223.493 115.981C222.585 117.044 222.131 118.704 222.131 120.962ZM217.815 120.962C217.815 118.106 218.567 115.694 220.073 113.724C221.578 111.754 223.78 110.769 226.68 110.769C229.558 110.769 231.749 111.754 233.254 113.724C234.759 115.694 235.512 118.106 235.512 120.962C235.512 121.847 235.424 122.733 235.246 123.618C235.092 124.504 234.804 125.411 234.383 126.341C233.963 127.248 233.431 128.056 232.789 128.765C232.148 129.451 231.295 130.015 230.233 130.458C229.192 130.901 228.008 131.122 226.68 131.122C225.374 131.122 224.19 130.912 223.127 130.491C222.087 130.049 221.235 129.495 220.571 128.831C219.929 128.145 219.386 127.348 218.944 126.44C218.523 125.511 218.224 124.603 218.047 123.718C217.892 122.81 217.815 121.892 217.815 120.962Z" fill="#5D3C0E"/>
<path d="M239.33 130.524V103.397H243.514V130.524H239.33Z" fill="#5D3C0E"/>
<path d="M247.332 120.929C247.332 117.785 248.096 115.306 249.623 113.491C251.173 111.676 253.132 110.769 255.5 110.769C256.629 110.769 257.603 111.045 258.422 111.599C259.263 112.13 259.905 112.761 260.348 113.491V103.397H264.532V130.524H260.481V128.034C260.082 128.875 259.418 129.606 258.489 130.226C257.581 130.823 256.574 131.122 255.467 131.122C254.471 131.122 253.508 130.934 252.578 130.558C251.649 130.181 250.774 129.606 249.955 128.831C249.159 128.056 248.517 126.994 248.03 125.644C247.565 124.271 247.332 122.7 247.332 120.929ZM251.649 120.929C251.649 123.009 252.047 124.636 252.844 125.81C253.663 126.961 254.737 127.536 256.065 127.536C257.349 127.536 258.389 126.95 259.186 125.776C260.005 124.581 260.414 122.965 260.414 120.929C260.414 118.959 260.016 117.376 259.219 116.181C258.444 114.963 257.393 114.354 256.065 114.354C254.67 114.354 253.586 114.952 252.811 116.147C252.036 117.343 251.649 118.937 251.649 120.929Z" fill="#5D3C0E"/>
</svg>
