<svg width="101" height="101" viewBox="0 0 101 101" fill="none" xmlns="http://www.w3.org/2000/svg">
<g clip-path="url(#clip0)">
<path d="M77.4537 44.9037C66.9537 44.9037 57.7537 50.5037 52.7537 59.0037V42.1037C67.6537 41.1037 79.4537 28.6037 79.4537 13.5037C79.4537 12.4037 78.5537 11.5037 77.4537 11.5037C61.6537 11.5037 48.7537 24.4037 48.7537 40.2037V42.3037C43.7537 33.9037 34.5537 28.2037 24.0537 28.2037C22.9537 28.2037 22.0537 29.1037 22.0537 30.2037C22.0537 45.3037 33.8537 57.8037 48.7537 58.8037V93.5037C48.7537 94.6037 49.6537 95.5037 50.7537 95.5037C51.8537 95.5037 52.7537 94.6037 52.7537 93.5037V75.5037C67.6537 74.5037 79.4537 62.0037 79.4537 46.9037C79.4537 45.8037 78.5537 44.9037 77.4537 44.9037ZM75.3537 15.6037C74.3537 27.5037 64.7537 37.1037 52.8537 38.1037C53.8537 26.2037 63.3537 16.6037 75.3537 15.6037ZM26.1537 32.3037C38.0537 33.3037 47.6537 42.9037 48.6537 54.8037C36.7537 53.8037 27.1537 44.2037 26.1537 32.3037ZM52.8537 71.4037C53.8537 59.5037 63.4537 49.9037 75.3537 48.9037C74.3537 60.9037 64.7537 70.4037 52.8537 71.4037Z" fill="#153536"/>
</g>
<defs>
<clipPath id="clip0">
<rect width="144.928" height="144.928" fill="white" transform="translate(0.753906 0.203613) scale(0.69)"/>
</clipPath>
</defs>
</svg>
