<svg width="97" height="89" viewBox="0 0 97 89" fill="none" xmlns="http://www.w3.org/2000/svg">
<g clip-path="url(#clip0)">
<path d="M75.8261 28.1019C75.284 25.3988 73.8734 22.9066 71.7759 20.9459C69.6784 18.9852 66.9899 17.6458 64.0565 17.1C56.3093 15.4074 51.0101 19.3392 48.2261 23.174C45.4325 19.3744 40.1429 15.3986 32.3957 17.1C29.4622 17.6458 26.7737 18.9852 24.6762 20.9459C22.5787 22.9066 21.1681 25.3988 20.6261 28.1019C17.6693 41.008 29.0261 60.2084 47.0645 72.753C47.3985 72.9861 47.8065 73.1123 48.2261 73.1123C48.6456 73.1123 49.0536 72.9861 49.3877 72.753C67.4261 60.1995 78.7829 41.008 75.8261 28.1019ZM48.2261 69.1209C30.4469 56.2501 22.1333 38.6718 24.3893 28.8336C24.7647 26.7793 25.819 24.8807 27.4092 23.3952C28.9994 21.9097 31.0485 20.9092 33.2789 20.5293C34.1616 20.329 35.0671 20.2255 35.9765 20.2207C43.2341 20.2207 46.2965 27.2115 46.4309 27.5377C46.569 27.8722 46.8148 28.1602 47.1354 28.3635C47.4561 28.5667 47.8364 28.6755 48.2261 28.6755C48.6157 28.6755 48.9961 28.5667 49.3167 28.3635C49.6374 28.1602 49.8831 27.8722 50.0213 27.5377C50.1749 27.1674 53.8613 18.4929 63.1733 20.4852C65.4036 20.8651 67.4527 21.8657 69.0429 23.3511C70.6331 24.8366 71.6874 26.7352 72.0629 28.7895C74.3189 38.6718 66.0053 56.2501 48.2261 69.1209Z" fill="#EACAAB" stroke="#EACAAB" stroke-width="1.8"/>
</g>
<defs>
<clipPath id="clip0">
<rect width="139.13" height="127.762" fill="white" transform="translate(0.226074 0.826416) scale(0.69)"/>
</clipPath>
</defs>
</svg>
