<svg width="97" height="97" viewBox="0 0 97 97" fill="none" xmlns="http://www.w3.org/2000/svg">
<g clip-path="url(#clip0)">
<path d="M51.5134 42.1172C51.2494 41.6417 50.7469 41.3462 50.2024 41.3462H47.2024C46.6579 41.3462 46.1554 41.6417 45.8914 42.1172L38.3914 55.6172C38.1874 55.9847 38.1469 56.4212 38.2789 56.8202L42.1204 68.3462H41.2024C40.3744 68.3462 39.7024 69.0182 39.7024 69.8462V75.8462C39.7024 76.6742 40.3744 77.3462 41.2024 77.3462V95.3462C41.2024 96.1742 41.8744 96.8462 42.7024 96.8462H54.7024C55.5304 96.8462 56.2024 96.1742 56.2024 95.3462V77.3462C57.0304 77.3462 57.7024 76.6742 57.7024 75.8462V69.8462C57.7024 69.0182 57.0304 68.3462 56.2024 68.3462H55.2844L59.1259 56.8202C59.2579 56.4212 59.2189 55.9847 59.0134 55.6172L51.5134 42.1172ZM53.2024 71.3462H54.7024V74.3462H42.7024V71.3462H44.2024H53.2024ZM53.2024 93.8462H44.2024V77.3462H53.2024V93.8462ZM52.1209 68.3462H50.2024V57.8462H51.7024V54.8462H45.7024V57.8462H47.2024V68.3462H45.2839L41.3344 56.4977L48.0844 44.3462H49.3189L56.0689 56.4977L52.1209 68.3462Z" fill="#D26526"/>
<path d="M44.6031 29.6822C45.3081 31.2482 46.8771 32.3462 48.7026 32.3462C50.5281 32.3462 52.0956 31.2497 52.8006 29.6852C64.8621 31.5377 74.3301 41.5187 75.5421 53.6732C73.8816 54.3347 72.7026 55.9517 72.7026 57.8462C72.7026 60.3272 74.7216 62.3462 77.2026 62.3462C79.6836 62.3462 81.7026 60.3272 81.7026 57.8462C81.7026 55.8347 80.3676 54.1472 78.5436 53.5727C77.5596 42.9872 70.9506 33.8507 61.7031 29.3462H69.7026V30.8462C69.7026 31.6742 70.3746 32.3462 71.2026 32.3462H77.2026C78.0306 32.3462 78.7026 31.6742 78.7026 30.8462V24.8462C78.7026 24.0182 78.0306 23.3462 77.2026 23.3462H71.2026C70.3746 23.3462 69.7026 24.0182 69.7026 24.8462V26.3462H52.9266C52.3056 24.6047 50.6556 23.3462 48.7026 23.3462C46.7496 23.3462 45.0996 24.6047 44.4786 26.3462H27.7026V24.8462C27.7026 24.0182 27.0306 23.3462 26.2026 23.3462H20.2026C19.3746 23.3462 18.7026 24.0182 18.7026 24.8462V30.8462C18.7026 31.6742 19.3746 32.3462 20.2026 32.3462H26.2026C27.0306 32.3462 27.7026 31.6742 27.7026 30.8462V29.3462H35.6616C26.4246 33.8447 19.8441 42.9647 18.8616 53.5727C17.0376 54.1472 15.7026 55.8347 15.7026 57.8462C15.7026 60.3272 17.7216 62.3462 20.2026 62.3462C22.6836 62.3462 24.7026 60.3272 24.7026 57.8462C24.7026 55.9517 23.5236 54.3347 21.8631 53.6717C23.0736 41.4797 32.5251 31.5347 44.6031 29.6822ZM77.2026 59.3462C76.3761 59.3462 75.7026 58.6727 75.7026 57.8462C75.7026 57.0197 76.3761 56.3462 77.2026 56.3462C78.0291 56.3462 78.7026 57.0197 78.7026 57.8462C78.7026 58.6727 78.0291 59.3462 77.2026 59.3462ZM72.7026 26.3462H75.7026V29.3462H72.7026V26.3462ZM24.7026 29.3462H21.7026V26.3462H24.7026V29.3462ZM48.7026 26.3462C49.5291 26.3462 50.2026 27.0197 50.2026 27.8462C50.2026 28.6727 49.5291 29.3462 48.7026 29.3462C47.8761 29.3462 47.2026 28.6727 47.2026 27.8462C47.2026 27.0197 47.8761 26.3462 48.7026 26.3462ZM20.2026 59.3462C19.3761 59.3462 18.7026 58.6727 18.7026 57.8462C18.7026 57.0197 19.3761 56.3462 20.2026 56.3462C21.0291 56.3462 21.7026 57.0197 21.7026 57.8462C21.7026 58.6727 21.0291 59.3462 20.2026 59.3462Z" fill="#292929"/>
<path d="M95.2026 0.846191H2.20264C1.37464 0.846191 0.702637 1.51819 0.702637 2.34619V14.3462V83.3462C0.702637 84.1742 1.37464 84.8462 2.20264 84.8462H38.2026V81.8462H3.70264V15.8462H93.7026V81.8462H59.2026V84.8462H95.2026C96.0306 84.8462 96.7026 84.1742 96.7026 83.3462V14.3462V2.34619C96.7026 1.51819 96.0306 0.846191 95.2026 0.846191ZM3.70264 12.8462V3.84619H93.7026V12.8462H3.70264Z" fill="#292929"/>
<path d="M12.7026 6.84619H9.70264V9.84619H12.7026V6.84619Z" fill="#1A1A1A"/>
<path d="M18.7026 6.84619H15.7026V9.84619H18.7026V6.84619Z" fill="#1A1A1A"/>
<path d="M24.7026 6.84619H21.7026V9.84619H24.7026V6.84619Z" fill="#1A1A1A"/>
<path d="M87.7026 6.84619H78.7026V9.84619H87.7026V6.84619Z" fill="#1A1A1A"/>
<path d="M50.2026 81.8462H47.2026V87.8462H50.2026V81.8462Z" fill="#292929"/>
</g>
<defs>
<clipPath id="clip0">
<rect width="139.13" height="139.13" fill="white" transform="translate(0.702637 0.846191) scale(0.69)"/>
</clipPath>
</defs>
</svg>
