<svg width="121" height="121" viewBox="0 0 121 121" fill="none" xmlns="http://www.w3.org/2000/svg">
<g clip-path="url(#clip0)">
<path d="M60.7534 34.25C56.1936 31.6064 51.0179 30.2108 45.7472 30.2036C40.4765 30.1965 35.2969 31.5781 30.73 34.2093C26.1631 36.8406 22.37 40.6285 19.7326 45.1919C17.0951 49.7553 15.7065 54.9329 15.7065 60.2036C15.7065 65.4743 17.0951 70.652 19.7326 75.2154C22.37 79.7787 26.1631 83.5667 30.73 86.1979C35.2969 88.8292 40.4765 90.2108 45.7472 90.2036C51.0179 90.1965 56.1936 88.8009 60.7534 86.1573L56.1425 82.8733C52.8896 84.3947 49.3445 85.1898 45.7534 85.2036C39.123 85.2036 32.7642 82.5697 28.0757 77.8813C23.3873 73.1929 20.7534 66.834 20.7534 60.2036C20.7534 53.5732 23.3873 47.2144 28.0757 42.526C32.7642 37.8375 39.123 35.2036 45.7534 35.2036C49.3445 35.2174 52.8896 36.0126 56.1425 37.5339L60.7534 34.25Z" fill="#292929"/>
<path d="M56.1425 37.5339C52.8828 40.3435 50.2673 43.823 48.4744 47.7352C46.6815 51.6474 45.7534 55.9002 45.7534 60.2036C45.7534 64.5071 46.6815 68.7599 48.4744 72.6721C50.2673 76.5843 52.8828 80.0638 56.1425 82.8733L60.7534 86.1573L65.3643 82.8733C68.6241 80.0638 71.2396 76.5843 73.0325 72.6721C74.8254 68.7599 75.7534 64.5071 75.7534 60.2036C75.7534 55.9002 74.8254 51.6474 73.0325 47.7352C71.2396 43.823 68.6241 40.3435 65.3643 37.5339L60.7534 34.25L56.1425 37.5339Z" fill="#292929"/>
<path d="M75.7534 30.2036C70.4837 30.2033 65.3081 31.5995 60.7534 34.25L65.3643 37.5339C68.6173 36.0126 72.1624 35.2174 75.7534 35.2036C82.3839 35.2036 88.7427 37.8375 93.4311 42.526C98.1195 47.2144 100.753 53.5732 100.753 60.2036C100.753 66.834 98.1195 73.1929 93.4311 77.8813C88.7427 82.5697 82.3839 85.2036 75.7534 85.2036C72.1624 85.1898 68.6173 84.3947 65.3643 82.8733L60.7534 86.1573C64.7369 88.4601 69.1969 89.8155 73.7881 90.1185C78.3793 90.4216 82.9787 89.6641 87.2303 87.9047C91.4818 86.1454 95.2716 83.4313 98.3062 79.9726C101.341 76.514 103.539 72.4034 104.73 67.9591C105.922 63.5148 106.074 58.856 105.177 54.3432C104.279 49.8304 102.355 45.5846 99.5539 41.9345C96.7525 38.2844 93.1488 35.3278 89.0217 33.2936C84.8945 31.2594 80.3547 30.2021 75.7534 30.2036Z" fill="#292929"/>
<path d="M56.143 37.534C52.8833 40.3435 50.2678 43.823 48.4749 47.7352C46.682 51.6474 45.7539 55.9002 45.7539 60.2037C45.7539 64.5071 46.682 68.7599 48.4749 72.6721C50.2678 76.5843 52.8833 80.0638 56.143 82.8734L60.7539 86.1573L65.3648 82.8734C68.6246 80.0638 71.2401 76.5843 73.033 72.6721C74.8258 68.7599 75.7539 64.5071 75.7539 60.2037C75.7539 55.9002 74.8258 51.6474 73.033 47.7352C71.2401 43.823 68.6246 40.3435 65.3648 37.534L60.7539 34.25L56.143 37.534Z" fill="#EB9A28"/>
</g>
<defs>
<clipPath id="clip0">
<rect width="173.913" height="173.913" fill="white" transform="translate(0.753906 0.203613) scale(0.69)"/>
</clipPath>
</defs>
</svg>
