<svg width="59" height="59" viewBox="0 0 59 59" fill="none" xmlns="http://www.w3.org/2000/svg">
<path d="M29.6299 0.432129C13.6146 0.432129 0.629883 13.4169 0.629883 29.4321C0.629883 45.4474 13.6146 58.4321 29.6299 58.4321C45.6451 58.4321 58.6299 45.4474 58.6299 29.4321C58.6299 13.4169 45.6451 0.432129 29.6299 0.432129ZM24.7966 39.0988H19.9632V24.5988H24.7966V39.0988ZM22.3799 22.4455C20.913 22.4455 19.7215 21.2469 19.7215 19.7655C19.7215 18.2865 20.9105 17.0854 22.3799 17.0854C23.8492 17.0854 25.0382 18.2865 25.0382 19.7655C25.0382 21.2469 23.8468 22.4455 22.3799 22.4455ZM41.7132 39.0988H36.8847V32.1847C36.8847 27.639 32.0466 28.0232 32.0466 32.1847V39.0988H27.2132V24.5988H32.0466V27.2402C34.1539 23.3349 41.7132 23.0449 41.7132 30.9812V39.0988Z" fill="#D3A894"/>
</svg>
