<svg width="59" height="59" viewBox="0 0 59 59" fill="none" xmlns="http://www.w3.org/2000/svg">
<path d="M29.8149 0.352051C13.7996 0.352051 0.81488 13.3368 0.81488 29.3521C0.81488 45.3673 13.7996 58.3521 29.8149 58.3521C45.8301 58.3521 58.8149 45.3673 58.8149 29.3521C58.8149 13.3368 45.8301 0.352051 29.8149 0.352051ZM24.9815 39.0187H20.1482V24.5187H24.9815V39.0187ZM22.5649 22.3655C21.098 22.3655 19.9065 21.1668 19.9065 19.6854C19.9065 18.2064 21.0955 17.0053 22.5649 17.0053C24.0342 17.0053 25.2232 18.2064 25.2232 19.6854C25.2232 21.1668 24.0318 22.3655 22.5649 22.3655ZM41.8982 39.0187H37.0697V32.1046C37.0697 27.5589 32.2315 27.9431 32.2315 32.1046V39.0187H27.3982V24.5187H32.2315V27.1601C34.3389 23.2548 41.8982 22.9648 41.8982 30.9011V39.0187Z" fill="#EACAAB"/>
</svg>
