<svg width="92" height="92" viewBox="0 0 92 92" fill="none" xmlns="http://www.w3.org/2000/svg">
<path d="M33.7807 66.8902C18.514 70.7554 11.9722 49.5708 23.7848 43.9041C10.8784 33.2589 27.6827 17.7716 35.8684 25.6274C39.6601 7.22991 62.9031 16.3015 59.655 28.3103C75.7303 21.1958 78.8898 40.3433 70.5582 45.2965C82.9054 58.4366 66.6008 72.1006 55.6767 62.07C52.6048 75.3338 38.5028 68.6299 41.4918 60.5849C26.765 60.081 27.5967 41.7073 38.4675 41.0367C34.4405 25.5785 56.2958 27.9597 53.8912 38.0398C60.2 37.3301 64.1441 40.8988 64.126 46.3494C64.1024 53.4465 57.1706 55.3033 53.7869 52.183C48.6793 58.4105 39.599 48.4618 48.5212 43.6735" stroke="#D26526" stroke-width="4" stroke-linecap="round" stroke-linejoin="round"/>
</svg>
