<svg width="91" height="92" viewBox="0 0 91 92" fill="none" xmlns="http://www.w3.org/2000/svg">
<path d="M33.128 67.3093C17.8614 71.1744 11.3196 49.9898 23.1321 44.3232C10.2257 33.6779 27.03 18.1907 35.2158 26.0464C39.0075 7.64898 62.2505 16.7206 59.0023 28.7293C75.0777 21.6149 78.2372 40.7624 69.9056 45.7155C82.2528 58.8557 65.9482 72.5197 55.024 62.489C51.9521 75.7528 37.8501 69.0489 40.8392 61.004C26.1124 60.5001 26.9441 42.1264 37.8149 41.4558C33.7879 25.9976 55.6432 28.3787 53.2385 38.4589C59.5474 37.7492 63.4915 41.3178 63.4733 46.7684C63.4497 53.8655 56.5179 55.7224 53.1342 52.6021C48.0266 58.8296 38.9464 48.8809 47.8686 44.0926" stroke="#D26341" stroke-width="4" stroke-linecap="round" stroke-linejoin="round"/>
</svg>
