<svg width="92" height="92" viewBox="0 0 92 92" fill="none" xmlns="http://www.w3.org/2000/svg">
<path d="M33.3131 67.2292C18.0464 71.0944 11.5046 49.9098 23.3172 44.2431C10.4108 33.5979 27.2151 18.1106 35.4008 25.9664C39.1925 7.5689 62.4355 16.6405 59.1873 28.6493C75.2627 21.5348 78.4222 40.6823 70.0906 45.6355C82.4378 58.7756 66.1332 72.4396 55.2091 62.4089C52.1372 75.6728 38.0352 68.9688 41.0242 60.9239C26.2974 60.42 27.1291 42.0463 37.9999 41.3757C33.9729 25.9175 55.8282 28.2987 53.4236 38.3788C59.7324 37.6691 63.6765 41.2378 63.6584 46.6884C63.6348 53.7855 56.703 55.6423 53.3193 52.522C48.2117 58.7495 39.1314 48.8008 48.0536 44.0125" stroke="#C45036" stroke-width="4" stroke-linecap="round" stroke-linejoin="round"/>
</svg>
