<svg width="81" height="81" viewBox="0 0 81 81" fill="none" xmlns="http://www.w3.org/2000/svg">
<g clip-path="url(#clip0)">
<path fill-rule="evenodd" clip-rule="evenodd" d="M70.0628 50.1192C69.8269 49.8828 69.5253 49.7229 69.1973 49.6602C68.8693 49.5975 68.53 49.6349 68.2235 49.7676C63.0974 51.9881 57.4221 52.6163 51.9345 51.5705C46.4468 50.5248 41.4003 47.8534 37.4501 43.9032C33.4999 39.9531 30.8285 34.9066 29.7827 29.419C28.7369 23.9313 29.365 18.256 31.5855 13.1299C31.7178 12.8234 31.7551 12.4842 31.6924 12.1562C31.6297 11.8283 31.47 11.5267 31.2339 11.2906C30.9978 11.0546 30.6962 10.8948 30.3683 10.8321C30.0403 10.7694 29.7011 10.8067 29.3946 10.9391C24.7117 12.9543 20.5935 16.0857 17.3999 20.0596C14.2063 24.0335 12.0344 28.729 11.0741 33.7359C10.1137 38.7428 10.3941 43.9087 11.8907 48.7822C13.3873 53.6557 16.0546 58.0886 19.6595 61.6936C23.2644 65.2985 27.6973 67.9658 32.5709 69.4624C37.4444 70.959 42.6103 71.2394 47.6172 70.279C52.624 69.3186 57.3196 67.1468 61.2935 63.9532C65.2674 60.7596 68.3988 56.6414 70.414 51.9585C70.5463 51.6519 70.5835 51.3128 70.5209 50.9849C70.4583 50.657 70.2987 50.3554 70.0628 50.1192ZM41.7704 67.4707C49.1667 67.4707 56.2601 64.5325 61.49 59.3025C63.006 57.7852 64.3399 56.096 65.4647 54.2697C60.1462 55.7399 54.5328 55.7732 49.1973 54.366C43.8617 52.9589 38.9948 50.1618 35.093 46.26C31.1912 42.3582 28.3941 37.4912 26.987 32.1557C25.5799 26.8201 25.6131 21.2068 27.0834 15.8882C25.257 17.0131 23.5681 18.3471 22.0508 19.8632C16.8208 25.0932 13.8826 32.1865 13.8826 39.5828C13.8826 46.9791 16.8208 54.0725 22.0507 59.3025C27.2807 64.5325 34.3741 67.4707 41.7704 67.4707Z" fill="#7C97A9"/>
<path d="M47.9271 30.5746L47.0921 35.4461C47.0395 35.7525 47.0737 36.0675 47.1908 36.3554C47.3079 36.6434 47.5032 36.8929 47.7547 37.0756C48.0062 37.2583 48.3038 37.367 48.6138 37.3894C48.9239 37.4118 49.234 37.347 49.5092 37.2024L53.8842 34.9041L58.2592 37.2024C58.5343 37.3469 58.8444 37.4116 59.1544 37.3892C59.4643 37.3667 59.7619 37.258 60.0133 37.0753C60.2647 36.8926 60.46 36.6431 60.5771 36.3553C60.6941 36.0674 60.7284 35.7524 60.6758 35.4461L59.8408 30.5746L63.381 27.124C63.6037 26.907 63.7612 26.632 63.8356 26.3301C63.9101 26.0282 63.8986 25.7114 63.8024 25.4157C63.7062 25.12 63.5291 24.8572 63.2913 24.6569C63.0534 24.4566 62.7642 24.3268 62.4565 24.2824L57.5654 23.5711L55.3779 19.1391C55.2249 18.8788 55.0065 18.663 54.7444 18.5131C54.4824 18.3632 54.1857 18.2843 53.8837 18.2843C53.5818 18.2843 53.2851 18.3632 53.0231 18.5131C52.761 18.663 52.5426 18.8788 52.3896 19.1391L50.2025 23.5709L45.3114 24.2821C45.0037 24.3266 44.7145 24.4563 44.4766 24.6566C44.2388 24.8569 44.0617 25.1198 43.9655 25.4155C43.8693 25.7112 43.8578 26.0279 43.9323 26.3298C44.0067 26.6317 44.1642 26.9068 44.3869 27.1238L47.9271 30.5746ZM51.5486 26.7431C51.816 26.7045 52.0701 26.6014 52.2887 26.4426C52.5074 26.2838 52.6841 26.0741 52.8035 25.8317L53.8842 23.6425L54.965 25.8317C55.0844 26.0741 55.2611 26.2838 55.4797 26.4426C55.6984 26.6014 55.9524 26.7046 56.2199 26.7431L58.6366 27.0947L56.8866 28.8005C56.6933 28.9891 56.5487 29.222 56.4653 29.4789C56.382 29.7359 56.3623 30.0092 56.4081 30.2755L56.8199 32.6811L54.659 31.5466C54.4202 31.4205 54.1543 31.3545 53.8842 31.3545C53.6142 31.3545 53.3483 31.4205 53.1095 31.5466L50.948 32.6808L51.3597 30.2751C51.4055 30.0089 51.3858 29.7355 51.3025 29.4786C51.2191 29.2216 51.0746 28.9888 50.8812 28.8001L49.1313 27.0944L51.5486 26.7431Z" fill="#292929"/>
</g>
<defs>
<clipPath id="clip0">
<rect width="115.942" height="115.942" fill="white" transform="translate(0.555664 0.796509) scale(0.69)"/>
</clipPath>
</defs>
</svg>
