<svg width="97" height="97" viewBox="0 0 97 97" fill="none" xmlns="http://www.w3.org/2000/svg">
<g clip-path="url(#clip0)">
<path d="M93.9907 13.1475C92.9258 10.1464 90.2275 6.5117 83.4662 6.08487C83.4588 6.08339 83.4514 6.08487 83.444 6.08339C83.3687 6.07896 83.3007 6.06862 83.2269 6.06567C83.1885 6.06419 83.1501 6.0701 83.1117 6.0701C83.0748 6.0701 83.0393 6.06419 83.0024 6.06567C82.933 6.06862 82.871 6.07748 82.803 6.08191C82.7897 6.08339 82.7764 6.08339 82.7646 6.08487C76.0003 6.51022 73.302 10.1479 72.2371 13.149C69.524 20.7876 74.6637 32.9412 80.0175 39.0572C75.671 41.9844 62.3462 44.2471 52.3001 45.95C33.8223 49.0811 24.181 50.9686 24.181 56.4228C24.181 61.8771 32.9982 63.6494 48.5827 66.3079C55.8994 67.5574 68.0914 69.6383 69.2596 71.7563C67.5242 74.2921 51.7537 76.8708 42.2763 78.4187C33.4915 79.8557 26.4924 81.052 21.4162 82.4344C24.9534 76.0881 27.2929 67.8852 25.2739 62.1947C24.1958 59.1566 21.4531 55.4628 14.5086 55.1099C14.4702 55.1084 14.4333 55.1158 14.3949 55.1158C14.358 55.1158 14.3211 55.1084 14.2841 55.1099C7.33816 55.4628 4.59551 59.1581 3.51736 62.1961C0.533975 70.6043 7.05902 84.5065 12.915 89.7777C12.9298 89.791 12.949 89.7954 12.9652 89.8087C13.0022 89.8397 13.0332 89.8781 13.0745 89.9076C13.0775 89.9106 13.0834 89.9106 13.0863 89.9136C13.2414 90.0288 13.4098 90.1174 13.5855 90.1868C13.6121 90.1971 13.6372 90.2045 13.6638 90.2148C13.7052 90.2296 13.7465 90.24 13.7879 90.2503C13.9858 90.3064 14.1867 90.3448 14.3919 90.3463C14.3919 90.3463 14.3934 90.3463 14.3949 90.3463H14.3964C14.5559 90.3463 14.7139 90.3256 14.8705 90.2916C14.9207 90.2798 14.9679 90.2606 15.0182 90.2444C15.0462 90.237 15.0743 90.2281 15.1023 90.2178C15.1378 90.206 15.1732 90.1971 15.2072 90.1853C15.2471 90.1691 15.287 90.1543 15.3254 90.1366C15.3859 90.107 15.4406 90.0701 15.4996 90.0376C15.5823 89.9904 15.6621 89.9431 15.7389 89.884C15.7743 89.856 15.8113 89.8294 15.8452 89.7969C15.8541 89.7895 15.8659 89.788 15.8748 89.7792C16.1583 89.5236 16.4434 89.2327 16.7284 88.9388C20.019 86.5506 33.1887 84.3958 42.9866 82.7948C62.615 79.5869 73.7199 77.4956 73.7199 71.8257C73.7199 66.3729 64.9042 64.602 49.3241 61.9436C42.006 60.6941 29.811 58.6131 28.6413 56.4923C30.2585 54.1809 43.9363 51.8621 53.0371 50.3202C70.5121 47.3604 81.4679 45.1938 84.7496 40.5828C90.5657 35.2054 96.9505 21.4803 93.9907 13.1475ZM7.69262 63.6775C8.60536 61.1047 10.8015 59.7548 14.3964 59.5451C17.9883 59.7548 20.1844 61.1032 21.0986 63.676C23.1206 69.3725 18.7533 79.7494 14.3964 84.9156C10.038 79.7479 5.67219 69.374 7.69262 63.6775ZM76.4124 14.6303C77.3251 12.0575 79.5213 10.7091 83.1146 10.5009C86.708 10.7091 88.9027 12.0575 89.8154 14.6289C91.8373 20.3239 87.4716 30.7007 83.1146 35.87C78.7548 30.7007 74.389 20.3268 76.4124 14.6303Z" fill="#292929"/>
<path d="M83.1143 24.5212C86.4373 24.5212 89.1401 21.817 89.1401 18.4939C89.1401 15.1708 86.4373 12.4666 83.1143 12.4666C79.7897 12.4666 77.0854 15.1708 77.0854 18.4939C77.0854 21.817 79.7897 24.5212 83.1143 24.5212ZM83.1143 16.8973C83.9945 16.8973 84.7093 17.6136 84.7093 18.4939C84.7093 19.3741 83.9945 20.0904 83.1143 20.0904C82.2325 20.0904 81.5162 19.3741 81.5162 18.4939C81.5162 17.6136 82.2325 16.8973 83.1143 16.8973Z" fill="#7C97A9"/>
<path d="M14.3965 73.5683C17.7196 73.5683 20.4223 70.8641 20.4223 67.5395C20.4223 64.2164 17.7196 61.5137 14.3965 61.5137C11.0719 61.5137 8.36768 64.2164 8.36768 67.5395C8.36768 70.8641 11.0719 73.5683 14.3965 73.5683ZM14.3965 65.9444C15.2767 65.9444 15.9916 66.6593 15.9916 67.5395C15.9916 68.4212 15.2767 69.1375 14.3965 69.1375C13.5148 69.1375 12.7984 68.4212 12.7984 67.5395C12.7984 66.6593 13.5148 65.9444 14.3965 65.9444Z" fill="#D26526"/>
</g>
<defs>
<clipPath id="clip0">
<rect width="139.13" height="139.13" fill="white" transform="translate(0.753906 0.203613) scale(0.69)"/>
</clipPath>
</defs>
</svg>
