<svg width="111" height="111" viewBox="0 0 111 111" fill="none" xmlns="http://www.w3.org/2000/svg">
<g clip-path="url(#clip0)">
<path d="M54.8415 69.1458C54.7623 68.3043 54.5324 67.5321 54.3102 66.7863C54.1925 66.3892 54.0726 65.991 53.9824 65.5895C53.7404 64.5115 53.9439 63.3829 54.1584 62.1883C54.3465 61.14 54.5412 60.0565 54.4609 58.907C54.396 57.9819 54.2354 57.1085 54.0792 56.2637C53.8119 54.8084 53.5589 53.4345 53.8427 52.0012C54.33 49.5295 54.3256 47.0127 54.3223 44.5784C54.319 42.957 54.3168 41.2806 54.4642 39.668C54.5181 39.0839 54.6457 38.4855 54.7821 37.853C55.0879 36.4318 55.4355 34.8214 54.8745 33.1505C54.3344 31.5324 53.7041 30.5743 52.8923 30.1354C52.0046 29.6525 51.1015 29.9605 50.5064 30.164C50.3062 30.2333 50.0807 30.3103 49.9575 30.3213C49.5252 30.3565 49.1776 30.3433 48.8685 30.3323C47.994 30.2949 47.0887 30.2674 45.7764 31.22C45.2946 31.5676 44.804 31.9042 44.3134 32.2397C43.4378 32.8392 42.5325 33.4585 41.6756 34.1537C40.1422 35.3967 38.9168 36.9499 37.7321 38.4514L37.6012 38.6175C36.5419 39.9595 35.9743 41.2267 35.3748 42.5698C35.2197 42.9141 35.0613 43.2705 34.8886 43.639C34.5718 44.3133 34.1846 44.9051 33.8106 45.4793C32.99 46.7355 32.1397 48.0346 32.0528 50.0894C31.9857 51.6767 31.9142 52.8119 31.5325 54.0637L31.4632 54.2881C31.0144 55.7544 30.5051 57.4176 30.9363 59.1523C31.0661 59.6748 31.2498 60.1467 31.4269 60.6032C31.6942 61.2918 31.9252 61.8869 31.9197 62.4952C31.9054 63.8812 32.0176 65.3574 32.9152 66.7577C33.3387 67.4199 33.8557 67.9534 34.3573 68.4715C34.541 68.6618 34.7258 68.8521 34.9029 69.0468C35.2263 69.4043 35.4584 69.8971 35.7048 70.4207C36.1316 71.3282 36.6156 72.3578 37.7255 73.0079C39.2259 73.8879 40.6339 74.8185 41.9088 75.7722L42.4467 76.1803C43.2673 76.8051 44.1154 77.4508 45.0669 77.9744C46.8566 78.9589 48.4725 78.9688 50.1841 78.9798C50.1951 78.9798 50.2072 78.9798 50.2171 78.9798C50.9915 78.9798 51.624 78.8423 52.1498 78.5607C54.9724 77.0526 55.1726 72.6086 54.8415 69.1458ZM51.9166 56.6608C52.0684 57.4825 52.2114 58.258 52.2653 59.0599C52.3269 59.9377 52.1641 60.8419 51.9925 61.8C51.7483 63.1552 51.4975 64.5588 51.8352 66.0713C51.9364 66.5223 52.0684 66.9678 52.2004 67.4144C52.4017 68.0887 52.5909 68.7267 52.6514 69.3548C53.0166 73.1949 52.4435 75.9108 51.1147 76.6192C51.1136 76.6192 51.1136 76.6192 51.1125 76.6203C50.9101 76.7292 50.634 76.7523 50.1973 76.7787C48.6496 76.7688 47.4275 76.7611 46.1273 76.0461C45.3188 75.6006 44.5708 75.0319 43.7799 74.4291L43.2277 74.01C41.8868 73.0068 40.4095 72.03 38.8376 71.1082C38.3415 70.8178 38.0808 70.3019 37.6958 69.4824C37.4065 68.8664 37.0776 68.1701 36.5342 67.5695C36.3406 67.3561 36.1404 67.1471 35.938 66.9392C35.4936 66.4805 35.0734 66.046 34.7687 65.5697C34.2132 64.7029 34.1087 63.7591 34.1208 62.515C34.1307 61.4832 33.7842 60.5933 33.4784 59.8068C33.3189 59.3954 33.1682 59.0071 33.0725 58.6199C32.7876 57.4781 33.1847 56.1834 33.5675 54.9316L33.6368 54.7028C34.1274 53.088 34.1901 51.6096 34.2495 50.1807C34.3111 48.7309 34.9029 47.8256 35.6509 46.6805C36.0469 46.0733 36.4968 45.3858 36.8785 44.5718C37.0567 44.1901 37.2217 43.8238 37.3812 43.4663C37.9488 42.2002 38.4383 41.1057 39.3282 39.9782L39.4591 39.8121C40.5701 38.4052 41.7185 36.9488 43.0594 35.8609C43.8481 35.2229 44.6786 34.6542 45.5564 34.0525C46.0624 33.706 46.5695 33.3584 47.0667 32.9987C47.6266 32.5939 47.9159 32.518 48.3911 32.518C48.5099 32.518 48.6408 32.5224 48.7882 32.5279C49.1468 32.5411 49.5901 32.5576 50.1401 32.5103C50.5339 32.4784 50.8969 32.353 51.217 32.2441C51.4194 32.1748 51.778 32.0593 51.8418 32.067C51.8594 32.0769 52.2741 32.3167 52.7856 33.8468C53.1541 34.9468 52.9 36.1326 52.6283 37.3888C52.4842 38.0576 52.3346 38.7495 52.2697 39.4678C52.1135 41.1827 52.1157 42.9097 52.119 44.5806C52.1234 47.016 52.1267 49.3161 51.6812 51.5744C51.3204 53.4202 51.6229 55.068 51.9166 56.6608Z" fill="#292929"/>
<path d="M43.8665 58.8157C44.4528 59.1193 45.3449 59.5307 46.314 59.5901C46.3371 59.5912 46.3602 59.5923 46.3833 59.5923C46.9597 59.5923 47.4448 59.1435 47.48 58.5605C47.5174 57.9533 47.0554 57.433 46.4493 57.3945C45.896 57.3604 45.2877 57.0744 44.8785 56.8632C43.509 56.1537 42.3727 55.1835 41.6775 54.1297C40.704 52.6546 40.2431 50.7912 40.4114 49.0147C40.6149 46.8675 41.3453 44.8897 42.4167 43.5884C43.4485 42.3366 44.9709 41.6337 46.4944 41.7184C47.0961 41.7525 47.6186 41.2828 47.6516 40.6778C47.6824 40.0706 47.2171 39.5536 46.611 39.5206C44.4022 39.4172 42.1934 40.4017 40.7205 42.1903C39.3752 43.8205 38.4644 46.2339 38.2224 48.8079C38.0046 51.108 38.5788 53.429 39.8416 55.3419C40.7392 56.7026 42.1692 57.9368 43.8665 58.8157Z" fill="#292929"/>
<path d="M48.9331 53.6743C48.4062 53.1848 47.8089 52.8702 47.282 52.5919C46.8574 52.3697 46.4581 52.1574 46.1534 51.889C45.6683 51.4622 45.2943 50.9012 45.1018 50.3083C44.4649 48.3503 45.9576 46.1591 46.4317 45.5332C46.798 45.0492 46.7023 44.3595 46.2183 43.9921C45.7321 43.6269 45.0435 43.7215 44.6772 44.2055C43.8632 45.2824 42.0702 48.0984 43.0096 50.9892C43.3275 51.9649 43.9116 52.846 44.7003 53.5401C45.2019 53.9812 45.7629 54.2771 46.2568 54.5367C46.7023 54.7721 47.1225 54.9932 47.4349 55.2836C48.1048 55.9073 48.5547 56.8258 48.7725 58.0127C48.9463 58.9686 49.1861 60.2776 48.7329 61.0322C48.151 61.999 46.8596 62.0793 46.4471 62.0793C46.4405 62.0793 46.4339 62.0793 46.4284 62.0793C45.2965 62.0727 44.114 61.2896 43.1064 60.5251C42.1868 59.8266 41.2804 59.1116 40.3751 58.3966C39.8647 57.994 39.3554 57.5925 38.8428 57.1921C37.8847 56.4452 37.2302 55.4992 37.0025 54.5279C36.8628 53.935 36.26 53.5731 35.6803 53.7084C35.0885 53.8481 34.7222 54.4399 34.8608 55.0306C35.204 56.4892 36.1379 57.873 37.4909 58.9279C38.0002 59.3228 38.5062 59.7232 39.0122 60.1225C39.9285 60.8463 40.8459 61.57 41.7776 62.2762C43.0734 63.2618 44.6376 64.2683 46.4163 64.2782C46.4295 64.2782 46.4405 64.2782 46.4537 64.2782C48.2654 64.2782 49.8208 63.4895 50.6183 62.1651C51.5005 60.6977 51.1606 58.8421 50.9362 57.6156C50.6315 55.9557 49.9572 54.6291 48.9331 53.6743Z" fill="#292929"/>
<path d="M45.0403 65.6467L44.7741 65.5939C42.1396 65.0703 39.6833 63.8933 37.4745 62.0926C37.0026 61.7076 36.3107 61.7824 35.9268 62.251C35.5429 62.7229 35.6144 63.4159 36.0852 63.7987C38.5767 65.8282 41.3553 67.158 44.3473 67.7509L44.6168 67.8049C46.0149 68.0799 47.4614 68.3648 48.4756 69.1755C48.9387 69.5473 49.0091 70.1556 48.986 70.6C48.9354 71.5966 48.3535 72.7273 47.6605 73.1728C47.1501 73.5028 47.0027 74.1838 47.3316 74.6941C47.5417 75.0208 47.897 75.1979 48.2578 75.1979C48.4624 75.1979 48.6681 75.1407 48.8529 75.023C50.1377 74.1936 51.0958 72.4215 51.1838 70.7132C51.2531 69.358 50.7801 68.203 49.8506 67.4595C48.414 66.3089 46.621 65.9569 45.0403 65.6467Z" fill="#292929"/>
<path d="M46.3274 70.3117C45.5728 70.1324 43.3706 69.5219 42.2464 68.8553C41.725 68.5429 41.0485 68.7167 40.7394 69.2392C40.4292 69.7617 40.6008 70.436 41.1233 70.7462C42.7667 71.7241 45.6971 72.4226 45.8214 72.4534C45.9072 72.4732 45.9919 72.482 46.0755 72.482C46.5738 72.482 47.0248 72.141 47.1447 71.635C47.2844 71.0443 46.9181 70.4514 46.3274 70.3117Z" fill="#292929"/>
<path d="M50.4568 35.0227C48.9564 33.948 46.0865 34.7334 44.6202 36.1282C44.1802 36.5462 44.1615 37.2436 44.5806 37.6825C44.9986 38.1225 45.696 38.1412 46.1349 37.7221C47.1579 36.7508 48.9135 36.5506 49.1808 36.8124C49.1819 36.8157 49.2897 37.0896 48.9256 37.8838C48.1314 39.6086 48.2502 41.3224 48.3635 42.979C48.3899 43.3739 48.4185 43.771 48.4328 44.167C48.4944 45.9501 48.3536 47.1106 47.4692 47.3801C46.8884 47.5561 46.5617 48.1721 46.7388 48.7529C46.8829 49.227 47.3185 49.5317 47.7904 49.5317C47.8971 49.5317 48.0038 49.5163 48.1116 49.4833C50.7879 48.6682 50.6823 45.5772 50.6306 44.0922C50.6163 43.6709 50.5877 43.2485 50.5591 42.8283C50.4601 41.384 50.3655 40.0189 50.9254 38.8034C52.0001 36.4615 50.9562 35.3791 50.4568 35.0227Z" fill="#292929"/>
<path d="M75.6773 70.4196C75.9237 69.896 76.1558 69.4032 76.4792 69.0457C76.6563 68.8499 76.8411 68.6596 77.0248 68.4704C77.5253 67.9523 78.0434 67.4188 78.4669 66.7577C79.3645 65.3563 79.4767 63.8801 79.4624 62.4952C79.4569 61.8847 79.6879 61.2896 79.9552 60.601C80.1334 60.1445 80.316 59.6726 80.4469 59.1523C80.8781 57.4209 80.371 55.761 79.9222 54.2969L79.8518 54.0626C79.4701 52.8086 79.3953 51.6239 79.3304 50.0883C79.2435 48.0346 78.3943 46.7344 77.5737 45.4793C77.1986 44.9062 76.8125 44.3122 76.4957 43.6379C76.3208 43.2661 76.1602 42.9086 76.0051 42.561C75.4056 41.2212 74.8391 39.9562 73.782 38.6164L73.6445 38.4426C72.4609 36.9433 71.2377 35.3934 69.7076 34.1526C68.8529 33.4596 67.9476 32.8414 67.0731 32.243C66.5825 31.9053 66.0897 31.5698 65.6068 31.2189C64.2934 30.2685 63.3848 30.2949 62.5136 30.3323C62.2023 30.3422 61.8547 30.3565 61.4235 30.3213C61.3014 30.3103 61.0759 30.2333 60.8757 30.164C60.2773 29.9594 59.3764 29.6514 58.4898 30.1354C57.6813 30.5732 57.051 31.5313 56.5076 33.1505C55.9477 34.8225 56.2942 36.4318 56.6 37.853C56.7364 38.4855 56.864 39.0839 56.9179 39.668C57.0653 41.2806 57.0631 42.9548 57.0598 44.5762C57.0565 47.0116 57.0521 49.5295 57.5405 52.0012C57.8232 53.4334 57.5702 54.8062 57.3029 56.2604C57.1478 57.1074 56.9872 57.9819 56.9223 58.907C56.8431 60.0576 57.0367 61.1411 57.2248 62.1894C57.4382 63.3829 57.6417 64.5104 57.3997 65.5895C57.3095 65.991 57.1907 66.3881 57.073 66.7852C56.8508 67.5321 56.6209 68.3043 56.5417 69.1458C56.2106 72.6086 56.4097 77.0537 59.2312 78.5596C59.757 78.8412 60.3895 78.9787 61.165 78.9787C61.176 78.9787 61.1881 78.9787 61.1991 78.9787C62.9096 78.9677 64.5244 78.9567 66.313 77.9733C67.2656 77.4497 68.1137 76.804 68.9343 76.1792L69.4722 75.7722C70.7471 74.8174 72.154 73.8868 73.6544 73.0079C74.7665 72.3556 75.2505 71.3271 75.6773 70.4196ZM72.5445 71.1093C70.9726 72.03 69.4964 73.0068 68.1555 74.0111L67.6033 74.4291C66.8124 75.0319 66.0655 75.5995 65.2548 76.0461C63.9546 76.7611 62.7336 76.7688 61.1881 76.7787C60.7624 76.793 60.4742 76.7292 60.2707 76.6203C60.2696 76.6192 60.2685 76.6192 60.2685 76.6192C58.9408 75.9097 58.3666 73.1949 58.7329 69.3548C58.7934 68.7267 58.9837 68.0887 59.1839 67.4122C59.3159 66.9678 59.4468 66.5212 59.548 66.0713C59.8868 64.5599 59.6349 63.1574 59.3918 61.8011C59.2202 60.843 59.0563 59.9388 59.119 59.0599C59.174 58.258 59.317 57.4803 59.4677 56.6575C59.7603 55.0647 60.0628 53.4191 59.6998 51.5755C59.2532 49.315 59.2576 47.0149 59.2609 44.5795C59.2642 42.9086 59.2664 41.1816 59.1102 39.4689C59.0442 38.7517 58.8957 38.0598 58.7516 37.3899C58.4821 36.1337 58.2258 34.9479 58.5943 33.849C59.1091 32.3145 59.5216 32.078 59.5139 32.078C59.5216 32.0769 59.5293 32.0758 59.5381 32.0758C59.6668 32.0758 59.9737 32.1814 60.1629 32.2452C60.483 32.3552 60.846 32.4795 61.2398 32.5114C61.7909 32.5587 62.2353 32.5411 62.5928 32.529C63.3386 32.5026 63.6169 32.4949 64.3154 32.9998C64.8137 33.3606 65.3208 33.7093 65.829 34.0569C66.7057 34.6575 67.5351 35.2251 68.3205 35.8609C69.6614 36.9477 70.8076 38.4008 71.9175 39.8055L72.055 39.9793C72.9438 41.1035 73.4311 42.1958 73.9976 43.4597C74.1582 43.8194 74.3243 44.189 74.5047 44.5729C74.8875 45.3869 75.3363 46.0755 75.7323 46.6827C76.4814 47.8278 77.0721 48.732 77.1326 50.1818C77.1898 51.5425 77.2536 53.0858 77.7464 54.7039L77.819 54.9415C78.2007 56.19 78.5956 57.4825 78.3118 58.621C78.215 59.0071 78.0632 59.3954 77.9048 59.8057C77.599 60.5922 77.2514 61.4832 77.2613 62.5172C77.2734 63.7602 77.1689 64.704 76.6134 65.5719C76.3087 66.0482 75.8885 66.4816 75.4441 66.9403C75.2417 67.1482 75.0415 67.3572 74.8479 67.5706C74.3045 68.1712 73.9756 68.8686 73.6863 69.4835C73.3024 70.3008 73.0417 70.8178 72.5445 71.1093Z" fill="#292929"/>
<path d="M63.7314 40.6767C63.7633 41.2828 64.2759 41.7514 64.8886 41.7173C66.4165 41.6381 67.9356 42.3355 68.9674 43.5873C70.0388 44.8864 70.7692 46.8642 70.9727 49.0136C71.1388 50.7901 70.6779 52.6557 69.7055 54.1297C69.0114 55.1824 67.8751 56.1526 66.5045 56.8621C66.0953 57.0733 65.487 57.3593 64.9337 57.3934C64.3276 57.4308 63.8656 57.9522 63.903 58.5594C63.9382 59.1424 64.4233 59.5912 64.9997 59.5912C65.0228 59.5912 65.0448 59.5901 65.069 59.589C66.0381 59.5296 66.9291 59.1182 67.5165 58.8146C69.216 57.9346 70.646 56.7004 71.5425 55.3397C72.8042 53.4268 73.3795 51.1058 73.1628 48.8057C72.9186 46.2295 72.0089 43.8172 70.6647 42.1881C69.1907 40.3995 66.9764 39.415 64.7731 39.5184C64.1648 39.5514 63.7006 40.0695 63.7314 40.6767Z" fill="#292929"/>
<path d="M64.9308 64.2816C64.944 64.2816 64.955 64.2816 64.9682 64.2816C66.7491 64.2706 68.3122 63.263 69.6069 62.2807C70.5485 61.5657 71.4769 60.8331 72.4053 60.1005L73.8925 58.9312C75.2444 57.8763 76.1794 56.4936 76.5248 55.035C76.6645 54.4443 76.2982 53.8514 75.7064 53.7117C75.1157 53.5764 74.5239 53.9372 74.3831 54.5301C74.1543 55.5025 73.4998 56.4485 72.5406 57.1965L71.0435 58.3735C70.1272 59.0962 69.2098 59.82 68.277 60.5284C67.2716 61.2918 66.0913 62.075 64.9561 62.0816C64.559 62.0618 63.2423 62.0145 62.6527 61.0355C62.1984 60.2787 62.4382 58.9708 62.612 58.0149C62.8298 56.828 63.2786 55.9095 63.9485 55.2869C64.2609 54.9954 64.6822 54.7743 65.1266 54.54C65.6216 54.2793 66.1837 53.9834 66.6853 53.5423C67.4729 52.8482 68.057 51.966 68.3749 50.9914C69.3154 48.1028 67.5235 45.2846 66.7084 44.2077C66.341 43.7237 65.6513 43.6258 65.1673 43.9943C64.6833 44.3606 64.5876 45.0503 64.9539 45.5354C65.428 46.1602 66.9207 48.3536 66.2827 50.3105C66.0902 50.9023 65.7162 51.4644 65.2311 51.8923C64.9264 52.1607 64.526 52.3719 64.1025 52.5952C63.5756 52.8724 62.9783 53.187 62.4503 53.6776C61.4262 54.6313 60.753 55.9579 60.4494 57.6211C60.225 58.8476 59.8862 60.7011 60.7684 62.1707C61.5637 63.4929 63.118 64.2816 64.9308 64.2816Z" fill="#292929"/>
<path d="M75.4562 62.251C75.0723 61.7824 74.3815 61.7087 73.9085 62.0926C71.7008 63.8933 69.2456 65.0703 66.6089 65.5939L66.3427 65.6456C64.762 65.9569 62.9712 66.31 61.5335 67.4584C60.604 68.202 60.1321 69.3581 60.2003 70.7122C60.2883 72.4216 61.2475 74.1926 62.5323 75.022C62.7171 75.1397 62.9228 75.1969 63.1274 75.1969C63.4882 75.1969 63.8424 75.0198 64.0536 74.6931C64.3825 74.1816 64.2351 73.5018 63.7247 73.1718C63.0317 72.7252 62.4487 71.5955 62.3981 70.6C62.375 70.1545 62.4454 69.5462 62.9085 69.1755C63.9238 68.3626 65.3692 68.0788 66.7684 67.8038L67.0368 67.7499C70.0299 67.157 72.8096 65.8271 75.2989 63.7976C75.7686 63.4148 75.8401 62.7218 75.4562 62.251Z" fill="#292929"/>
<path d="M69.1368 68.8553C68.0137 69.5219 65.8104 70.1324 65.0558 70.3117C64.4651 70.4514 64.0988 71.0443 64.2396 71.635C64.3584 72.141 64.8105 72.482 65.3088 72.482C65.3924 72.482 65.4771 72.4721 65.5629 72.4534C65.6861 72.4237 68.6165 71.7241 70.261 70.7462C70.7835 70.436 70.9551 69.7606 70.6449 69.2392C70.3347 68.7178 69.6593 68.5429 69.1368 68.8553Z" fill="#292929"/>
<path d="M60.8244 42.8272C60.7958 43.2485 60.7661 43.6708 60.7529 44.0921C60.7023 45.5771 60.5978 48.667 63.273 49.4821C63.3808 49.5151 63.4875 49.5305 63.5942 49.5305C64.0661 49.5305 64.5017 49.2258 64.6458 48.7517C64.8229 48.1709 64.4962 47.5549 63.9154 47.379C63.031 47.1094 62.8913 45.9489 62.9507 44.1658C62.965 43.7698 62.9925 43.3727 63.02 42.9778C63.1344 41.3212 63.2521 39.6086 62.459 37.8838C62.096 37.0929 62.2005 36.8168 62.1983 36.8168C62.47 36.5462 64.2256 36.7497 65.2486 37.7209C65.6886 38.1411 66.3849 38.1203 66.8029 37.6814C67.222 37.2414 67.2033 36.5451 66.7633 36.1271C65.297 34.7323 62.426 33.948 60.9256 35.0216C60.4273 35.378 59.3834 36.4604 60.4592 38.8023C61.018 40.0178 60.9234 41.3818 60.8244 42.8272Z" fill="#292929"/>
<path d="M55.6918 21.6598C56.3001 21.6598 56.7918 21.1681 56.7918 20.5598V8.02645C56.7918 7.41815 56.3001 6.92645 55.6918 6.92645C55.0835 6.92645 54.5918 7.41815 54.5918 8.02645V20.5598C54.5918 21.167 55.0846 21.6598 55.6918 21.6598Z" fill="#EB9A28"/>
<path d="M38.446 26.0907C38.6517 26.0907 38.8585 26.0335 39.0433 25.9136C39.5526 25.5836 39.6989 24.9027 39.3678 24.3923L28.9728 8.34987C28.6428 7.84057 27.9619 7.69317 27.4515 8.02537C26.9422 8.35537 26.7959 9.03627 27.127 9.54667L37.522 25.5891C37.7321 25.9136 38.0841 26.0907 38.446 26.0907Z" fill="#EB9A28"/>
<path d="M26.2723 36.4989L15.4186 30.2333C14.8928 29.9297 14.2196 30.1101 13.916 30.6359C13.6124 31.1617 13.7928 31.8349 14.3186 32.1385L25.1723 38.4041C25.345 38.5042 25.5342 38.5515 25.7212 38.5515C26.1018 38.5515 26.4714 38.3535 26.6749 38.0015C26.9796 37.4746 26.7992 36.8025 26.2723 36.4989Z" fill="#EB9A28"/>
<path d="M13.0961 55.7401C13.0972 55.7401 13.0994 55.7401 13.1016 55.7401L20.9413 55.7049C21.5485 55.7016 22.0391 55.2077 22.0358 54.5994C22.0325 53.9933 21.5419 53.5049 20.9358 53.5049C20.9347 53.5049 20.9325 53.5049 20.9303 53.5049L13.0906 53.5401C12.4834 53.5434 11.9928 54.0373 11.9961 54.6456C11.9994 55.2517 12.49 55.7401 13.0961 55.7401Z" fill="#EB9A28"/>
<path d="M24.8189 70.8981L9.06689 79.9434C8.53999 80.2459 8.35739 80.918 8.66099 81.4449C8.86449 81.7991 9.23409 81.9971 9.61579 81.9971C9.80169 81.9971 9.98979 81.9498 10.1625 81.8508L25.9145 72.8055C26.4414 72.503 26.624 71.8309 26.3204 71.304C26.019 70.7771 25.3469 70.5978 24.8189 70.8981Z" fill="#EB9A28"/>
<path d="M38.3768 83.6196C37.8499 83.3193 37.1778 83.4997 36.8742 84.0244L31.559 93.26C31.2565 93.7869 31.438 94.459 31.9638 94.7626C32.1365 94.8616 32.3257 94.9089 32.5116 94.9089C32.8922 94.9089 33.2629 94.7109 33.4664 94.3578L38.7816 85.1222C39.0852 84.5953 38.9037 83.9232 38.3768 83.6196Z" fill="#EB9A28"/>
<path d="M54.9809 88.2593C54.3726 88.2593 53.8809 88.751 53.8809 89.3593V101.893C53.8809 102.501 54.3726 102.993 54.9809 102.993C55.5892 102.993 56.0809 102.501 56.0809 101.893V89.3593C56.0809 88.7521 55.5881 88.2593 54.9809 88.2593Z" fill="#EB9A28"/>
<path d="M73.1818 84.3786C72.8771 83.8517 72.2017 83.6724 71.6792 83.976C71.1523 84.2796 70.9719 84.9539 71.2766 85.4786L79.0118 98.8623C79.2164 99.2154 79.5849 99.4123 79.9655 99.4123C80.1525 99.4123 80.3417 99.365 80.5144 99.2649C81.0413 98.9613 81.2217 98.287 80.917 97.7623L73.1818 84.3786Z" fill="#EB9A28"/>
<path d="M96.3534 77.7819L85.4996 71.5152C84.9727 71.2116 84.3006 71.3909 83.997 71.9178C83.6934 72.4447 83.8738 73.1168 84.3996 73.4204L95.2534 79.6871C95.4261 79.7872 95.6153 79.8345 95.8023 79.8345C96.1829 79.8345 96.5524 79.6376 96.7559 79.2845C97.0606 78.7587 96.8803 78.0855 96.3534 77.7819Z" fill="#EB9A28"/>
<path d="M97.575 54.1803C97.5739 54.1803 97.5717 54.1803 97.5695 54.1803L89.7298 54.2155C89.1226 54.2188 88.632 54.7126 88.6353 55.3209C88.6386 55.927 89.1292 56.4155 89.7353 56.4155C89.7364 56.4155 89.7386 56.4155 89.7408 56.4155L97.5805 56.3802C98.1877 56.3769 98.6783 55.883 98.675 55.2747C98.6717 54.6687 98.1811 54.1803 97.575 54.1803Z" fill="#EB9A28"/>
<path d="M100.51 28.0685L84.7568 37.1149C84.2299 37.4174 84.0473 38.0895 84.3509 38.6164C84.5544 38.9706 84.924 39.1686 85.3057 39.1686C85.4916 39.1686 85.6797 39.1213 85.8524 39.0223L101.606 29.9759C102.132 29.6734 102.315 29.0013 102.011 28.4744C101.71 27.9464 101.039 27.766 100.51 28.0685Z" fill="#EB9A28"/>
<path d="M72.2951 26.2985C72.4678 26.3986 72.657 26.4459 72.8429 26.4459C73.2235 26.4459 73.5942 26.2479 73.7966 25.8948L79.1129 16.6592C79.4154 16.1323 79.2339 15.4602 78.7081 15.1566C78.1812 14.8563 77.508 15.0356 77.2066 15.5614L71.8903 24.797C71.5867 25.3239 71.7682 25.996 72.2951 26.2985Z" fill="#EB9A28"/>
</g>
<defs>
<clipPath id="clip0">
<rect width="159.42" height="159.42" fill="white" transform="translate(0.702637 0.188965) scale(0.69)"/>
</clipPath>
</defs>
</svg>
