<svg width="142" height="142" viewBox="0 0 142 142" fill="none" xmlns="http://www.w3.org/2000/svg">
<g clip-path="url(#clip0)">
<mask id="path-1-inside-1" fill="white">
<path d="M92.3555 29.8172C94.2143 30.0032 95.9516 30.8265 97.2726 32.1475C98.5936 33.4684 99.4169 35.2057 99.6029 37.0646C99.6029 37.3488 99.7158 37.6213 99.9168 37.8223C100.118 38.0233 100.39 38.1362 100.674 38.1362C100.959 38.1362 101.231 38.0233 101.432 37.8223C101.633 37.6213 101.746 37.3488 101.746 37.0646C101.932 35.2057 102.755 33.4684 104.076 32.1475C105.397 30.8265 107.135 30.0032 108.994 29.8172C109.274 29.8172 109.543 29.7058 109.741 29.5074C109.94 29.3091 110.051 29.0401 110.051 28.7597C110.051 28.4792 109.94 28.2102 109.741 28.0119C109.543 27.8136 109.274 27.7022 108.994 27.7022C107.135 27.5162 105.397 26.6929 104.076 25.3719C102.755 24.0509 101.932 22.3136 101.746 20.4548C101.746 20.1743 101.635 19.9053 101.436 19.707C101.238 19.5087 100.969 19.3973 100.689 19.3973C100.408 19.3973 100.139 19.5087 99.9408 19.707C99.7425 19.9053 99.6311 20.1743 99.6311 20.4548C99.4451 22.3136 98.6218 24.0509 97.3008 25.3719C95.9798 26.6929 94.2425 27.5162 92.3837 27.7022C92.1032 27.7022 91.8342 27.8136 91.6359 28.0119C91.4376 28.2102 91.3262 28.4792 91.3262 28.7597C91.3262 29.0401 91.4376 29.3091 91.6359 29.5074C91.8342 29.7058 92.1032 29.8172 92.3837 29.8172H92.3555ZM100.66 24.3746C101.677 26.2305 103.204 27.7569 105.06 28.7738C103.204 29.7913 101.678 31.3176 100.66 33.173C99.6428 31.3176 98.1166 29.7913 96.2612 28.7738C98.1171 27.7569 99.6435 26.2305 100.66 24.3746Z"/>
</mask>
<path d="M92.3555 29.8172C94.2143 30.0032 95.9516 30.8265 97.2726 32.1475C98.5936 33.4684 99.4169 35.2057 99.6029 37.0646C99.6029 37.3488 99.7158 37.6213 99.9168 37.8223C100.118 38.0233 100.39 38.1362 100.674 38.1362C100.959 38.1362 101.231 38.0233 101.432 37.8223C101.633 37.6213 101.746 37.3488 101.746 37.0646C101.932 35.2057 102.755 33.4684 104.076 32.1475C105.397 30.8265 107.135 30.0032 108.994 29.8172C109.274 29.8172 109.543 29.7058 109.741 29.5074C109.94 29.3091 110.051 29.0401 110.051 28.7597C110.051 28.4792 109.94 28.2102 109.741 28.0119C109.543 27.8136 109.274 27.7022 108.994 27.7022C107.135 27.5162 105.397 26.6929 104.076 25.3719C102.755 24.0509 101.932 22.3136 101.746 20.4548C101.746 20.1743 101.635 19.9053 101.436 19.707C101.238 19.5087 100.969 19.3973 100.689 19.3973C100.408 19.3973 100.139 19.5087 99.9408 19.707C99.7425 19.9053 99.6311 20.1743 99.6311 20.4548C99.4451 22.3136 98.6218 24.0509 97.3008 25.3719C95.9798 26.6929 94.2425 27.5162 92.3837 27.7022C92.1032 27.7022 91.8342 27.8136 91.6359 28.0119C91.4376 28.2102 91.3262 28.4792 91.3262 28.7597C91.3262 29.0401 91.4376 29.3091 91.6359 29.5074C91.8342 29.7058 92.1032 29.8172 92.3837 29.8172H92.3555ZM100.66 24.3746C101.677 26.2305 103.204 27.7569 105.06 28.7738C103.204 29.7913 101.678 31.3176 100.66 33.173C99.6428 31.3176 98.1166 29.7913 96.2612 28.7738C98.1171 27.7569 99.6435 26.2305 100.66 24.3746Z" fill="#1A1A1A"/>
<path d="M92.3555 29.8172V26.3672L92.012 33.25L92.3555 29.8172ZM99.6029 37.0646H103.053V36.8924L103.036 36.7211L99.6029 37.0646ZM101.746 37.0646L98.3132 36.7211L98.2961 36.8924V37.0646H101.746ZM108.994 29.8172V26.3672H108.821L108.65 26.3843L108.994 29.8172ZM108.994 27.7022L108.65 31.135L108.821 31.1522H108.994V27.7022ZM101.746 20.4548H98.2961V20.6269L98.3132 20.7983L101.746 20.4548ZM99.6311 20.4548L103.064 20.7983L103.081 20.6269V20.4548H99.6311ZM92.3837 27.7022V31.1522H92.5558L92.7272 31.135L92.3837 27.7022ZM100.66 24.3746L103.686 22.7167L100.66 17.1951L97.6348 22.7167L100.66 24.3746ZM105.06 28.7738L106.719 31.7987L112.237 28.7724L106.717 25.7482L105.06 28.7738ZM100.66 33.173L97.6354 34.8319L100.66 40.3476L103.685 34.8319L100.66 33.173ZM96.2612 28.7738L94.6033 25.7482L89.0841 28.7724L94.6022 31.7987L96.2612 28.7738ZM92.012 33.25C93.0785 33.3567 94.0752 33.8291 94.8331 34.587L99.7121 29.7079C97.828 27.8239 95.3502 26.6496 92.699 26.3843L92.012 33.25ZM94.8331 34.587C95.591 35.3449 96.0633 36.3416 96.17 37.4081L103.036 36.7211C102.77 34.0698 101.596 31.592 99.7121 29.7079L94.8331 34.587ZM96.1529 37.0646C96.1529 38.2637 96.6292 39.4138 97.4772 40.2618L102.356 35.3828C102.802 35.8289 103.053 36.4338 103.053 37.0646H96.1529ZM97.4772 40.2618C98.3252 41.1098 99.4753 41.5862 100.674 41.5862V34.6862C101.305 34.6862 101.91 34.9368 102.356 35.3828L97.4772 40.2618ZM100.674 41.5862C101.874 41.5862 103.024 41.1098 103.872 40.2618L98.9927 35.3828C99.4388 34.9367 100.044 34.6862 100.674 34.6862V41.5862ZM103.872 40.2618C104.72 39.4138 105.196 38.2637 105.196 37.0646H98.2961C98.2961 36.4338 98.5466 35.8289 98.9927 35.3828L103.872 40.2618ZM105.179 37.4081C105.286 36.3416 105.758 35.3449 106.516 34.587L101.637 29.7079C99.7528 31.592 98.5785 34.0699 98.3132 36.7211L105.179 37.4081ZM106.516 34.587C107.274 33.8291 108.271 33.3567 109.337 33.25L108.65 26.3843C105.999 26.6496 103.521 27.8239 101.637 29.7079L106.516 34.587ZM108.994 33.2672C110.189 33.2672 111.335 32.7923 112.181 31.947L107.302 27.0679C107.75 26.6192 108.359 26.3672 108.994 26.3672V33.2672ZM112.181 31.947C113.026 31.1016 113.501 29.9551 113.501 28.7597H106.601C106.601 28.1252 106.853 27.5166 107.302 27.0679L112.181 31.947ZM113.501 28.7597C113.501 27.5643 113.026 26.4177 112.181 25.5724L107.302 30.4514C106.853 30.0027 106.601 29.3942 106.601 28.7597H113.501ZM112.181 25.5724C111.335 24.7271 110.189 24.2522 108.994 24.2522V31.1522C108.359 31.1522 107.75 30.9001 107.302 30.4514L112.181 25.5724ZM109.337 24.2693C108.271 24.1626 107.274 23.6902 106.516 22.9324L101.637 27.8114C103.521 29.6955 105.999 30.8698 108.65 31.135L109.337 24.2693ZM106.516 22.9324C105.758 22.1745 105.286 21.1778 105.179 20.1113L98.3132 20.7983C98.5785 23.4495 99.7528 25.9273 101.637 27.8114L106.516 22.9324ZM105.196 20.4548C105.196 19.2593 104.721 18.1128 103.876 17.2675L98.9968 22.1465C98.5482 21.6979 98.2961 21.0893 98.2961 20.4548H105.196ZM103.876 17.2675C103.031 16.4222 101.884 15.9473 100.689 15.9473V22.8473C100.054 22.8473 99.4455 22.5952 98.9968 22.1465L103.876 17.2675ZM100.689 15.9473C99.4931 15.9473 98.3466 16.4222 97.5013 17.2675L102.38 22.1465C101.932 22.5952 101.323 22.8473 100.689 22.8473V15.9473ZM97.5013 17.2675C96.656 18.1128 96.1811 19.2593 96.1811 20.4548H103.081C103.081 21.0893 102.829 21.6979 102.38 22.1465L97.5013 17.2675ZM96.1982 20.1113C96.0915 21.1778 95.6192 22.1745 94.8613 22.9324L99.7403 27.8114C101.624 25.9273 102.799 23.4495 103.064 20.7983L96.1982 20.1113ZM94.8613 22.9324C94.1034 23.6902 93.1067 24.1626 92.0402 24.2693L92.7272 31.135C95.3784 30.8698 97.8562 29.6955 99.7403 27.8114L94.8613 22.9324ZM92.3837 24.2522C91.1882 24.2522 90.0417 24.7271 89.1964 25.5724L94.0754 30.4514C93.6267 30.9001 93.0182 31.1522 92.3837 31.1522V24.2522ZM89.1964 25.5724C88.351 26.4177 87.8762 27.5643 87.8762 28.7597H94.7762C94.7762 29.3942 94.5241 30.0027 94.0754 30.4514L89.1964 25.5724ZM87.8762 28.7597C87.8762 29.9551 88.351 31.1016 89.1964 31.947L94.0754 27.0679C94.5241 27.5166 94.7762 28.1252 94.7762 28.7597H87.8762ZM89.1964 31.947C90.0417 32.7923 91.1882 33.2672 92.3837 33.2672V26.3672C93.0182 26.3672 93.6267 26.6192 94.0754 27.0679L89.1964 31.947ZM92.3837 26.3672H92.3555V33.2672H92.3837V26.3672ZM97.6348 26.0324C98.9679 28.4653 100.969 30.4663 103.402 31.7993L106.717 25.7482C105.439 25.0475 104.387 23.9956 103.686 22.7167L97.6348 26.0324ZM103.401 25.7488C100.969 27.0823 98.969 29.0825 97.6354 31.514L103.685 34.8319C104.387 33.5527 105.439 32.5003 106.719 31.7987L103.401 25.7488ZM103.685 31.514C102.352 29.0825 100.352 27.0823 97.9201 25.7488L94.6022 31.7987C95.8815 32.5003 96.9338 33.5527 97.6354 34.8319L103.685 31.514ZM97.919 31.7993C100.352 30.4663 102.353 28.4653 103.686 26.0324L97.6348 22.7167C96.9341 23.9956 95.8822 25.0475 94.6033 25.7482L97.919 31.7993Z" fill="#7C97A9" mask="url(#path-1-inside-1)"/>
<mask id="path-3-inside-2" fill="white">
<path d="M25.0984 92.0546C23.3401 91.8806 21.6964 91.1027 20.447 89.8534C19.1976 88.604 18.4198 86.9603 18.2458 85.202C18.2458 84.9215 18.1344 84.6525 17.9361 84.4542C17.7377 84.2559 17.4688 84.1445 17.1883 84.1445C16.9078 84.1445 16.6389 84.2559 16.4405 84.4542C16.2422 84.6525 16.1308 84.9215 16.1308 85.202C15.9568 86.9603 15.179 88.604 13.9296 89.8534C12.6802 91.1027 11.0365 91.8806 9.2782 92.0546C8.99774 92.0546 8.72876 92.166 8.53044 92.3643C8.33212 92.5626 8.2207 92.8316 8.2207 93.1121C8.2207 93.3925 8.33212 93.6615 8.53044 93.8598C8.72876 94.0582 8.99774 94.1696 9.2782 94.1696C11.0365 94.3435 12.6802 95.1214 13.9296 96.3708C15.179 97.6202 15.9568 99.2639 16.1308 101.022C16.1308 101.303 16.2422 101.572 16.4405 101.77C16.6389 101.968 16.9078 102.08 17.1883 102.08C17.4688 102.08 17.7377 101.968 17.9361 101.77C18.1344 101.572 18.2458 101.303 18.2458 101.022C18.4198 99.2639 19.1976 97.6202 20.447 96.3708C21.6964 95.1214 23.3401 94.3435 25.0984 94.1696C25.3789 94.1696 25.6478 94.0582 25.8462 93.8598C26.0445 93.6615 26.1559 93.3925 26.1559 93.1121C26.1559 92.8316 26.0445 92.5626 25.8462 92.3643C25.6478 92.166 25.3789 92.0546 25.0984 92.0546ZM17.146 97.2716C16.1858 95.5578 14.7707 94.1428 13.057 93.1826C14.7712 92.223 16.1864 90.8078 17.146 89.0936C18.1062 90.8073 19.5213 92.2224 21.235 93.1826C19.5213 94.1428 18.1062 95.5578 17.146 97.2716Z"/>
</mask>
<path d="M25.0984 92.0546C23.3401 91.8806 21.6964 91.1027 20.447 89.8534C19.1976 88.604 18.4198 86.9603 18.2458 85.202C18.2458 84.9215 18.1344 84.6525 17.9361 84.4542C17.7377 84.2559 17.4688 84.1445 17.1883 84.1445C16.9078 84.1445 16.6389 84.2559 16.4405 84.4542C16.2422 84.6525 16.1308 84.9215 16.1308 85.202C15.9568 86.9603 15.179 88.604 13.9296 89.8534C12.6802 91.1027 11.0365 91.8806 9.2782 92.0546C8.99774 92.0546 8.72876 92.166 8.53044 92.3643C8.33212 92.5626 8.2207 92.8316 8.2207 93.1121C8.2207 93.3925 8.33212 93.6615 8.53044 93.8598C8.72876 94.0582 8.99774 94.1696 9.2782 94.1696C11.0365 94.3435 12.6802 95.1214 13.9296 96.3708C15.179 97.6202 15.9568 99.2639 16.1308 101.022C16.1308 101.303 16.2422 101.572 16.4405 101.77C16.6389 101.968 16.9078 102.08 17.1883 102.08C17.4688 102.08 17.7377 101.968 17.9361 101.77C18.1344 101.572 18.2458 101.303 18.2458 101.022C18.4198 99.2639 19.1976 97.6202 20.447 96.3708C21.6964 95.1214 23.3401 94.3435 25.0984 94.1696C25.3789 94.1696 25.6478 94.0582 25.8462 93.8598C26.0445 93.6615 26.1559 93.3925 26.1559 93.1121C26.1559 92.8316 26.0445 92.5626 25.8462 92.3643C25.6478 92.166 25.3789 92.0546 25.0984 92.0546ZM17.146 97.2716C16.1858 95.5578 14.7707 94.1428 13.057 93.1826C14.7712 92.223 16.1864 90.8078 17.146 89.0936C18.1062 90.8073 19.5213 92.2224 21.235 93.1826C19.5213 94.1428 18.1062 95.5578 17.146 97.2716Z" fill="#1A1A1A"/>
<path d="M25.0984 92.0546L24.7587 95.4878L24.9281 95.5046H25.0984V92.0546ZM18.2458 85.202L14.7958 85.202V85.3722L14.8126 85.5417L18.2458 85.202ZM16.1308 85.202L19.564 85.5417L19.5808 85.3722V85.202L16.1308 85.202ZM9.2782 92.0546V95.5046H9.44846L9.6179 95.4878L9.2782 92.0546ZM8.2207 93.1121H4.7707H8.2207ZM9.2782 94.1696L9.6179 90.7363L9.44846 90.7196H9.2782V94.1696ZM16.1308 101.022H19.5808V100.852L19.564 100.682L16.1308 101.022ZM18.2458 101.022L14.8126 100.682L14.7958 100.852V101.022H18.2458ZM25.0984 94.1696V90.7196H24.9281L24.7587 90.7363L25.0984 94.1696ZM13.057 93.1826L11.3718 90.1722L5.99653 93.1813L11.3706 96.1923L13.057 93.1826ZM17.146 89.0936L20.1558 87.4072L17.1447 82.0331L14.1356 87.4083L17.146 89.0936ZM21.235 93.1826L22.9214 96.1923L28.2931 93.1826L22.9214 90.1728L21.235 93.1826ZM25.4381 88.6213C24.4736 88.5259 23.5719 88.0992 22.8865 87.4138L18.0075 92.2929C19.8209 94.1063 22.2066 95.2353 24.7587 95.4878L25.4381 88.6213ZM22.8865 87.4138C22.2012 86.7285 21.7745 85.8268 21.679 84.8623L14.8126 85.5417C15.0651 88.0937 16.1941 90.4795 18.0075 92.2929L22.8865 87.4138ZM21.6958 85.202C21.6958 84.0065 21.2209 82.86 20.3756 82.0147L15.4966 86.8937C15.0479 86.445 14.7958 85.8365 14.7958 85.202L21.6958 85.202ZM20.3756 82.0147C19.5303 81.1694 18.3838 80.6945 17.1883 80.6945V87.5945C16.5538 87.5945 15.9452 87.3424 15.4966 86.8937L20.3756 82.0147ZM17.1883 80.6945C15.9928 80.6945 14.8463 81.1694 14.001 82.0147L18.8801 86.8937C18.4314 87.3424 17.8228 87.5945 17.1883 87.5945V80.6945ZM14.001 82.0147C13.1557 82.86 12.6808 84.0065 12.6808 85.202L19.5808 85.202C19.5808 85.8365 19.3287 86.445 18.8801 86.8937L14.001 82.0147ZM12.6976 84.8623C12.6021 85.8268 12.1754 86.7285 11.4901 87.4138L16.3691 92.2929C18.1825 90.4795 19.3115 88.0937 19.564 85.5417L12.6976 84.8623ZM11.4901 87.4138C10.8047 88.0992 9.90304 88.5259 8.93851 88.6213L9.6179 95.4878C12.17 95.2353 14.5557 94.1063 16.3691 92.2929L11.4901 87.4138ZM9.2782 88.6046C8.0827 88.6046 6.93621 89.0795 6.09092 89.9248L10.97 94.8038C10.5213 95.2525 9.91277 95.5046 9.2782 95.5046L9.2782 88.6046ZM6.09092 89.9248C5.24561 90.7701 4.7707 91.9166 4.7707 93.1121H11.6707C11.6707 93.7466 11.4186 94.3552 10.97 94.8038L6.09092 89.9248ZM4.7707 93.1121C4.7707 94.3075 5.24561 95.454 6.09092 96.2993L10.97 91.4203C11.4186 91.869 11.6707 92.4775 11.6707 93.1121H4.7707ZM6.09092 96.2993C6.93621 97.1446 8.0827 97.6196 9.2782 97.6196V90.7196C9.91277 90.7196 10.5213 90.9717 10.97 91.4203L6.09092 96.2993ZM8.93851 97.6028C9.90305 97.6982 10.8047 98.1249 11.4901 98.8103L16.3691 93.9313C14.5557 92.1179 12.17 90.9888 9.6179 90.7363L8.93851 97.6028ZM11.4901 98.8103C12.1754 99.4957 12.6021 100.397 12.6976 101.362L19.564 100.682C19.3115 98.1304 18.1825 95.7447 16.3691 93.9313L11.4901 98.8103ZM12.6808 101.022C12.6808 102.218 13.1557 103.364 14.001 104.209L18.8801 99.3304C19.3287 99.7791 19.5808 100.388 19.5808 101.022H12.6808ZM14.001 104.209C14.8463 105.055 15.9928 105.53 17.1883 105.53V98.6297C17.8229 98.6297 18.4314 98.8818 18.8801 99.3304L14.001 104.209ZM17.1883 105.53C18.3838 105.53 19.5303 105.055 20.3756 104.209L15.4966 99.3304C15.9452 98.8818 16.5537 98.6297 17.1883 98.6297V105.53ZM20.3756 104.209C21.2209 103.364 21.6958 102.218 21.6958 101.022H14.7958C14.7958 100.388 15.0479 99.7791 15.4966 99.3304L20.3756 104.209ZM21.679 101.362C21.7745 100.397 22.2012 99.4957 22.8865 98.8103L18.0075 93.9313C16.1941 95.7447 15.0651 98.1304 14.8126 100.682L21.679 101.362ZM22.8865 98.8103C23.5719 98.1249 24.4736 97.6982 25.4381 97.6028L24.7587 90.7363C22.2066 90.9888 19.8209 92.1179 18.0075 93.9313L22.8865 98.8103ZM25.0984 97.6196C26.2939 97.6196 27.4404 97.1446 28.2857 96.2993L23.4067 91.4203C23.8553 90.9717 24.4638 90.7196 25.0984 90.7196V97.6196ZM28.2857 96.2993C29.131 95.454 29.6059 94.3075 29.6059 93.1121H22.7059C22.7059 92.4775 22.958 91.869 23.4067 91.4203L28.2857 96.2993ZM29.6059 93.1121C29.6059 91.9166 29.131 90.7701 28.2857 89.9248L23.4067 94.8038C22.958 94.3552 22.7059 93.7466 22.7059 93.1121H29.6059ZM28.2857 89.9248C27.4404 89.0795 26.2939 88.6046 25.0984 88.6046V95.5046C24.4638 95.5046 23.8553 95.2525 23.4067 94.8038L28.2857 89.9248ZM20.1558 95.5852C18.8848 93.3168 17.0117 91.4438 14.7434 90.1728L11.3706 96.1923C12.5297 96.8418 13.4868 97.7988 14.1362 98.9579L20.1558 95.5852ZM14.7422 96.193C17.0119 94.9224 18.8858 93.0485 20.1564 90.7788L14.1356 87.4083C13.487 88.567 12.5304 89.5236 11.3718 90.1722L14.7422 96.193ZM14.1362 90.7799C15.4072 93.0483 17.2803 94.9214 19.5486 96.1923L22.9214 90.1728C21.7623 89.5234 20.8052 88.5663 20.1558 87.4072L14.1362 90.7799ZM19.5486 90.1728C17.2803 91.4438 15.4072 93.3168 14.1362 95.5852L20.1558 98.9579C20.8052 97.7988 21.7623 96.8418 22.9214 96.1923L19.5486 90.1728Z" fill="#7C97A9" mask="url(#path-3-inside-2)"/>
<path d="M23.3644 74.4437C25.9062 76.2647 28.9514 77.2502 32.0782 77.2637C32.9572 77.2635 33.8346 77.1881 34.7008 77.0381C37.0279 76.6432 39.2305 75.7097 41.1328 74.3122C43.0351 72.9147 44.5843 71.0919 45.6569 68.9892C46.7295 66.8865 47.2956 64.5623 47.3103 62.2019C47.3249 59.8415 46.7875 57.5104 45.7411 55.3946C47.1598 54.7171 48.5102 53.905 49.7736 52.9694C49.9999 52.803 50.1508 52.5535 50.1931 52.2759C50.2354 51.9982 50.1657 51.7151 49.9992 51.4889C49.8328 51.2626 49.5834 51.1118 49.3057 51.0695C49.0281 51.0272 48.745 51.0969 48.5187 51.2633C47.3173 52.1545 46.0274 52.9199 44.6695 53.5475C43.4247 51.7033 41.7895 50.1556 39.8799 49.0138C37.9703 47.8721 35.8329 47.1643 33.6192 46.9407C31.4056 46.7171 29.1698 46.9831 27.0704 47.7199C24.971 48.4567 23.0594 49.6462 21.471 51.2041C19.8825 52.7621 18.6562 54.6503 17.8789 56.735C17.1016 58.8197 16.7923 61.0499 16.973 63.2675C17.1536 65.4851 17.8198 67.6358 18.9244 69.5672C20.0289 71.4986 21.5447 73.1634 23.3644 74.4437ZM29.8363 49.1765C32.2413 48.7586 34.7154 49.0247 36.9765 49.9446C39.2376 50.8645 41.1948 52.4011 42.625 54.3794C34.165 57.3404 25.6063 54.3794 22.5184 53.1527C24.4537 51.0581 27.0259 49.6605 29.8363 49.1765ZM21.1507 54.8165C25.4094 56.7135 30.0107 57.7211 34.6726 57.7775C37.7813 57.8205 40.8722 57.2998 43.7953 56.2406C44.8172 58.293 45.2807 60.5784 45.1391 62.8668C44.9975 65.1553 44.2558 67.3661 42.9885 69.2769C41.7213 71.1876 39.9732 72.731 37.9201 73.7517C35.867 74.7725 33.5814 75.2346 31.293 75.0915C29.0047 74.9485 26.7943 74.2054 24.8843 72.937C22.9743 71.6686 21.432 69.9195 20.4125 67.8659C19.3931 65.8122 18.9324 63.5262 19.0768 61.2379C19.2212 58.9497 19.9657 56.7398 21.2353 54.8306L21.1507 54.8165Z" fill="#292929" stroke="#292929" stroke-width="1.5"/>
<mask id="path-6-inside-3" fill="white">
<path d="M32.0355 69.974C33.4108 69.981 34.768 69.6597 35.9941 69.0368C37.2203 68.4139 38.2801 67.5074 39.0855 66.3926C39.2501 66.1645 39.3173 65.8803 39.2723 65.6027C39.2274 65.325 39.074 65.0766 38.8458 64.9121C38.6177 64.7475 38.3336 64.6804 38.056 64.7253C37.7783 64.7703 37.5299 64.9237 37.3653 65.1518C36.3401 66.5452 34.8047 67.4758 33.0951 67.74C31.3854 68.0043 29.6407 67.5806 28.2426 66.5618C28.126 66.4813 27.9946 66.4245 27.856 66.3947C27.7174 66.3649 27.5743 66.3627 27.4349 66.3883C27.2954 66.4138 27.1624 66.4665 27.0433 66.5435C26.9243 66.6205 26.8215 66.7201 26.741 66.8368C26.5783 67.0724 26.5159 67.3629 26.5675 67.6445C26.619 67.9262 26.7803 68.1758 27.0159 68.3384C28.4763 69.3964 30.2323 69.9685 32.0355 69.974Z"/>
</mask>
<path d="M32.0355 69.974C33.4108 69.981 34.768 69.6597 35.9941 69.0368C37.2203 68.4139 38.2801 67.5074 39.0855 66.3926C39.2501 66.1645 39.3173 65.8803 39.2723 65.6027C39.2274 65.325 39.074 65.0766 38.8458 64.9121C38.6177 64.7475 38.3336 64.6804 38.056 64.7253C37.7783 64.7703 37.5299 64.9237 37.3653 65.1518C36.3401 66.5452 34.8047 67.4758 33.0951 67.74C31.3854 68.0043 29.6407 67.5806 28.2426 66.5618C28.126 66.4813 27.9946 66.4245 27.856 66.3947C27.7174 66.3649 27.5743 66.3627 27.4349 66.3883C27.2954 66.4138 27.1624 66.4665 27.0433 66.5435C26.9243 66.6205 26.8215 66.7201 26.741 66.8368C26.5783 67.0724 26.5159 67.3629 26.5675 67.6445C26.619 67.9262 26.7803 68.1758 27.0159 68.3384C28.4763 69.3964 30.2323 69.9685 32.0355 69.974Z" fill="#292929"/>
<path d="M39.0855 66.3926L41.8821 68.413L41.8836 68.4108L39.0855 66.3926ZM37.3653 65.1518L40.1442 67.1964L40.1539 67.1833L40.1634 67.17L37.3653 65.1518ZM28.2426 66.5618L30.2745 63.7736L30.239 63.7478L30.2029 63.7228L28.2426 66.5618ZM26.741 66.8368L29.58 68.797L26.741 66.8368ZM27.0159 68.3384L29.0399 65.5445L29.0083 65.5216L28.9762 65.4994L27.0159 68.3384ZM32.018 73.424C33.9423 73.4338 35.8411 72.9842 37.5567 72.1127L34.4316 65.961C33.6948 66.3352 32.8794 66.5283 32.0531 66.5241L32.018 73.424ZM37.5567 72.1127C39.2723 71.2412 40.7551 69.9728 41.8821 68.413L36.289 64.3722C35.8051 65.042 35.1683 65.5867 34.4316 65.961L37.5567 72.1127ZM41.8836 68.4108C42.5834 67.4407 42.8692 66.2322 42.678 65.0513L35.8667 66.1541C35.7654 65.5285 35.9168 64.8883 36.2875 64.3743L41.8836 68.4108ZM42.678 65.0513C42.4868 63.8704 41.8343 62.8139 40.8641 62.114L36.8276 67.7101C36.3136 67.3394 35.968 66.7797 35.8667 66.1541L42.678 65.0513ZM40.8641 62.114C39.8939 61.4142 38.6854 61.1285 37.5046 61.3197L38.6074 68.131C37.9818 68.2322 37.3415 68.0809 36.8276 67.7101L40.8641 62.114ZM37.5046 61.3197C36.3237 61.5108 35.2671 62.1633 34.5673 63.1335L40.1634 67.17C39.7927 67.684 39.2329 68.0297 38.6074 68.131L37.5046 61.3197ZM34.5865 63.1071C34.1019 63.7658 33.3762 64.2056 32.5681 64.3305L33.622 71.1496C36.2332 70.746 38.5783 69.3246 40.1442 67.1964L34.5865 63.1071ZM32.5681 64.3305C31.76 64.4554 30.9353 64.2552 30.2745 63.7736L26.2108 69.35C28.3461 70.9061 31.0109 71.5531 33.622 71.1496L32.5681 64.3305ZM30.2029 63.7228C29.7134 63.3848 29.1622 63.1466 28.5806 63.0217L27.1314 69.7677C26.8271 69.7024 26.5385 69.5777 26.2824 69.4008L30.2029 63.7228ZM28.5806 63.0217C27.999 62.8967 27.3985 62.8876 26.8135 62.9947L28.0562 69.7819C27.7501 69.8379 27.4358 69.8331 27.1314 69.7677L28.5806 63.0217ZM26.8135 62.9947C26.2284 63.1018 25.6702 63.3231 25.1706 63.646L28.9161 69.441C28.6546 69.61 28.3624 69.7258 28.0562 69.7819L26.8135 62.9947ZM25.1706 63.646C24.671 63.969 24.2399 64.3871 23.902 64.8765L29.58 68.797C29.4032 69.0531 29.1776 69.2719 28.9161 69.441L25.1706 63.646ZM23.902 64.8765C23.2194 65.865 22.9575 67.0842 23.1739 68.2659L29.961 67.0232C30.0743 67.6416 29.9372 68.2797 29.58 68.797L23.902 64.8765ZM23.1739 68.2659C23.3902 69.4475 24.0671 70.4948 25.0557 71.1774L28.9762 65.4994C29.4936 65.8567 29.8478 66.4048 29.961 67.0232L23.1739 68.2659ZM24.9919 71.1323C27.0381 72.6146 29.4984 73.4163 32.025 73.424L32.0461 66.5241C30.9661 66.5208 29.9145 66.1781 29.0399 65.5445L24.9919 71.1323Z" fill="black" mask="url(#path-6-inside-3)"/>
<mask id="path-8-inside-4" fill="white">
<path d="M49.294 110.934C48.5868 111.42 47.7909 111.761 46.9517 111.939C46.1125 112.117 45.2465 112.127 44.4032 111.97C43.5599 111.813 42.7558 111.491 42.0369 111.023C41.3181 110.555 40.6985 109.95 40.2136 109.242C40.0547 109.011 39.8102 108.851 39.5338 108.8C39.2575 108.748 38.972 108.809 38.7402 108.967C38.5083 109.126 38.3491 109.371 38.2975 109.647C38.246 109.924 38.3063 110.209 38.4652 110.441C39.105 111.378 39.924 112.18 40.8751 112.8C41.8261 113.419 42.8904 113.844 44.0065 114.051C44.5364 114.152 45.0745 114.204 45.6139 114.206C47.357 114.205 49.0586 113.674 50.4925 112.683C50.7244 112.524 50.8836 112.279 50.9352 112.003C50.9867 111.727 50.9264 111.441 50.7675 111.209C50.6085 110.978 50.364 110.818 50.0877 110.767C49.8114 110.715 49.5259 110.776 49.294 110.934Z"/>
</mask>
<path d="M49.294 110.934C48.5868 111.42 47.7909 111.761 46.9517 111.939C46.1125 112.117 45.2465 112.127 44.4032 111.97C43.5599 111.813 42.7558 111.491 42.0369 111.023C41.3181 110.555 40.6985 109.95 40.2136 109.242C40.0547 109.011 39.8102 108.851 39.5338 108.8C39.2575 108.748 38.972 108.809 38.7402 108.967C38.5083 109.126 38.3491 109.371 38.2975 109.647C38.246 109.924 38.3063 110.209 38.4652 110.441C39.105 111.378 39.924 112.18 40.8751 112.8C41.8261 113.419 42.8904 113.844 44.0065 114.051C44.5364 114.152 45.0745 114.204 45.6139 114.206C47.357 114.205 49.0586 113.674 50.4925 112.683C50.7244 112.524 50.8836 112.279 50.9352 112.003C50.9867 111.727 50.9264 111.441 50.7675 111.209C50.6085 110.978 50.364 110.818 50.0877 110.767C49.8114 110.715 49.5259 110.776 49.294 110.934Z" fill="#292929"/>
<path d="M40.2136 109.242L43.0596 107.292L43.0592 107.292L40.2136 109.242ZM38.4652 110.441L41.3149 108.496L41.3108 108.49L38.4652 110.441ZM44.0065 114.051L44.6531 110.662L44.6433 110.66L44.6335 110.658L44.0065 114.051ZM45.6139 114.206L45.6006 117.656L45.608 117.656L45.6153 117.656L45.6139 114.206ZM50.4925 112.683L48.5419 109.837L48.5365 109.841L48.5311 109.845L50.4925 112.683ZM47.3413 108.09C47.0079 108.319 46.6325 108.48 46.2368 108.564L47.6665 115.314C48.9492 115.043 50.1658 114.521 51.2467 113.779L47.3413 108.09ZM46.2368 108.564C45.8412 108.648 45.4328 108.653 45.0352 108.579L43.7712 115.362C45.0601 115.602 46.3838 115.586 47.6665 115.314L46.2368 108.564ZM45.0352 108.579C44.6375 108.505 44.2584 108.353 43.9194 108.132L40.1545 113.914C41.2532 114.63 42.4822 115.122 43.7712 115.362L45.0352 108.579ZM43.9194 108.132C43.5804 107.911 43.2883 107.626 43.0596 107.292L37.3676 111.192C38.1087 112.274 39.0557 113.199 40.1545 113.914L43.9194 108.132ZM43.0592 107.292C42.383 106.305 41.3425 105.628 40.1667 105.408L38.901 112.191C38.2778 112.075 37.7264 111.716 37.368 111.193L43.0592 107.292ZM40.1667 105.408C38.9909 105.189 37.7761 105.446 36.7895 106.122L40.6908 111.813C40.168 112.171 39.5241 112.308 38.901 112.191L40.1667 105.408ZM36.7895 106.122C35.803 106.798 35.1255 107.839 34.9061 109.014L41.689 110.28C41.5727 110.903 41.2136 111.455 40.6908 111.813L36.7895 106.122ZM34.9061 109.014C34.6867 110.19 34.9433 111.405 35.6196 112.392L41.3108 108.49C41.6692 109.013 41.8053 109.657 41.689 110.28L34.9061 109.014ZM35.6155 112.386C36.5119 113.699 37.6595 114.822 38.992 115.69L42.7581 109.909C42.1886 109.538 41.6981 109.058 41.3149 108.496L35.6155 112.386ZM38.992 115.69C40.3246 116.558 41.8157 117.154 43.3795 117.443L44.6335 110.658C43.9651 110.534 43.3277 110.28 42.7581 109.909L38.992 115.69ZM43.3599 117.439C44.0986 117.58 44.8487 117.653 45.6006 117.656L45.6272 110.756C45.3003 110.754 44.9742 110.723 44.6531 110.662L43.3599 117.439ZM45.6153 117.656C48.0587 117.655 50.4439 116.91 52.454 115.521L48.5311 109.845C47.6733 110.438 46.6553 110.755 45.6126 110.756L45.6153 117.656ZM52.4432 115.528C53.4297 114.852 54.1072 113.812 54.3266 112.636L47.5437 111.37C47.66 110.747 48.0191 110.196 48.5419 109.837L52.4432 115.528ZM54.3266 112.636C54.546 111.46 54.2894 110.245 53.6131 109.259L47.9219 113.16C47.5634 112.637 47.4274 111.993 47.5437 111.37L54.3266 112.636ZM53.6131 109.259C52.9368 108.272 51.8963 107.595 50.7206 107.375L49.4548 114.158C48.8317 114.042 48.2803 113.683 47.9219 113.16L53.6131 109.259ZM50.7206 107.375C49.5447 107.156 48.3299 107.413 47.3434 108.089L51.2447 113.78C50.7218 114.138 50.078 114.274 49.4548 114.158L50.7206 107.375Z" fill="black" mask="url(#path-8-inside-4)"/>
<path d="M59.1641 99.8378C58.1586 97.681 56.6595 95.7913 54.788 94.3216C52.9166 92.8518 50.7253 91.8433 48.3917 91.3778C48.3608 90.5411 48.1493 89.721 47.7719 88.9737C47.3945 88.2263 46.8599 87.5694 46.205 87.0479C45.55 86.5264 44.79 86.1526 43.9771 85.9522C43.1642 85.7517 42.3176 85.7294 41.4952 85.8867C40.6729 86.0439 39.8943 86.3771 39.2127 86.8634C38.5311 87.3496 37.9627 87.9774 37.5464 88.7038C37.1301 89.4302 36.8757 90.238 36.8006 91.0719C36.7256 91.9058 36.8317 92.746 37.1117 93.5351L36.6605 93.8171C33.6687 95.9077 31.539 99.0146 30.668 102.559C30.5834 102.897 30.4988 103.236 30.4424 103.574C29.7458 107.536 30.6512 111.613 32.9595 114.907C35.2678 118.202 38.79 120.445 42.7517 121.143C45.4793 121.626 48.2871 121.352 50.87 120.351C53.453 119.35 55.7123 117.661 57.4025 115.466C59.0928 113.272 60.1493 110.656 60.4574 107.903C60.7655 105.15 60.3133 102.366 59.15 99.8519L59.1641 99.8378ZM38.9306 90.7715C39.0758 89.8767 39.545 89.0665 40.2488 88.4951C40.9526 87.9238 41.8419 87.6312 42.7474 87.6729C43.653 87.7147 44.5115 88.088 45.1597 88.7218C45.8079 89.3555 46.2004 90.2055 46.2626 91.1099C43.7765 90.9735 41.2955 91.4581 39.0434 92.5199C38.8656 91.9547 38.8269 91.3548 38.9306 90.7715ZM37.9295 95.5514C40.1008 94.021 42.6897 93.1942 45.3461 93.1826C46.1165 93.1812 46.8855 93.2472 47.6444 93.38C49.622 93.7288 51.4923 94.5301 53.109 95.7213C54.7258 96.9125 56.0453 98.4612 56.9645 100.247C53.1716 104.265 39.4946 103.067 33.065 101.939C33.9694 99.3483 35.6727 97.1118 37.9295 95.5514ZM58.2899 108.509C57.6916 111.922 55.7622 114.957 52.9262 116.946C50.0903 118.936 46.58 119.718 43.1677 119.12C39.7553 118.521 36.7204 116.592 34.7306 113.756C32.7408 110.92 31.9591 107.41 32.5574 103.997C36.8021 104.72 41.0971 105.106 45.4025 105.153C50.2388 105.153 55.1174 104.505 57.8669 102.333C58.5042 104.328 58.6494 106.447 58.2899 108.509Z" fill="#292929" stroke="#292929" stroke-width="1.5"/>
<mask id="path-11-inside-5" fill="white">
<path d="M97.77 112.542C99.0999 112.545 100.413 112.242 101.606 111.655C102.8 111.068 103.841 110.213 104.651 109.158C104.804 108.934 104.866 108.66 104.824 108.393C104.781 108.125 104.637 107.884 104.422 107.719C104.206 107.554 103.936 107.479 103.666 107.508C103.396 107.537 103.148 107.668 102.973 107.875C101.917 109.25 100.36 110.15 98.6412 110.377C96.9229 110.604 95.1845 110.141 93.8079 109.087C93.6985 108.995 93.5715 108.925 93.4344 108.883C93.2973 108.841 93.1531 108.827 93.0106 108.842C92.868 108.858 92.73 108.902 92.6051 108.972C92.4801 109.042 92.3707 109.137 92.2836 109.251C92.1965 109.365 92.1335 109.496 92.0984 109.635C92.0632 109.774 92.0568 109.918 92.0793 110.06C92.1019 110.202 92.153 110.337 92.2296 110.458C92.3062 110.58 92.4066 110.684 92.5248 110.765C94.0295 111.919 95.8735 112.544 97.77 112.542Z"/>
</mask>
<path d="M97.77 112.542C99.0999 112.545 100.413 112.242 101.606 111.655C102.8 111.068 103.841 110.213 104.651 109.158C104.804 108.934 104.866 108.66 104.824 108.393C104.781 108.125 104.637 107.884 104.422 107.719C104.206 107.554 103.936 107.479 103.666 107.508C103.396 107.537 103.148 107.668 102.973 107.875C101.917 109.25 100.36 110.15 98.6412 110.377C96.9229 110.604 95.1845 110.141 93.8079 109.087C93.6985 108.995 93.5715 108.925 93.4344 108.883C93.2973 108.841 93.1531 108.827 93.0106 108.842C92.868 108.858 92.73 108.902 92.6051 108.972C92.4801 109.042 92.3707 109.137 92.2836 109.251C92.1965 109.365 92.1335 109.496 92.0984 109.635C92.0632 109.774 92.0568 109.918 92.0793 110.06C92.1019 110.202 92.153 110.337 92.2296 110.458C92.3062 110.58 92.4066 110.684 92.5248 110.765C94.0295 111.919 95.8735 112.544 97.77 112.542Z" fill="#292929"/>
<path d="M97.77 112.542L97.7786 109.092L97.7722 109.092L97.7659 109.092L97.77 112.542ZM104.651 109.158L107.389 111.257L107.443 111.186L107.494 111.112L104.651 109.158ZM102.973 107.875L100.342 105.643L100.288 105.707L100.236 105.774L102.973 107.875ZM93.8079 109.087L91.5757 111.718L91.6423 111.774L91.7116 111.827L93.8079 109.087ZM92.5248 110.765L94.6246 108.028L94.553 107.973L94.4786 107.922L92.5248 110.765ZM97.7613 115.992C99.6221 115.996 101.459 115.572 103.129 114.75L100.084 108.559C99.3665 108.911 98.5777 109.094 97.7786 109.092L97.7613 115.992ZM103.129 114.75C104.799 113.929 106.256 112.734 107.389 111.257L101.913 107.059C101.427 107.693 100.801 108.206 100.084 108.559L103.129 114.75ZM107.494 111.112C108.149 110.159 108.412 108.991 108.231 107.85L101.416 108.935C101.32 108.329 101.46 107.71 101.807 107.204L107.494 111.112ZM108.231 107.85C108.049 106.708 107.435 105.68 106.517 104.978L102.326 110.459C101.839 110.087 101.513 109.541 101.416 108.935L108.231 107.85ZM106.517 104.978C105.599 104.276 104.446 103.954 103.297 104.077L104.035 110.938C103.425 111.003 102.813 110.832 102.326 110.459L106.517 104.978ZM103.297 104.077C102.148 104.201 101.09 104.761 100.342 105.643L105.603 110.107C105.207 110.575 104.645 110.872 104.035 110.938L103.297 104.077ZM100.236 105.774C99.7373 106.424 99.0009 106.849 98.1887 106.957L99.0937 113.797C101.718 113.45 104.098 112.075 105.71 109.975L100.236 105.774ZM98.1887 106.957C97.3765 107.064 96.5548 106.845 95.9041 106.347L91.7116 111.827C93.8142 113.436 96.4692 114.144 99.0937 113.797L98.1887 106.957ZM96.04 106.457C95.574 106.061 95.0324 105.765 94.4481 105.585L92.4207 112.181C92.1105 112.085 91.823 111.928 91.5757 111.718L96.04 106.457ZM94.4481 105.585C93.8638 105.406 93.2491 105.347 92.6416 105.412L93.3795 112.272C93.0571 112.307 92.7309 112.276 92.4207 112.181L94.4481 105.585ZM92.6416 105.412C92.034 105.477 91.4459 105.666 90.9132 105.965L94.2969 111.979C94.0141 112.138 93.702 112.238 93.3795 112.272L92.6416 105.412ZM90.9132 105.965C90.3805 106.265 89.9144 106.67 89.5431 107.156L95.0242 111.347C94.8271 111.605 94.5797 111.82 94.2969 111.979L90.9132 105.965ZM89.5431 107.156C89.1719 107.641 88.9032 108.197 88.7535 108.79L95.4433 110.48C95.3638 110.794 95.2211 111.089 95.0242 111.347L89.5431 107.156ZM88.7535 108.79C88.6037 109.382 88.5762 109.999 88.6723 110.603L95.4864 109.517C95.5374 109.838 95.5228 110.165 95.4433 110.48L88.7535 108.79ZM88.6723 110.603C88.7684 111.206 88.9863 111.784 89.3127 112.301L95.1465 108.616C95.3197 108.89 95.4354 109.197 95.4864 109.517L88.6723 110.603ZM89.3127 112.301C89.6391 112.818 90.0672 113.263 90.5709 113.609L94.4786 107.922C94.746 108.106 94.9732 108.342 95.1465 108.616L89.3127 112.301ZM90.4249 113.503C92.5332 115.12 95.1169 115.995 97.7741 115.992L97.7659 109.092C96.6301 109.093 95.5257 108.719 94.6246 108.028L90.4249 113.503Z" fill="black" mask="url(#path-11-inside-5)"/>
<path d="M118.102 93.817L109.557 95.0437C107.956 93.0728 105.885 91.5362 103.534 90.5753C101.184 89.6144 98.6294 89.26 96.106 89.5447C95.6767 88.7239 94.9667 88.0847 94.1054 87.7436C93.2442 87.4025 92.289 87.3822 91.4141 87.6863C90.5391 87.9905 89.8026 88.599 89.3387 89.4008C88.8748 90.2026 88.7144 91.1444 88.8868 92.0545C88.908 92.1231 88.9363 92.1893 88.9714 92.2519C86.5779 93.9649 84.7337 96.3366 83.6633 99.0785C82.5929 101.82 82.3424 104.814 82.9422 107.696C83.5421 110.577 84.9664 113.223 87.042 115.31C89.1176 117.396 91.755 118.835 94.6333 119.451C97.5116 120.066 100.507 119.832 103.254 118.777C106.002 117.721 108.384 115.89 110.11 113.506C111.836 111.122 112.832 108.288 112.977 105.348C113.121 102.408 112.409 99.4894 110.925 96.9472L118.412 95.8756C118.671 95.8167 118.898 95.6627 119.048 95.4442C119.199 95.2257 119.262 94.9586 119.224 94.696C119.187 94.4334 119.052 94.1943 118.847 94.0263C118.642 93.8582 118.381 93.7735 118.116 93.7888L118.102 93.817ZM91.1005 90.2215C91.2398 89.9817 91.4346 89.7787 91.6685 89.6297C91.9024 89.4807 92.1686 89.3899 92.4449 89.3651C92.7211 89.3402 92.9993 89.382 93.256 89.4868C93.5128 89.5917 93.7407 89.7566 93.9205 89.9677C92.8708 90.2474 91.8544 90.6398 90.889 91.138C90.8723 90.8187 90.9455 90.5012 91.1005 90.2215ZM87.364 96.7921C88.3886 95.4145 89.6764 94.254 91.1528 93.3778C92.6293 92.5016 94.265 91.9272 95.965 91.6879C97.9735 91.3993 100.022 91.5843 101.946 92.2281C103.87 92.872 105.617 93.9569 107.048 95.3962L86.377 98.3572C86.669 97.8131 86.9988 97.2901 87.364 96.7921ZM110.742 102.771C111.015 104.711 110.847 106.688 110.251 108.555C109.656 110.422 108.648 112.131 107.302 113.556C105.956 114.98 104.306 116.083 102.476 116.783C100.645 117.483 98.6809 117.762 96.728 117.599C94.7751 117.436 92.8838 116.836 91.1945 115.843C89.5052 114.85 88.0611 113.489 86.9694 111.861C85.8777 110.234 85.1663 108.382 84.888 106.442C84.6097 104.502 84.7716 102.524 85.3618 100.656L108.613 97.3138C109.732 98.9414 110.465 100.803 110.756 102.756L110.742 102.771Z" fill="#292929" stroke="#292929" stroke-width="1.5"/>
<path d="M126.633 49.0636C125.185 47.6911 123.478 46.6222 121.611 45.9199C119.744 45.2177 117.755 44.8962 115.762 44.9746C113.174 45.0546 110.65 45.7968 108.43 47.1303C106.211 48.4637 104.371 50.344 103.085 52.5913C101.799 54.8387 101.111 57.3781 101.087 59.9671C101.062 62.5561 101.702 65.1082 102.945 67.3795L102.169 73.7245C102.071 74.3822 102.117 75.0535 102.304 75.6915C102.492 76.3296 102.817 76.9189 103.256 77.4184C103.695 77.9179 104.238 78.3155 104.846 78.5835C105.455 78.8514 106.115 78.9832 106.78 78.9697H106.963L126.816 78.307C127.498 78.3042 128.171 78.1486 128.785 77.8518C129.399 77.5549 129.939 77.1242 130.365 76.5914C130.791 76.0586 131.092 75.4372 131.247 74.7727C131.401 74.1083 131.405 73.4177 131.257 72.7516L130.059 66.463C131.395 63.5684 131.785 60.326 131.172 57.1972C130.56 54.0683 128.976 51.2123 126.647 49.0354L126.633 49.0636ZM129.326 59.7091C129.386 61.4888 129.081 63.262 128.43 64.9196C127.779 66.5772 126.797 68.0841 125.542 69.3478C124.287 70.6115 122.787 71.6051 121.134 72.2677C119.482 72.9302 117.711 73.2476 115.931 73.2004C114.15 73.1532 112.399 72.7424 110.783 71.9932C109.168 71.244 107.723 70.1722 106.537 68.8439C105.351 67.5155 104.449 65.9586 103.887 64.2688C103.325 62.5791 103.115 60.7923 103.269 59.0182C106.738 58.8631 118.694 57.6928 122.233 48.6265C122.235 48.5936 122.235 48.5607 122.233 48.5278C123.306 49.08 124.298 49.7775 125.18 50.6005C126.44 51.7686 127.455 53.1753 128.167 54.739C128.878 56.3026 129.272 57.992 129.326 59.7091ZM115.846 47.0896H116.297C117.678 47.0938 119.048 47.3175 120.358 47.7523C120.327 47.7924 120.299 47.8348 120.274 47.8792C117.369 55.324 107.245 56.6494 103.65 56.8891C104.354 54.1587 105.922 51.7291 108.12 49.963C110.318 48.1969 113.028 47.1889 115.846 47.0896ZM129.185 73.1746C129.273 73.5396 129.276 73.9199 129.195 74.2865C129.114 74.653 128.95 74.9962 128.716 75.2899C128.482 75.5836 128.185 75.8201 127.845 75.9813C127.506 76.1425 127.135 76.2242 126.76 76.2202L106.907 76.8829C106.533 76.9092 106.158 76.8519 105.81 76.7153C105.461 76.5788 105.147 76.3663 104.891 76.0933C104.642 75.8115 104.459 75.4784 104.354 75.1177C104.249 74.757 104.225 74.3775 104.284 74.0065L104.778 70.0162C106.2 71.6775 107.964 73.0115 109.95 73.9267C111.936 74.8418 114.097 75.3164 116.283 75.3178H116.805C118.797 75.2576 120.757 74.8028 122.573 73.9799C124.388 73.1571 126.022 71.9824 127.38 70.5238C127.76 70.1158 128.118 69.6875 128.452 69.2407L129.185 73.1746Z" fill="#292929" stroke="#292929" stroke-width="1.4"/>
<mask id="path-15-inside-6" fill="white">
<path d="M121.035 63.925C119.837 65.1753 118.192 65.8997 116.461 65.9393C114.73 65.979 113.053 65.3307 111.799 64.1365C111.591 64.0078 111.344 63.9555 111.101 63.9886C110.858 64.0217 110.635 64.1381 110.468 64.318C110.302 64.4978 110.203 64.7299 110.188 64.9746C110.174 65.2192 110.245 65.4613 110.389 65.6593C112.049 67.2403 114.268 68.0985 116.56 68.0456C118.852 67.9928 121.029 67.0332 122.614 65.3773C122.74 65.2854 122.845 65.1666 122.919 65.0295C122.994 64.8925 123.038 64.7405 123.047 64.5846C123.056 64.4288 123.031 64.2728 122.972 64.1279C122.914 63.9831 122.824 63.8529 122.71 63.7468C122.595 63.6407 122.458 63.5613 122.31 63.5143C122.161 63.4673 122.003 63.4539 121.848 63.475C121.694 63.496 121.546 63.5511 121.415 63.6363C121.284 63.7214 121.173 63.8345 121.091 63.9673L121.035 63.925Z"/>
</mask>
<path d="M121.035 63.925C119.837 65.1753 118.192 65.8997 116.461 65.9393C114.73 65.979 113.053 65.3307 111.799 64.1365C111.591 64.0078 111.344 63.9555 111.101 63.9886C110.858 64.0217 110.635 64.1381 110.468 64.318C110.302 64.4978 110.203 64.7299 110.188 64.9746C110.174 65.2192 110.245 65.4613 110.389 65.6593C112.049 67.2403 114.268 68.0985 116.56 68.0456C118.852 67.9928 121.029 67.0332 122.614 65.3773C122.74 65.2854 122.845 65.1666 122.919 65.0295C122.994 64.8925 123.038 64.7405 123.047 64.5846C123.056 64.4288 123.031 64.2728 122.972 64.1279C122.914 63.9831 122.824 63.8529 122.71 63.7468C122.595 63.6407 122.458 63.5613 122.31 63.5143C122.161 63.4673 122.003 63.4539 121.848 63.475C121.694 63.496 121.546 63.5511 121.415 63.6363C121.284 63.7214 121.173 63.8345 121.091 63.9673L121.035 63.925Z" fill="#292929"/>
<path d="M121.035 63.925L123.105 61.1651L120.659 59.3306L118.544 61.5381L121.035 63.925ZM111.799 64.1365L114.179 61.6381L113.918 61.3898L113.611 61.2007L111.799 64.1365ZM110.389 65.6593L107.601 67.6915L107.785 67.9429L108.01 68.1575L110.389 65.6593ZM122.614 65.3773L120.582 62.5894L120.334 62.77L120.122 62.9916L122.614 65.3773ZM121.091 63.9673L119.021 66.7273L122.043 68.9938L124.027 65.7794L121.091 63.9673ZM118.544 61.5381C117.978 62.1291 117.2 62.4715 116.382 62.4902L116.54 69.3884C119.184 69.3279 121.696 68.2215 123.526 66.312L118.544 61.5381ZM116.382 62.4902C115.564 62.509 114.771 62.2025 114.179 61.6381L109.42 66.635C111.336 68.4588 113.896 69.449 116.54 69.3884L116.382 62.4902ZM113.611 61.2007C112.723 60.652 111.671 60.4292 110.635 60.5702L111.567 67.407C111.018 67.4819 110.459 67.3636 109.987 67.0724L113.611 61.2007ZM110.635 60.5702C109.6 60.7113 108.646 61.2075 107.937 61.974L113 66.6619C112.623 67.0688 112.116 67.3322 111.567 67.407L110.635 60.5702ZM107.937 61.974C107.227 62.7405 106.805 63.7298 106.744 64.7727L113.632 65.1764C113.6 65.73 113.376 66.2551 113 66.6619L107.937 61.974ZM106.744 64.7727C106.683 65.8155 106.986 66.8473 107.601 67.6915L113.177 63.6272C113.504 64.0753 113.665 64.6229 113.632 65.1764L106.744 64.7727ZM108.01 68.1575C110.331 70.3685 113.435 71.5687 116.64 71.4947L116.481 64.5966C115.102 64.6284 113.767 64.1122 112.769 63.1612L108.01 68.1575ZM116.64 71.4947C119.845 71.4208 122.889 70.0788 125.106 67.7631L120.122 62.9916C119.169 63.9876 117.859 64.5648 116.481 64.5966L116.64 71.4947ZM124.646 68.1653C125.184 67.7732 125.629 67.2669 125.948 66.6827L119.891 63.3763C120.061 63.0663 120.296 62.7975 120.582 62.5894L124.646 68.1653ZM125.948 66.6827C126.266 66.0985 126.452 65.4509 126.491 64.7865L119.603 64.3828C119.623 64.0301 119.722 63.6864 119.891 63.3763L125.948 66.6827ZM126.491 64.7865C126.53 64.1221 126.421 63.4572 126.173 62.8398L119.772 65.4161C119.64 65.0883 119.582 64.7355 119.603 64.3828L126.491 64.7865ZM126.173 62.8398C125.924 62.2223 125.542 61.6676 125.054 61.2153L120.366 66.2783C120.107 66.0383 119.904 65.7438 119.772 65.4161L126.173 62.8398ZM125.054 61.2153C124.565 60.7631 123.983 60.4247 123.348 60.2243L121.271 66.8043C120.934 66.698 120.625 66.5183 120.366 66.2783L125.054 61.2153ZM123.348 60.2243C122.713 60.024 122.042 59.9667 121.383 60.0565L122.314 66.8934C121.964 66.9411 121.608 66.9106 121.271 66.8043L123.348 60.2243ZM121.383 60.0565C120.723 60.1464 120.092 60.3812 119.534 60.7441L123.296 66.5284C122.999 66.721 122.664 66.8457 122.314 66.8934L121.383 60.0565ZM119.534 60.7441C118.976 61.107 118.505 61.589 118.156 62.1553L124.027 65.7794C123.842 66.08 123.592 66.3358 123.296 66.5284L119.534 60.7441ZM123.161 61.2074L123.105 61.1651L118.965 66.685L119.021 66.7273L123.161 61.2074Z" fill="black" mask="url(#path-15-inside-6)"/>
<path d="M91.2133 64.2353C91.6561 61.1765 91.1532 58.0555 89.7721 55.2906C88.391 52.5256 86.1977 50.249 83.4861 48.7658C80.7746 47.2826 77.6745 46.6638 74.6013 46.9922C71.5282 47.3207 68.6289 48.5807 66.292 50.6035C63.9552 52.6262 62.2926 55.315 61.5271 58.3094C60.7615 61.3037 60.9296 64.4605 62.0088 67.3567C63.088 70.2528 65.0267 72.7498 67.5651 74.513C70.1035 76.2761 73.1203 77.2212 76.2109 77.2214C79.8533 77.2159 83.3724 75.9013 86.1264 73.5175C88.8803 71.1336 90.6857 67.8393 91.2133 64.2353ZM76.1968 48.9932C78.064 49.0044 79.907 49.4155 81.602 50.1988C83.2969 50.9821 84.8043 52.1194 86.0227 53.5343C87.2412 54.9491 88.1423 56.6086 88.6656 58.4009C89.1888 60.1933 89.3219 62.077 89.056 63.9251C89.056 64.2776 88.9291 64.6301 88.8445 64.9685C85.6225 61.5098 81.3197 59.2501 76.6432 58.5608C71.9668 57.8715 67.195 58.7936 63.112 61.1756C63.112 60.8372 63.112 60.4988 63.2107 60.1463C63.6748 57.0375 65.2424 54.1995 67.6269 52.1516C70.0115 50.1036 73.0536 48.9825 76.1968 48.9932ZM74.3074 74.9654C71.4674 74.5456 68.8446 73.2024 66.8441 71.1432C64.8436 69.0841 63.5766 66.4236 63.2389 63.5726H63.3799C63.9157 63.206 76.5211 54.746 88.1113 67.2245C86.9734 69.8467 85.0073 72.0235 82.5141 73.4216C80.021 74.8197 77.1382 75.362 74.3074 74.9654Z" fill="#292929" stroke="#292929" stroke-width="1.5"/>
<mask id="path-18-inside-7" fill="white">
<path d="M80.2014 66.6745C78.8033 67.6933 77.0586 68.117 75.349 67.8527C73.6394 67.5885 72.104 66.6579 71.0787 65.2645C70.9064 65.0601 70.663 64.9285 70.3976 64.8963C70.1322 64.864 69.8644 64.9336 69.6482 65.0908C69.4319 65.2481 69.2833 65.4814 69.2322 65.7439C69.181 66.0063 69.2312 66.2784 69.3726 66.5053C70.0383 67.4248 70.8793 68.2034 71.8473 68.7963C72.8153 69.3892 73.8911 69.7846 75.0126 69.9598C75.4792 70.0302 75.9508 70.0632 76.4226 70.0585C78.2485 70.0576 80.0265 69.4748 81.4986 68.3947C81.6116 68.3095 81.7066 68.2029 81.7784 68.081C81.8502 67.9591 81.8972 67.8242 81.9168 67.6841C81.9365 67.544 81.9283 67.4015 81.8929 67.2645C81.8574 67.1276 81.7953 66.9989 81.7101 66.886C81.625 66.773 81.5184 66.678 81.3964 66.6062C81.2745 66.5345 81.1397 66.4874 80.9996 66.4678C80.8595 66.4481 80.7169 66.4563 80.5799 66.4918C80.443 66.5272 80.3144 66.5893 80.2014 66.6745Z"/>
</mask>
<path d="M80.2014 66.6745C78.8033 67.6933 77.0586 68.117 75.349 67.8527C73.6394 67.5885 72.104 66.6579 71.0787 65.2645C70.9064 65.0601 70.663 64.9285 70.3976 64.8963C70.1322 64.864 69.8644 64.9336 69.6482 65.0908C69.4319 65.2481 69.2833 65.4814 69.2322 65.7439C69.181 66.0063 69.2312 66.2784 69.3726 66.5053C70.0383 67.4248 70.8793 68.2034 71.8473 68.7963C72.8153 69.3892 73.8911 69.7846 75.0126 69.9598C75.4792 70.0302 75.9508 70.0632 76.4226 70.0585C78.2485 70.0576 80.0265 69.4748 81.4986 68.3947C81.6116 68.3095 81.7066 68.2029 81.7784 68.081C81.8502 67.9591 81.8972 67.8242 81.9168 67.6841C81.9365 67.544 81.9283 67.4015 81.8929 67.2645C81.8574 67.1276 81.7953 66.9989 81.7101 66.886C81.625 66.773 81.5184 66.678 81.3964 66.6062C81.2745 66.5345 81.1397 66.4874 80.9996 66.4678C80.8595 66.4481 80.7169 66.4563 80.5799 66.4918C80.443 66.5272 80.3144 66.5893 80.2014 66.6745Z" fill="#292929"/>
<path d="M71.0787 65.2645L73.8575 63.2198L73.79 63.1281L73.7167 63.041L71.0787 65.2645ZM69.3726 66.5053L66.4446 68.3298L66.5079 68.4314L66.578 68.5283L69.3726 66.5053ZM75.0126 69.9598L74.4803 73.3685L74.4891 73.3698L74.4978 73.3711L75.0126 69.9598ZM76.4226 70.0585L76.4211 66.6085L76.4046 66.6085L76.3881 66.6086L76.4226 70.0585ZM81.4986 68.3947L83.5396 71.1762L83.5578 71.1629L83.5758 71.1493L81.4986 68.3947ZM78.1696 63.8863C77.5087 64.3679 76.6841 64.5681 75.876 64.4432L74.822 71.2622C77.4332 71.6658 80.0979 71.0188 82.2333 69.4627L78.1696 63.8863ZM75.876 64.4432C75.0679 64.3183 74.3421 63.8784 73.8575 63.2198L68.2999 67.3092C69.8658 69.4373 72.2109 70.8587 74.822 71.2622L75.876 64.4432ZM73.7167 63.041C72.9822 62.1696 71.9448 61.6088 70.8134 61.4714L69.9818 68.3211C69.3813 68.2482 68.8307 67.9505 68.4408 67.488L73.7167 63.041ZM70.8134 61.4714C69.6821 61.334 68.5407 61.6304 67.619 62.3007L71.6773 67.881C71.1881 68.2367 70.5823 68.394 69.9818 68.3211L70.8134 61.4714ZM67.619 62.3007C66.6973 62.971 66.0637 63.9656 65.8458 65.0842L72.6185 66.4035C72.5029 66.9973 72.1666 67.5252 71.6773 67.881L67.619 62.3007ZM65.8458 65.0842C65.6279 66.2029 65.8419 67.3626 66.4446 68.3298L72.3007 64.6808C72.6206 65.1942 72.7342 65.8097 72.6185 66.4035L65.8458 65.0842ZM66.578 68.5283C67.5107 69.8167 68.6891 70.9076 70.0453 71.7383L73.6493 65.8543C73.0696 65.4992 72.5659 65.0329 72.1672 64.4823L66.578 68.5283ZM70.0453 71.7383C71.4016 72.569 72.9089 73.1231 74.4803 73.3685L75.5449 66.5511C74.8733 66.4462 74.229 66.2094 73.6493 65.8543L70.0453 71.7383ZM74.4978 73.3711C75.1462 73.469 75.8014 73.5149 76.4572 73.5083L76.3881 66.6086C76.1001 66.6115 75.8123 66.5914 75.5274 66.5484L74.4978 73.3711ZM76.4242 73.5085C78.9836 73.5073 81.4761 72.6903 83.5396 71.1762L79.4576 65.6132C78.577 66.2593 77.5133 66.608 76.4211 66.6085L76.4242 73.5085ZM83.5758 71.1493C84.0505 70.7913 84.4501 70.3433 84.7516 69.831L78.8052 66.331C78.9632 66.0625 79.1726 65.8277 79.4214 65.6401L83.5758 71.1493ZM84.7516 69.831C85.0532 69.3186 85.2509 68.7519 85.3334 68.1631L78.5002 67.2052C78.5435 66.8966 78.6471 66.5996 78.8052 66.331L84.7516 69.831ZM85.3334 68.1631C85.416 67.5744 85.3817 66.9751 85.2327 66.3995L78.5531 68.1295C78.4749 67.8278 78.457 67.5137 78.5002 67.2052L85.3334 68.1631ZM85.2327 66.3995C85.0836 65.824 84.8227 65.2835 84.4647 64.8088L78.9556 68.9632C78.7679 68.7144 78.6312 68.4311 78.5531 68.1295L85.2327 66.3995ZM84.4647 64.8088C84.1067 64.3341 83.6588 63.9345 83.1464 63.633L79.6465 69.5795C79.378 69.4214 79.1432 69.212 78.9556 68.9632L84.4647 64.8088ZM83.1464 63.633C82.634 63.3314 82.0673 63.1337 81.4785 63.0512L80.5206 69.8844C80.2121 69.8411 79.915 69.7375 79.6465 69.5795L83.1464 63.633ZM81.4785 63.0512C80.8898 62.9687 80.2905 63.0029 79.715 63.152L81.4449 69.8316C81.1432 69.9097 80.8292 69.9276 80.5206 69.8844L81.4785 63.0512ZM79.715 63.152C79.1394 63.301 78.5989 63.562 78.1242 63.9199L82.2786 69.4291C82.0298 69.6167 81.7465 69.7535 81.4449 69.8316L79.715 63.152Z" fill="black" mask="url(#path-18-inside-7)"/>
<mask id="path-20-inside-8" fill="white">
<path d="M74.0255 95.0015H72.6155V93.1403C72.6155 92.8598 72.5041 92.5908 72.3057 92.3925C72.1074 92.1942 71.8384 92.0828 71.558 92.0828C71.2775 92.0828 71.0085 92.1942 70.8102 92.3925C70.6119 92.5908 70.5005 92.8598 70.5005 93.1403V95.0156H69.0905C68.81 95.0156 68.541 95.127 68.3427 95.3253C68.1444 95.5236 68.033 95.7926 68.033 96.0731C68.033 96.3535 68.1444 96.6225 68.3427 96.8208C68.541 97.0192 68.81 97.1306 69.0905 97.1306H70.5005V99.0059C70.5005 99.2863 70.6119 99.5553 70.8102 99.7536C71.0085 99.952 71.2775 100.063 71.558 100.063C71.8384 100.063 72.1074 99.952 72.3057 99.7536C72.5041 99.5553 72.6155 99.2863 72.6155 99.0059V97.1165H74.0255C74.306 97.1165 74.5749 97.0051 74.7733 96.8067C74.9716 96.6084 75.083 96.3394 75.083 96.059C75.083 95.7785 74.9716 95.5095 74.7733 95.3112C74.5749 95.1129 74.306 95.0015 74.0255 95.0015Z"/>
</mask>
<path d="M74.0255 95.0015H72.6155V93.1403C72.6155 92.8598 72.5041 92.5908 72.3057 92.3925C72.1074 92.1942 71.8384 92.0828 71.558 92.0828C71.2775 92.0828 71.0085 92.1942 70.8102 92.3925C70.6119 92.5908 70.5005 92.8598 70.5005 93.1403V95.0156H69.0905C68.81 95.0156 68.541 95.127 68.3427 95.3253C68.1444 95.5236 68.033 95.7926 68.033 96.0731C68.033 96.3535 68.1444 96.6225 68.3427 96.8208C68.541 97.0192 68.81 97.1306 69.0905 97.1306H70.5005V99.0059C70.5005 99.2863 70.6119 99.5553 70.8102 99.7536C71.0085 99.952 71.2775 100.063 71.558 100.063C71.8384 100.063 72.1074 99.952 72.3057 99.7536C72.5041 99.5553 72.6155 99.2863 72.6155 99.0059V97.1165H74.0255C74.306 97.1165 74.5749 97.0051 74.7733 96.8067C74.9716 96.6084 75.083 96.3394 75.083 96.059C75.083 95.7785 74.9716 95.5095 74.7733 95.3112C74.5749 95.1129 74.306 95.0015 74.0255 95.0015Z" fill="#7C97A9"/>
<path d="M72.6155 95.0015H69.1655V98.4515H72.6155V95.0015ZM70.5005 95.0156V98.4656H73.9505V95.0156H70.5005ZM70.5005 97.1306H73.9505V93.6806H70.5005V97.1306ZM72.6155 97.1165V93.6665H69.1655V97.1165H72.6155ZM74.0255 91.5515H72.6155V98.4515H74.0255V91.5515ZM76.0655 95.0015V93.1403H69.1655V95.0015H76.0655ZM76.0655 93.1403C76.0655 91.9448 75.5906 90.7983 74.7453 89.953L69.8662 94.832C69.4176 94.3834 69.1655 93.7748 69.1655 93.1403H76.0655ZM74.7453 89.953C73.9 89.1077 72.7535 88.6328 71.558 88.6328V95.5328C70.9234 95.5328 70.3149 95.2807 69.8662 94.832L74.7453 89.953ZM71.558 88.6328C70.3625 88.6328 69.216 89.1077 68.3707 89.953L73.2497 94.832C72.8011 95.2807 72.1925 95.5328 71.558 95.5328V88.6328ZM68.3707 89.953C67.5254 90.7983 67.0505 91.9448 67.0505 93.1403H73.9505C73.9505 93.7748 73.6984 94.3834 73.2497 94.832L68.3707 89.953ZM67.0505 93.1403V95.0156H73.9505V93.1403H67.0505ZM70.5005 91.5656H69.0905V98.4656H70.5005V91.5656ZM69.0905 91.5656C67.895 91.5656 66.7485 92.0405 65.9032 92.8858L70.7822 97.7648C70.3336 98.2135 69.725 98.4656 69.0905 98.4656V91.5656ZM65.9032 92.8858C65.0579 93.7311 64.583 94.8776 64.583 96.0731H71.483C71.483 96.7076 71.2309 97.3162 70.7822 97.7648L65.9032 92.8858ZM64.583 96.0731C64.583 97.2685 65.0578 98.415 65.9032 99.2604L70.7822 94.3813C71.2309 94.83 71.483 95.4386 71.483 96.0731H64.583ZM65.9032 99.2604C66.7485 100.106 67.8951 100.581 69.0905 100.581V93.6806C69.7249 93.6806 70.3335 93.9326 70.7822 94.3813L65.9032 99.2604ZM69.0905 100.581H70.5005V93.6806H69.0905V100.581ZM67.0505 97.1306V99.0059H73.9505V97.1306H67.0505ZM67.0505 99.0059C67.0505 100.201 67.5254 101.348 68.3707 102.193L73.2497 97.3141C73.6984 97.7628 73.9505 98.3713 73.9505 99.0059H67.0505ZM68.3707 102.193C69.216 103.038 70.3625 103.513 71.558 103.513V96.6134C72.1925 96.6134 72.8011 96.8655 73.2497 97.3141L68.3707 102.193ZM71.558 103.513C72.7535 103.513 73.9 103.038 74.7453 102.193L69.8662 97.3141C70.3149 96.8655 70.9234 96.6134 71.558 96.6134V103.513ZM74.7453 102.193C75.5906 101.348 76.0655 100.201 76.0655 99.0059H69.1655C69.1655 98.3713 69.4176 97.7628 69.8662 97.3141L74.7453 102.193ZM76.0655 99.0059V97.1165H69.1655V99.0059H76.0655ZM72.6155 100.566H74.0255V93.6665H72.6155V100.566ZM74.0255 100.566C75.2209 100.566 76.3674 100.092 77.2128 99.2463L72.3337 94.3672C72.7825 93.9185 73.391 93.6665 74.0255 93.6665V100.566ZM77.2128 99.2463C78.0581 98.4009 78.533 97.2544 78.533 96.059H71.633C71.633 95.4245 71.885 94.8159 72.3337 94.3672L77.2128 99.2463ZM78.533 96.059C78.533 94.8635 78.0581 93.717 77.2128 92.8717L72.3337 97.7507C71.8851 97.3021 71.633 96.6935 71.633 96.059H78.533ZM77.2128 92.8717C76.3675 92.0264 75.221 91.5515 74.0255 91.5515V98.4515C73.3909 98.4515 72.7824 98.1994 72.3337 97.7507L77.2128 92.8717Z" fill="#7C97A9" mask="url(#path-20-inside-8)"/>
<mask id="path-22-inside-9" fill="white">
<path d="M71.6285 88.8821C71.909 88.8821 72.178 88.7707 72.3763 88.5723C72.5746 88.374 72.686 88.105 72.686 87.8246V85.2725C72.686 84.992 72.5746 84.723 72.3763 84.5247C72.178 84.3264 71.909 84.215 71.6285 84.215C71.3481 84.215 71.0791 84.3264 70.8808 84.5247C70.6825 84.723 70.571 84.992 70.571 85.2725V87.8246C70.571 88.105 70.6825 88.374 70.8808 88.5723C71.0791 88.7707 71.3481 88.8821 71.6285 88.8821Z"/>
</mask>
<path d="M71.6285 88.8821C71.909 88.8821 72.178 88.7707 72.3763 88.5723C72.5746 88.374 72.686 88.105 72.686 87.8246V85.2725C72.686 84.992 72.5746 84.723 72.3763 84.5247C72.178 84.3264 71.909 84.215 71.6285 84.215C71.3481 84.215 71.0791 84.3264 70.8808 84.5247C70.6825 84.723 70.571 84.992 70.571 85.2725V87.8246C70.571 88.105 70.6825 88.374 70.8808 88.5723C71.0791 88.7707 71.3481 88.8821 71.6285 88.8821Z" fill="#7C97A9"/>
<path d="M71.6285 92.3321C72.824 92.3321 73.9705 91.8572 74.8158 91.0118L69.9367 86.1328C70.3854 85.6841 70.994 85.4321 71.6285 85.4321L71.6285 92.3321ZM74.8158 91.0118C75.6611 90.1665 76.136 89.02 76.136 87.8246H69.236C69.236 87.1901 69.488 86.5815 69.9367 86.1328L74.8158 91.0118ZM76.136 87.8246V85.2725H69.236V87.8246H76.136ZM76.136 85.2725C76.136 84.077 75.6611 82.9305 74.8158 82.0852L69.9367 86.9642C69.4881 86.5155 69.236 85.907 69.236 85.2725H76.136ZM74.8158 82.0852C73.9705 81.2399 72.824 80.765 71.6285 80.765V87.665C70.9939 87.665 70.3854 87.4129 69.9367 86.9642L74.8158 82.0852ZM71.6285 80.765C70.433 80.765 69.2865 81.2399 68.4412 82.0852L73.3203 86.9642C72.8717 87.4129 72.2631 87.665 71.6285 87.665V80.765ZM68.4412 82.0852C67.5959 82.9305 67.121 84.077 67.121 85.2725H74.021C74.021 85.907 73.769 86.5155 73.3203 86.9642L68.4412 82.0852ZM67.121 85.2725V87.8246H74.021V85.2725H67.121ZM67.121 87.8246C67.121 89.02 67.5959 90.1665 68.4412 91.0118L73.3203 86.1328C73.769 86.5815 74.021 87.1901 74.021 87.8246H67.121ZM68.4412 91.0118C69.2865 91.8572 70.4331 92.3321 71.6285 92.3321V85.4321C72.2631 85.4321 72.8716 85.6841 73.3203 86.1328L68.4412 91.0118Z" fill="#7C97A9" mask="url(#path-22-inside-9)"/>
<mask id="path-24-inside-10" fill="white">
<path d="M47.4893 40.4767H48.8993V42.352C48.8993 42.6325 49.0107 42.9015 49.209 43.0998C49.4073 43.2981 49.6763 43.4095 49.9568 43.4095C50.2372 43.4095 50.5062 43.2981 50.7045 43.0998C50.9028 42.9015 51.0143 42.6325 51.0143 42.352V40.4767H52.4243C52.7047 40.4767 52.9737 40.3653 53.172 40.167C53.3703 39.9687 53.4818 39.6997 53.4818 39.4192C53.4818 39.1388 53.3703 38.8698 53.172 38.6715C52.9737 38.4732 52.7047 38.3617 52.4243 38.3617H50.9861V36.4865C50.9861 36.206 50.8746 35.937 50.6763 35.7387C50.478 35.5404 50.209 35.429 49.9286 35.429C49.6481 35.429 49.3791 35.5404 49.1808 35.7387C48.9825 35.937 48.8711 36.206 48.8711 36.4865V38.3617H47.4611C47.1806 38.3617 46.9116 38.4732 46.7133 38.6715C46.515 38.8698 46.4036 39.1388 46.4036 39.4192C46.4036 39.6997 46.515 39.9687 46.7133 40.167C46.9116 40.3653 47.1806 40.4767 47.4611 40.4767H47.4893Z"/>
</mask>
<path d="M47.4893 40.4767H48.8993V42.352C48.8993 42.6325 49.0107 42.9015 49.209 43.0998C49.4073 43.2981 49.6763 43.4095 49.9568 43.4095C50.2372 43.4095 50.5062 43.2981 50.7045 43.0998C50.9028 42.9015 51.0143 42.6325 51.0143 42.352V40.4767H52.4243C52.7047 40.4767 52.9737 40.3653 53.172 40.167C53.3703 39.9687 53.4818 39.6997 53.4818 39.4192C53.4818 39.1388 53.3703 38.8698 53.172 38.6715C52.9737 38.4732 52.7047 38.3617 52.4243 38.3617H50.9861V36.4865C50.9861 36.206 50.8746 35.937 50.6763 35.7387C50.478 35.5404 50.209 35.429 49.9286 35.429C49.6481 35.429 49.3791 35.5404 49.1808 35.7387C48.9825 35.937 48.8711 36.206 48.8711 36.4865V38.3617H47.4611C47.1806 38.3617 46.9116 38.4732 46.7133 38.6715C46.515 38.8698 46.4036 39.1388 46.4036 39.4192C46.4036 39.6997 46.515 39.9687 46.7133 40.167C46.9116 40.3653 47.1806 40.4767 47.4611 40.4767H47.4893Z" fill="#7C97A9"/>
<path d="M48.8993 40.4767H52.3493V37.0267H48.8993V40.4767ZM51.0143 40.4767V37.0267H47.5643V40.4767H51.0143ZM52.4243 40.4767V43.9267V40.4767ZM50.9861 38.3617H47.5361V41.8117H50.9861V38.3617ZM48.8711 38.3617V41.8117H52.3211V38.3617H48.8711ZM47.4611 38.3617V41.8117V38.3617ZM47.4893 43.9267H48.8993V37.0267H47.4893V43.9267ZM45.4493 40.4767V42.352H52.3493V40.4767H45.4493ZM45.4493 42.352C45.4493 43.5475 45.9242 44.694 46.7695 45.5393L51.6485 40.6603C52.0972 41.109 52.3493 41.7175 52.3493 42.352H45.4493ZM46.7695 45.5393C47.6148 46.3846 48.7613 46.8595 49.9568 46.8595V39.9595C50.5913 39.9595 51.1998 40.2116 51.6485 40.6603L46.7695 45.5393ZM49.9568 46.8595C51.1522 46.8595 52.2987 46.3846 53.144 45.5393L48.265 40.6603C48.7137 40.2116 49.3222 39.9595 49.9568 39.9595V46.8595ZM53.144 45.5393C53.9894 44.694 54.4643 43.5475 54.4643 42.352H47.5643C47.5643 41.7175 47.8163 41.109 48.265 40.6603L53.144 45.5393ZM54.4643 42.352V40.4767H47.5643V42.352H54.4643ZM51.0143 43.9267H52.4243V37.0267H51.0143V43.9267ZM52.4243 43.9267C53.6197 43.9267 54.7662 43.4519 55.6115 42.6065L50.7325 37.7275C51.1812 37.2788 51.7897 37.0267 52.4243 37.0267V43.9267ZM55.6115 42.6065C56.4569 41.7612 56.9318 40.6147 56.9318 39.4192H50.0318C50.0318 38.7847 50.2838 38.1762 50.7325 37.7275L55.6115 42.6065ZM56.9318 39.4192C56.9318 38.2238 56.4569 37.0773 55.6115 36.232L50.7325 41.111C50.2838 40.6623 50.0318 40.0538 50.0318 39.4192H56.9318ZM55.6115 36.232C54.7662 35.3866 53.6197 34.9117 52.4243 34.9117V41.8117C51.7897 41.8117 51.1812 41.5597 50.7325 41.111L55.6115 36.232ZM52.4243 34.9117H50.9861V41.8117H52.4243V34.9117ZM54.4361 38.3617V36.4865H47.5361V38.3617H54.4361ZM54.4361 36.4865C54.4361 35.291 53.9612 34.1445 53.1158 33.2992L48.2368 38.1782C47.7881 37.7295 47.5361 37.121 47.5361 36.4865H54.4361ZM53.1158 33.2992C52.2705 32.4538 51.124 31.979 49.9286 31.979V38.879C49.294 38.879 48.6855 38.6269 48.2368 38.1782L53.1158 33.2992ZM49.9286 31.979C48.7331 31.979 47.5866 32.4538 46.7413 33.2992L51.6203 38.1782C51.1716 38.6269 50.5631 38.879 49.9286 38.879V31.979ZM46.7413 33.2992C45.896 34.1445 45.4211 35.291 45.4211 36.4865H52.3211C52.3211 37.121 52.069 37.7295 51.6203 38.1782L46.7413 33.2992ZM45.4211 36.4865V38.3617H52.3211V36.4865H45.4211ZM48.8711 34.9117H47.4611V41.8117H48.8711V34.9117ZM47.4611 34.9117C46.2656 34.9117 45.1191 35.3866 44.2738 36.232L49.1528 41.111C48.7041 41.5597 48.0956 41.8117 47.4611 41.8117L47.4611 34.9117ZM44.2738 36.232C43.4285 37.0773 42.9536 38.2238 42.9536 39.4192H49.8536C49.8536 40.0538 49.6015 40.6623 49.1528 41.111L44.2738 36.232ZM42.9536 39.4192C42.9536 40.6147 43.4285 41.7612 44.2738 42.6065L49.1528 37.7275C49.6015 38.1762 49.8536 38.7847 49.8536 39.4192H42.9536ZM44.2738 42.6065C45.1191 43.4519 46.2656 43.9267 47.4611 43.9267V37.0267C48.0956 37.0267 48.7041 37.2788 49.1528 37.7275L44.2738 42.6065ZM47.4611 43.9267H47.4893V37.0267H47.4611V43.9267Z" fill="#7C97A9" mask="url(#path-24-inside-10)"/>
<mask id="path-26-inside-11" fill="white">
<path d="M126.59 106.394H125.18V104.533C125.18 104.253 125.069 103.984 124.871 103.785C124.672 103.587 124.403 103.476 124.123 103.476C123.842 103.476 123.573 103.587 123.375 103.785C123.177 103.984 123.065 104.253 123.065 104.533V106.408H121.655C121.375 106.408 121.106 106.52 120.908 106.718C120.709 106.916 120.598 107.185 120.598 107.466C120.598 107.746 120.709 108.015 120.908 108.214C121.106 108.412 121.375 108.523 121.655 108.523H123.065V110.385C123.065 110.665 123.177 110.934 123.375 111.132C123.573 111.331 123.842 111.442 124.123 111.442C124.403 111.442 124.672 111.331 124.871 111.132C125.069 110.934 125.18 110.665 125.18 110.385V108.509H126.59C126.871 108.509 127.14 108.398 127.338 108.2C127.536 108.001 127.648 107.732 127.648 107.452C127.648 107.171 127.536 106.902 127.338 106.704C127.14 106.506 126.871 106.394 126.59 106.394Z"/>
</mask>
<path d="M126.59 106.394H125.18V104.533C125.18 104.253 125.069 103.984 124.871 103.785C124.672 103.587 124.403 103.476 124.123 103.476C123.842 103.476 123.573 103.587 123.375 103.785C123.177 103.984 123.065 104.253 123.065 104.533V106.408H121.655C121.375 106.408 121.106 106.52 120.908 106.718C120.709 106.916 120.598 107.185 120.598 107.466C120.598 107.746 120.709 108.015 120.908 108.214C121.106 108.412 121.375 108.523 121.655 108.523H123.065V110.385C123.065 110.665 123.177 110.934 123.375 111.132C123.573 111.331 123.842 111.442 124.123 111.442C124.403 111.442 124.672 111.331 124.871 111.132C125.069 110.934 125.18 110.665 125.18 110.385V108.509H126.59C126.871 108.509 127.14 108.398 127.338 108.2C127.536 108.001 127.648 107.732 127.648 107.452C127.648 107.171 127.536 106.902 127.338 106.704C127.14 106.506 126.871 106.394 126.59 106.394Z" fill="#7C97A9"/>
<path d="M125.18 106.394H121.73V109.844H125.18V106.394ZM123.065 106.408V109.858H126.515V106.408H123.065ZM121.655 106.408V109.858V106.408ZM123.065 108.523H126.515V105.073H123.065V108.523ZM125.18 108.509V105.059H121.73V108.509H125.18ZM126.59 108.509V111.959V108.509ZM126.59 102.944H125.18V109.844H126.59V102.944ZM128.63 106.394V104.533H121.73V106.394H128.63ZM128.63 104.533C128.63 103.338 128.155 102.191 127.31 101.346L122.431 106.225C121.983 105.776 121.73 105.168 121.73 104.533H128.63ZM127.31 101.346C126.465 100.5 125.318 100.026 124.123 100.026V106.926C123.488 106.926 122.88 106.673 122.431 106.225L127.31 101.346ZM124.123 100.026C122.927 100.026 121.781 100.5 120.936 101.346L125.815 106.225C125.366 106.673 124.757 106.926 124.123 106.926V100.026ZM120.936 101.346C120.09 102.191 119.615 103.338 119.615 104.533H126.515C126.515 105.168 126.263 105.776 125.815 106.225L120.936 101.346ZM119.615 104.533V106.408H126.515V104.533H119.615ZM123.065 102.958H121.655V109.858H123.065V102.958ZM121.655 102.958C120.46 102.958 119.313 103.433 118.468 104.279L123.347 109.158C122.898 109.606 122.29 109.858 121.655 109.858V102.958ZM118.468 104.279C117.623 105.124 117.148 106.27 117.148 107.466H124.048C124.048 108.1 123.796 108.709 123.347 109.158L118.468 104.279ZM117.148 107.466C117.148 108.661 117.623 109.808 118.468 110.653L123.347 105.774C123.796 106.223 124.048 106.831 124.048 107.466H117.148ZM118.468 110.653C119.313 111.498 120.46 111.973 121.655 111.973V105.073C122.29 105.073 122.898 105.325 123.347 105.774L118.468 110.653ZM121.655 111.973H123.065V105.073H121.655V111.973ZM119.615 108.523V110.385H126.515V108.523H119.615ZM119.615 110.385C119.615 111.58 120.09 112.726 120.936 113.572L125.815 108.693C126.263 109.141 126.515 109.75 126.515 110.385H119.615ZM120.936 113.572C121.781 114.417 122.927 114.892 124.123 114.892V107.992C124.757 107.992 125.366 108.244 125.815 108.693L120.936 113.572ZM124.123 114.892C125.318 114.892 126.465 114.417 127.31 113.572L122.431 108.693C122.88 108.244 123.488 107.992 124.123 107.992V114.892ZM127.31 113.572C128.155 112.727 128.63 111.58 128.63 110.385H121.73C121.73 109.75 121.983 109.141 122.431 108.693L127.31 113.572ZM128.63 110.385V108.509H121.73V110.385H128.63ZM125.18 111.959H126.59V105.059H125.18V111.959ZM126.59 111.959C127.786 111.959 128.932 111.484 129.778 110.639L124.899 105.76C125.347 105.311 125.956 105.059 126.59 105.059V111.959ZM129.778 110.639C130.623 109.794 131.098 108.647 131.098 107.452H124.198C124.198 106.817 124.45 106.209 124.899 105.76L129.778 110.639ZM131.098 107.452C131.098 106.256 130.623 105.11 129.778 104.264L124.899 109.143C124.45 108.695 124.198 108.086 124.198 107.452H131.098ZM129.778 104.264C128.932 103.419 127.786 102.944 126.59 102.944V109.844C125.956 109.844 125.347 109.592 124.899 109.143L129.778 104.264Z" fill="#7C97A9" mask="url(#path-26-inside-11)"/>
</g>
<defs>
<clipPath id="clip0">
<rect width="204.348" height="204.348" fill="white" transform="translate(0.226074 0.404541) scale(0.69)"/>
</clipPath>
</defs>
</svg>
