<svg width="134" height="134" viewBox="0 0 134 134" fill="none" xmlns="http://www.w3.org/2000/svg">
<g clip-path="url(#clip0)">
<mask id="path-1-inside-1" fill="white">
<path d="M87.1531 28.6316C88.9065 28.807 90.5452 29.5836 91.7912 30.8297C93.0372 32.0757 93.8139 33.7144 93.9893 35.4678C93.9893 35.7359 94.0958 35.993 94.2854 36.1825C94.4749 36.3721 94.732 36.4786 95.0001 36.4786C95.2682 36.4786 95.5253 36.3721 95.7148 36.1825C95.9044 35.993 96.0109 35.7359 96.0109 35.4678C96.1863 33.7144 96.963 32.0757 98.209 30.8297C99.455 29.5836 101.094 28.807 102.847 28.6316C103.112 28.6316 103.365 28.5265 103.552 28.3394C103.74 28.1524 103.845 27.8986 103.845 27.6341C103.845 27.3695 103.74 27.1158 103.552 26.9287C103.365 26.7417 103.112 26.6366 102.847 26.6366C101.094 26.4611 99.455 25.6845 98.209 24.4385C96.963 23.1925 96.1863 21.5538 96.0109 19.8004C96.0109 19.5358 95.9058 19.2821 95.7187 19.095C95.5317 18.908 95.278 18.8029 95.0134 18.8029C94.7488 18.8029 94.4951 18.908 94.3081 19.095C94.121 19.2821 94.0159 19.5358 94.0159 19.8004C93.8405 21.5538 93.0638 23.1925 91.8178 24.4385C90.5718 25.6845 88.9331 26.4611 87.1797 26.6366C86.9151 26.6366 86.6614 26.7417 86.4743 26.9287C86.2873 27.1158 86.1822 27.3695 86.1822 27.6341C86.1822 27.8986 86.2873 28.1524 86.4743 28.3394C86.6614 28.5265 86.9151 28.6316 87.1797 28.6316H87.1531ZM94.9868 23.4978C95.946 25.2484 97.3858 26.6882 99.1364 27.6474C97.3863 28.6072 95.9466 30.0469 94.9868 31.797C94.027 30.0469 92.5873 28.6072 90.8372 27.6474C92.5878 26.6882 94.0276 25.2484 94.9868 23.4978Z"/>
</mask>
<path d="M87.1531 28.6316C88.9065 28.807 90.5452 29.5836 91.7912 30.8297C93.0372 32.0757 93.8139 33.7144 93.9893 35.4678C93.9893 35.7359 94.0958 35.993 94.2854 36.1825C94.4749 36.3721 94.732 36.4786 95.0001 36.4786C95.2682 36.4786 95.5253 36.3721 95.7148 36.1825C95.9044 35.993 96.0109 35.7359 96.0109 35.4678C96.1863 33.7144 96.963 32.0757 98.209 30.8297C99.455 29.5836 101.094 28.807 102.847 28.6316C103.112 28.6316 103.365 28.5265 103.552 28.3394C103.74 28.1524 103.845 27.8986 103.845 27.6341C103.845 27.3695 103.74 27.1158 103.552 26.9287C103.365 26.7417 103.112 26.6366 102.847 26.6366C101.094 26.4611 99.455 25.6845 98.209 24.4385C96.963 23.1925 96.1863 21.5538 96.0109 19.8004C96.0109 19.5358 95.9058 19.2821 95.7187 19.095C95.5317 18.908 95.278 18.8029 95.0134 18.8029C94.7488 18.8029 94.4951 18.908 94.3081 19.095C94.121 19.2821 94.0159 19.5358 94.0159 19.8004C93.8405 21.5538 93.0638 23.1925 91.8178 24.4385C90.5718 25.6845 88.9331 26.4611 87.1797 26.6366C86.9151 26.6366 86.6614 26.7417 86.4743 26.9287C86.2873 27.1158 86.1822 27.3695 86.1822 27.6341C86.1822 27.8986 86.2873 28.1524 86.4743 28.3394C86.6614 28.5265 86.9151 28.6316 87.1797 28.6316H87.1531ZM94.9868 23.4978C95.946 25.2484 97.3858 26.6882 99.1364 27.6474C97.3863 28.6072 95.9466 30.0469 94.9868 31.797C94.027 30.0469 92.5873 28.6072 90.8372 27.6474C92.5878 26.6882 94.0276 25.2484 94.9868 23.4978Z" fill="#1A1A1A"/>
<path d="M87.1531 28.6316V25.1816L86.8096 32.0644L87.1531 28.6316ZM93.9893 35.4678H97.4393V35.2956L97.4222 35.1243L93.9893 35.4678ZM96.0109 35.4678L92.578 35.1243L92.5609 35.2956V35.4678H96.0109ZM102.847 28.6316V25.1816H102.675L102.504 25.1987L102.847 28.6316ZM102.847 26.6366L102.504 30.0694L102.675 30.0866H102.847V26.6366ZM96.0109 19.8004H92.5609V19.9726L92.578 20.1439L96.0109 19.8004ZM94.0159 19.8004L97.4488 20.1439L97.4659 19.9726V19.8004H94.0159ZM87.1797 26.6366V30.0866H87.3519L87.5232 30.0694L87.1797 26.6366ZM94.9868 23.4978L98.0124 21.8399L94.9868 16.3183L91.9612 21.8399L94.9868 23.4978ZM99.1364 27.6474L100.795 30.6723L106.313 27.6461L100.794 24.6218L99.1364 27.6474ZM94.9868 31.797L91.9619 33.456L94.9868 38.9716L98.0118 33.456L94.9868 31.797ZM90.8372 27.6474L89.1794 24.6218L83.6601 27.6461L89.1782 30.6723L90.8372 27.6474ZM86.8096 32.0644C87.7706 32.1606 88.6688 32.5863 89.3517 33.2692L94.2307 28.3901C92.4216 26.581 90.0423 25.4535 87.4966 25.1987L86.8096 32.0644ZM89.3517 33.2692C90.0346 33.9521 90.4603 34.8503 90.5564 35.8113L97.4222 35.1243C97.1674 32.5785 96.0398 30.1993 94.2307 28.3901L89.3517 33.2692ZM90.5393 35.4678C90.5393 36.6508 91.0092 37.7855 91.8458 38.6221L96.7249 33.743C97.1823 34.2005 97.4393 34.8209 97.4393 35.4678H90.5393ZM91.8458 38.6221C92.6824 39.4586 93.817 39.9286 95.0001 39.9286V33.0286C95.647 33.0286 96.2674 33.2856 96.7249 33.743L91.8458 38.6221ZM95.0001 39.9286C96.1831 39.9286 97.3178 39.4586 98.1544 38.6221L93.2753 33.743C93.7328 33.2856 94.3532 33.0286 95.0001 33.0286V39.9286ZM98.1544 38.6221C98.991 37.7855 99.4609 36.6508 99.4609 35.4678H92.5609C92.5609 34.8209 92.8179 34.2005 93.2753 33.743L98.1544 38.6221ZM99.4438 35.8113C99.5399 34.8503 99.9656 33.9521 100.648 33.2692L95.7695 28.3901C93.9603 30.1993 92.8328 32.5785 92.578 35.1243L99.4438 35.8113ZM100.648 33.2692C101.331 32.5863 102.23 32.1606 103.191 32.0644L102.504 25.1987C99.9579 25.4535 97.5786 26.581 95.7695 28.3901L100.648 33.2692ZM102.847 32.0816C104.027 32.0816 105.158 31.613 105.992 30.7789L101.113 25.8999C101.573 25.44 102.197 25.1816 102.847 25.1816V32.0816ZM105.992 30.7789C106.826 29.9448 107.295 28.8136 107.295 27.6341H100.395C100.395 26.9837 100.653 26.3599 101.113 25.8999L105.992 30.7789ZM107.295 27.6341C107.295 26.4546 106.826 25.3233 105.992 24.4892L101.113 29.3683C100.653 28.9083 100.395 28.2845 100.395 27.6341H107.295ZM105.992 24.4892C105.158 23.6551 104.027 23.1866 102.847 23.1866V30.0866C102.197 30.0866 101.573 29.8282 101.113 29.3683L105.992 24.4892ZM103.191 23.2037C102.23 23.1076 101.331 22.6819 100.648 21.999L95.7695 26.878C97.5786 28.6871 99.9578 29.8147 102.504 30.0694L103.191 23.2037ZM100.648 21.999C99.9656 21.3161 99.5399 20.4179 99.4438 19.4569L92.578 20.1439C92.8328 22.6896 93.9603 25.0689 95.7695 26.878L100.648 21.999ZM99.4609 19.8004C99.4609 18.6208 98.9923 17.4896 98.1583 16.6555L93.2792 21.5346C92.8193 21.0747 92.5609 20.4509 92.5609 19.8004H99.4609ZM98.1583 16.6555C97.3242 15.8215 96.193 15.3529 95.0134 15.3529V22.2529C94.3629 22.2529 93.7391 21.9945 93.2792 21.5346L98.1583 16.6555ZM95.0134 15.3529C93.8338 15.3529 92.7026 15.8215 91.8685 16.6555L96.7476 21.5346C96.2877 21.9945 95.6639 22.2529 95.0134 22.2529V15.3529ZM91.8685 16.6555C91.0345 17.4896 90.5659 18.6208 90.5659 19.8004H97.4659C97.4659 20.4509 97.2075 21.0747 96.7476 21.5346L91.8685 16.6555ZM90.583 19.4569C90.4869 20.4179 90.0612 21.3161 89.3783 21.999L94.2573 26.878C96.0665 25.0689 97.194 22.6896 97.4488 20.1439L90.583 19.4569ZM89.3783 21.999C88.6954 22.6819 87.7972 23.1076 86.8362 23.2037L87.5232 30.0694C90.069 29.8147 92.4482 28.6871 94.2573 26.878L89.3783 21.999ZM87.1797 23.1866C86.0002 23.1866 84.8689 23.6551 84.0348 24.4892L88.9139 29.3683C88.4539 29.8282 87.8301 30.0866 87.1797 30.0866V23.1866ZM84.0348 24.4892C83.2007 25.3233 82.7322 26.4546 82.7322 27.6341H89.6322C89.6322 28.2845 89.3738 28.9083 88.9139 29.3683L84.0348 24.4892ZM82.7322 27.6341C82.7322 28.8136 83.2007 29.9448 84.0348 30.7789L88.9139 25.8999C89.3738 26.3599 89.6322 26.9837 89.6322 27.6341H82.7322ZM84.0348 30.7789C84.8689 31.613 86.0001 32.0816 87.1797 32.0816V25.1816C87.8301 25.1816 88.4539 25.44 88.9139 25.8999L84.0348 30.7789ZM87.1797 25.1816H87.1531V32.0816H87.1797V25.1816ZM91.9612 25.1556C93.2366 27.4832 95.151 29.3976 97.4786 30.673L100.794 24.6218C99.6207 23.9788 98.6554 23.0135 98.0124 21.8399L91.9612 25.1556ZM97.4774 24.6224C95.1512 25.8982 93.2376 27.8118 91.9619 30.138L98.0118 33.456C98.6556 32.2819 99.6213 31.3162 100.795 30.6723L97.4774 24.6224ZM98.0118 30.138C96.736 27.8118 94.8224 25.8982 92.4962 24.6224L89.1782 30.6723C90.3523 31.3162 91.318 32.2819 91.9619 33.456L98.0118 30.138ZM92.495 30.673C94.8226 29.3976 96.737 27.4832 98.0124 25.1556L91.9612 21.8399C91.3182 23.0135 90.3529 23.9788 89.1794 24.6218L92.495 30.673Z" fill="#7C97A9" mask="url(#path-1-inside-1)"/>
<mask id="path-3-inside-2" fill="white">
<path d="M23.7121 87.3378C22.0535 87.1737 20.5031 86.44 19.3246 85.2615C18.1461 84.083 17.4124 82.5326 17.2483 80.874C17.2483 80.6095 17.1432 80.3558 16.9561 80.1687C16.7691 79.9816 16.5153 79.8765 16.2508 79.8765C15.9862 79.8765 15.7325 79.9816 15.5455 80.1687C15.3584 80.3558 15.2533 80.6095 15.2533 80.874C15.0892 82.5326 14.3555 84.083 13.177 85.2615C11.9985 86.44 10.448 87.1737 8.78949 87.3378C8.52494 87.3378 8.27122 87.4429 8.08415 87.63C7.89709 87.8171 7.79199 88.0708 7.79199 88.3353C7.79199 88.5999 7.89709 88.8536 8.08415 89.0407C8.27122 89.2277 8.52494 89.3328 8.78949 89.3328C10.448 89.4969 11.9985 90.2307 13.177 91.4091C14.3555 92.5876 15.0892 94.1381 15.2533 95.7966C15.2533 96.0612 15.3584 96.3149 15.5455 96.502C15.7325 96.689 15.9862 96.7941 16.2508 96.7941C16.5153 96.7941 16.7691 96.689 16.9561 96.502C17.1432 96.3149 17.2483 96.0612 17.2483 95.7966C17.4124 94.1381 18.1461 92.5876 19.3246 91.4091C20.5031 90.2307 22.0535 89.4969 23.7121 89.3328C23.9766 89.3328 24.2304 89.2277 24.4174 89.0407C24.6045 88.8536 24.7096 88.5999 24.7096 88.3353C24.7096 88.0708 24.6045 87.8171 24.4174 87.63C24.2304 87.4429 23.9766 87.3378 23.7121 87.3378ZM16.2109 92.2588C15.3052 90.6423 13.9704 89.3075 12.3539 88.4018C13.9708 87.4967 15.3057 86.1617 16.2109 84.5448C17.1166 86.1613 18.4514 87.4961 20.0679 88.4018C18.4514 89.3075 17.1166 90.6423 16.2109 92.2588Z"/>
</mask>
<path d="M23.7121 87.3378C22.0535 87.1737 20.5031 86.44 19.3246 85.2615C18.1461 84.083 17.4124 82.5326 17.2483 80.874C17.2483 80.6095 17.1432 80.3558 16.9561 80.1687C16.7691 79.9816 16.5153 79.8765 16.2508 79.8765C15.9862 79.8765 15.7325 79.9816 15.5455 80.1687C15.3584 80.3558 15.2533 80.6095 15.2533 80.874C15.0892 82.5326 14.3555 84.083 13.177 85.2615C11.9985 86.44 10.448 87.1737 8.78949 87.3378C8.52494 87.3378 8.27122 87.4429 8.08415 87.63C7.89709 87.8171 7.79199 88.0708 7.79199 88.3353C7.79199 88.5999 7.89709 88.8536 8.08415 89.0407C8.27122 89.2277 8.52494 89.3328 8.78949 89.3328C10.448 89.4969 11.9985 90.2307 13.177 91.4091C14.3555 92.5876 15.0892 94.1381 15.2533 95.7966C15.2533 96.0612 15.3584 96.3149 15.5455 96.502C15.7325 96.689 15.9862 96.7941 16.2508 96.7941C16.5153 96.7941 16.7691 96.689 16.9561 96.502C17.1432 96.3149 17.2483 96.0612 17.2483 95.7966C17.4124 94.1381 18.1461 92.5876 19.3246 91.4091C20.5031 90.2307 22.0535 89.4969 23.7121 89.3328C23.9766 89.3328 24.2304 89.2277 24.4174 89.0407C24.6045 88.8536 24.7096 88.5999 24.7096 88.3353C24.7096 88.0708 24.6045 87.8171 24.4174 87.63C24.2304 87.4429 23.9766 87.3378 23.7121 87.3378ZM16.2109 92.2588C15.3052 90.6423 13.9704 89.3075 12.3539 88.4018C13.9708 87.4967 15.3057 86.1617 16.2109 84.5448C17.1166 86.1613 18.4514 87.4961 20.0679 88.4018C18.4514 89.3075 17.1166 90.6423 16.2109 92.2588Z" fill="#1A1A1A"/>
<path d="M23.7121 87.3378L23.3724 90.7711L23.5418 90.7878H23.7121V87.3378ZM17.2483 80.874L13.7983 80.874V81.0443L13.8151 81.2137L17.2483 80.874ZM15.2533 80.874L18.6865 81.2137L18.7033 81.0443V80.874L15.2533 80.874ZM8.78949 87.3378V90.7878H8.95975L9.12919 90.7711L8.78949 87.3378ZM7.79199 88.3353H4.34199H7.79199ZM8.78949 89.3328L9.12919 85.8996L8.95975 85.8828H8.78949V89.3328ZM15.2533 95.7966H18.7033V95.6264L18.6865 95.4569L15.2533 95.7966ZM17.2483 95.7966L13.8151 95.4569L13.7983 95.6264V95.7966H17.2483ZM23.7121 89.3328V85.8828H23.5418L23.3724 85.8996L23.7121 89.3328ZM12.3539 88.4018L10.6687 85.3914L5.29342 88.4005L10.6675 91.4116L12.3539 88.4018ZM16.2109 84.5448L19.2207 82.8585L16.2096 77.4844L13.2005 82.8596L16.2109 84.5448ZM20.0679 88.4018L21.7542 91.4116L27.126 88.4018L21.7542 85.3921L20.0679 88.4018ZM24.0518 83.9046C23.187 83.819 22.3786 83.4365 21.7641 82.822L16.8851 87.701C18.6276 89.4435 20.9201 90.5284 23.3724 90.7711L24.0518 83.9046ZM21.7641 82.822C21.1497 82.2075 20.7671 81.3991 20.6815 80.5343L13.8151 81.2137C14.0577 83.666 15.1426 85.9585 16.8851 87.701L21.7641 82.822ZM20.6983 80.874C20.6983 79.6945 20.2297 78.5632 19.3956 77.7292L14.5166 82.6082C14.0567 82.1483 13.7983 81.5245 13.7983 80.874L20.6983 80.874ZM19.3956 77.7292C18.5616 76.8951 17.4303 76.4265 16.2508 76.4265V83.3265C15.6004 83.3265 14.9766 83.0681 14.5166 82.6082L19.3956 77.7292ZM16.2508 76.4265C15.0712 76.4265 13.94 76.8951 13.1059 77.7292L17.985 82.6082C17.525 83.0681 16.9012 83.3265 16.2508 83.3265V76.4265ZM13.1059 77.7292C12.2719 78.5632 11.8033 79.6945 11.8033 80.874L18.7033 80.874C18.7033 81.5245 18.4449 82.1483 17.985 82.6082L13.1059 77.7292ZM11.8201 80.5343C11.7345 81.3991 11.3519 82.2075 10.7375 82.822L15.6165 87.701C17.359 85.9585 18.4439 83.666 18.6865 81.2137L11.8201 80.5343ZM10.7375 82.822C10.123 83.4365 9.31457 83.819 8.4498 83.9046L9.12919 90.7711C11.5815 90.5284 13.874 89.4435 15.6165 87.701L10.7375 82.822ZM8.78949 83.8878C7.6099 83.8878 6.47868 84.3564 5.64463 85.1905L10.5237 90.0695C10.0638 90.5294 9.43997 90.7878 8.78949 90.7878L8.78949 83.8878ZM5.64463 85.1905C4.81058 86.0245 4.34199 87.1558 4.34199 88.3353H11.242C11.242 88.9858 10.9836 89.6096 10.5237 90.0695L5.64463 85.1905ZM4.34199 88.3353C4.34199 89.5149 4.81058 90.6461 5.64463 91.4802L10.5237 86.6011C10.9836 87.0611 11.242 87.6849 11.242 88.3353H4.34199ZM5.64463 91.4802C6.47868 92.3142 7.6099 92.7828 8.78949 92.7828V85.8828C9.43997 85.8828 10.0638 86.1412 10.5237 86.6011L5.64463 91.4802ZM8.4498 92.7661C9.31458 92.8516 10.123 93.2342 10.7375 93.8487L15.6165 88.9696C13.874 87.2271 11.5815 86.1422 9.12919 85.8996L8.4498 92.7661ZM10.7375 93.8487C11.3519 94.4631 11.7345 95.2715 11.8201 96.1363L18.6865 95.4569C18.4439 93.0046 17.359 90.7121 15.6165 88.9696L10.7375 93.8487ZM11.8033 95.7966C11.8033 96.9762 12.2719 98.1074 13.1059 98.9415L17.985 94.0624C18.4449 94.5224 18.7033 95.1462 18.7033 95.7966H11.8033ZM13.1059 98.9415C13.94 99.7755 15.0712 100.244 16.2508 100.244V93.3441C16.9013 93.3441 17.5251 93.6025 17.985 94.0624L13.1059 98.9415ZM16.2508 100.244C17.4304 100.244 18.5616 99.7755 19.3956 98.9415L14.5166 94.0624C14.9765 93.6025 15.6003 93.3441 16.2508 93.3441V100.244ZM19.3956 98.9415C20.2297 98.1074 20.6983 96.9762 20.6983 95.7966H13.7983C13.7983 95.1462 14.0567 94.5224 14.5166 94.0624L19.3956 98.9415ZM20.6815 96.1363C20.7671 95.2715 21.1497 94.4631 21.7641 93.8487L16.8851 88.9696C15.1426 90.7121 14.0577 93.0046 13.8151 95.4569L20.6815 96.1363ZM21.7641 93.8487C22.3786 93.2342 23.187 92.8516 24.0518 92.7661L23.3724 85.8996C20.9201 86.1422 18.6276 87.2271 16.8851 88.9696L21.7641 93.8487ZM23.7121 92.7828C24.8917 92.7828 26.0229 92.3142 26.8569 91.4802L21.9779 86.6011C22.4378 86.1412 23.0616 85.8828 23.7121 85.8828V92.7828ZM26.8569 91.4802C27.691 90.6461 28.1596 89.5149 28.1596 88.3353H21.2596C21.2596 87.6849 21.518 87.0611 21.9779 86.6011L26.8569 91.4802ZM28.1596 88.3353C28.1596 87.1558 27.691 86.0245 26.8569 85.1905L21.9779 90.0695C21.518 89.6096 21.2596 88.9858 21.2596 88.3353H28.1596ZM26.8569 85.1905C26.0229 84.3564 24.8917 83.8878 23.7121 83.8878V90.7878C23.0616 90.7878 22.4378 90.5294 21.9779 90.0695L26.8569 85.1905ZM19.2207 90.5725C18.0042 88.4013 16.2114 86.6085 14.0402 85.3921L10.6675 91.4116C11.7294 92.0065 12.6062 92.8833 13.2011 93.9452L19.2207 90.5725ZM14.0391 91.4122C16.2116 90.1961 18.0051 88.4025 19.2213 86.2301L13.2005 82.8596C12.6063 83.921 11.73 84.7973 10.6687 85.3914L14.0391 91.4122ZM13.2011 86.2312C14.4176 88.4023 16.2104 90.1951 18.3815 91.4116L21.7542 85.3921C20.6924 84.7971 19.8156 83.9203 19.2207 82.8585L13.2011 86.2312ZM18.3815 85.3921C16.2104 86.6085 14.4176 88.4013 13.2011 90.5725L19.2207 93.9452C19.8156 92.8833 20.6924 92.0065 21.7542 91.4116L18.3815 85.3921Z" fill="#7C97A9" mask="url(#path-3-inside-2)"/>
<path d="M22.0763 70.7261C24.4739 72.4438 27.3464 73.3734 30.2957 73.3861C31.1249 73.386 31.9525 73.3148 32.7695 73.1733C34.9647 72.8008 37.0423 71.9203 38.8367 70.6021C40.631 69.2839 42.0923 67.5645 43.1041 65.5811C44.1158 63.5977 44.6498 61.4053 44.6636 59.1789C44.6774 56.9524 44.1705 54.7536 43.1834 52.7578C44.5217 52.1188 45.7954 51.3527 46.9872 50.4702C47.2006 50.3132 47.3429 50.0779 47.3829 49.816C47.4228 49.5541 47.357 49.2871 47.2 49.0737C47.0431 48.8603 46.8077 48.718 46.5459 48.6781C46.284 48.6382 46.0169 48.7039 45.8035 48.8609C44.6702 49.7016 43.4535 50.4236 42.1726 51.0155C40.9985 49.276 39.4561 47.816 37.6548 46.7391C35.8535 45.6621 33.8374 44.9945 31.7494 44.7836C29.6613 44.5727 27.5524 44.8236 25.5721 45.5186C23.5918 46.2135 21.7887 47.3356 20.2904 48.8051C18.7921 50.2747 17.6353 52.0558 16.9021 54.0222C16.1689 55.9886 15.8771 58.0923 16.0476 60.184C16.218 62.2758 16.8464 64.3045 17.8883 66.1263C18.9301 67.9481 20.3599 69.5185 22.0763 70.7261ZM28.181 46.8925C30.4496 46.4983 32.7833 46.7494 34.9161 47.6171C37.049 48.4848 38.8951 49.9342 40.2441 51.8002C32.2641 54.5932 24.191 51.8002 21.2783 50.6431C23.1038 48.6674 25.5301 47.3491 28.181 46.8925ZM19.9882 52.2125C24.0054 54.0019 28.3456 54.9523 32.7429 55.0055C35.6753 55.0461 38.5908 54.5549 41.348 53.5558C42.312 55.4918 42.7492 57.6475 42.6157 59.8061C42.4821 61.9647 41.7824 64.0501 40.5871 65.8524C39.3917 67.6548 37.7428 69.1106 35.8062 70.0734C33.8696 71.0363 31.7137 71.4721 29.5551 71.3372C27.3966 71.2023 25.3117 70.5014 23.5101 69.3049C21.7084 68.1085 20.2536 66.4587 19.292 64.5215C18.3304 62.5843 17.8958 60.4281 18.032 58.2696C18.1683 56.1112 18.8705 54.0267 20.068 52.2258L19.9882 52.2125Z" fill="#292929" stroke="#292929" stroke-width="1.5"/>
<mask id="path-6-inside-3" fill="white">
<path d="M30.2557 66.5101C31.5529 66.5167 32.833 66.2136 33.9896 65.626C35.1462 65.0385 36.1459 64.1834 36.9057 63.1318C37.0609 62.9166 37.1242 62.6486 37.0818 62.3867C37.0394 62.1248 36.8947 61.8905 36.6796 61.7353C36.4644 61.5801 36.1964 61.5167 35.9345 61.5591C35.6726 61.6015 35.4383 61.7462 35.2831 61.9614C34.316 63.2757 32.8677 64.1536 31.2551 64.4028C29.6424 64.6521 27.9967 64.2525 26.678 63.2914C26.5679 63.2154 26.444 63.1619 26.3133 63.1338C26.1825 63.1057 26.0476 63.1037 25.916 63.1277C25.7845 63.1518 25.659 63.2016 25.5467 63.2742C25.4344 63.3467 25.3375 63.4407 25.2615 63.5508C25.1081 63.773 25.0492 64.0471 25.0978 64.3127C25.1465 64.5784 25.2986 64.8138 25.5209 64.9672C26.8984 65.9652 28.5547 66.5049 30.2557 66.5101Z"/>
</mask>
<path d="M30.2557 66.5101C31.5529 66.5167 32.833 66.2136 33.9896 65.626C35.1462 65.0385 36.1459 64.1834 36.9057 63.1318C37.0609 62.9166 37.1242 62.6486 37.0818 62.3867C37.0394 62.1248 36.8947 61.8905 36.6796 61.7353C36.4644 61.5801 36.1964 61.5167 35.9345 61.5591C35.6726 61.6015 35.4383 61.7462 35.2831 61.9614C34.316 63.2757 32.8677 64.1536 31.2551 64.4028C29.6424 64.6521 27.9967 64.2525 26.678 63.2914C26.5679 63.2154 26.444 63.1619 26.3133 63.1338C26.1825 63.1057 26.0476 63.1037 25.916 63.1277C25.7845 63.1518 25.659 63.2016 25.5467 63.2742C25.4344 63.3467 25.3375 63.4407 25.2615 63.5508C25.1081 63.773 25.0492 64.0471 25.0978 64.3127C25.1465 64.5784 25.2986 64.8138 25.5209 64.9672C26.8984 65.9652 28.5547 66.5049 30.2557 66.5101Z" fill="#292929"/>
<path d="M36.9057 63.1318L39.7022 65.1522L39.7037 65.1501L36.9057 63.1318ZM35.2831 61.9614L38.0619 64.0061L38.0716 63.9929L38.0811 63.9797L35.2831 61.9614ZM26.678 63.2914L28.7098 60.5032L28.6744 60.4774L28.6382 60.4524L26.678 63.2914ZM25.2615 63.5508L28.1005 65.511L25.2615 63.5508ZM25.5209 64.9672L27.5449 62.1733L27.5133 62.1504L27.4811 62.1283L25.5209 64.9672ZM30.2381 69.96C32.0844 69.9694 33.9062 69.5381 35.5522 68.7019L32.4271 62.5502C31.7599 62.8891 31.0215 63.0639 30.2732 63.0601L30.2381 69.96ZM35.5522 68.7019C37.1982 67.8657 38.621 66.6488 39.7022 65.1522L34.1092 61.1114C33.6709 61.718 33.0943 62.2112 32.4271 62.5502L35.5522 68.7019ZM39.7037 65.1501C40.3942 64.1928 40.6761 63.0005 40.4875 61.8353L33.6762 62.9381C33.5724 62.2968 33.7276 61.6405 34.1076 61.1136L39.7037 65.1501ZM40.4875 61.8353C40.2989 60.6702 39.6551 59.6277 38.6979 58.9373L34.6613 64.5333C34.1344 64.1533 33.78 63.5795 33.6762 62.9381L40.4875 61.8353ZM38.6979 58.9373C37.7406 58.2468 36.5482 57.9648 35.3831 58.1535L36.4859 64.9648C35.8445 65.0686 35.1882 64.9134 34.6613 64.5333L38.6979 58.9373ZM35.3831 58.1535C34.218 58.3421 33.1755 58.9859 32.485 59.9432L38.0811 63.9797C37.701 64.5066 37.1272 64.8609 36.4859 64.9648L35.3831 58.1535ZM32.5042 59.9167C32.0778 60.4963 31.4392 60.8834 30.7281 60.9933L31.782 67.8123C34.2962 67.4237 36.5542 66.0552 38.0619 64.0061L32.5042 59.9167ZM30.7281 60.9933C30.017 61.1032 29.2913 60.927 28.7098 60.5032L24.6461 66.0796C26.7021 67.5779 29.2679 68.2009 31.782 67.8123L30.7281 60.9933ZM28.6382 60.4524C28.1554 60.119 27.6116 59.884 27.0379 59.7608L25.5887 66.5068C25.2764 66.4398 24.9805 66.3119 24.7177 66.1304L28.6382 60.4524ZM27.0379 59.7608C26.4641 59.6375 25.8718 59.6285 25.2947 59.7342L26.5374 66.5213C26.2233 66.5788 25.9009 66.5739 25.5887 66.5068L27.0379 59.7608ZM25.2947 59.7342C24.7175 59.8398 24.1668 60.0581 23.674 60.3767L27.4194 66.1716C27.1512 66.345 26.8515 66.4638 26.5374 66.5213L25.2947 59.7342ZM23.674 60.3767C23.1811 60.6952 22.7559 61.1077 22.4225 61.5905L28.1005 65.511C27.9191 65.7738 27.6877 65.9982 27.4194 66.1716L23.674 60.3767ZM22.4225 61.5905C21.7492 62.5657 21.4908 63.7684 21.7042 64.9341L28.4914 63.6914C28.6076 64.3258 28.467 64.9803 28.1005 65.511L22.4225 61.5905ZM21.7042 64.9341C21.9177 66.0997 22.5854 67.1329 23.5606 67.8062L27.4811 62.1283C28.0119 62.4947 28.3753 63.057 28.4914 63.6914L21.7042 64.9341ZM23.4969 67.7612C25.4601 69.1834 27.8208 69.9526 30.2451 69.96L30.2662 63.0601C29.2886 63.0571 28.3366 62.7469 27.5449 62.1733L23.4969 67.7612Z" fill="black" mask="url(#path-6-inside-3)"/>
<mask id="path-8-inside-4" fill="white">
<path d="M46.5349 105.146C45.8678 105.604 45.117 105.926 44.3254 106.094C43.5338 106.262 42.717 106.272 41.9215 106.124C41.1261 105.975 40.3676 105.672 39.6895 105.23C39.0114 104.789 38.427 104.218 37.9697 103.55C37.8198 103.332 37.5891 103.182 37.3285 103.133C37.0678 103.084 36.7985 103.141 36.5798 103.291C36.3611 103.441 36.2109 103.672 36.1623 103.932C36.1137 104.193 36.1706 104.462 36.3205 104.681C36.924 105.565 37.6965 106.321 38.5936 106.906C39.4907 107.49 40.4946 107.891 41.5474 108.086C42.0472 108.181 42.5547 108.23 43.0636 108.232C44.7077 108.231 46.3128 107.73 47.6654 106.796C47.8841 106.646 48.0343 106.415 48.0829 106.154C48.1315 105.894 48.0746 105.625 47.9247 105.406C47.7748 105.187 47.5442 105.037 47.2835 104.988C47.0229 104.94 46.7536 104.997 46.5349 105.146Z"/>
</mask>
<path d="M46.5349 105.146C45.8678 105.604 45.117 105.926 44.3254 106.094C43.5338 106.262 42.717 106.272 41.9215 106.124C41.1261 105.975 40.3676 105.672 39.6895 105.23C39.0114 104.789 38.427 104.218 37.9697 103.55C37.8198 103.332 37.5891 103.182 37.3285 103.133C37.0678 103.084 36.7985 103.141 36.5798 103.291C36.3611 103.441 36.2109 103.672 36.1623 103.932C36.1137 104.193 36.1706 104.462 36.3205 104.681C36.924 105.565 37.6965 106.321 38.5936 106.906C39.4907 107.49 40.4946 107.891 41.5474 108.086C42.0472 108.181 42.5547 108.23 43.0636 108.232C44.7077 108.231 46.3128 107.73 47.6654 106.796C47.8841 106.646 48.0343 106.415 48.0829 106.154C48.1315 105.894 48.0746 105.625 47.9247 105.406C47.7748 105.187 47.5442 105.037 47.2835 104.988C47.0229 104.94 46.7536 104.997 46.5349 105.146Z" fill="#292929"/>
<path d="M37.9697 103.55L40.8157 101.6L40.8153 101.6L37.9697 103.55ZM36.3205 104.681L39.1702 102.736L39.1661 102.73L36.3205 104.681ZM41.5474 108.086L42.194 104.697L42.1842 104.695L42.1744 104.693L41.5474 108.086ZM43.0636 108.232L43.0503 111.682L43.0576 111.682L43.0649 111.682L43.0636 108.232ZM47.6654 106.796L45.7147 103.95L45.7093 103.954L45.7039 103.958L47.6654 106.796ZM44.5822 102.302C44.2888 102.504 43.9587 102.645 43.6106 102.719L45.0403 109.469C46.2754 109.208 47.4468 108.705 48.4876 107.991L44.5822 102.302ZM43.6106 102.719C43.2625 102.793 42.9033 102.797 42.5535 102.732L41.2895 109.515C42.5306 109.746 43.8052 109.731 45.0403 109.469L43.6106 102.719ZM42.5535 102.732C42.2037 102.667 41.8702 102.533 41.572 102.339L37.8071 108.121C38.865 108.81 40.0484 109.284 41.2895 109.515L42.5535 102.732ZM41.572 102.339C41.2738 102.145 41.0168 101.894 40.8157 101.6L35.1236 105.501C35.8372 106.542 36.7491 107.433 37.8071 108.121L41.572 102.339ZM40.8153 101.6C40.148 100.626 39.1214 99.958 37.9613 99.7415L36.6956 106.524C36.0568 106.405 35.4915 106.037 35.124 105.501L40.8153 101.6ZM37.9613 99.7415C36.8012 99.525 35.6026 99.7783 34.6292 100.446L38.5305 106.137C37.9944 106.504 37.3344 106.644 36.6956 106.524L37.9613 99.7415ZM34.6292 100.446C33.6558 101.113 32.9873 102.139 32.7708 103.299L39.5538 104.565C39.4345 105.204 39.0664 105.769 38.5305 106.137L34.6292 100.446ZM32.7708 103.299C32.5544 104.46 32.8076 105.658 33.4748 106.632L39.1661 102.73C39.5335 103.266 39.673 103.926 39.5538 104.565L32.7708 103.299ZM33.4708 106.626C34.3309 107.886 35.432 108.964 36.7105 109.797L40.4767 104.015C39.9611 103.679 39.517 103.245 39.1702 102.736L33.4708 106.626ZM36.7105 109.797C37.9891 110.629 39.4199 111.201 40.9204 111.478L42.1744 104.693C41.5692 104.581 40.9923 104.351 40.4767 104.015L36.7105 109.797ZM40.9008 111.475C41.6093 111.61 42.3289 111.679 43.0503 111.682L43.0768 104.782C42.7806 104.781 42.485 104.752 42.194 104.697L40.9008 111.475ZM43.0649 111.682C45.4094 111.681 47.6981 110.967 49.6268 109.634L45.7039 103.958C44.9275 104.494 44.0061 104.782 43.0622 104.782L43.0649 111.682ZM49.616 109.641C50.5894 108.974 51.2579 107.948 51.4744 106.787L44.6914 105.522C44.8107 104.883 45.1788 104.318 45.7147 103.95L49.616 109.641ZM51.4744 106.787C51.6908 105.627 51.4376 104.429 50.7704 103.455L45.0791 107.356C44.7117 106.82 44.5722 106.16 44.6914 105.522L51.4744 106.787ZM50.7704 103.455C50.1031 102.482 49.0765 101.813 47.9164 101.597L46.6507 108.38C46.0118 108.261 45.4465 107.892 45.0791 107.356L50.7704 103.455ZM47.9164 101.597C46.7562 101.38 45.5576 101.634 44.5842 102.301L48.4855 107.992C47.9495 108.36 47.2895 108.499 46.6507 108.38L47.9164 101.597Z" fill="black" mask="url(#path-8-inside-4)"/>
<path d="M55.8449 94.6794C54.8965 92.645 53.4824 90.8625 51.7171 89.4761C49.9518 88.0898 47.8849 87.1385 45.6837 86.6994C45.6545 85.9102 45.4551 85.1366 45.0991 84.4317C44.7431 83.7267 44.2389 83.1071 43.6211 82.6151C43.0032 82.1232 42.2864 81.7707 41.5196 81.5816C40.7528 81.3926 39.9542 81.3715 39.1785 81.5198C38.4029 81.6682 37.6684 81.9824 37.0255 82.4411C36.3826 82.8998 35.8464 83.492 35.4537 84.1771C35.061 84.8623 34.8211 85.6243 34.7503 86.4109C34.6795 87.1974 34.7796 87.99 35.0437 88.7343L34.6181 89.0003C31.7961 90.9723 29.7872 93.9029 28.9656 97.2463C28.8858 97.5655 28.806 97.8847 28.7528 98.2039C28.0957 101.941 28.9498 105.786 31.1271 108.894C33.3044 112.001 36.6268 114.117 40.3637 114.776C42.9366 115.231 45.5851 114.973 48.0214 114.029C50.4578 113.085 52.5889 111.491 54.1833 109.421C55.7776 107.351 56.7742 104.884 57.0648 102.287C57.3554 99.6906 56.9289 97.064 55.8316 94.6927L55.8449 94.6794ZM36.7594 86.1275C36.8964 85.2834 37.3389 84.5192 38.0028 83.9803C38.6667 83.4414 39.5055 83.1653 40.3597 83.2048C41.2139 83.2442 42.0237 83.5963 42.6351 84.1941C43.2465 84.7919 43.6168 85.5936 43.6754 86.4467C41.3304 86.3181 38.9902 86.7751 36.8658 87.7767C36.6981 87.2435 36.6616 86.6778 36.7594 86.1275ZM35.8151 90.6362C37.8633 89.1926 40.3052 88.4127 42.8109 88.4018C43.5376 88.4005 44.263 88.4628 44.9788 88.588C46.8443 88.917 48.6084 89.6729 50.1334 90.7965C51.6584 91.92 52.9031 93.3809 53.7701 95.0651C50.1924 98.8556 37.2914 97.7251 31.2266 96.6611C32.0797 94.2176 33.6863 92.108 35.8151 90.6362ZM55.0203 102.859C54.4559 106.078 52.636 108.94 49.961 110.817C47.2859 112.694 43.9748 113.431 40.7561 112.867C37.5373 112.303 34.6746 110.483 32.7977 107.808C30.9208 105.133 30.1834 101.822 30.7478 98.6029C34.7517 99.2843 38.803 99.6489 42.8641 99.6935C47.426 99.6935 52.0278 99.0817 54.6213 97.0335C55.2225 98.9146 55.3594 100.913 55.0203 102.859Z" fill="#292929" stroke="#292929" stroke-width="1.5"/>
<mask id="path-11-inside-5" fill="white">
<path d="M92.2605 106.663C93.515 106.666 94.7534 106.379 95.8791 105.826C97.0048 105.272 97.9876 104.466 98.7509 103.471C98.8958 103.26 98.9541 103.001 98.9139 102.749C98.8737 102.496 98.7379 102.269 98.5347 102.113C98.3316 101.958 98.0765 101.887 97.8221 101.914C97.5678 101.941 97.3337 102.065 97.1682 102.26C96.1727 103.557 94.7032 104.406 93.0824 104.621C91.4615 104.835 89.8218 104.398 88.5233 103.404C88.4201 103.317 88.3003 103.251 88.171 103.211C88.0417 103.172 87.9057 103.159 87.7712 103.173C87.6367 103.187 87.5066 103.229 87.3887 103.295C87.2708 103.362 87.1677 103.451 87.0855 103.559C87.0033 103.666 86.9439 103.789 86.9108 103.92C86.8776 104.052 86.8715 104.188 86.8928 104.322C86.9141 104.455 86.9623 104.583 87.0345 104.697C87.1067 104.812 87.2015 104.91 87.313 104.987C88.7323 106.076 90.4717 106.665 92.2605 106.663Z"/>
</mask>
<path d="M92.2605 106.663C93.515 106.666 94.7534 106.379 95.8791 105.826C97.0048 105.272 97.9876 104.466 98.7509 103.471C98.8958 103.26 98.9541 103.001 98.9139 102.749C98.8737 102.496 98.7379 102.269 98.5347 102.113C98.3316 101.958 98.0765 101.887 97.8221 101.914C97.5678 101.941 97.3337 102.065 97.1682 102.26C96.1727 103.557 94.7032 104.406 93.0824 104.621C91.4615 104.835 89.8218 104.398 88.5233 103.404C88.4201 103.317 88.3003 103.251 88.171 103.211C88.0417 103.172 87.9057 103.159 87.7712 103.173C87.6367 103.187 87.5066 103.229 87.3887 103.295C87.2708 103.362 87.1677 103.451 87.0855 103.559C87.0033 103.666 86.9439 103.789 86.9108 103.92C86.8776 104.052 86.8715 104.188 86.8928 104.322C86.9141 104.455 86.9623 104.583 87.0345 104.697C87.1067 104.812 87.2015 104.91 87.313 104.987C88.7323 106.076 90.4717 106.665 92.2605 106.663Z" fill="#292929"/>
<path d="M92.2605 106.663L92.2692 103.213L92.2628 103.213L92.2564 103.213L92.2605 106.663ZM98.7509 103.471L101.489 105.57L101.543 105.499L101.594 105.425L98.7509 103.471ZM97.8221 101.914L97.4532 98.4838L97.8221 101.914ZM97.1682 102.26L94.5376 100.028L94.483 100.093L94.4315 100.16L97.1682 102.26ZM88.5233 103.404L86.2911 106.035L86.3577 106.091L86.427 106.144L88.5233 103.404ZM87.313 104.987L89.4128 102.249L89.3412 102.195L89.2668 102.143L87.313 104.987ZM92.2519 110.113C94.0372 110.117 95.7995 109.71 97.4016 108.922L94.3565 102.73C93.7072 103.049 92.9929 103.215 92.2692 103.213L92.2519 110.113ZM97.4016 108.922C99.0037 108.134 100.402 106.987 101.489 105.57L96.0131 101.371C95.5728 101.946 95.0059 102.411 94.3565 102.73L97.4016 108.922ZM101.594 105.425C102.24 104.485 102.5 103.333 102.321 102.206L95.5068 103.292C95.4079 102.67 95.5514 102.035 95.9075 101.517L101.594 105.425ZM102.321 102.206C102.142 101.08 101.536 100.066 100.63 99.3729L96.4391 104.854C95.9395 104.472 95.6058 103.913 95.5068 103.292L102.321 102.206ZM100.63 99.3729C99.7245 98.6801 98.5871 98.3618 97.4532 98.4838L98.1911 105.344C97.5658 105.411 96.9386 105.236 96.4391 104.854L100.63 99.3729ZM97.4532 98.4838C96.3192 98.6058 95.2755 99.1587 94.5376 100.028L99.7988 104.493C99.392 104.972 98.8164 105.277 98.1911 105.344L97.4532 98.4838ZM94.4315 100.16C93.9925 100.732 93.3446 101.106 92.6298 101.2L93.5349 108.041C96.0618 107.707 98.3529 106.383 99.905 104.361L94.4315 100.16ZM92.6298 101.2C91.9151 101.295 91.1921 101.102 90.6195 100.664L86.427 106.144C88.4515 107.693 91.0079 108.375 93.5349 108.041L92.6298 101.2ZM90.7554 100.774C90.2956 100.383 89.7612 100.091 89.1847 99.9136L87.1572 106.509C86.8393 106.411 86.5446 106.25 86.2911 106.035L90.7554 100.774ZM89.1847 99.9136C88.6081 99.7364 88.0017 99.6783 87.4022 99.7428L88.1402 106.603C87.8097 106.639 87.4752 106.607 87.1572 106.509L89.1847 99.9136ZM87.4022 99.7428C86.8027 99.8073 86.2225 99.993 85.6968 100.289L89.0806 106.302C88.7907 106.465 88.4707 106.568 88.1402 106.603L87.4022 99.7428ZM85.6968 100.289C85.1712 100.585 84.7113 100.984 84.345 101.463L89.826 105.655C89.624 105.919 89.3704 106.139 89.0806 106.302L85.6968 100.289ZM84.345 101.463C83.9787 101.942 83.7136 102.491 83.5658 103.075L90.2557 104.765C90.1742 105.088 90.028 105.391 89.826 105.655L84.345 101.463ZM83.5658 103.075C83.4181 103.66 83.3909 104.269 83.4857 104.864L90.2998 103.779C90.3521 104.107 90.3371 104.443 90.2557 104.765L83.5658 103.075ZM83.4857 104.864C83.5806 105.46 83.7956 106.03 84.1176 106.54L89.9514 102.855C90.129 103.136 90.2475 103.451 90.2998 103.779L83.4857 104.864ZM84.1176 106.54C84.4397 107.05 84.8621 107.489 85.3591 107.83L89.2668 102.143C89.5409 102.332 89.7738 102.574 89.9514 102.855L84.1176 106.54ZM85.2131 107.724C87.236 109.276 89.7151 110.116 92.2646 110.113L92.2564 103.213C91.2283 103.214 90.2286 102.875 89.4128 102.249L85.2131 107.724Z" fill="black" mask="url(#path-11-inside-5)"/>
<path d="M111.439 89.0003L103.379 90.1574C101.869 88.2983 99.9152 86.8489 97.698 85.9425C95.4808 85.0361 93.0713 84.7018 90.6911 84.9704C90.286 84.1961 89.6163 83.5932 88.8039 83.2714C87.9916 82.9497 87.0906 82.9305 86.2653 83.2174C85.44 83.5044 84.7452 84.0783 84.3076 84.8346C83.8701 85.5909 83.7188 86.4793 83.8814 87.3378C83.9014 87.4025 83.9281 87.4649 83.9612 87.524C81.7035 89.1398 79.964 91.3769 78.9543 93.9632C77.9446 96.5495 77.7083 99.3734 78.2741 102.092C78.8399 104.81 80.1835 107.305 82.1413 109.273C84.0991 111.242 86.5869 112.599 89.3018 113.18C92.0168 113.76 94.8421 113.539 97.4338 112.544C100.026 111.548 102.272 109.821 103.9 107.572C105.528 105.323 106.468 102.65 106.604 99.8768C106.741 97.1038 106.069 94.3508 104.669 91.9529L111.732 90.9421C111.976 90.8865 112.19 90.7412 112.332 90.5351C112.474 90.329 112.533 90.0771 112.498 89.8294C112.463 89.5816 112.336 89.3562 112.142 89.1977C111.948 89.0392 111.702 88.9592 111.452 88.9737L111.439 89.0003ZM85.9695 85.6088C86.1009 85.3825 86.2846 85.1911 86.5053 85.0505C86.7259 84.91 86.977 84.8244 87.2376 84.8009C87.4982 84.7775 87.7606 84.8168 88.0028 84.9158C88.245 85.0147 88.4599 85.1702 88.6295 85.3694C87.6394 85.6332 86.6806 86.0033 85.77 86.4733C85.7542 86.1721 85.8233 85.8726 85.9695 85.6088ZM82.445 91.8066C83.4114 90.5071 84.6262 89.4124 86.0189 88.586C87.4115 87.7595 88.9544 87.2177 90.5581 86.992C92.4526 86.7197 94.3846 86.8942 96.1997 87.5015C98.0148 88.1089 99.6627 89.1322 101.012 90.4899L81.514 93.2829C81.7895 92.7696 82.1006 92.2763 82.445 91.8066ZM104.496 97.4458C104.754 99.2763 104.596 101.141 104.034 102.902C103.472 104.663 102.521 106.275 101.252 107.619C99.9819 108.962 98.4261 110.003 96.6995 110.663C94.9729 111.323 93.1199 111.587 91.2777 111.433C89.4356 111.279 87.6517 110.713 86.0582 109.776C84.4647 108.839 83.1026 107.556 82.0728 106.021C81.043 104.486 80.372 102.738 80.1095 100.909C79.847 99.0789 79.9997 97.2135 80.5564 95.4508L102.488 92.2987C103.544 93.8339 104.235 95.5897 104.51 97.4325L104.496 97.4458Z" fill="#292929" stroke="#292929" stroke-width="1.5"/>
<path d="M119.486 46.7861C118.12 45.4914 116.509 44.4831 114.748 43.8207C112.987 43.1583 111.111 42.8551 109.231 42.9291C106.79 43.0045 104.409 43.7046 102.316 44.9624C100.222 46.2202 98.4865 47.9937 97.2738 50.1136C96.0612 52.2335 95.4122 54.6288 95.3891 57.0709C95.3659 59.513 95.9693 61.9203 97.1415 64.0628L96.41 70.0478C96.3169 70.6681 96.3604 71.3014 96.5375 71.9032C96.7145 72.505 97.0208 73.0609 97.435 73.5321C97.8492 74.0032 98.3612 74.3783 98.9353 74.631C99.5095 74.8838 100.132 75.0081 100.759 74.9954H100.932L119.658 74.3703C120.302 74.3676 120.937 74.2208 121.516 73.9408C122.095 73.6608 122.604 73.2546 123.006 72.752C123.408 72.2494 123.692 71.6632 123.838 71.0365C123.983 70.4097 123.987 69.7583 123.848 69.1301L122.717 63.1983C123.978 60.4678 124.345 57.4095 123.768 54.4581C123.19 51.5068 121.696 48.8129 119.499 46.7595L119.486 46.7861ZM122.026 56.8276C122.082 58.5063 121.795 60.1789 121.181 61.7424C120.567 63.3059 119.64 64.7274 118.457 65.9194C117.273 67.1113 115.858 68.0486 114.299 68.6736C112.74 69.2985 111.07 69.5979 109.391 69.5534C107.711 69.5089 106.059 69.1214 104.535 68.4147C103.012 67.708 101.648 66.697 100.53 65.444C99.4111 64.191 98.5606 62.7224 98.0305 61.1286C97.5004 59.5347 97.302 57.8493 97.4474 56.1759C100.719 56.0296 111.998 54.9257 115.336 46.3738C115.337 46.3427 115.337 46.3117 115.336 46.2807C116.348 46.8015 117.283 47.4594 118.116 48.2358C119.304 49.3376 120.261 50.6645 120.933 52.1394C121.604 53.6143 121.975 55.2079 122.026 56.8276ZM109.311 44.9241H109.737C111.038 44.928 112.331 45.139 113.567 45.5492C113.537 45.587 113.511 45.627 113.487 45.6688C110.747 52.6913 101.198 53.9415 97.8065 54.1676C98.4705 51.592 99.9496 49.3003 102.023 47.6344C104.096 45.9685 106.653 45.0177 109.311 44.9241ZM121.893 69.5291C121.976 69.8734 121.979 70.232 121.903 70.5778C121.826 70.9236 121.671 71.2473 121.451 71.5244C121.23 71.8014 120.949 72.0245 120.629 72.1765C120.31 72.3286 119.959 72.4057 119.605 72.4019L100.879 73.027C100.526 73.0517 100.173 72.9977 99.8439 72.8689C99.515 72.7401 99.2188 72.5396 98.9769 72.2822C98.7426 72.0164 98.5698 71.7021 98.471 71.3619C98.3721 71.0216 98.3496 70.6637 98.405 70.3138L98.8705 66.5499C100.212 68.1169 101.876 69.3752 103.749 70.2384C105.623 71.1016 107.661 71.5493 109.723 71.5507H110.215C112.094 71.4938 113.944 71.0649 115.656 70.2887C117.368 69.5125 118.909 68.4044 120.19 67.0287C120.549 66.6438 120.886 66.2398 121.201 65.8184L121.893 69.5291Z" fill="#292929" stroke="#292929" stroke-width="1.4"/>
<mask id="path-15-inside-6" fill="white">
<path d="M114.205 60.8043C113.075 61.9836 111.524 62.6669 109.891 62.7043C108.258 62.7417 106.677 62.1302 105.494 61.0038C105.297 60.8824 105.064 60.833 104.835 60.8642C104.606 60.8955 104.395 61.0053 104.238 61.1749C104.081 61.3445 103.988 61.5635 103.974 61.7942C103.961 62.025 104.028 62.2534 104.164 62.4402C105.73 63.9315 107.823 64.7409 109.984 64.6911C112.146 64.6412 114.2 63.7361 115.695 62.1742C115.814 62.0874 115.912 61.9754 115.983 61.8461C116.054 61.7168 116.095 61.5735 116.103 61.4265C116.112 61.2794 116.088 61.1323 116.033 60.9956C115.978 60.859 115.893 60.7362 115.785 60.6362C115.677 60.5361 115.548 60.4612 115.408 60.4169C115.267 60.3725 115.119 60.3598 114.973 60.3797C114.827 60.3996 114.687 60.4516 114.564 60.5319C114.44 60.6122 114.336 60.7188 114.259 60.8442L114.205 60.8043Z"/>
</mask>
<path d="M114.205 60.8043C113.075 61.9836 111.524 62.6669 109.891 62.7043C108.258 62.7417 106.677 62.1302 105.494 61.0038C105.297 60.8824 105.064 60.833 104.835 60.8642C104.606 60.8955 104.395 61.0053 104.238 61.1749C104.081 61.3445 103.988 61.5635 103.974 61.7942C103.961 62.025 104.028 62.2534 104.164 62.4402C105.73 63.9315 107.823 64.7409 109.984 64.6911C112.146 64.6412 114.2 63.7361 115.695 62.1742C115.814 62.0874 115.912 61.9754 115.983 61.8461C116.054 61.7168 116.095 61.5735 116.103 61.4265C116.112 61.2794 116.088 61.1323 116.033 60.9956C115.978 60.859 115.893 60.7362 115.785 60.6362C115.677 60.5361 115.548 60.4612 115.408 60.4169C115.267 60.3725 115.119 60.3598 114.973 60.3797C114.827 60.3996 114.687 60.4516 114.564 60.5319C114.44 60.6122 114.336 60.7188 114.259 60.8442L114.205 60.8043Z" fill="#292929"/>
<path d="M114.205 60.8043L116.275 58.0443L113.83 56.2098L111.714 58.4174L114.205 60.8043ZM105.494 61.0038L107.873 58.5053L107.612 58.2571L107.306 58.068L105.494 61.0038ZM104.164 62.4402L101.376 64.4724L101.559 64.7237L101.784 64.9383L104.164 62.4402ZM115.695 62.1742L113.663 59.3862L113.415 59.5669L113.203 59.7884L115.695 62.1742ZM114.259 60.8442L112.188 63.6041L115.21 65.8707L117.194 62.6562L114.259 60.8442ZM111.714 58.4174C111.216 58.9374 110.532 59.2387 109.812 59.2552L109.97 66.1534C112.516 66.0951 114.935 65.0298 116.696 63.1912L111.714 58.4174ZM109.812 59.2552C109.092 59.2717 108.395 59.002 107.873 58.5053L103.115 63.5022C104.959 65.2583 107.424 66.2117 109.97 66.1534L109.812 59.2552ZM107.306 58.068C106.429 57.5266 105.391 57.3067 104.369 57.4458L105.301 64.2827C104.738 64.3594 104.166 64.2381 103.682 63.9396L107.306 58.068ZM104.369 57.4458C103.348 57.585 102.407 58.0746 101.707 58.8309L106.77 63.5189C106.383 63.9359 105.864 64.2059 105.301 64.2827L104.369 57.4458ZM101.707 58.8309C101.006 59.5873 100.59 60.5634 100.53 61.5924L107.418 61.9961C107.385 62.5635 107.156 63.1018 106.77 63.5189L101.707 58.8309ZM100.53 61.5924C100.47 62.6213 100.769 63.6393 101.376 64.4724L106.952 60.408C107.287 60.8674 107.452 61.4287 107.418 61.9961L100.53 61.5924ZM101.784 64.9383C104.012 67.0596 106.989 68.2111 110.064 68.1402L109.905 61.242C108.656 61.2708 107.448 60.8033 106.543 59.942L101.784 64.9383ZM110.064 68.1402C113.139 68.0692 116.06 66.7817 118.187 64.5599L113.203 59.7884C112.339 60.6905 111.153 61.2132 109.905 61.242L110.064 68.1402ZM117.727 64.9621C118.258 64.5752 118.696 64.0757 119.011 63.4993L112.955 60.1929C113.128 59.8751 113.37 59.5996 113.663 59.3862L117.727 64.9621ZM119.011 63.4993C119.326 62.9228 119.509 62.2839 119.547 61.6283L112.659 61.2246C112.68 60.8631 112.781 60.5108 112.955 60.1929L119.011 63.4993ZM119.547 61.6283C119.586 60.9727 119.478 60.3167 119.233 59.7075L112.832 62.2838C112.697 61.9478 112.638 61.5861 112.659 61.2246L119.547 61.6283ZM119.233 59.7075C118.988 59.0983 118.611 58.5509 118.129 58.1047L113.441 63.1676C113.175 62.9216 112.967 62.6197 112.832 62.2838L119.233 59.7075ZM118.129 58.1047C117.647 57.6585 117.072 57.3246 116.446 57.1269L114.369 63.7068C114.024 63.5978 113.707 63.4137 113.441 63.1676L118.129 58.1047ZM116.446 57.1269C115.82 56.9292 115.158 56.8726 114.507 56.9613L115.439 63.7981C115.08 63.847 114.714 63.8158 114.369 63.7068L116.446 57.1269ZM114.507 56.9613C113.856 57.05 113.233 57.2817 112.683 57.6397L116.445 63.424C116.141 63.6215 115.797 63.7492 115.439 63.7981L114.507 56.9613ZM112.683 57.6397C112.132 57.9978 111.668 58.4733 111.323 59.0321L117.194 62.6562C117.004 62.9643 116.748 63.2266 116.445 63.424L112.683 57.6397ZM116.329 58.0842L116.275 58.0443L112.135 63.5642L112.188 63.6041L116.329 58.0842Z" fill="black" mask="url(#path-15-inside-6)"/>
<path d="M86.0759 61.0969C86.4936 58.2117 86.0192 55.2677 84.7165 52.6597C83.4137 50.0516 81.3448 47.9042 78.7872 46.5051C76.2295 45.1061 73.3053 44.5224 70.4065 44.8322C67.5077 45.142 64.7728 46.3306 62.5686 48.2386C60.3644 50.1465 58.7961 52.6828 58.074 55.5072C57.3519 58.3317 57.5104 61.3094 58.5284 64.0412C59.5464 66.773 61.3751 69.1283 63.7695 70.7915C66.1639 72.4546 69.0094 73.346 71.9247 73.3463C75.3605 73.341 78.6799 72.101 81.2776 69.8524C83.8753 67.6038 85.5783 64.4965 86.0759 61.0969ZM71.9114 46.7196C73.6726 46.7302 75.4111 47.1179 77.0099 47.8568C78.6086 48.5957 80.0305 49.6685 81.1798 51.0031C82.3291 52.3376 83.1792 53.9029 83.6727 55.5936C84.1663 57.2843 84.2918 59.0611 84.041 60.8043C84.041 61.1368 83.9213 61.4693 83.8415 61.7885C80.8023 58.5261 76.7436 56.3946 72.3325 55.7444C67.9214 55.0942 63.4203 55.964 59.569 58.2108C59.569 57.8916 59.569 57.5724 59.6621 57.2399C60.0998 54.3075 61.5785 51.6306 63.8278 49.6988C66.077 47.767 68.9465 46.7095 71.9114 46.7196ZM70.1292 71.2183C67.4503 70.8222 64.9763 69.5552 63.0893 67.6129C61.2023 65.6706 60.0073 63.1611 59.6887 60.4718H59.8218C60.3271 60.126 72.2173 52.146 83.1499 63.9165C82.0766 66.3899 80.222 68.4433 77.8703 69.7621C75.5186 71.0808 72.7994 71.5924 70.1292 71.2183Z" fill="#292929" stroke="#292929" stroke-width="1.5"/>
<mask id="path-18-inside-7" fill="white">
<path d="M75.6887 63.3978C74.3699 64.3588 72.7242 64.7584 71.1116 64.5091C69.4989 64.2599 68.0507 63.3821 67.0836 62.0678C66.921 61.8749 66.6915 61.7508 66.4411 61.7204C66.1907 61.69 65.9381 61.7556 65.7342 61.9039C65.5302 62.0523 65.39 62.2724 65.3418 62.5199C65.2935 62.7675 65.3409 63.0241 65.4743 63.2382C66.1021 64.1055 66.8955 64.8399 67.8085 65.3992C68.7216 65.9584 69.7364 66.3314 70.7943 66.4966C71.2344 66.5631 71.6792 66.5942 72.1243 66.5897C73.8465 66.5889 75.5237 66.0392 76.9123 65.0203C77.0188 64.94 77.1085 64.8395 77.1762 64.7245C77.2439 64.6095 77.2882 64.4823 77.3067 64.3501C77.3253 64.218 77.3176 64.0835 77.2841 63.9543C77.2507 63.8251 77.1921 63.7038 77.1118 63.5973C77.0314 63.4907 76.9309 63.401 76.8159 63.3334C76.7009 63.2657 76.5737 63.2213 76.4415 63.2028C76.3094 63.1842 76.1749 63.1919 76.0457 63.2254C75.9165 63.2588 75.7952 63.3174 75.6887 63.3978Z"/>
</mask>
<path d="M75.6887 63.3978C74.3699 64.3588 72.7242 64.7584 71.1116 64.5091C69.4989 64.2599 68.0507 63.3821 67.0836 62.0678C66.921 61.8749 66.6915 61.7508 66.4411 61.7204C66.1907 61.69 65.9381 61.7556 65.7342 61.9039C65.5302 62.0523 65.39 62.2724 65.3418 62.5199C65.2935 62.7675 65.3409 63.0241 65.4743 63.2382C66.1021 64.1055 66.8955 64.8399 67.8085 65.3992C68.7216 65.9584 69.7364 66.3314 70.7943 66.4966C71.2344 66.5631 71.6792 66.5942 72.1243 66.5897C73.8465 66.5889 75.5237 66.0392 76.9123 65.0203C77.0188 64.94 77.1085 64.8395 77.1762 64.7245C77.2439 64.6095 77.2882 64.4823 77.3067 64.3501C77.3253 64.218 77.3176 64.0835 77.2841 63.9543C77.2507 63.8251 77.1921 63.7038 77.1118 63.5973C77.0314 63.4907 76.9309 63.401 76.8159 63.3334C76.7009 63.2657 76.5737 63.2213 76.4415 63.2028C76.3094 63.1842 76.1749 63.1919 76.0457 63.2254C75.9165 63.2588 75.7952 63.3174 75.6887 63.3978Z" fill="#292929"/>
<path d="M67.0836 62.0678L69.8624 60.0231L69.7949 59.9314L69.7215 59.8443L67.0836 62.0678ZM65.4743 63.2382L62.5462 65.0627L62.6095 65.1643L62.6797 65.2612L65.4743 63.2382ZM70.7943 66.4966L70.262 69.9053L70.2707 69.9067L70.2795 69.908L70.7943 66.4966ZM72.1243 66.5897L72.1227 63.1397L72.1062 63.1397L72.0897 63.1399L72.1243 66.5897ZM76.9123 65.0203L78.9532 67.8019L78.9714 67.7885L78.9895 67.7749L76.9123 65.0203ZM73.6568 60.6095C73.0753 61.0333 72.3496 61.2095 71.6385 61.0996L70.5846 67.9186C73.0988 68.3072 75.6645 67.6842 77.7205 66.186L73.6568 60.6095ZM71.6385 61.0996C70.9274 60.9897 70.2888 60.6026 69.8624 60.0231L64.3048 64.1124C65.8125 66.1615 68.0704 67.5301 70.5846 67.9186L71.6385 61.0996ZM69.7215 59.8443C68.9968 58.9845 67.9733 58.4311 66.8569 58.2956L66.0253 65.1453C65.4097 65.0705 64.8453 64.7654 64.4457 64.2912L69.7215 59.8443ZM66.8569 58.2956C65.7406 58.16 64.6144 58.4524 63.705 59.1138L67.7634 64.6941C67.2619 65.0588 66.6408 65.22 66.0253 65.1453L66.8569 58.2956ZM63.705 59.1138C62.7956 59.7752 62.1704 60.7565 61.9554 61.8603L68.7281 63.1795C68.6096 63.7882 68.2648 64.3294 67.7634 64.6941L63.705 59.1138ZM61.9554 61.8603C61.7404 62.9641 61.9515 64.1083 62.5462 65.0627L68.4023 61.4136C68.7303 61.9399 68.8467 62.5709 68.7281 63.1795L61.9554 61.8603ZM62.6797 65.2612C63.5745 66.4973 64.7052 67.5441 66.0066 68.3412L69.6105 62.4572C69.0857 62.1357 68.6297 61.7136 68.2689 61.2151L62.6797 65.2612ZM66.0066 68.3412C67.3079 69.1383 68.7542 69.6699 70.262 69.9053L71.3266 63.0879C70.7185 62.993 70.1353 62.7786 69.6105 62.4572L66.0066 68.3412ZM70.2795 69.908C70.9014 70.0019 71.5299 70.0459 72.1588 70.0396L72.0897 63.1399C71.8285 63.1425 71.5674 63.1242 71.3091 63.0853L70.2795 69.908ZM72.1258 70.0397C74.5817 70.0386 76.9732 69.2547 78.9532 67.8019L74.8713 62.2388C74.0742 62.8237 73.1114 63.1393 72.1227 63.1397L72.1258 70.0397ZM78.9895 67.7749C79.4578 67.4218 79.8519 66.9799 80.1494 66.4744L74.2029 62.9745C74.3651 62.699 74.5798 62.4582 74.8351 62.2658L78.9895 67.7749ZM80.1494 66.4744C80.4469 65.969 80.6419 65.4099 80.7233 64.8291L73.8902 63.8711C73.9345 63.5546 74.0408 63.2499 74.2029 62.9745L80.1494 66.4744ZM80.7233 64.8291C80.8048 64.2483 80.771 63.6571 80.6239 63.0893L73.9443 64.8193C73.8642 64.5098 73.8458 64.1877 73.8902 63.8711L80.7233 64.8291ZM80.6239 63.0893C80.4769 62.5215 80.2195 61.9883 79.8663 61.52L74.3572 65.6745C74.1648 65.4193 74.0245 65.1287 73.9443 64.8193L80.6239 63.0893ZM79.8663 61.52C79.5132 61.0517 79.0713 60.6576 78.5659 60.3601L75.0659 66.3066C74.7905 66.1445 74.5497 65.9297 74.3572 65.6745L79.8663 61.52ZM78.5659 60.3601C78.0604 60.0626 77.5013 59.8676 76.9205 59.7862L75.9626 66.6194C75.6461 66.575 75.3414 66.4687 75.0659 66.3066L78.5659 60.3601ZM76.9205 59.7862C76.3397 59.7048 75.7485 59.7385 75.1807 59.8856L76.9107 66.5652C76.6012 66.6453 76.2791 66.6637 75.9626 66.6194L76.9205 59.7862ZM75.1807 59.8856C74.613 60.0326 74.0797 60.29 73.6115 60.6432L77.7659 66.1523C77.5107 66.3448 77.2201 66.4851 76.9107 66.5652L75.1807 59.8856Z" fill="black" mask="url(#path-18-inside-7)"/>
<mask id="path-20-inside-8" fill="white">
<path d="M69.8632 90.1175H68.5332V88.3619C68.5332 88.0973 68.4281 87.8436 68.241 87.6565C68.0539 87.4695 67.8002 87.3644 67.5357 87.3644C67.2711 87.3644 67.0174 87.4695 66.8303 87.6565C66.6432 87.8436 66.5381 88.0973 66.5381 88.3619V90.1308H65.2081C64.9436 90.1308 64.6899 90.2359 64.5028 90.423C64.3157 90.61 64.2106 90.8637 64.2106 91.1283C64.2106 91.3928 64.3157 91.6466 64.5028 91.8336C64.6899 92.0207 64.9436 92.1258 65.2081 92.1258H66.5381V93.8947C66.5381 94.1592 66.6432 94.413 66.8303 94.6C67.0174 94.7871 67.2711 94.8922 67.5357 94.8922C67.8002 94.8922 68.0539 94.7871 68.241 94.6C68.4281 94.413 68.5332 94.1592 68.5332 93.8947V92.1125H69.8632C70.1277 92.1125 70.3814 92.0074 70.5685 91.8203C70.7556 91.6333 70.8607 91.3795 70.8607 91.115C70.8607 90.8504 70.7556 90.5967 70.5685 90.4096C70.3814 90.2226 70.1277 90.1175 69.8632 90.1175Z"/>
</mask>
<path d="M69.8632 90.1175H68.5332V88.3619C68.5332 88.0973 68.4281 87.8436 68.241 87.6565C68.0539 87.4695 67.8002 87.3644 67.5357 87.3644C67.2711 87.3644 67.0174 87.4695 66.8303 87.6565C66.6432 87.8436 66.5381 88.0973 66.5381 88.3619V90.1308H65.2081C64.9436 90.1308 64.6899 90.2359 64.5028 90.423C64.3157 90.61 64.2106 90.8637 64.2106 91.1283C64.2106 91.3928 64.3157 91.6466 64.5028 91.8336C64.6899 92.0207 64.9436 92.1258 65.2081 92.1258H66.5381V93.8947C66.5381 94.1592 66.6432 94.413 66.8303 94.6C67.0174 94.7871 67.2711 94.8922 67.5357 94.8922C67.8002 94.8922 68.0539 94.7871 68.241 94.6C68.4281 94.413 68.5332 94.1592 68.5332 93.8947V92.1125H69.8632C70.1277 92.1125 70.3814 92.0074 70.5685 91.8203C70.7556 91.6333 70.8607 91.3795 70.8607 91.115C70.8607 90.8504 70.7556 90.5967 70.5685 90.4096C70.3814 90.2226 70.1277 90.1175 69.8632 90.1175Z" fill="#7C97A9"/>
<path d="M68.5332 90.1175H65.0832V93.5675H68.5332V90.1175ZM66.5381 90.1308V93.5808H69.9881V90.1308H66.5381ZM66.5381 92.1258H69.9881V88.6758H66.5381V92.1258ZM68.5332 92.1125V88.6625H65.0832V92.1125H68.5332ZM69.8632 86.6675H68.5332V93.5675H69.8632V86.6675ZM71.9832 90.1175V88.3619H65.0832V90.1175H71.9832ZM71.9832 88.3619C71.9832 87.1823 71.5146 86.0511 70.6805 85.217L65.8015 90.0961C65.3416 89.6361 65.0832 89.0123 65.0832 88.3619H71.9832ZM70.6805 85.217C69.8465 84.383 68.7152 83.9144 67.5357 83.9144V90.8144C66.8852 90.8144 66.2614 90.556 65.8015 90.0961L70.6805 85.217ZM67.5357 83.9144C66.3561 83.9144 65.2248 84.383 64.3908 85.217L69.2698 90.0961C68.8099 90.556 68.1861 90.8144 67.5357 90.8144V83.9144ZM64.3908 85.217C63.5567 86.0511 63.0881 87.1823 63.0881 88.3619H69.9881C69.9881 89.0123 69.7297 89.6361 69.2698 90.0961L64.3908 85.217ZM63.0881 88.3619V90.1308H69.9881V88.3619H63.0881ZM66.5381 86.6808H65.2081V93.5808H66.5381V86.6808ZM65.2081 86.6808C64.0286 86.6808 62.8973 87.1494 62.0633 87.9834L66.9423 92.8625C66.4824 93.3224 65.8586 93.5808 65.2081 93.5808V86.6808ZM62.0633 87.9834C61.2292 88.8175 60.7606 89.9487 60.7606 91.1283H67.6606C67.6606 91.7787 67.4022 92.4025 66.9423 92.8625L62.0633 87.9834ZM60.7606 91.1283C60.7606 92.3078 61.2292 93.4391 62.0633 94.2732L66.9423 89.3941C67.4023 89.8541 67.6606 90.4779 67.6606 91.1283H60.7606ZM62.0633 94.2732C62.8974 95.1073 64.0286 95.5758 65.2081 95.5758V88.6758C65.8585 88.6758 66.4823 88.9341 66.9423 89.3941L62.0633 94.2732ZM65.2081 95.5758H66.5381V88.6758H65.2081V95.5758ZM63.0881 92.1258V93.8947H69.9881V92.1258H63.0881ZM63.0881 93.8947C63.0881 95.0743 63.5567 96.2055 64.3908 97.0396L69.2698 92.1605C69.7297 92.6204 69.9881 93.2442 69.9881 93.8947H63.0881ZM64.3908 97.0396C65.2248 97.8736 66.3561 98.3422 67.5357 98.3422V91.4422C68.1861 91.4422 68.8099 91.7006 69.2698 92.1605L64.3908 97.0396ZM67.5357 98.3422C68.7152 98.3422 69.8465 97.8736 70.6805 97.0396L65.8015 92.1605C66.2614 91.7006 66.8852 91.4422 67.5357 91.4422V98.3422ZM70.6805 97.0396C71.5146 96.2055 71.9832 95.0743 71.9832 93.8947H65.0832C65.0832 93.2442 65.3416 92.6204 65.8015 92.1605L70.6805 97.0396ZM71.9832 93.8947V92.1125H65.0832V93.8947H71.9832ZM68.5332 95.5625H69.8632V88.6625H68.5332V95.5625ZM69.8632 95.5625C71.0427 95.5625 72.1739 95.094 73.008 94.2599L68.129 89.3808C68.589 88.9208 69.2128 88.6625 69.8632 88.6625V95.5625ZM73.008 94.2599C73.8421 93.4258 74.3107 92.2945 74.3107 91.115H67.4107C67.4107 90.4646 67.669 89.8408 68.129 89.3808L73.008 94.2599ZM74.3107 91.115C74.3107 89.9354 73.8421 88.8042 73.008 87.9701L68.129 92.8492C67.6691 92.3892 67.4107 91.7654 67.4107 91.115H74.3107ZM73.008 87.9701C72.174 87.1361 71.0427 86.6675 69.8632 86.6675V93.5675C69.2127 93.5675 68.5889 93.3091 68.129 92.8492L73.008 87.9701Z" fill="#7C97A9" mask="url(#path-20-inside-8)"/>
<mask id="path-22-inside-9" fill="white">
<path d="M67.6022 84.3453C67.8667 84.3453 68.1204 84.2402 68.3075 84.0532C68.4945 83.8661 68.5996 83.6124 68.5996 83.3478V80.9405C68.5996 80.676 68.4945 80.4222 68.3075 80.2352C68.1204 80.0481 67.8667 79.943 67.6022 79.943C67.3376 79.943 67.0839 80.0481 66.8968 80.2352C66.7098 80.4222 66.6047 80.676 66.6047 80.9405V83.3478C66.6047 83.6124 66.7098 83.8661 66.8968 84.0532C67.0839 84.2402 67.3376 84.3453 67.6022 84.3453Z"/>
</mask>
<path d="M67.6022 84.3453C67.8667 84.3453 68.1204 84.2402 68.3075 84.0532C68.4945 83.8661 68.5996 83.6124 68.5996 83.3478V80.9405C68.5996 80.676 68.4945 80.4222 68.3075 80.2352C68.1204 80.0481 67.8667 79.943 67.6022 79.943C67.3376 79.943 67.0839 80.0481 66.8968 80.2352C66.7098 80.4222 66.6047 80.676 66.6047 80.9405V83.3478C66.6047 83.6124 66.7098 83.8661 66.8968 84.0532C67.0839 84.2402 67.3376 84.3453 67.6022 84.3453Z" fill="#7C97A9"/>
<path d="M67.6022 87.7953C68.7817 87.7953 69.913 87.3267 70.747 86.4926L65.8679 81.6137C66.3279 81.1537 66.9517 80.8953 67.6022 80.8953V87.7953ZM70.747 86.4926C71.5811 85.6586 72.0496 84.5273 72.0496 83.3478H65.1496C65.1496 82.6974 65.408 82.0736 65.8679 81.6137L70.747 86.4926ZM72.0496 83.3478V80.9405H65.1496V83.3478H72.0496ZM72.0496 80.9405C72.0496 79.761 71.5811 78.6298 70.747 77.7957L65.8679 82.6747C65.408 82.2147 65.1496 81.5909 65.1496 80.9405H72.0496ZM70.747 77.7957C69.913 76.9616 68.7818 76.493 67.6022 76.493V83.393C66.9516 83.393 66.3278 83.1346 65.8679 82.6747L70.747 77.7957ZM67.6022 76.493C66.4225 76.493 65.2913 76.9616 64.4573 77.7957L69.3364 82.6747C68.8765 83.1346 68.2527 83.393 67.6022 83.393V76.493ZM64.4573 77.7957C63.6232 78.6298 63.1547 79.761 63.1547 80.9405H70.0547C70.0547 81.5909 69.7963 82.2147 69.3364 82.6747L64.4573 77.7957ZM63.1547 80.9405V83.3478H70.0547V80.9405H63.1547ZM63.1547 83.3478C63.1547 84.5273 63.6232 85.6586 64.4573 86.4926L69.3364 81.6137C69.7963 82.0736 70.0547 82.6974 70.0547 83.3478H63.1547ZM64.4573 86.4926C65.2913 87.3267 66.4226 87.7953 67.6022 87.7953V80.8953C68.2526 80.8953 68.8764 81.1537 69.3364 81.6137L64.4573 86.4926Z" fill="#7C97A9" mask="url(#path-22-inside-9)"/>
<mask id="path-24-inside-10" fill="white">
<path d="M44.8325 38.6863H46.1625V40.4552C46.1625 40.7198 46.2676 40.9735 46.4547 41.1606C46.6417 41.3476 46.8955 41.4527 47.16 41.4527C47.4246 41.4527 47.6783 41.3476 47.8653 41.1606C48.0524 40.9735 48.1575 40.7198 48.1575 40.4552V38.6863H49.4875C49.7521 38.6863 50.0058 38.5813 50.1928 38.3942C50.3799 38.2071 50.485 37.9534 50.485 37.6888C50.485 37.4243 50.3799 37.1706 50.1928 36.9835C50.0058 36.7964 49.7521 36.6914 49.4875 36.6914H48.1309V34.9225C48.1309 34.6579 48.0258 34.4042 47.8387 34.2171C47.6517 34.03 47.398 33.925 47.1334 33.925C46.8689 33.925 46.6151 34.03 46.4281 34.2171C46.241 34.4042 46.1359 34.6579 46.1359 34.9225V36.6914H44.8059C44.5414 36.6914 44.2876 36.7964 44.1006 36.9835C43.9135 37.1706 43.8084 37.4243 43.8084 37.6888C43.8084 37.9534 43.9135 38.2071 44.1006 38.3942C44.2876 38.5813 44.5414 38.6863 44.8059 38.6863H44.8325Z"/>
</mask>
<path d="M44.8325 38.6863H46.1625V40.4552C46.1625 40.7198 46.2676 40.9735 46.4547 41.1606C46.6417 41.3476 46.8955 41.4527 47.16 41.4527C47.4246 41.4527 47.6783 41.3476 47.8653 41.1606C48.0524 40.9735 48.1575 40.7198 48.1575 40.4552V38.6863H49.4875C49.7521 38.6863 50.0058 38.5813 50.1928 38.3942C50.3799 38.2071 50.485 37.9534 50.485 37.6888C50.485 37.4243 50.3799 37.1706 50.1928 36.9835C50.0058 36.7964 49.7521 36.6914 49.4875 36.6914H48.1309V34.9225C48.1309 34.6579 48.0258 34.4042 47.8387 34.2171C47.6517 34.03 47.398 33.925 47.1334 33.925C46.8689 33.925 46.6151 34.03 46.4281 34.2171C46.241 34.4042 46.1359 34.6579 46.1359 34.9225V36.6914H44.8059C44.5414 36.6914 44.2876 36.7964 44.1006 36.9835C43.9135 37.1706 43.8084 37.4243 43.8084 37.6888C43.8084 37.9534 43.9135 38.2071 44.1006 38.3942C44.2876 38.5813 44.5414 38.6863 44.8059 38.6863H44.8325Z" fill="#7C97A9"/>
<path d="M46.1625 38.6863H49.6125V35.2363H46.1625V38.6863ZM48.1575 38.6863V35.2363H44.7075V38.6863H48.1575ZM49.4875 38.6863V42.1363V38.6863ZM48.1309 36.6914H44.6809V40.1414H48.1309V36.6914ZM46.1359 36.6914V40.1414H49.5859V36.6914H46.1359ZM44.8059 36.6914V40.1414V36.6914ZM44.8325 42.1363H46.1625V35.2363H44.8325V42.1363ZM42.7125 38.6863V40.4552H49.6125V38.6863H42.7125ZM42.7125 40.4552C42.7125 41.6348 43.1811 42.766 44.0151 43.6001L48.8942 38.7211C49.3541 39.181 49.6125 39.8048 49.6125 40.4552H42.7125ZM44.0151 43.6001C44.8492 44.4342 45.9805 44.9027 47.16 44.9027V38.0027C47.8104 38.0027 48.4342 38.2611 48.8942 38.7211L44.0151 43.6001ZM47.16 44.9027C48.3395 44.9027 49.4708 44.4342 50.3049 43.6001L45.4258 38.7211C45.8858 38.2611 46.5096 38.0027 47.16 38.0027V44.9027ZM50.3049 43.6001C51.1389 42.766 51.6075 41.6348 51.6075 40.4552H44.7075C44.7075 39.8048 44.9659 39.181 45.4258 38.7211L50.3049 43.6001ZM51.6075 40.4552V38.6863H44.7075V40.4552H51.6075ZM48.1575 42.1363H49.4875V35.2363H48.1575V42.1363ZM49.4875 42.1363C50.667 42.1363 51.7983 41.6678 52.6324 40.8337L47.7533 35.9547C48.2133 35.4947 48.8371 35.2363 49.4875 35.2363V42.1363ZM52.6324 40.8337C53.4664 39.9996 53.935 38.8684 53.935 37.6888H47.035C47.035 37.0384 47.2934 36.4146 47.7533 35.9547L52.6324 40.8337ZM53.935 37.6888C53.935 36.5093 53.4664 35.3781 52.6324 34.544L47.7533 39.423C47.2934 38.9631 47.035 38.3393 47.035 37.6888H53.935ZM52.6324 34.544C51.7983 33.7099 50.667 33.2414 49.4875 33.2414V40.1414C48.8371 40.1414 48.2133 39.883 47.7533 39.423L52.6324 34.544ZM49.4875 33.2414H48.1309V40.1414H49.4875V33.2414ZM51.5809 36.6914V34.9225H44.6809V36.6914H51.5809ZM51.5809 34.9225C51.5809 33.7429 51.1123 32.6117 50.2783 31.7776L45.3992 36.6566C44.9393 36.1967 44.6809 35.5729 44.6809 34.9225H51.5809ZM50.2783 31.7776C49.4442 30.9435 48.3129 30.475 47.1334 30.475V37.375C46.483 37.375 45.8592 37.1166 45.3992 36.6566L50.2783 31.7776ZM47.1334 30.475C45.9539 30.475 44.8226 30.9435 43.9885 31.7776L48.8676 36.6566C48.4076 37.1166 47.7838 37.375 47.1334 37.375V30.475ZM43.9885 31.7776C43.1545 32.6117 42.6859 33.7429 42.6859 34.9225H49.5859C49.5859 35.5729 49.3275 36.1967 48.8676 36.6566L43.9885 31.7776ZM42.6859 34.9225V36.6914H49.5859V34.9225H42.6859ZM46.1359 33.2414H44.8059V40.1414H46.1359V33.2414ZM44.8059 33.2414C43.6264 33.2414 42.4951 33.7099 41.6611 34.544L46.5401 39.423C46.0801 39.883 45.4563 40.1414 44.8059 40.1414V33.2414ZM41.6611 34.544C40.827 35.3781 40.3584 36.5093 40.3584 37.6888H47.2584C47.2584 38.3393 47 38.9631 46.5401 39.423L41.6611 34.544ZM40.3584 37.6888C40.3584 38.8684 40.827 39.9996 41.6611 40.8337L46.5401 35.9547C47 36.4146 47.2584 37.0384 47.2584 37.6888H40.3584ZM41.6611 40.8337C42.4951 41.6678 43.6264 42.1363 44.8059 42.1363V35.2363C45.4563 35.2363 46.0801 35.4947 46.5401 35.9547L41.6611 40.8337ZM44.8059 42.1363H44.8325V35.2363H44.8059V42.1363Z" fill="#7C97A9" mask="url(#path-24-inside-10)"/>
<mask id="path-26-inside-11" fill="white">
<path d="M119.446 100.864H118.116V99.1083C118.116 98.8437 118.011 98.59 117.824 98.4029C117.636 98.2159 117.383 98.1108 117.118 98.1108C116.854 98.1108 116.6 98.2159 116.413 98.4029C116.226 98.59 116.121 98.8437 116.121 99.1083V100.877H114.791C114.526 100.877 114.272 100.982 114.085 101.169C113.898 101.356 113.793 101.61 113.793 101.875C113.793 102.139 113.898 102.393 114.085 102.58C114.272 102.767 114.526 102.872 114.791 102.872H116.121V104.628C116.121 104.892 116.226 105.146 116.413 105.333C116.6 105.52 116.854 105.625 117.118 105.625C117.383 105.625 117.636 105.52 117.824 105.333C118.011 105.146 118.116 104.892 118.116 104.628V102.859H119.446C119.71 102.859 119.964 102.754 120.151 102.567C120.338 102.38 120.443 102.126 120.443 101.861C120.443 101.597 120.338 101.343 120.151 101.156C119.964 100.969 119.71 100.864 119.446 100.864Z"/>
</mask>
<path d="M119.446 100.864H118.116V99.1083C118.116 98.8437 118.011 98.59 117.824 98.4029C117.636 98.2159 117.383 98.1108 117.118 98.1108C116.854 98.1108 116.6 98.2159 116.413 98.4029C116.226 98.59 116.121 98.8437 116.121 99.1083V100.877H114.791C114.526 100.877 114.272 100.982 114.085 101.169C113.898 101.356 113.793 101.61 113.793 101.875C113.793 102.139 113.898 102.393 114.085 102.58C114.272 102.767 114.526 102.872 114.791 102.872H116.121V104.628C116.121 104.892 116.226 105.146 116.413 105.333C116.6 105.52 116.854 105.625 117.118 105.625C117.383 105.625 117.636 105.52 117.824 105.333C118.011 105.146 118.116 104.892 118.116 104.628V102.859H119.446C119.71 102.859 119.964 102.754 120.151 102.567C120.338 102.38 120.443 102.126 120.443 101.861C120.443 101.597 120.338 101.343 120.151 101.156C119.964 100.969 119.71 100.864 119.446 100.864Z" fill="#7C97A9"/>
<path d="M118.116 100.864H114.666V104.314H118.116V100.864ZM116.121 100.877V104.327H119.571V100.877H116.121ZM114.791 100.877V104.327V100.877ZM116.121 102.872H119.571V99.4222H116.121V102.872ZM118.116 102.859V99.4089H114.666V102.859H118.116ZM119.446 102.859V106.309V102.859ZM119.446 97.4139H118.116V104.314H119.446V97.4139ZM121.566 100.864V99.1083H114.666V100.864H121.566ZM121.566 99.1083C121.566 97.9287 121.097 96.7974 120.263 95.9634L115.384 100.842C114.924 100.383 114.666 99.7588 114.666 99.1083H121.566ZM120.263 95.9634C119.429 95.1294 118.298 94.6608 117.118 94.6608V101.561C116.468 101.561 115.844 101.302 115.384 100.842L120.263 95.9634ZM117.118 94.6608C115.939 94.6608 114.807 95.1294 113.973 95.9634L118.852 100.842C118.392 101.302 117.769 101.561 117.118 101.561V94.6608ZM113.973 95.9634C113.139 96.7975 112.671 97.9287 112.671 99.1083H119.571C119.571 99.7587 119.312 100.382 118.852 100.842L113.973 95.9634ZM112.671 99.1083V100.877H119.571V99.1083H112.671ZM116.121 97.4272H114.791V104.327H116.121V97.4272ZM114.791 97.4272C113.611 97.4272 112.48 97.8958 111.646 98.7298L116.525 103.609C116.065 104.069 115.441 104.327 114.791 104.327L114.791 97.4272ZM111.646 98.7298C110.812 99.5639 110.343 100.695 110.343 101.875H117.243C117.243 102.525 116.985 103.149 116.525 103.609L111.646 98.7298ZM110.343 101.875C110.343 103.054 110.812 104.185 111.646 105.02L116.525 100.14C116.985 100.6 117.243 101.224 117.243 101.875H110.343ZM111.646 105.02C112.48 105.854 113.611 106.322 114.791 106.322V99.4222C115.441 99.4222 116.065 99.6806 116.525 100.14L111.646 105.02ZM114.791 106.322H116.121V99.4222H114.791V106.322ZM112.671 102.872V104.628H119.571V102.872H112.671ZM112.671 104.628C112.671 105.807 113.139 106.939 113.973 107.773L118.852 102.894C119.312 103.354 119.571 103.977 119.571 104.628H112.671ZM113.973 107.773C114.807 108.607 115.939 109.075 117.118 109.075V102.175C117.769 102.175 118.392 102.434 118.852 102.894L113.973 107.773ZM117.118 109.075C118.298 109.075 119.429 108.607 120.263 107.773L115.384 102.894C115.844 102.434 116.468 102.175 117.118 102.175V109.075ZM120.263 107.773C121.097 106.939 121.566 105.807 121.566 104.628H114.666C114.666 103.977 114.924 103.353 115.384 102.894L120.263 107.773ZM121.566 104.628V102.859H114.666V104.628H121.566ZM118.116 106.309H119.446V99.4089H118.116V106.309ZM119.446 106.309C120.625 106.309 121.756 105.84 122.591 105.006L117.712 100.127C118.171 99.6672 118.795 99.4089 119.446 99.4089V106.309ZM122.591 105.006C123.425 104.172 123.893 103.041 123.893 101.861H116.993C116.993 101.211 117.252 100.587 117.712 100.127L122.591 105.006ZM123.893 101.861C123.893 100.682 123.425 99.5505 122.591 98.7165L117.712 103.596C117.252 103.136 116.993 102.512 116.993 101.861H123.893ZM122.591 98.7165C121.757 97.8825 120.625 97.4139 119.446 97.4139V104.314C118.795 104.314 118.171 104.055 117.712 103.596L122.591 98.7165Z" fill="#7C97A9" mask="url(#path-26-inside-11)"/>
</g>
<defs>
<clipPath id="clip0">
<rect width="192.754" height="192.754" fill="white" transform="translate(0.250977 0.887772) scale(0.69)"/>
</clipPath>
</defs>
</svg>
