<svg width="115" height="115" viewBox="0 0 115 115" fill="none" xmlns="http://www.w3.org/2000/svg">
<g clip-path="url(#clip0)">
<path fill-rule="evenodd" clip-rule="evenodd" d="M56.2608 30.9096C56.6367 30.481 57.1595 30.2087 57.7262 30.1464C58.0488 30.1109 58.3754 30.1446 58.684 30.2455C58.9926 30.3463 59.2761 30.5118 59.5156 30.7311C59.755 30.9503 59.9449 31.2181 60.0725 31.5166C60.2001 31.8151 60.2625 32.1375 60.2555 32.462V45.002C60.2598 45.3042 60.204 45.6041 60.0913 45.8845C59.9787 46.1649 59.8114 46.42 59.5993 46.6352C59.3871 46.8504 59.1343 47.0212 58.8556 47.1378C58.5768 47.2545 58.2777 47.3145 57.9755 47.3145C57.6734 47.3145 57.3742 47.2545 57.0955 47.1378C56.8167 47.0212 56.5639 46.8504 56.3518 46.6352C56.1397 46.42 55.9724 46.1649 55.8597 45.8845C55.7471 45.6041 55.6913 45.3042 55.6955 45.002V32.462C55.6833 31.8921 55.8849 31.3382 56.2608 30.9096ZM31.5609 37.3831C31.8723 37.1655 32.2331 37.0291 32.6105 36.9864C33.0685 36.9342 33.5314 37.022 33.9385 37.2383C34.3455 37.4545 34.6774 37.789 34.8905 38.1977L40.5905 48.4577C40.8834 48.9868 40.9541 49.6106 40.7871 50.1918C40.6201 50.773 40.229 51.2641 39.6999 51.557C39.1708 51.8499 38.547 51.9207 37.9658 51.7536C37.3845 51.5866 36.8934 51.1955 36.6005 50.6664L30.9005 40.4064C30.7082 40.0788 30.6008 39.7083 30.5881 39.3287C30.5753 38.949 30.6576 38.5722 30.8275 38.2324C30.9974 37.8926 31.2495 37.6007 31.5609 37.3831ZM45.3083 37.3348C45.5939 37.1495 45.9173 37.0304 46.2549 36.9864C46.7888 36.9106 47.3323 37.0265 47.7888 37.3135C48.2454 37.6005 48.5855 38.0399 48.7487 38.5539L51.0287 45.3939C51.1246 45.6793 51.1633 45.9808 51.1427 46.2811C51.1221 46.5815 51.0425 46.8748 50.9086 47.1444C50.7746 47.4141 50.5888 47.6546 50.3619 47.8524C50.1349 48.0503 49.8712 48.2014 49.5858 48.2974C49.3005 48.3933 48.999 48.432 48.6986 48.4114C48.3983 48.3908 48.1049 48.3112 47.8353 48.1773C47.5657 48.0433 47.3251 47.8575 47.1273 47.6306C46.9295 47.4036 46.7783 47.1399 46.6824 46.8545L44.4024 40.0145C44.2879 39.6939 44.2466 39.3517 44.2816 39.0131C44.3166 38.6745 44.427 38.348 44.6046 38.0575C44.7823 37.7671 45.0227 37.5202 45.3083 37.3348ZM67.9471 37.4764C68.2954 37.1978 68.7177 37.0274 69.1618 36.9864C69.5446 36.9464 69.9313 37.0039 70.2859 37.1536C70.6405 37.3034 70.9514 37.5404 71.1897 37.8427C71.428 38.145 71.5858 38.5027 71.6486 38.8824C71.7114 39.2622 71.677 39.6517 71.5487 40.0145L69.2687 46.8545C69.1727 47.1399 69.0216 47.4036 68.8238 47.6306C68.6259 47.8575 68.3854 48.0433 68.1158 48.1773C67.8461 48.3112 67.5528 48.3908 67.2524 48.4114C66.9521 48.432 66.6506 48.3933 66.3652 48.2974C66.0798 48.2014 65.8161 48.0503 65.5892 47.8524C65.3622 47.6546 65.1765 47.4141 65.0425 47.1444C64.9085 46.8748 64.829 46.5815 64.8083 46.2811C64.7877 45.9808 64.8265 45.6793 64.9224 45.3939L67.2024 38.5539C67.3399 38.1296 67.5988 37.755 67.9471 37.4764ZM81.7991 37.3684C82.1099 37.1571 82.4681 37.0259 82.8418 36.9864C83.2614 36.9418 83.6852 37.0144 84.066 37.1963C84.4468 37.3783 84.7696 37.6623 84.9985 38.0168C85.2275 38.3712 85.3536 38.7823 85.3627 39.2042C85.3719 39.6261 85.2638 40.0423 85.0505 40.4064L79.3505 50.6664C79.0576 51.1955 78.5666 51.5866 77.9853 51.7536C77.4041 51.9207 76.7803 51.8499 76.2512 51.557C75.7221 51.2641 75.331 50.773 75.1639 50.1918C74.9969 49.6106 75.0676 48.9868 75.3605 48.4577L81.0605 38.1977C81.2346 37.8646 81.4884 37.5798 81.7991 37.3684ZM24.6153 48.8652C24.9582 48.5949 25.3715 48.4287 25.8061 48.3864C26.1459 48.3534 26.4887 48.397 26.8094 48.5142C27.13 48.6314 27.4202 48.819 27.6586 49.0633L32.2186 53.6233C32.4384 53.8322 32.6142 54.0829 32.7359 54.3606C32.8575 54.6383 32.9226 54.9375 32.9272 55.2407C32.9319 55.5439 32.876 55.8449 32.7629 56.1262C32.6498 56.4075 32.4817 56.6635 32.2685 56.879C32.0553 57.0946 31.8012 57.2655 31.5212 57.3817C31.2411 57.4979 30.9407 57.5571 30.6375 57.5558C30.3343 57.5545 30.0344 57.4928 29.7554 57.3742C29.4764 57.2556 29.2238 57.0826 29.0124 56.8652L24.4524 52.3052C24.1366 52.0036 23.914 51.6178 23.811 51.1934C23.7081 50.7691 23.7292 50.3241 23.8718 49.9114C24.0143 49.4987 24.2724 49.1356 24.6153 48.8652ZM88.2924 49.0633C88.6442 48.6972 89.1081 48.459 89.6105 48.3864C90.0906 48.3168 90.5804 48.4022 91.0086 48.63C91.4369 48.8578 91.7813 49.2163 91.9918 49.6533C92.2024 50.0903 92.2681 50.5831 92.1794 51.06C92.0907 51.5369 91.8523 51.9731 91.4987 52.3052L86.9387 56.8652C86.7273 57.0826 86.4747 57.2556 86.1957 57.3742C85.9166 57.4928 85.6167 57.5545 85.3135 57.5558C85.0103 57.5571 84.7099 57.4979 84.4299 57.3817C84.1498 57.2655 83.8958 57.0946 83.6826 56.879C83.4694 56.6635 83.3013 56.4075 83.1882 56.1262C83.0751 55.8449 83.0192 55.5439 83.0238 55.2407C83.0285 54.9375 83.0935 54.6383 83.2152 54.3606C83.3369 54.0829 83.5127 53.8322 83.7324 53.6233L88.2924 49.0633ZM17.7423 58.0301C18.1183 57.7174 18.5848 57.5338 19.073 57.5064C19.5385 57.4877 19.9985 57.6121 20.3911 57.8627L26.0911 61.2827C26.3776 61.4205 26.632 61.6167 26.8381 61.8587C27.0442 62.1006 27.1975 62.383 27.288 62.6877C27.3786 62.9924 27.4044 63.3126 27.3639 63.6279C27.3234 63.9432 27.2175 64.2465 27.0528 64.5184C26.8882 64.7903 26.6685 65.0248 26.4079 65.2068C26.1474 65.3888 25.8516 65.5143 25.5396 65.5752C25.2277 65.6362 24.9064 65.6313 24.5965 65.5608C24.2866 65.4902 23.9948 65.3557 23.7399 65.1658L18.0399 61.7458C17.619 61.4969 17.2892 61.1193 17.0993 60.6686C16.9094 60.218 16.8694 59.7183 16.9852 59.2432C17.101 58.7681 17.3664 58.3428 17.7423 58.0301ZM95.5599 57.8627C95.8598 57.6673 96.2016 57.5452 96.5574 57.5064C97.0736 57.4604 97.59 57.5917 98.0216 57.8784C98.4532 58.1652 98.7742 58.5904 98.9319 59.084C99.0895 59.5777 99.0743 60.1102 98.8888 60.5941C98.7032 61.0779 98.3584 61.4841 97.9112 61.7458L92.2112 65.1658C91.9563 65.3557 91.6645 65.4902 91.3546 65.5608C91.0446 65.6313 90.7234 65.6362 90.4114 65.5752C90.0995 65.5143 89.8037 65.3888 89.5431 65.2068C89.2825 65.0248 89.0629 64.7903 88.8982 64.5184C88.7336 64.2465 88.6276 63.9432 88.5871 63.6279C88.5466 63.3126 88.5725 62.9924 88.663 62.6877C88.7536 62.383 88.9068 62.1006 89.1129 61.8587C89.3191 61.6167 89.5735 61.4205 89.8599 61.2827L95.5599 57.8627Z" fill="#EB9A28"/>
<path fill-rule="evenodd" clip-rule="evenodd" d="M57.9755 50.702C41.1391 50.702 27.2975 63.7973 26.1268 80.3421H19.2155C19.1443 80.3387 19.073 80.3387 19.0018 80.3421C18.7023 80.356 18.4085 80.4289 18.1372 80.5564C17.8659 80.6839 17.6224 80.8636 17.4206 81.0853C17.2187 81.3069 17.0625 81.5662 16.9609 81.8482C16.8592 82.1302 16.8142 82.4295 16.8282 82.729C16.8422 83.0284 16.9151 83.3222 17.0427 83.5934C17.1703 83.8647 17.35 84.1082 17.5717 84.31C17.7934 84.5118 18.0527 84.668 18.3347 84.7695C18.6168 84.8711 18.9161 84.9162 19.2155 84.9021H96.7355C97.0377 84.9063 97.3376 84.8505 97.618 84.7379C97.8984 84.6252 98.1535 84.4579 98.3687 84.2458C98.5839 84.0336 98.7547 83.7809 98.8713 83.5021C98.988 83.2234 99.048 82.9242 99.048 82.6221C99.048 82.3199 98.988 82.0208 98.8713 81.742C98.7547 81.4633 98.5839 81.2105 98.3687 80.9983C98.1535 80.7862 97.8984 80.6189 97.618 80.5063C97.3376 80.3936 97.0377 80.3378 96.7355 80.3421H89.8243C88.6535 63.7973 74.812 50.702 57.9755 50.702ZM85.2287 80.3421C84.0747 66.2782 72.3461 55.262 57.9755 55.262C43.605 55.262 31.8764 66.2782 30.7224 80.3421H85.2287Z" fill="#EB9A28"/>
</g>
<defs>
<clipPath id="clip0">
<rect width="165.217" height="165.217" fill="white" transform="translate(0.975586 0.542114) scale(0.69)"/>
</clipPath>
</defs>
</svg>
