<svg width="100" height="100" viewBox="0 0 100 100" fill="none" xmlns="http://www.w3.org/2000/svg">
<g clip-path="url(#clip0)">
<path d="M65.8971 84.7206C62.1094 84.7206 58.4137 83.5415 55.3269 81.3694C52.242 83.5405 48.5454 84.7206 44.7586 84.7206C34.622 84.7206 26.3763 76.4748 26.3763 66.3373C26.3763 66.266 26.3783 66.1937 26.3783 66.1214C20.0304 63.0633 16.0071 56.7253 16.0071 49.5894C16.0071 42.4535 20.0304 36.1155 26.3773 33.0554C26.3773 32.9832 26.3753 32.9109 26.3753 32.8396C26.3753 22.703 34.622 14.4563 44.7576 14.4563C48.5474 14.4563 52.243 15.6364 55.3259 17.8055C58.4097 15.6364 62.1064 14.4563 65.8961 14.4563C76.0317 14.4563 84.2775 22.703 84.2775 32.8396C84.2775 32.9109 84.2755 32.9841 84.2755 33.0564C90.6224 36.1165 94.6447 42.4545 94.6447 49.5894C94.6447 56.7253 90.6224 63.0613 84.2755 66.1214C84.2755 66.1947 84.2775 66.266 84.2775 66.3373C84.2784 76.4748 76.0327 84.7206 65.8971 84.7206ZM55.3269 76.7718C55.7942 76.7718 56.2614 76.9322 56.6406 77.253C59.2295 79.4468 62.5173 80.6566 65.8971 80.6566C73.7894 80.6566 80.2135 74.2335 80.2135 66.3373C80.2135 65.9452 80.1917 65.5205 80.1442 65.0077C80.061 64.1048 80.5867 63.2554 81.4322 62.9267C86.9901 60.7715 90.5798 55.5373 90.5798 49.5894C90.5798 43.6435 86.9891 38.4074 81.4322 36.2492C80.5867 35.9215 80.0601 35.073 80.1442 34.1692C80.1917 33.6554 80.2135 33.2326 80.2135 32.8396C80.2135 24.9444 73.7894 18.5222 65.8971 18.5222C62.5143 18.5222 59.2275 19.73 56.6426 21.9249C55.8823 22.5684 54.7685 22.5664 54.0122 21.9239C51.4273 19.73 48.1395 18.5222 44.7576 18.5222C36.8644 18.5222 30.4403 24.9453 30.4403 32.8396C30.4403 33.2336 30.462 33.6692 30.5076 34.1692C30.5907 35.0721 30.0651 35.9215 29.2196 36.2492C23.6637 38.4074 20.072 43.6435 20.072 49.5894C20.072 55.5363 23.6637 60.7715 29.2196 62.9267C30.0651 63.2554 30.5917 64.1048 30.5076 65.0077C30.462 65.5076 30.4403 65.9432 30.4403 66.3373C30.4403 74.2335 36.8644 80.6566 44.7576 80.6566C48.1375 80.6566 51.4233 79.4468 54.0122 77.253C54.3903 76.9322 54.8596 76.7718 55.3269 76.7718ZM13.9261 82.1149C9.72847 82.1149 6.31396 78.7004 6.31396 74.5018C6.31396 70.3032 9.72847 66.8897 13.9261 66.8897C18.1227 66.8897 21.5392 70.3032 21.5392 74.5018C21.5392 78.7004 18.1227 82.1149 13.9261 82.1149ZM13.9261 70.9536C11.9698 70.9536 10.3789 72.5465 10.3789 74.5018C10.3789 76.458 11.9698 78.0499 13.9261 78.0499C15.8823 78.0499 17.4732 76.458 17.4732 74.5018C17.4732 72.5465 15.8823 70.9536 13.9261 70.9536ZM43.8567 51.7466C44.427 51.1764 44.7497 50.3943 44.7497 49.5914C44.7497 48.7895 44.427 48.0054 43.8567 47.4263C42.7173 46.2977 40.6848 46.2977 39.5463 47.4362C38.976 48.0054 38.6513 48.7885 38.6513 49.5904C38.6513 50.3943 38.976 51.1764 39.5463 51.7456C40.1165 52.3139 40.8986 52.6406 41.7005 52.6406C42.5044 52.6416 43.2855 52.3149 43.8567 51.7466ZM57.4861 51.7466C58.0434 51.1764 58.3791 50.3943 58.3791 49.5914C58.3791 48.7895 58.0444 48.0054 57.4861 47.4372C56.3466 46.2987 54.3032 46.2987 53.1667 47.4372C52.6064 48.0064 52.2807 48.7895 52.2807 49.5914C52.2807 50.3953 52.6054 51.1774 53.1667 51.7466C53.734 52.3149 54.528 52.6416 55.32 52.6416C56.1248 52.6416 56.9158 52.3149 57.4861 51.7466ZM71.1055 51.7466C71.6738 51.1764 71.9995 50.3943 71.9995 49.5914C71.9995 48.7895 71.6738 47.9955 71.1055 47.4372C69.966 46.2987 67.9236 46.2987 66.796 47.4372C66.2258 47.9955 65.9001 48.7895 65.9001 49.5914C65.9001 50.3953 66.2258 51.1774 66.796 51.7466C67.3534 52.3149 68.1484 52.6416 68.9493 52.6416C69.7542 52.6416 70.5363 52.3149 71.1055 51.7466Z" fill="#7C97A9"/>
</g>
<defs>
<clipPath id="clip0">
<rect width="143.478" height="143.478" fill="white" transform="translate(0.97998 0.0894775) scale(0.69)"/>
</clipPath>
</defs>
</svg>
