<svg width="302" height="212" viewBox="0 0 302 212" fill="none" xmlns="http://www.w3.org/2000/svg">
<path d="M19.4256 62.8037C19.8336 62.8037 20.1509 62.9397 20.3776 63.2117C20.6042 63.461 20.7176 63.801 20.7176 64.2317V85.6857C20.7176 86.1164 20.5929 86.4677 20.3436 86.7397C20.1169 86.989 19.7882 87.1137 19.3576 87.1137C18.9269 87.1137 18.5529 86.921 18.2356 86.5357L4.12557 67.6657V85.6857C4.12557 86.1164 4.0009 86.4677 3.75157 86.7397C3.5249 86.989 3.20757 87.1137 2.79957 87.1137C2.39157 87.1137 2.07424 86.989 1.84757 86.7397C1.6209 86.4677 1.50757 86.1164 1.50757 85.6857V64.2317C1.50757 63.801 1.6209 63.461 1.84757 63.2117C2.0969 62.9397 2.4369 62.8037 2.86757 62.8037C3.3209 62.8037 3.70623 62.9964 4.02357 63.3817L18.0996 82.2517V64.2317C18.0996 63.801 18.2129 63.461 18.4396 63.2117C18.6889 62.9397 19.0176 62.8037 19.4256 62.8037Z" fill="#5B6073"/>
<path d="M39.3243 70.0457C39.755 70.0457 40.0837 70.1704 40.3103 70.4197C40.5597 70.669 40.6843 70.9977 40.6843 71.4057V85.7877C40.6843 86.173 40.5597 86.4904 40.3103 86.7397C40.0837 86.989 39.755 87.1137 39.3243 87.1137C38.9163 87.1137 38.5877 87.0004 38.3383 86.7737C38.1117 86.5244 37.9983 86.207 37.9983 85.8217V84.1217C37.477 85.119 36.7403 85.8784 35.7883 86.3997C34.859 86.921 33.805 87.1817 32.6263 87.1817C30.6543 87.1817 29.1697 86.6377 28.1723 85.5497C27.175 84.439 26.6763 82.807 26.6763 80.6537V71.4057C26.6763 70.9977 26.801 70.669 27.0503 70.4197C27.2997 70.1704 27.6397 70.0457 28.0703 70.0457C28.501 70.0457 28.8297 70.1704 29.0563 70.4197C29.3057 70.669 29.4303 70.9977 29.4303 71.4057V80.5857C29.4303 82.059 29.725 83.147 30.3143 83.8497C30.9037 84.5297 31.833 84.8697 33.1023 84.8697C34.553 84.8697 35.7203 84.405 36.6043 83.4757C37.4883 82.5237 37.9303 81.277 37.9303 79.7357V71.4057C37.9303 70.9977 38.055 70.669 38.3043 70.4197C38.5537 70.1704 38.8937 70.0457 39.3243 70.0457Z" fill="#5B6073"/>
<path d="M54.6429 69.9777C58.6096 69.9777 60.5929 72.165 60.5929 76.5397V85.7537C60.5929 86.1844 60.4683 86.5244 60.2189 86.7737C59.9923 87.0004 59.6636 87.1137 59.2329 87.1137C58.8023 87.1137 58.4623 87.0004 58.2129 86.7737C57.9636 86.5244 57.8389 86.1844 57.8389 85.7537V76.7097C57.8389 75.1684 57.5329 74.0464 56.9209 73.3437C56.3316 72.641 55.3796 72.2897 54.0649 72.2897C52.5463 72.2897 51.3336 72.7544 50.4269 73.6837C49.5203 74.613 49.0669 75.871 49.0669 77.4577V85.7537C49.0669 86.1844 48.9423 86.5244 48.6929 86.7737C48.4663 87.0004 48.1376 87.1137 47.7069 87.1137C47.2763 87.1137 46.9363 87.0004 46.6869 86.7737C46.4376 86.5244 46.3129 86.1844 46.3129 85.7537V71.4057C46.3129 70.9977 46.4376 70.669 46.6869 70.4197C46.9363 70.1704 47.2763 70.0457 47.7069 70.0457C48.1149 70.0457 48.4323 70.1704 48.6589 70.4197C48.9083 70.669 49.0329 70.9864 49.0329 71.3717V73.1057C49.5769 72.0857 50.3363 71.315 51.3109 70.7937C52.2856 70.2497 53.3963 69.9777 54.6429 69.9777Z" fill="#5B6073"/>
<path d="M67.5411 87.1137C67.1331 87.1137 66.7931 87.0004 66.5211 86.7737C66.2718 86.5244 66.1471 86.1844 66.1471 85.7537V71.4057C66.1471 70.975 66.2718 70.6464 66.5211 70.4197C66.7931 70.1704 67.1331 70.0457 67.5411 70.0457C67.9491 70.0457 68.2778 70.1704 68.5271 70.4197C68.7765 70.6464 68.9011 70.975 68.9011 71.4057V85.7537C68.9011 86.207 68.7765 86.547 68.5271 86.7737C68.2778 87.0004 67.9491 87.1137 67.5411 87.1137ZM67.5411 66.4757C66.9971 66.4757 66.5551 66.317 66.2151 65.9997C65.8751 65.6824 65.7051 65.263 65.7051 64.7417C65.7051 64.243 65.8751 63.835 66.2151 63.5177C66.5551 63.2004 66.9971 63.0417 67.5411 63.0417C68.0851 63.0417 68.5271 63.2004 68.8671 63.5177C69.2071 63.835 69.3771 64.243 69.3771 64.7417C69.3771 65.263 69.2071 65.6824 68.8671 65.9997C68.5271 66.317 68.0851 66.4757 67.5411 66.4757Z" fill="#5B6073"/>
<path d="M82.2095 84.9377C83.0028 85.0057 83.3995 85.3684 83.3995 86.0257C83.3995 86.411 83.2522 86.7057 82.9575 86.9097C82.6855 87.091 82.2662 87.159 81.6995 87.1137L80.7815 87.0457C78.9682 86.9097 77.6308 86.3657 76.7695 85.4137C75.9082 84.4617 75.4775 83.0224 75.4775 81.0957V72.5617H73.1995C72.8142 72.5617 72.5082 72.471 72.2815 72.2897C72.0775 72.0857 71.9755 71.825 71.9755 71.5077C71.9755 71.1677 72.0775 70.8957 72.2815 70.6917C72.5082 70.4877 72.8142 70.3857 73.1995 70.3857H75.4775V66.5437C75.4775 66.113 75.6022 65.7844 75.8515 65.5577C76.1008 65.3084 76.4408 65.1837 76.8715 65.1837C77.2795 65.1837 77.6082 65.3084 77.8575 65.5577C78.1068 65.7844 78.2315 66.113 78.2315 66.5437V70.3857H82.0055C82.3682 70.3857 82.6515 70.4877 82.8555 70.6917C83.0822 70.8957 83.1955 71.1677 83.1955 71.5077C83.1955 71.825 83.0822 72.0857 82.8555 72.2897C82.6515 72.471 82.3682 72.5617 82.0055 72.5617H78.2315V81.2317C78.2315 82.4784 78.4808 83.385 78.9795 83.9517C79.5008 84.4957 80.2715 84.8017 81.2915 84.8697L82.2095 84.9377Z" fill="#5B6073"/>
<path d="M93.4922 87.1817C91.9282 87.1817 90.5455 86.8304 89.3442 86.1277C88.1655 85.425 87.2475 84.4277 86.5902 83.1357C85.9555 81.821 85.6382 80.3024 85.6382 78.5797C85.6382 76.857 85.9555 75.3497 86.5902 74.0577C87.2475 72.743 88.1655 71.7344 89.3442 71.0317C90.5455 70.329 91.9282 69.9777 93.4922 69.9777C95.0562 69.9777 96.4388 70.329 97.6402 71.0317C98.8415 71.7344 99.7595 72.743 100.394 74.0577C101.052 75.3497 101.38 76.857 101.38 78.5797C101.38 80.3024 101.052 81.821 100.394 83.1357C99.7595 84.4277 98.8415 85.425 97.6402 86.1277C96.4388 86.8304 95.0562 87.1817 93.4922 87.1817ZM93.4922 84.9037C95.1242 84.9037 96.3708 84.371 97.2322 83.3057C98.1162 82.2177 98.5582 80.6424 98.5582 78.5797C98.5582 76.5624 98.1162 75.0097 97.2322 73.9217C96.3482 72.811 95.1015 72.2557 93.4922 72.2557C91.8828 72.2557 90.6362 72.811 89.7522 73.9217C88.8682 75.0097 88.4262 76.5624 88.4262 78.5797C88.4262 80.6197 88.8568 82.1837 89.7182 83.2717C90.6022 84.3597 91.8602 84.9037 93.4922 84.9037Z" fill="#5B6073"/>
<path d="M116.663 87.1137C116.255 87.1137 115.915 87.0004 115.643 86.7737C115.394 86.5244 115.269 86.1844 115.269 85.7537V71.4057C115.269 70.975 115.394 70.6464 115.643 70.4197C115.915 70.1704 116.255 70.0457 116.663 70.0457C117.071 70.0457 117.4 70.1704 117.649 70.4197C117.899 70.6464 118.023 70.975 118.023 71.4057V85.7537C118.023 86.207 117.899 86.547 117.649 86.7737C117.4 87.0004 117.071 87.1137 116.663 87.1137ZM116.663 66.4757C116.119 66.4757 115.677 66.317 115.337 65.9997C114.997 65.6824 114.827 65.263 114.827 64.7417C114.827 64.243 114.997 63.835 115.337 63.5177C115.677 63.2004 116.119 63.0417 116.663 63.0417C117.207 63.0417 117.649 63.2004 117.989 63.5177C118.329 63.835 118.499 64.243 118.499 64.7417C118.499 65.263 118.329 65.6824 117.989 65.9997C117.649 66.317 117.207 66.4757 116.663 66.4757Z" fill="#5B6073"/>
<path d="M132.012 69.9777C135.978 69.9777 137.962 72.165 137.962 76.5397V85.7537C137.962 86.1844 137.837 86.5244 137.588 86.7737C137.361 87.0004 137.032 87.1137 136.602 87.1137C136.171 87.1137 135.831 87.0004 135.582 86.7737C135.332 86.5244 135.208 86.1844 135.208 85.7537V76.7097C135.208 75.1684 134.902 74.0464 134.29 73.3437C133.7 72.641 132.748 72.2897 131.434 72.2897C129.915 72.2897 128.702 72.7544 127.796 73.6837C126.889 74.613 126.436 75.871 126.436 77.4577V85.7537C126.436 86.1844 126.311 86.5244 126.062 86.7737C125.835 87.0004 125.506 87.1137 125.076 87.1137C124.645 87.1137 124.305 87.0004 124.056 86.7737C123.806 86.5244 123.682 86.1844 123.682 85.7537V71.4057C123.682 70.9977 123.806 70.669 124.056 70.4197C124.305 70.1704 124.645 70.0457 125.076 70.0457C125.484 70.0457 125.801 70.1704 126.028 70.4197C126.277 70.669 126.402 70.9864 126.402 71.3717V73.1057C126.946 72.0857 127.705 71.315 128.68 70.7937C129.654 70.2497 130.765 69.9777 132.012 69.9777Z" fill="#5B6073"/>
<path d="M171.491 85.2097C171.65 85.459 171.729 85.7197 171.729 85.9917C171.729 86.3317 171.593 86.615 171.321 86.8417C171.072 87.0457 170.777 87.1477 170.437 87.1477C169.916 87.1477 169.508 86.921 169.213 86.4677L164.657 79.2597C164.068 78.3304 163.456 77.6957 162.821 77.3557C162.187 76.993 161.325 76.8117 160.237 76.8117H155.953V85.6857C155.953 86.1164 155.829 86.4677 155.579 86.7397C155.33 86.989 155.001 87.1137 154.593 87.1137C154.163 87.1137 153.823 86.989 153.573 86.7397C153.324 86.4677 153.199 86.1164 153.199 85.6857V64.3337C153.199 63.9257 153.324 63.597 153.573 63.3477C153.845 63.0984 154.197 62.9737 154.627 62.9737H163.059C165.666 62.9737 167.649 63.5517 169.009 64.7077C170.392 65.8637 171.083 67.5637 171.083 69.8077C171.083 71.7117 170.528 73.2417 169.417 74.3977C168.329 75.5537 166.765 76.2564 164.725 76.5057C165.292 76.687 165.802 76.9817 166.255 77.3897C166.709 77.7977 167.162 78.3644 167.615 79.0897L171.491 85.2097ZM162.821 74.4997C164.68 74.4997 166.063 74.1144 166.969 73.3437C167.899 72.573 168.363 71.4057 168.363 69.8417C168.363 68.3004 167.91 67.1557 167.003 66.4077C166.097 65.6597 164.703 65.2857 162.821 65.2857H155.953V74.4997H162.821Z" fill="#5B6073"/>
<path d="M189.428 83.1017C189.677 83.1017 189.893 83.2037 190.074 83.4077C190.255 83.6117 190.346 83.8724 190.346 84.1897C190.346 84.7564 189.949 85.2777 189.156 85.7537C188.34 86.2297 187.479 86.5924 186.572 86.8417C185.665 87.0684 184.781 87.1817 183.92 87.1817C181.359 87.1817 179.33 86.4224 177.834 84.9037C176.361 83.385 175.624 81.2884 175.624 78.6137C175.624 76.9137 175.953 75.4177 176.61 74.1257C177.267 72.811 178.185 71.791 179.364 71.0657C180.565 70.3404 181.925 69.9777 183.444 69.9777C185.597 69.9777 187.309 70.6804 188.578 72.0857C189.847 73.491 190.482 75.395 190.482 77.7977C190.482 78.251 190.391 78.5797 190.21 78.7837C190.029 78.9877 189.734 79.0897 189.326 79.0897H178.378C178.582 82.9884 180.429 84.9377 183.92 84.9377C184.804 84.9377 185.563 84.8244 186.198 84.5977C186.833 84.3484 187.513 84.0197 188.238 83.6117C188.827 83.2717 189.224 83.1017 189.428 83.1017ZM183.478 72.1197C182.027 72.1197 180.86 72.573 179.976 73.4797C179.115 74.3864 178.605 75.667 178.446 77.3217H188.068C188.023 75.6444 187.603 74.3637 186.81 73.4797C186.017 72.573 184.906 72.1197 183.478 72.1197Z" fill="#5B6073"/>
<path d="M208.48 70.0457C208.91 70.0457 209.25 70.1704 209.5 70.4197C209.749 70.669 209.874 70.9977 209.874 71.4057V85.8217C209.874 88.2924 209.239 90.151 207.97 91.3977C206.7 92.667 204.819 93.3017 202.326 93.3017C199.9 93.3017 197.883 92.8257 196.274 91.8737C195.458 91.4204 195.05 90.899 195.05 90.3097C195.05 89.9924 195.129 89.7317 195.288 89.5277C195.469 89.3237 195.696 89.2217 195.968 89.2217C196.194 89.2217 196.602 89.3804 197.192 89.6977C197.985 90.1057 198.767 90.4344 199.538 90.6837C200.308 90.933 201.226 91.0577 202.292 91.0577C203.901 91.0577 205.114 90.627 205.93 89.7657C206.746 88.927 207.154 87.6917 207.154 86.0597V83.1357C206.678 84.201 205.941 85.017 204.944 85.5837C203.969 86.1504 202.813 86.4337 201.476 86.4337C200.025 86.4337 198.733 86.0937 197.6 85.4137C196.489 84.7337 195.616 83.7704 194.982 82.5237C194.37 81.277 194.064 79.8377 194.064 78.2057C194.064 76.5737 194.37 75.1344 194.982 73.8877C195.616 72.641 196.489 71.6777 197.6 70.9977C198.733 70.3177 200.025 69.9777 201.476 69.9777C202.79 69.9777 203.935 70.261 204.91 70.8277C205.884 71.3944 206.621 72.199 207.12 73.2417V71.4057C207.12 70.9977 207.233 70.669 207.46 70.4197C207.709 70.1704 208.049 70.0457 208.48 70.0457ZM202.02 84.1557C203.606 84.1557 204.853 83.6344 205.76 82.5917C206.666 81.5264 207.12 80.0644 207.12 78.2057C207.12 76.3697 206.666 74.9304 205.76 73.8877C204.876 72.8224 203.629 72.2897 202.02 72.2897C200.41 72.2897 199.141 72.8224 198.212 73.8877C197.305 74.9304 196.852 76.3697 196.852 78.2057C196.852 80.0644 197.305 81.5264 198.212 82.5917C199.141 83.6344 200.41 84.1557 202.02 84.1557Z" fill="#5B6073"/>
<path d="M228.062 70.0457C228.492 70.0457 228.821 70.1704 229.048 70.4197C229.297 70.669 229.422 70.9977 229.422 71.4057V85.7877C229.422 86.173 229.297 86.4904 229.048 86.7397C228.821 86.989 228.492 87.1137 228.062 87.1137C227.654 87.1137 227.325 87.0004 227.076 86.7737C226.849 86.5244 226.736 86.207 226.736 85.8217V84.1217C226.214 85.119 225.478 85.8784 224.526 86.3997C223.596 86.921 222.542 87.1817 221.364 87.1817C219.392 87.1817 217.907 86.6377 216.91 85.5497C215.912 84.439 215.414 82.807 215.414 80.6537V71.4057C215.414 70.9977 215.538 70.669 215.788 70.4197C216.037 70.1704 216.377 70.0457 216.808 70.0457C217.238 70.0457 217.567 70.1704 217.794 70.4197C218.043 70.669 218.168 70.9977 218.168 71.4057V80.5857C218.168 82.059 218.462 83.147 219.052 83.8497C219.641 84.5297 220.57 84.8697 221.84 84.8697C223.29 84.8697 224.458 84.405 225.342 83.4757C226.226 82.5237 226.668 81.277 226.668 79.7357V71.4057C226.668 70.9977 226.792 70.669 227.042 70.4197C227.291 70.1704 227.631 70.0457 228.062 70.0457Z" fill="#5B6073"/>
<path d="M236.444 87.1137C236.036 87.1137 235.696 87.0004 235.424 86.7737C235.175 86.5244 235.05 86.1844 235.05 85.7537V64.1637C235.05 63.733 235.175 63.4044 235.424 63.1777C235.696 62.9284 236.036 62.8037 236.444 62.8037C236.829 62.8037 237.147 62.9284 237.396 63.1777C237.668 63.4044 237.804 63.733 237.804 64.1637V85.7537C237.804 86.1844 237.668 86.5244 237.396 86.7737C237.147 87.0004 236.829 87.1137 236.444 87.1137Z" fill="#5B6073"/>
<path d="M250.228 69.9777C254.376 69.9777 256.45 72.1537 256.45 76.5057V85.7537C256.45 86.1617 256.326 86.4904 256.076 86.7397C255.85 86.989 255.532 87.1137 255.124 87.1137C254.716 87.1137 254.388 86.989 254.138 86.7397C253.889 86.4904 253.764 86.1617 253.764 85.7537V84.1217C253.334 85.0964 252.676 85.8557 251.792 86.3997C250.908 86.921 249.888 87.1817 248.732 87.1817C247.667 87.1817 246.681 86.9664 245.774 86.5357C244.89 86.105 244.188 85.5044 243.666 84.7337C243.145 83.963 242.884 83.113 242.884 82.1837C242.884 80.937 243.202 79.9737 243.836 79.2937C244.471 78.591 245.514 78.0924 246.964 77.7977C248.415 77.4804 250.432 77.3217 253.016 77.3217H253.764V76.1997C253.764 74.8397 253.481 73.8424 252.914 73.2077C252.37 72.573 251.475 72.2557 250.228 72.2557C248.687 72.2557 247.123 72.675 245.536 73.5137C244.924 73.899 244.494 74.0917 244.244 74.0917C243.972 74.0917 243.746 73.9897 243.564 73.7857C243.383 73.5817 243.292 73.321 243.292 73.0037C243.292 72.6864 243.383 72.4144 243.564 72.1877C243.768 71.9384 244.086 71.689 244.516 71.4397C245.31 70.9864 246.205 70.635 247.202 70.3857C248.222 70.1137 249.231 69.9777 250.228 69.9777ZM249.106 85.0057C250.466 85.0057 251.577 84.5524 252.438 83.6457C253.322 82.7164 253.764 81.5264 253.764 80.0757V79.0897H253.152C251.158 79.0897 249.639 79.1804 248.596 79.3617C247.554 79.5204 246.806 79.8037 246.352 80.2117C245.922 80.597 245.706 81.175 245.706 81.9457C245.706 82.8297 246.024 83.5664 246.658 84.1557C247.316 84.7224 248.132 85.0057 249.106 85.0057Z" fill="#5B6073"/>
<path d="M270.196 70.0457C271.148 69.9777 271.624 70.363 271.624 71.2017C271.624 71.5644 271.522 71.859 271.318 72.0857C271.114 72.2897 270.762 72.4144 270.264 72.4597L269.244 72.5617C267.725 72.6977 266.592 73.2417 265.844 74.1937C265.118 75.123 264.756 76.2224 264.756 77.4917V85.7537C264.756 86.207 264.631 86.547 264.382 86.7737C264.132 87.0004 263.804 87.1137 263.396 87.1137C262.988 87.1137 262.648 87.0004 262.376 86.7737C262.126 86.5244 262.002 86.1844 262.002 85.7537V71.4057C262.002 70.975 262.138 70.6464 262.41 70.4197C262.682 70.1704 263.01 70.0457 263.396 70.0457C263.758 70.0457 264.064 70.1704 264.314 70.4197C264.563 70.6464 264.688 70.9637 264.688 71.3717V73.2757C265.164 72.2784 265.832 71.519 266.694 70.9977C267.578 70.4764 268.586 70.1704 269.72 70.0797L270.196 70.0457Z" fill="#5B6073"/>
<path d="M19.3576 125.19C19.8563 125.19 20.253 125.36 20.5476 125.7C20.865 126.017 21.0236 126.437 21.0236 126.958V147.732C21.0236 148.253 20.865 148.684 20.5476 149.024C20.2303 149.341 19.8223 149.5 19.3236 149.5C18.7343 149.5 18.281 149.273 17.9636 148.82L4.63565 131.242V147.732C4.63565 148.253 4.47698 148.684 4.15965 149.024C3.86498 149.341 3.46831 149.5 2.96965 149.5C2.47098 149.5 2.07431 149.341 1.77965 149.024C1.48498 148.707 1.33765 148.276 1.33765 147.732V126.958C1.33765 126.437 1.49631 126.017 1.81365 125.7C2.13098 125.36 2.53898 125.19 3.03765 125.19C3.62698 125.19 4.08031 125.417 4.39765 125.87L17.7256 143.482V126.958C17.7256 126.437 17.873 126.017 18.1676 125.7C18.4623 125.36 18.859 125.19 19.3576 125.19Z" fill="#5B6073"/>
<path d="M39.5592 132.398C40.0806 132.398 40.4886 132.545 40.7832 132.84C41.1006 133.135 41.2592 133.543 41.2592 134.064V147.902C41.2592 148.378 41.1006 148.763 40.7832 149.058C40.4659 149.353 40.0466 149.5 39.5252 149.5C39.0492 149.5 38.6639 149.364 38.3692 149.092C38.0746 148.797 37.9272 148.412 37.9272 147.936V146.644C37.4059 147.596 36.6806 148.321 35.7512 148.82C34.8446 149.319 33.8246 149.568 32.6912 149.568C28.6566 149.568 26.6392 147.347 26.6392 142.904V134.064C26.6392 133.543 26.7866 133.135 27.0812 132.84C27.3986 132.545 27.8292 132.398 28.3732 132.398C28.8946 132.398 29.3026 132.545 29.5972 132.84C29.9146 133.135 30.0732 133.543 30.0732 134.064V142.87C30.0732 144.207 30.3452 145.193 30.8892 145.828C31.4332 146.463 32.2719 146.78 33.4052 146.78C34.7426 146.78 35.8079 146.349 36.6012 145.488C37.4172 144.627 37.8252 143.482 37.8252 142.054V134.064C37.8252 133.565 37.9839 133.169 38.3012 132.874C38.6186 132.557 39.0379 132.398 39.5592 132.398Z" fill="#5B6073"/>
<path d="M55.5166 132.33C59.4833 132.33 61.4666 134.563 61.4666 139.028V147.868C61.4666 148.389 61.308 148.797 60.9906 149.092C60.696 149.364 60.2767 149.5 59.7327 149.5C59.2113 149.5 58.792 149.353 58.4746 149.058C58.18 148.763 58.0326 148.367 58.0326 147.868V139.198C58.0326 137.793 57.7493 136.761 57.1826 136.104C56.6386 135.447 55.7773 135.118 54.5986 135.118C53.216 135.118 52.1053 135.549 51.2666 136.41C50.428 137.271 50.0086 138.427 50.0086 139.878V147.868C50.0086 148.367 49.85 148.763 49.5326 149.058C49.238 149.353 48.83 149.5 48.3086 149.5C47.7873 149.5 47.368 149.353 47.0506 149.058C46.7333 148.763 46.5746 148.367 46.5746 147.868V134.03C46.5746 133.554 46.7333 133.169 47.0506 132.874C47.3906 132.557 47.81 132.398 48.3086 132.398C48.8073 132.398 49.204 132.545 49.4986 132.84C49.7933 133.135 49.9407 133.52 49.9407 133.996V135.39C50.4847 134.393 51.244 133.633 52.2187 133.112C53.1933 132.591 54.2926 132.33 55.5166 132.33Z" fill="#5B6073"/>
<path d="M68.4085 149.5C67.9098 149.5 67.4905 149.364 67.1505 149.092C66.8332 148.82 66.6745 148.412 66.6745 147.868V134.064C66.6745 133.52 66.8332 133.112 67.1505 132.84C67.4905 132.545 67.9098 132.398 68.4085 132.398C68.9072 132.398 69.3152 132.545 69.6325 132.84C69.9498 133.112 70.1085 133.52 70.1085 134.064V147.868C70.1085 148.412 69.9498 148.82 69.6325 149.092C69.3152 149.364 68.9072 149.5 68.4085 149.5ZM68.4085 129.066C67.7512 129.066 67.2298 128.885 66.8445 128.522C66.4592 128.159 66.2665 127.683 66.2665 127.094C66.2665 126.505 66.4592 126.04 66.8445 125.7C67.2298 125.337 67.7512 125.156 68.4085 125.156C69.0432 125.156 69.5532 125.337 69.9385 125.7C70.3465 126.04 70.5505 126.505 70.5505 127.094C70.5505 127.683 70.3578 128.159 69.9725 128.522C69.5872 128.885 69.0658 129.066 68.4085 129.066Z" fill="#5B6073"/>
<path d="M83.5449 146.882C84.0435 146.927 84.3949 147.063 84.5989 147.29C84.8255 147.494 84.9389 147.789 84.9389 148.174C84.9389 148.627 84.7575 148.979 84.3949 149.228C84.0549 149.455 83.5449 149.545 82.8649 149.5L81.9469 149.432C80.1109 149.296 78.7395 148.741 77.8329 147.766C76.9262 146.769 76.4729 145.307 76.4729 143.38V135.39H74.4329C73.4355 135.39 72.9369 134.948 72.9369 134.064C72.9369 133.656 73.0615 133.339 73.3109 133.112C73.5829 132.863 73.9569 132.738 74.4329 132.738H76.4729V129.236C76.4729 128.715 76.6202 128.307 76.9149 128.012C77.2322 127.717 77.6515 127.57 78.1729 127.57C78.6942 127.57 79.1135 127.717 79.4309 128.012C79.7482 128.307 79.9069 128.715 79.9069 129.236V132.738H83.2729C83.7489 132.738 84.1115 132.863 84.3609 133.112C84.6329 133.339 84.7689 133.656 84.7689 134.064C84.7689 134.495 84.6329 134.823 84.3609 135.05C84.1115 135.277 83.7489 135.39 83.2729 135.39H79.9069V143.618C79.9069 144.683 80.1222 145.465 80.5529 145.964C81.0062 146.463 81.6862 146.746 82.5929 146.814L83.5449 146.882Z" fill="#5B6073"/>
<path d="M95.1232 149.568C93.4912 149.568 92.0519 149.217 90.8052 148.514C89.5812 147.811 88.6292 146.814 87.9492 145.522C87.2919 144.207 86.9632 142.689 86.9632 140.966C86.9632 139.221 87.2919 137.702 87.9492 136.41C88.6292 135.095 89.5812 134.087 90.8052 133.384C92.0519 132.681 93.4912 132.33 95.1232 132.33C96.7552 132.33 98.1832 132.681 99.4072 133.384C100.654 134.087 101.606 135.095 102.263 136.41C102.943 137.702 103.283 139.221 103.283 140.966C103.283 142.689 102.943 144.207 102.263 145.522C101.606 146.814 100.654 147.811 99.4072 148.514C98.1832 149.217 96.7552 149.568 95.1232 149.568ZM95.1232 146.848C96.6419 146.848 97.7979 146.349 98.5912 145.352C99.4072 144.355 99.8152 142.893 99.8152 140.966C99.8152 139.062 99.4072 137.611 98.5912 136.614C97.7752 135.594 96.6192 135.084 95.1232 135.084C93.6272 135.084 92.4712 135.594 91.6552 136.614C90.8392 137.611 90.4312 139.062 90.4312 140.966C90.4312 142.893 90.8279 144.355 91.6212 145.352C92.4372 146.349 93.6045 146.848 95.1232 146.848Z" fill="#5B6073"/>
<path d="M118.825 149.5C118.327 149.5 117.907 149.364 117.567 149.092C117.25 148.82 117.091 148.412 117.091 147.868V134.064C117.091 133.52 117.25 133.112 117.567 132.84C117.907 132.545 118.327 132.398 118.825 132.398C119.324 132.398 119.732 132.545 120.049 132.84C120.367 133.112 120.525 133.52 120.525 134.064V147.868C120.525 148.412 120.367 148.82 120.049 149.092C119.732 149.364 119.324 149.5 118.825 149.5ZM118.825 129.066C118.168 129.066 117.647 128.885 117.261 128.522C116.876 128.159 116.683 127.683 116.683 127.094C116.683 126.505 116.876 126.04 117.261 125.7C117.647 125.337 118.168 125.156 118.825 125.156C119.46 125.156 119.97 125.337 120.355 125.7C120.763 126.04 120.967 126.505 120.967 127.094C120.967 127.683 120.775 128.159 120.389 128.522C120.004 128.885 119.483 129.066 118.825 129.066Z" fill="#5B6073"/>
<path d="M134.778 132.33C138.744 132.33 140.728 134.563 140.728 139.028V147.868C140.728 148.389 140.569 148.797 140.252 149.092C139.957 149.364 139.538 149.5 138.994 149.5C138.472 149.5 138.053 149.353 137.736 149.058C137.441 148.763 137.294 148.367 137.294 147.868V139.198C137.294 137.793 137.01 136.761 136.444 136.104C135.9 135.447 135.038 135.118 133.86 135.118C132.477 135.118 131.366 135.549 130.528 136.41C129.689 137.271 129.27 138.427 129.27 139.878V147.868C129.27 148.367 129.111 148.763 128.794 149.058C128.499 149.353 128.091 149.5 127.57 149.5C127.048 149.5 126.629 149.353 126.312 149.058C125.994 148.763 125.836 148.367 125.836 147.868V134.03C125.836 133.554 125.994 133.169 126.312 132.874C126.652 132.557 127.071 132.398 127.57 132.398C128.068 132.398 128.465 132.545 128.76 132.84C129.054 133.135 129.202 133.52 129.202 133.996V135.39C129.746 134.393 130.505 133.633 131.48 133.112C132.454 132.591 133.554 132.33 134.778 132.33Z" fill="#5B6073"/>
<path d="M163.741 149.602C162.018 149.602 160.375 149.364 158.811 148.888C157.269 148.412 156.034 147.755 155.105 146.916C154.674 146.553 154.459 146.089 154.459 145.522C154.459 145.114 154.572 144.774 154.799 144.502C155.025 144.207 155.297 144.06 155.615 144.06C155.932 144.06 156.317 144.207 156.771 144.502C158.788 145.998 161.089 146.746 163.673 146.746C165.486 146.746 166.88 146.406 167.855 145.726C168.829 145.046 169.317 144.071 169.317 142.802C169.317 141.805 168.863 141.057 167.957 140.558C167.05 140.059 165.599 139.583 163.605 139.13C161.701 138.722 160.137 138.257 158.913 137.736C157.689 137.215 156.725 136.512 156.023 135.628C155.343 134.721 155.003 133.577 155.003 132.194C155.003 130.811 155.377 129.587 156.125 128.522C156.895 127.434 157.961 126.595 159.321 126.006C160.681 125.394 162.233 125.088 163.979 125.088C165.588 125.088 167.073 125.315 168.433 125.768C169.793 126.221 170.949 126.89 171.901 127.774C172.354 128.159 172.581 128.624 172.581 129.168C172.581 129.553 172.456 129.893 172.207 130.188C171.98 130.483 171.708 130.63 171.391 130.63C171.096 130.63 170.722 130.483 170.269 130.188C169.226 129.395 168.24 128.828 167.311 128.488C166.404 128.125 165.305 127.944 164.013 127.944C162.267 127.944 160.907 128.307 159.933 129.032C158.958 129.735 158.471 130.721 158.471 131.99C158.471 133.078 158.901 133.905 159.763 134.472C160.624 135.016 162.007 135.515 163.911 135.968C165.905 136.421 167.515 136.897 168.739 137.396C169.985 137.872 170.971 138.541 171.697 139.402C172.445 140.241 172.819 141.329 172.819 142.666C172.819 144.026 172.433 145.239 171.663 146.304C170.915 147.347 169.849 148.163 168.467 148.752C167.107 149.319 165.531 149.602 163.741 149.602Z" fill="#5B6073"/>
<path d="M190.225 145.148C190.542 145.148 190.803 145.273 191.007 145.522C191.211 145.771 191.313 146.089 191.313 146.474C191.313 147.131 190.905 147.687 190.089 148.14C189.296 148.593 188.423 148.945 187.471 149.194C186.542 149.443 185.646 149.568 184.785 149.568C182.156 149.568 180.082 148.809 178.563 147.29C177.044 145.749 176.285 143.652 176.285 141C176.285 139.3 176.614 137.793 177.271 136.478C177.951 135.163 178.892 134.143 180.093 133.418C181.317 132.693 182.7 132.33 184.241 132.33C186.462 132.33 188.219 133.044 189.511 134.472C190.803 135.9 191.449 137.827 191.449 140.252C191.449 141.159 191.041 141.612 190.225 141.612H179.719C179.946 145.125 181.634 146.882 184.785 146.882C185.624 146.882 186.349 146.769 186.961 146.542C187.573 146.315 188.219 146.021 188.899 145.658C188.967 145.613 189.148 145.522 189.443 145.386C189.76 145.227 190.021 145.148 190.225 145.148ZM184.309 134.846C182.994 134.846 181.94 135.265 181.147 136.104C180.354 136.943 179.878 138.121 179.719 139.64H188.491C188.423 138.099 188.026 136.92 187.301 136.104C186.598 135.265 185.601 134.846 184.309 134.846Z" fill="#5B6073"/>
<path d="M214.783 132.33C218.5 132.33 220.359 134.563 220.359 139.028V147.868C220.359 148.389 220.2 148.797 219.883 149.092C219.566 149.364 219.146 149.5 218.625 149.5C218.126 149.5 217.718 149.364 217.401 149.092C217.084 148.797 216.925 148.389 216.925 147.868V139.062C216.925 137.679 216.676 136.682 216.177 136.07C215.678 135.435 214.896 135.118 213.831 135.118C212.584 135.118 211.598 135.549 210.873 136.41C210.148 137.249 209.785 138.405 209.785 139.878V147.868C209.785 148.389 209.626 148.797 209.309 149.092C208.992 149.364 208.572 149.5 208.051 149.5C207.552 149.5 207.144 149.364 206.827 149.092C206.51 148.797 206.351 148.389 206.351 147.868V139.062C206.351 137.679 206.102 136.682 205.603 136.07C205.104 135.435 204.322 135.118 203.257 135.118C202.01 135.118 201.013 135.549 200.265 136.41C199.54 137.249 199.177 138.405 199.177 139.878V147.868C199.177 148.389 199.018 148.797 198.701 149.092C198.384 149.364 197.976 149.5 197.477 149.5C196.978 149.5 196.559 149.364 196.219 149.092C195.902 148.797 195.743 148.389 195.743 147.868V134.03C195.743 133.531 195.913 133.135 196.253 132.84C196.593 132.545 197.001 132.398 197.477 132.398C197.953 132.398 198.338 132.545 198.633 132.84C198.95 133.112 199.109 133.497 199.109 133.996V135.254C199.608 134.302 200.299 133.577 201.183 133.078C202.067 132.579 203.087 132.33 204.243 132.33C205.512 132.33 206.555 132.591 207.371 133.112C208.21 133.633 208.833 134.438 209.241 135.526C209.74 134.551 210.476 133.781 211.451 133.214C212.426 132.625 213.536 132.33 214.783 132.33Z" fill="#5B6073"/>
<path d="M227.305 149.5C226.807 149.5 226.387 149.364 226.047 149.092C225.73 148.82 225.571 148.412 225.571 147.868V134.064C225.571 133.52 225.73 133.112 226.047 132.84C226.387 132.545 226.807 132.398 227.305 132.398C227.804 132.398 228.212 132.545 228.529 132.84C228.847 133.112 229.005 133.52 229.005 134.064V147.868C229.005 148.412 228.847 148.82 228.529 149.092C228.212 149.364 227.804 149.5 227.305 149.5ZM227.305 129.066C226.648 129.066 226.127 128.885 225.741 128.522C225.356 128.159 225.163 127.683 225.163 127.094C225.163 126.505 225.356 126.04 225.741 125.7C226.127 125.337 226.648 125.156 227.305 125.156C227.94 125.156 228.45 125.337 228.835 125.7C229.243 126.04 229.447 126.505 229.447 127.094C229.447 127.683 229.255 128.159 228.869 128.522C228.484 128.885 227.963 129.066 227.305 129.066Z" fill="#5B6073"/>
<path d="M248.834 136.988C250.216 137.373 251.282 138.065 252.03 139.062C252.8 140.059 253.186 141.306 253.186 142.802C253.186 144.865 252.472 146.474 251.044 147.63C249.638 148.763 247.666 149.33 245.128 149.33H236.458C235.914 149.33 235.483 149.183 235.166 148.888C234.871 148.571 234.724 148.151 234.724 147.63V127.06C234.724 126.539 234.871 126.131 235.166 125.836C235.483 125.519 235.914 125.36 236.458 125.36H244.754C247.224 125.36 249.151 125.915 250.534 127.026C251.939 128.114 252.642 129.644 252.642 131.616C252.642 132.885 252.302 133.985 251.622 134.914C250.964 135.843 250.035 136.535 248.834 136.988ZM238.158 135.73H244.21C247.564 135.73 249.242 134.461 249.242 131.922C249.242 130.653 248.822 129.712 247.984 129.1C247.168 128.488 245.91 128.182 244.21 128.182H238.158V135.73ZM244.754 146.508C246.499 146.508 247.78 146.191 248.596 145.556C249.412 144.921 249.82 143.935 249.82 142.598C249.82 141.238 249.4 140.229 248.562 139.572C247.746 138.892 246.476 138.552 244.754 138.552H238.158V146.508H244.754Z" fill="#5B6073"/>
<path d="M265.077 149.568C263.445 149.568 262.005 149.217 260.759 148.514C259.535 147.811 258.583 146.814 257.903 145.522C257.245 144.207 256.917 142.689 256.917 140.966C256.917 139.221 257.245 137.702 257.903 136.41C258.583 135.095 259.535 134.087 260.759 133.384C262.005 132.681 263.445 132.33 265.077 132.33C266.709 132.33 268.137 132.681 269.361 133.384C270.607 134.087 271.559 135.095 272.217 136.41C272.897 137.702 273.237 139.221 273.237 140.966C273.237 142.689 272.897 144.207 272.217 145.522C271.559 146.814 270.607 147.811 269.361 148.514C268.137 149.217 266.709 149.568 265.077 149.568ZM265.077 146.848C266.595 146.848 267.751 146.349 268.545 145.352C269.361 144.355 269.769 142.893 269.769 140.966C269.769 139.062 269.361 137.611 268.545 136.614C267.729 135.594 266.573 135.084 265.077 135.084C263.581 135.084 262.425 135.594 261.609 136.614C260.793 137.611 260.385 139.062 260.385 140.966C260.385 142.893 260.781 144.355 261.575 145.352C262.391 146.349 263.558 146.848 265.077 146.848Z" fill="#5B6073"/>
<path d="M279.304 149.5C278.805 149.5 278.386 149.364 278.046 149.092C277.729 148.82 277.57 148.412 277.57 147.868V126.856C277.57 126.312 277.729 125.904 278.046 125.632C278.386 125.337 278.805 125.19 279.304 125.19C279.803 125.19 280.211 125.337 280.528 125.632C280.845 125.904 281.004 126.312 281.004 126.856V147.868C281.004 148.412 280.845 148.82 280.528 149.092C280.211 149.364 279.803 149.5 279.304 149.5Z" fill="#5B6073"/>
<path d="M299.881 125.19C300.402 125.19 300.821 125.337 301.139 125.632C301.456 125.927 301.615 126.323 301.615 126.822V147.834C301.615 148.355 301.456 148.763 301.139 149.058C300.844 149.353 300.436 149.5 299.915 149.5C299.393 149.5 298.974 149.353 298.657 149.058C298.362 148.763 298.215 148.355 298.215 147.834V146.474C297.716 147.471 296.991 148.242 296.039 148.786C295.087 149.307 293.987 149.568 292.741 149.568C291.313 149.568 290.032 149.205 288.898 148.48C287.788 147.755 286.915 146.735 286.281 145.42C285.669 144.105 285.363 142.598 285.363 140.898C285.363 139.175 285.669 137.668 286.281 136.376C286.915 135.084 287.788 134.087 288.898 133.384C290.009 132.681 291.29 132.33 292.741 132.33C293.987 132.33 295.075 132.602 296.005 133.146C296.957 133.667 297.682 134.415 298.181 135.39V126.754C298.181 126.278 298.328 125.904 298.622 125.632C298.94 125.337 299.359 125.19 299.881 125.19ZM293.557 146.848C295.03 146.848 296.175 146.338 296.991 145.318C297.807 144.298 298.215 142.847 298.215 140.966C298.215 139.085 297.807 137.634 296.991 136.614C296.197 135.594 295.053 135.084 293.557 135.084C292.061 135.084 290.893 135.594 290.055 136.614C289.239 137.611 288.831 139.039 288.831 140.898C288.831 142.757 289.25 144.219 290.089 145.284C290.927 146.327 292.083 146.848 293.557 146.848Z" fill="#5B6073"/>
<path d="M19.2895 187.577C19.9242 187.577 20.4229 187.781 20.7855 188.189C21.1709 188.574 21.3635 189.096 21.3635 189.753V209.711C21.3635 210.368 21.1709 210.901 20.7855 211.309C20.4002 211.717 19.9015 211.921 19.2895 211.921C18.5642 211.921 18.0089 211.66 17.6235 211.139L5.21355 194.989V209.711C5.21355 210.368 5.03221 210.901 4.66955 211.309C4.30688 211.717 3.80821 211.921 3.17354 211.921C2.53888 211.921 2.04021 211.717 1.67755 211.309C1.31488 210.901 1.13354 210.368 1.13354 209.711V189.753C1.13354 189.096 1.32621 188.574 1.71154 188.189C2.09688 187.781 2.60688 187.577 3.24155 187.577C3.94421 187.577 4.48821 187.838 4.87355 188.359L17.2495 204.441V189.753C17.2495 189.096 17.4309 188.574 17.7935 188.189C18.1789 187.781 18.6775 187.577 19.2895 187.577Z" fill="#5B6073"/>
<path d="M39.7939 194.751C40.4513 194.751 40.9726 194.932 41.3579 195.295C41.7433 195.658 41.9359 196.145 41.9359 196.757V209.949C41.9359 210.538 41.7319 211.014 41.3239 211.377C40.9386 211.74 40.4286 211.921 39.7939 211.921C39.1819 211.921 38.6946 211.751 38.3319 211.411C37.9693 211.071 37.7879 210.606 37.7879 210.017V209.167C37.2666 210.074 36.5639 210.776 35.6799 211.275C34.7959 211.751 33.7986 211.989 32.6879 211.989C28.6079 211.989 26.5679 209.7 26.5679 205.121V196.757C26.5679 196.145 26.7606 195.658 27.1459 195.295C27.5313 194.932 28.0413 194.751 28.6759 194.751C29.3333 194.751 29.8546 194.932 30.2399 195.295C30.6253 195.658 30.8179 196.145 30.8179 196.757V205.155C30.8179 206.334 31.0559 207.206 31.5319 207.773C32.0079 208.34 32.7559 208.623 33.7759 208.623C34.9546 208.623 35.8953 208.238 36.5979 207.467C37.3233 206.674 37.6859 205.631 37.6859 204.339V196.757C37.6859 196.145 37.8786 195.658 38.2639 195.295C38.6493 194.932 39.1593 194.751 39.7939 194.751Z" fill="#5B6073"/>
<path d="M56.5254 194.683C58.5201 194.683 60.0047 195.25 60.9794 196.383C61.9541 197.516 62.4414 199.228 62.4414 201.517V209.881C62.4414 210.516 62.2487 211.014 61.8634 211.377C61.5007 211.74 60.9907 211.921 60.3334 211.921C59.6761 211.921 59.1547 211.74 58.7694 211.377C58.3841 211.014 58.1914 210.516 58.1914 209.881V201.755C58.1914 200.463 57.9421 199.522 57.4434 198.933C56.9674 198.344 56.2081 198.049 55.1654 198.049C53.9414 198.049 52.9554 198.434 52.2074 199.205C51.4821 199.976 51.1194 201.007 51.1194 202.299V209.881C51.1194 210.516 50.9267 211.014 50.5414 211.377C50.1561 211.74 49.6347 211.921 48.9774 211.921C48.3201 211.921 47.7987 211.74 47.4134 211.377C47.0507 211.014 46.8694 210.516 46.8694 209.881V196.723C46.8694 196.134 47.0621 195.658 47.4474 195.295C47.8327 194.932 48.3541 194.751 49.0114 194.751C49.6007 194.751 50.0767 194.932 50.4394 195.295C50.8247 195.635 51.0174 196.088 51.0174 196.655V197.573C51.5841 196.644 52.3434 195.93 53.2954 195.431C54.2474 194.932 55.3241 194.683 56.5254 194.683Z" fill="#5B6073"/>
<path d="M69.3761 211.921C68.7641 211.921 68.2541 211.751 67.8461 211.411C67.4607 211.048 67.2681 210.538 67.2681 209.881V196.757C67.2681 196.1 67.4607 195.601 67.8461 195.261C68.2541 194.921 68.7641 194.751 69.3761 194.751C69.9881 194.751 70.4981 194.921 70.9061 195.261C71.3141 195.601 71.5181 196.1 71.5181 196.757V209.881C71.5181 210.538 71.3141 211.048 70.9061 211.411C70.4981 211.751 69.9881 211.921 69.3761 211.921ZM69.3761 191.725C68.6054 191.725 67.9934 191.521 67.5401 191.113C67.0867 190.682 66.8601 190.127 66.8601 189.447C66.8601 188.767 67.0867 188.223 67.5401 187.815C67.9934 187.407 68.6054 187.203 69.3761 187.203C70.1241 187.203 70.7247 187.407 71.1781 187.815C71.6541 188.223 71.8921 188.767 71.8921 189.447C71.8921 190.127 71.6654 190.682 71.2121 191.113C70.7587 191.521 70.1467 191.725 69.3761 191.725Z" fill="#5B6073"/>
<path d="M85.0469 208.759C86.1802 208.827 86.7469 209.337 86.7469 210.289C86.7469 210.833 86.5202 211.252 86.0669 211.547C85.6362 211.819 85.0129 211.932 84.1969 211.887L83.2789 211.819C79.4709 211.547 77.5669 209.507 77.5669 205.699V198.287H75.8669C75.2549 198.287 74.7789 198.151 74.4389 197.879C74.1215 197.607 73.9629 197.21 73.9629 196.689C73.9629 196.168 74.1215 195.771 74.4389 195.499C74.7789 195.227 75.2549 195.091 75.8669 195.091H77.5669V191.963C77.5669 191.351 77.7595 190.864 78.1449 190.501C78.5302 190.138 79.0515 189.957 79.7089 189.957C80.3435 189.957 80.8535 190.138 81.2389 190.501C81.6242 190.864 81.8169 191.351 81.8169 191.963V195.091H84.7069C85.3189 195.091 85.7835 195.227 86.1009 195.499C86.4409 195.771 86.6109 196.168 86.6109 196.689C86.6109 197.21 86.4409 197.607 86.1009 197.879C85.7835 198.151 85.3189 198.287 84.7069 198.287H81.8169V206.005C81.8169 207.682 82.5875 208.578 84.1289 208.691L85.0469 208.759Z" fill="#5B6073"/>
<path d="M97.0537 211.989C95.3537 211.989 93.8577 211.638 92.5657 210.935C91.2963 210.232 90.3103 209.224 89.6077 207.909C88.905 206.594 88.5537 205.064 88.5537 203.319C88.5537 201.574 88.905 200.055 89.6077 198.763C90.3103 197.448 91.2963 196.44 92.5657 195.737C93.8577 195.034 95.3537 194.683 97.0537 194.683C98.7537 194.683 100.238 195.034 101.508 195.737C102.8 196.44 103.786 197.448 104.466 198.763C105.168 200.055 105.52 201.574 105.52 203.319C105.52 205.064 105.168 206.594 104.466 207.909C103.786 209.224 102.8 210.232 101.508 210.935C100.238 211.638 98.7537 211.989 97.0537 211.989ZM97.0197 208.691C98.4023 208.691 99.4563 208.238 100.182 207.331C100.907 206.424 101.27 205.087 101.27 203.319C101.27 201.574 100.907 200.248 100.182 199.341C99.4563 198.412 98.4137 197.947 97.0537 197.947C95.6937 197.947 94.6397 198.412 93.8917 199.341C93.1663 200.248 92.8037 201.574 92.8037 203.319C92.8037 205.087 93.1663 206.424 93.8917 207.331C94.617 208.238 95.6597 208.691 97.0197 208.691Z" fill="#5B6073"/>
<path d="M121.387 211.921C120.775 211.921 120.265 211.751 119.857 211.411C119.471 211.048 119.279 210.538 119.279 209.881V196.757C119.279 196.1 119.471 195.601 119.857 195.261C120.265 194.921 120.775 194.751 121.387 194.751C121.999 194.751 122.509 194.921 122.917 195.261C123.325 195.601 123.529 196.1 123.529 196.757V209.881C123.529 210.538 123.325 211.048 122.917 211.411C122.509 211.751 121.999 211.921 121.387 211.921ZM121.387 191.725C120.616 191.725 120.004 191.521 119.551 191.113C119.097 190.682 118.871 190.127 118.871 189.447C118.871 188.767 119.097 188.223 119.551 187.815C120.004 187.407 120.616 187.203 121.387 187.203C122.135 187.203 122.735 187.407 123.189 187.815C123.665 188.223 123.903 188.767 123.903 189.447C123.903 190.127 123.676 190.682 123.223 191.113C122.769 191.521 122.157 191.725 121.387 191.725Z" fill="#5B6073"/>
<path d="M138.078 194.683C140.072 194.683 141.557 195.25 142.532 196.383C143.506 197.516 143.994 199.228 143.994 201.517V209.881C143.994 210.516 143.801 211.014 143.416 211.377C143.053 211.74 142.543 211.921 141.886 211.921C141.228 211.921 140.707 211.74 140.322 211.377C139.936 211.014 139.744 210.516 139.744 209.881V201.755C139.744 200.463 139.494 199.522 138.996 198.933C138.52 198.344 137.76 198.049 136.718 198.049C135.494 198.049 134.508 198.434 133.76 199.205C133.034 199.976 132.672 201.007 132.672 202.299V209.881C132.672 210.516 132.479 211.014 132.094 211.377C131.708 211.74 131.187 211.921 130.53 211.921C129.872 211.921 129.351 211.74 128.966 211.377C128.603 211.014 128.422 210.516 128.422 209.881V196.723C128.422 196.134 128.614 195.658 129 195.295C129.385 194.932 129.906 194.751 130.564 194.751C131.153 194.751 131.629 194.932 131.992 195.295C132.377 195.635 132.57 196.088 132.57 196.655V197.573C133.136 196.644 133.896 195.93 134.848 195.431C135.8 194.932 136.876 194.683 138.078 194.683Z" fill="#5B6073"/>
<path d="M173.691 199.341C175.073 199.726 176.139 200.429 176.887 201.449C177.657 202.469 178.043 203.716 178.043 205.189C178.043 207.229 177.306 208.827 175.833 209.983C174.382 211.139 172.376 211.717 169.815 211.717H161.043C160.385 211.717 159.864 211.536 159.479 211.173C159.116 210.81 158.935 210.3 158.935 209.643V189.821C158.935 189.164 159.116 188.654 159.479 188.291C159.864 187.928 160.385 187.747 161.043 187.747H169.475C171.968 187.747 173.917 188.302 175.323 189.413C176.751 190.501 177.465 192.031 177.465 194.003C177.465 195.272 177.125 196.372 176.445 197.301C175.787 198.23 174.869 198.91 173.691 199.341ZM163.219 197.845H168.761C171.775 197.845 173.283 196.723 173.283 194.479C173.283 193.346 172.909 192.507 172.161 191.963C171.413 191.419 170.279 191.147 168.761 191.147H163.219V197.845ZM169.339 208.317C170.925 208.317 172.081 208.034 172.807 207.467C173.532 206.9 173.895 206.016 173.895 204.815C173.895 203.614 173.521 202.718 172.773 202.129C172.047 201.54 170.903 201.245 169.339 201.245H163.219V208.317H169.339Z" fill="#5B6073"/>
<path d="M189.862 211.989C188.162 211.989 186.666 211.638 185.374 210.935C184.104 210.232 183.118 209.224 182.416 207.909C181.713 206.594 181.362 205.064 181.362 203.319C181.362 201.574 181.713 200.055 182.416 198.763C183.118 197.448 184.104 196.44 185.374 195.737C186.666 195.034 188.162 194.683 189.862 194.683C191.562 194.683 193.046 195.034 194.316 195.737C195.608 196.44 196.594 197.448 197.274 198.763C197.976 200.055 198.328 201.574 198.328 203.319C198.328 205.064 197.976 206.594 197.274 207.909C196.594 209.224 195.608 210.232 194.316 210.935C193.046 211.638 191.562 211.989 189.862 211.989ZM189.828 208.691C191.21 208.691 192.264 208.238 192.99 207.331C193.715 206.424 194.078 205.087 194.078 203.319C194.078 201.574 193.715 200.248 192.99 199.341C192.264 198.412 191.222 197.947 189.862 197.947C188.502 197.947 187.448 198.412 186.7 199.341C185.974 200.248 185.612 201.574 185.612 203.319C185.612 205.087 185.974 206.424 186.7 207.331C187.425 208.238 188.468 208.691 189.828 208.691Z" fill="#5B6073"/>
<path d="M204.454 211.921C203.842 211.921 203.332 211.751 202.924 211.411C202.539 211.048 202.346 210.538 202.346 209.881V189.583C202.346 188.926 202.539 188.427 202.924 188.087C203.332 187.747 203.842 187.577 204.454 187.577C205.066 187.577 205.576 187.747 205.984 188.087C206.392 188.427 206.596 188.926 206.596 189.583V209.881C206.596 210.538 206.392 211.048 205.984 211.411C205.576 211.751 205.066 211.921 204.454 211.921Z" fill="#5B6073"/>
<path d="M225.361 187.577C225.996 187.577 226.517 187.758 226.925 188.121C227.333 188.484 227.537 188.96 227.537 189.549V209.881C227.537 210.493 227.344 210.98 226.959 211.343C226.574 211.706 226.064 211.887 225.429 211.887C224.794 211.887 224.284 211.706 223.899 211.343C223.514 210.98 223.321 210.493 223.321 209.881V209.031C222.823 209.96 222.097 210.686 221.145 211.207C220.216 211.728 219.15 211.989 217.949 211.989C216.521 211.989 215.24 211.626 214.107 210.901C212.996 210.176 212.124 209.156 211.489 207.841C210.877 206.504 210.571 204.974 210.571 203.251C210.571 201.528 210.877 200.021 211.489 198.729C212.124 197.437 212.996 196.44 214.107 195.737C215.218 195.034 216.498 194.683 217.949 194.683C219.15 194.683 220.216 194.932 221.145 195.431C222.074 195.93 222.788 196.632 223.287 197.539V189.481C223.287 188.914 223.468 188.461 223.831 188.121C224.216 187.758 224.726 187.577 225.361 187.577ZM219.071 208.691C220.431 208.691 221.474 208.226 222.199 207.297C222.947 206.368 223.321 205.042 223.321 203.319C223.321 201.596 222.947 200.282 222.199 199.375C221.474 198.446 220.442 197.981 219.105 197.981C217.745 197.981 216.691 198.434 215.943 199.341C215.195 200.248 214.821 201.551 214.821 203.251C214.821 204.974 215.195 206.311 215.943 207.263C216.691 208.215 217.734 208.691 219.071 208.691Z" fill="#5B6073"/>
<path d="M0.249512 23.8806C0.861512 23.858 1.32618 23.79 1.64351 23.6766C1.96085 23.5406 2.21018 23.2686 2.39151 22.8606C2.57285 22.4526 2.66351 21.8066 2.66351 20.9226V7.90062C2.66351 6.63128 2.70885 5.61128 2.79951 4.84062L0.249512 4.94262V2.32462H10.0075V4.56862C9.39551 4.59128 8.93085 4.67062 8.61351 4.80662C8.29618 4.91995 8.04685 5.18062 7.86551 5.58862C7.68418 5.99662 7.59351 6.64262 7.59351 7.52662V20.5486C7.59351 21.7726 7.54818 22.77 7.45751 23.5406H12.0135C13.3735 23.518 14.4275 23.042 15.1755 22.1126C15.9235 21.1606 16.2975 19.778 16.2975 17.9646H18.5755L18.3715 26.1246H0.249512V23.8806Z" fill="#C7876B"/>
<path d="M29.303 26.6686C27.6484 26.6686 26.1637 26.3173 24.849 25.6146C23.5344 24.912 22.503 23.9033 21.755 22.5886C21.007 21.274 20.633 19.744 20.633 17.9986C20.633 16.1626 21.0184 14.5306 21.789 13.1026C22.5597 11.6746 23.591 10.5639 24.883 9.77062C26.1977 8.97728 27.637 8.58062 29.201 8.58062C30.833 8.58062 32.295 8.93195 33.587 9.63462C34.879 10.3373 35.899 11.3573 36.647 12.6946C37.395 14.0093 37.769 15.5506 37.769 17.3186C37.769 19.2 37.4064 20.8433 36.681 22.2486C35.9784 23.654 34.981 24.742 33.689 25.5126C32.4197 26.2833 30.9577 26.6686 29.303 26.6686ZM29.371 24.2546C30.6177 24.2546 31.4904 23.6766 31.989 22.5206C32.4877 21.3646 32.737 19.914 32.737 18.1686C32.737 16.2193 32.4537 14.5306 31.887 13.1026C31.3204 11.6746 30.425 10.9606 29.201 10.9606C27.9544 10.9606 27.0477 11.55 26.481 12.7286C25.9144 13.9073 25.631 15.3579 25.631 17.0806C25.631 19.0526 25.937 20.7413 26.549 22.1466C27.161 23.552 28.1017 24.2546 29.371 24.2546Z" fill="#C7876B"/>
<path d="M40.7409 23.9146C41.6022 23.9146 42.1462 23.6766 42.3729 23.2006C42.6222 22.7246 42.7469 21.954 42.7469 20.8886V15.1766C42.7469 14.1566 42.7922 13.1933 42.8829 12.2866L40.5029 12.3886V9.80462C41.9309 9.80462 43.0869 9.70262 43.9709 9.49862C44.8549 9.29462 45.4442 9.05662 45.7389 8.78462H47.4049C47.4502 9.12462 47.4842 9.56662 47.5069 10.1106C47.5295 10.6546 47.5409 11.1873 47.5409 11.7086H47.6089C49.1502 9.62328 50.7822 8.58062 52.5049 8.58062C53.3662 8.58062 54.0689 8.81862 54.6129 9.29462C55.1795 9.77062 55.4629 10.4733 55.4629 11.4026C55.4629 11.992 55.2702 12.536 54.8849 13.0346C54.4995 13.5333 53.9215 13.7826 53.1509 13.7826C52.5842 13.7826 52.0742 13.6353 51.6209 13.3406C51.1902 13.046 50.9409 12.5359 50.8729 11.8106C50.2382 11.8106 49.5809 12.1846 48.9009 12.9326C48.2435 13.6579 47.8015 14.3833 47.5749 15.1086V20.6506C47.5749 21.7386 47.5295 22.7359 47.4389 23.6426C48.1642 23.5746 48.9009 23.5406 49.6489 23.5406V26.1246H40.7409V23.9146Z" fill="#C7876B"/>
<path d="M61.6708 26.6686C60.2428 26.6686 59.1094 26.2493 58.2708 25.4106C57.4548 24.5493 57.0468 23.4613 57.0468 22.1466C57.0468 20.152 57.9761 18.6446 59.8348 17.6246C61.6934 16.582 63.9261 16.004 66.5328 15.8906V14.1226C66.5328 12.0599 65.7621 11.0286 64.2208 11.0286C63.2234 11.0286 62.4074 11.3459 61.7728 11.9806C62.0448 12.2979 62.1808 12.7286 62.1808 13.2726C62.1808 13.8166 61.9881 14.304 61.6028 14.7346C61.2401 15.1653 60.6961 15.3806 59.9708 15.3806C59.2908 15.3806 58.7581 15.1653 58.3728 14.7346C57.9874 14.2813 57.7948 13.726 57.7948 13.0686C57.7948 12.1846 58.1121 11.4026 58.7468 10.7226C59.3814 10.0426 60.2428 9.52128 61.3308 9.15862C62.4414 8.77328 63.6541 8.58062 64.9688 8.58062C69.1621 8.58062 71.2588 10.7453 71.2588 15.0746L71.2248 20.6506C71.2248 21.7386 71.1795 22.7359 71.0888 23.6426C71.8368 23.5746 72.5734 23.5406 73.2988 23.5406V26.1246H66.8728C66.8274 25.83 66.7821 25.3086 66.7368 24.5606H66.7028C65.3201 25.966 63.6428 26.6686 61.6708 26.6686ZM63.8128 23.3366C64.8328 23.3366 65.7281 22.9286 66.4988 22.1126V18.3046C65.1614 18.4406 64.0508 18.7806 63.1668 19.3246C62.3054 19.8686 61.8748 20.6053 61.8748 21.5346C61.8748 22.1466 62.0561 22.6 62.4188 22.8946C62.8041 23.1893 63.2688 23.3366 63.8128 23.3366Z" fill="#C7876B"/>
<path d="M89.9965 5.75862C89.2258 5.75862 88.5912 5.49795 88.0925 4.97662C87.5938 4.43262 87.3445 3.77528 87.3445 3.00462C87.3445 2.23395 87.6052 1.57662 88.1265 1.03262C88.6478 0.46595 89.2598 0.182617 89.9625 0.182617C90.6878 0.182617 91.2885 0.454617 91.7645 0.998617C92.2632 1.54262 92.5125 2.21128 92.5125 3.00462C92.5125 3.79795 92.2745 4.45528 91.7985 4.97662C91.3452 5.49795 90.7445 5.75862 89.9965 5.75862ZM85.2025 23.9146C86.0638 23.9146 86.6078 23.6766 86.8345 23.2006C87.0838 22.7246 87.2085 21.954 87.2085 20.8886V15.2446C87.2085 14.1793 87.2538 13.1933 87.3445 12.2866L84.9645 12.3886V9.80462C86.3925 9.80462 87.5485 9.70262 88.4325 9.49862C89.3165 9.29462 89.9058 9.05662 90.2005 8.78462H92.0365V20.6506C92.0365 21.7386 91.9912 22.7359 91.9005 23.6426C92.6258 23.5746 93.3625 23.5406 94.1105 23.5406V26.1246H85.2025V23.9146Z" fill="#C7876B"/>
<path d="M96.8355 23.9146C97.6969 23.9146 98.2409 23.6766 98.4675 23.2006C98.7169 22.7246 98.8415 21.954 98.8415 20.8886V15.1766C98.8415 14.1566 98.8869 13.1933 98.9775 12.2866L96.5975 12.3886V9.80462C98.0255 9.80462 99.1815 9.70262 100.066 9.49862C100.95 9.29462 101.539 9.05662 101.834 8.78462H103.5C103.5 8.82995 103.545 9.39662 103.636 10.4846H103.704C104.361 9.96328 105.166 9.52128 106.118 9.15862C107.092 8.77328 107.92 8.58062 108.6 8.58062C110.662 8.58062 112.136 9.16995 113.02 10.3486C113.904 11.5273 114.346 13.4426 114.346 16.0946V20.6506C114.346 21.7386 114.3 22.7359 114.21 23.6426C114.958 23.5746 115.694 23.5406 116.42 23.5406V26.1246H107.512V23.9146C108.373 23.9146 108.928 23.6766 109.178 23.2006C109.427 22.7246 109.552 21.954 109.552 20.8886L109.518 16.0606C109.518 14.5646 109.302 13.4653 108.872 12.7626C108.464 12.06 107.761 11.7086 106.764 11.7086C106.22 11.7086 105.664 11.8333 105.098 12.0826C104.531 12.3093 104.055 12.6039 103.67 12.9666V20.6506C103.67 21.7386 103.624 22.7359 103.534 23.6426C104.259 23.5746 104.996 23.5406 105.744 23.5406V26.1246H96.8355V23.9146Z" fill="#C7876B"/>
<path d="M128.708 23.8806C129.32 23.858 129.785 23.79 130.102 23.6766C130.42 23.5406 130.669 23.2686 130.85 22.8606C131.032 22.4526 131.122 21.8066 131.122 20.9226V7.90062C131.122 6.63128 131.168 5.61128 131.258 4.84062L128.708 4.94262V2.32462L138.126 2.25662C140.846 2.23395 142.977 2.72128 144.518 3.71862C146.06 4.71595 146.83 6.17795 146.83 8.10462C146.83 9.21528 146.411 10.2466 145.572 11.1986C144.756 12.1279 143.544 12.808 141.934 13.2386V13.2726C144.11 13.6126 145.754 14.338 146.864 15.4486C147.975 16.5593 148.53 17.8626 148.53 19.3586C148.53 21.5119 147.76 23.178 146.218 24.3566C144.7 25.5353 142.716 26.1246 140.268 26.1246H128.708V23.8806ZM137.82 12.7286C139.158 12.706 140.121 12.2866 140.71 11.4706C141.322 10.6319 141.628 9.53262 141.628 8.17262C141.628 6.94862 141.288 6.05328 140.608 5.48662C139.928 4.91995 139.101 4.63662 138.126 4.63662C137.65 4.63662 137.265 4.69328 136.97 4.80662C136.698 4.91995 136.472 5.19195 136.29 5.62262C136.132 6.03062 136.052 6.65395 136.052 7.49262V12.7626L137.82 12.7286ZM135.916 23.7106C137.412 23.7106 138.512 23.6993 139.214 23.6766C140.552 23.6086 141.549 23.1893 142.206 22.4186C142.864 21.6253 143.192 20.5713 143.192 19.2566C143.192 17.806 142.773 16.7633 141.934 16.1286C141.096 15.4713 140.053 15.1426 138.806 15.1426C137.56 15.1426 136.642 15.1539 136.052 15.1766V20.7186C136.052 21.9426 136.007 22.94 135.916 23.7106Z" fill="#C7876B"/>
<path d="M159.721 26.6686C158.066 26.6686 156.582 26.3173 155.267 25.6146C153.952 24.912 152.921 23.9033 152.173 22.5886C151.425 21.274 151.051 19.744 151.051 17.9986C151.051 16.1626 151.436 14.5306 152.207 13.1026C152.978 11.6746 154.009 10.5639 155.301 9.77062C156.616 8.97728 158.055 8.58062 159.619 8.58062C161.251 8.58062 162.713 8.93195 164.005 9.63462C165.297 10.3373 166.317 11.3573 167.065 12.6946C167.813 14.0093 168.187 15.5506 168.187 17.3186C168.187 19.2 167.824 20.8433 167.099 22.2486C166.396 23.654 165.399 24.742 164.107 25.5126C162.838 26.2833 161.376 26.6686 159.721 26.6686ZM159.789 24.2546C161.036 24.2546 161.908 23.6766 162.407 22.5206C162.906 21.3646 163.155 19.914 163.155 18.1686C163.155 16.2193 162.872 14.5306 162.305 13.1026C161.738 11.6746 160.843 10.9606 159.619 10.9606C158.372 10.9606 157.466 11.55 156.899 12.7286C156.332 13.9073 156.049 15.3579 156.049 17.0806C156.049 19.0526 156.355 20.7413 156.967 22.1466C157.579 23.552 158.52 24.2546 159.789 24.2546Z" fill="#C7876B"/>
<path d="M170.482 23.9146C171.094 23.9146 171.536 23.8013 171.808 23.5746C172.103 23.3253 172.284 22.9966 172.352 22.5886C172.443 22.1806 172.488 21.614 172.488 20.8886V6.91462C172.488 5.82662 172.533 4.84062 172.624 3.95662L170.244 4.05862V1.47462C171.672 1.47462 172.828 1.37262 173.712 1.16862C174.596 0.964616 175.185 0.726616 175.48 0.454616H177.316V20.6506C177.316 21.7386 177.271 22.7359 177.18 23.6426C177.928 23.5746 178.665 23.5406 179.39 23.5406V26.1246H170.482V23.9146Z" fill="#C7876B"/>
<path d="M188.69 26.6686C187.33 26.6686 186.128 26.3173 185.086 25.6146C184.066 24.912 183.261 23.9146 182.672 22.6226C182.105 21.3079 181.822 19.7893 181.822 18.0666C181.822 16.2533 182.173 14.6326 182.876 13.2046C183.578 11.754 184.564 10.6206 185.834 9.80462C187.126 8.98862 188.599 8.58062 190.254 8.58062C191.138 8.58062 192.146 8.78462 193.28 9.19262V6.94862C193.28 5.86062 193.325 4.86328 193.416 3.95662C192.668 4.02462 191.863 4.05862 191.002 4.05862V1.47462C192.43 1.47462 193.586 1.37262 194.47 1.16862C195.354 0.964616 195.943 0.726616 196.238 0.454616H198.074V20.6506C198.074 21.7386 198.028 22.7359 197.938 23.6426C198.686 23.5746 199.422 23.5406 200.148 23.5406V26.1246H193.688L193.518 24.5606H193.484C192.146 25.966 190.548 26.6686 188.69 26.6686ZM190.458 23.5746C191.024 23.5746 191.557 23.4273 192.056 23.1326C192.554 22.838 192.962 22.4413 193.28 21.9426V11.7426C193.03 11.5613 192.679 11.4139 192.226 11.3006C191.772 11.1646 191.319 11.0966 190.866 11.0966C189.415 11.1193 188.372 11.7426 187.738 12.9666C187.126 14.1906 186.82 15.7206 186.82 17.5566C186.82 19.1886 187.114 20.6053 187.704 21.8066C188.316 22.9853 189.234 23.5746 190.458 23.5746Z" fill="#C7876B"/>
</svg>
