<svg width="79" height="79" viewBox="0 0 79 79" fill="none" xmlns="http://www.w3.org/2000/svg">
<g clip-path="url(#clip0)">
<path d="M39.98 1.87646C19.3209 1.87646 2.51465 18.6827 2.51465 39.34C2.51465 59.9991 19.3227 76.8054 39.98 76.8054C60.6373 76.8054 77.4454 59.9991 77.4454 39.3418C77.4454 18.6827 60.6391 1.87646 39.98 1.87646ZM39.98 72.6696C26.4878 72.6696 14.8495 64.6047 9.61083 53.0462C12.8306 52.2934 15.9488 45.7759 14.7225 42.9189C13.148 39.2566 14.2255 33.4791 18.0167 28.6522C20.783 25.1313 15.8599 21.5161 12.992 19.8165C17.8607 13.1103 25.1582 8.27972 33.5877 6.63446C32.492 9.71999 31.3801 15.0077 35.944 16.3627C42.4942 18.3072 42.9023 12.791 45.6305 21.4109C46.8023 25.1114 42.0098 27.475 41.0321 31.7541C39.7333 37.4408 42.3889 44.4699 47.6675 42.6142C56.9768 39.34 63.8734 41.0633 72.4933 42.4419C72.7309 42.48 72.945 42.509 73.1518 42.5344C71.5373 59.4187 57.2797 72.6696 39.98 72.6696Z" fill="#153536"/>
<path d="M46.9763 53.899C39.0475 47.7152 33.5313 43.2565 32.617 50.7155C32.345 52.9521 29.4281 51.6098 26.9811 52.5585C24.2275 53.6251 22.0308 56.9246 24.2221 58.5663C28.3579 61.6663 28.2581 66.7055 32.617 67.8664C36.9778 69.0291 43.1851 72.0748 43.1851 63.0213C43.187 59.7272 54.9087 60.0864 46.9763 53.899Z" fill="#153536"/>
</g>
<defs>
<clipPath id="clip0">
<rect width="113.043" height="113.043" fill="white" transform="translate(0.97998 0.341919) scale(0.69)"/>
</clipPath>
</defs>
</svg>
